<?xml version="1.0"?>
<svg xmlns="http://www.w3.org/2000/svg" xmlns:xlink="http://www.w3.org/1999/xlink" viewBox="0 0 201.800000 168.000000" width="100.900000mm" height="84.000000mm" version="1.1">
<defs>
   <filter id="filter" filterRes="18" x="0" y="0">
     <feGaussianBlur in="SourceGraphic" stdDeviation="1.55" result="blur"/>
     <feOffset in="blur" dx="3" dy="3"/>
   </filter>
</defs>
<a xlink:href="fdelay1a-0x56137d166640.svg">
<rect x="1.000000" y="1.000000" width="200.800000" height="167.000000" rx="0.1" ry="0.1" style="stroke:none;fill:#aaaaaa;;filter:url(#filter);"/>
<rect x="0.000000" y="0.000000" width="200.800000" height="167.000000" rx="0" ry="0" style="stroke:none;fill:#ffffff;"/>
</a>
<text x="10.000000" y="7.000000" font-family="Arial" font-size="7"></text>
<rect x="65.900000" y="25.000000" width="24.000000" height="24.000000" rx="0.1" ry="0.1" style="stroke:none;fill:#aaaaaa;;filter:url(#filter);"/>
<rect x="64.900000" y="24.000000" width="24.000000" height="24.000000" rx="0" ry="0" style="stroke:none;fill:#47945E;"/>
<text x="76.900000" y="38.000000" font-family="Arial" font-size="7" text-anchor="middle" fill="#FFFFFF">x</text>
<circle cx="66.900000" cy="26.000000" r="1"/>
<a xlink:href="id-0x56137d15ca90.svg">
<rect x="29.900000" y="57.000000" width="24.000000" height="24.000000" rx="0.1" ry="0.1" style="stroke:none;fill:#aaaaaa;;filter:url(#filter);"/>
<rect x="28.900000" y="56.000000" width="24.000000" height="24.000000" rx="0" ry="0" style="stroke:none;fill:#003366;"/>
</a>
<a xlink:href="id-0x56137d15ca90.svg">
<text x="40.900000" y="70.000000" font-family="Arial" font-size="7" text-anchor="middle" fill="#FFFFFF">id</text>
</a>
<circle cx="30.900000" cy="58.000000" r="1"/>
<rect x="61.900000" y="57.000000" width="24.000000" height="24.000000" rx="0.1" ry="0.1" style="stroke:none;fill:#aaaaaa;;filter:url(#filter);"/>
<rect x="60.900000" y="56.000000" width="24.000000" height="24.000000" rx="0" ry="0" style="stroke:none;fill:#4B71A1;"/>
<text x="72.900000" y="70.000000" font-family="Arial" font-size="7" text-anchor="middle" fill="#FFFFFF">int</text>
<circle cx="62.900000" cy="58.000000" r="1"/>
<line x1="57.900000" y1="67.000000" x2="60.900000" y2="68.000000"  transform="rotate(0.000000,60.900000,68.000000)" style="stroke: black; stroke-width:0.25;"/>
<line x1="57.900000" y1="69.000000" x2="60.900000" y2="68.000000"  transform="rotate(0.000000,60.900000,68.000000)" style="stroke: black; stroke-width:0.25;"/>
<rect x="25.000000" y="89.000000" width="25.800000" height="24.000000" rx="0.1" ry="0.1" style="stroke:none;fill:#aaaaaa;;filter:url(#filter);"/>
<rect x="24.000000" y="88.000000" width="25.800000" height="24.000000" rx="0" ry="0" style="stroke:none;fill:#f44800;"/>
<text x="36.900000" y="102.000000" font-family="Arial" font-size="7" text-anchor="middle" fill="#FFFFFF">8192</text>
<circle cx="26.000000" cy="90.000000" r="1"/>
<rect x="25.900000" y="121.000000" width="24.000000" height="24.000000" rx="0.1" ry="0.1" style="stroke:none;fill:#aaaaaa;;filter:url(#filter);"/>
<rect x="24.900000" y="120.000000" width="24.000000" height="24.000000" rx="0" ry="0" style="stroke:none;fill:#f44800;"/>
<text x="36.900000" y="134.000000" font-family="Arial" font-size="7" text-anchor="middle" fill="#FFFFFF">1</text>
<circle cx="26.900000" cy="122.000000" r="1"/>
<rect x="66.800000" y="105.000000" width="24.000000" height="24.000000" rx="0.1" ry="0.1" style="stroke:none;fill:#aaaaaa;;filter:url(#filter);"/>
<rect x="65.800000" y="104.000000" width="24.000000" height="24.000000" rx="0" ry="0" style="stroke:none;fill:#4B71A1;"/>
<text x="77.800000" y="118.000000" font-family="Arial" font-size="7" text-anchor="middle" fill="#FFFFFF">-</text>
<circle cx="67.800000" cy="106.000000" r="1"/>
<line x1="62.800000" y1="111.000000" x2="65.800000" y2="112.000000"  transform="rotate(0.000000,65.800000,112.000000)" style="stroke: black; stroke-width:0.25;"/>
<line x1="62.800000" y1="113.000000" x2="65.800000" y2="112.000000"  transform="rotate(0.000000,65.800000,112.000000)" style="stroke: black; stroke-width:0.25;"/>
<line x1="62.800000" y1="119.000000" x2="65.800000" y2="120.000000"  transform="rotate(0.000000,65.800000,120.000000)" style="stroke: black; stroke-width:0.25;"/>
<line x1="62.800000" y1="121.000000" x2="65.800000" y2="120.000000"  transform="rotate(0.000000,65.800000,120.000000)" style="stroke: black; stroke-width:0.25;"/>
<rect x="106.800000" y="89.000000" width="24.000000" height="24.000000" rx="0.1" ry="0.1" style="stroke:none;fill:#aaaaaa;;filter:url(#filter);"/>
<rect x="105.800000" y="88.000000" width="24.000000" height="24.000000" rx="0" ry="0" style="stroke:none;fill:#4B71A1;"/>
<text x="117.800000" y="102.000000" font-family="Arial" font-size="7" text-anchor="middle" fill="#FFFFFF">&amp;</text>
<circle cx="107.800000" cy="90.000000" r="1"/>
<line x1="102.800000" y1="95.000000" x2="105.800000" y2="96.000000"  transform="rotate(0.000000,105.800000,96.000000)" style="stroke: black; stroke-width:0.25;"/>
<line x1="102.800000" y1="97.000000" x2="105.800000" y2="96.000000"  transform="rotate(0.000000,105.800000,96.000000)" style="stroke: black; stroke-width:0.25;"/>
<line x1="102.800000" y1="103.000000" x2="105.800000" y2="104.000000"  transform="rotate(0.000000,105.800000,104.000000)" style="stroke: black; stroke-width:0.25;"/>
<line x1="102.800000" y1="105.000000" x2="105.800000" y2="104.000000"  transform="rotate(0.000000,105.800000,104.000000)" style="stroke: black; stroke-width:0.25;"/>
<rect x="146.800000" y="73.000000" width="24.000000" height="24.000000" rx="0.1" ry="0.1" style="stroke:none;fill:#aaaaaa;;filter:url(#filter);"/>
<rect x="145.800000" y="72.000000" width="24.000000" height="24.000000" rx="0" ry="0" style="stroke:none;fill:#4B71A1;"/>
<text x="157.800000" y="86.000000" font-family="Arial" font-size="7" text-anchor="middle" fill="#FFFFFF">@</text>
<circle cx="147.800000" cy="74.000000" r="1"/>
<line x1="142.800000" y1="79.000000" x2="145.800000" y2="80.000000"  transform="rotate(0.000000,145.800000,80.000000)" style="stroke: black; stroke-width:0.25;"/>
<line x1="142.800000" y1="81.000000" x2="145.800000" y2="80.000000"  transform="rotate(0.000000,145.800000,80.000000)" style="stroke: black; stroke-width:0.25;"/>
<line x1="142.800000" y1="87.000000" x2="145.800000" y2="88.000000"  transform="rotate(0.000000,145.800000,88.000000)" style="stroke: black; stroke-width:0.25;"/>
<line x1="142.800000" y1="89.000000" x2="145.800000" y2="88.000000"  transform="rotate(0.000000,145.800000,88.000000)" style="stroke: black; stroke-width:0.25;"/>
<line x1="15.000000" y1="15.000000" x2="15.000000" y2="153.000000"  style="stroke: black; stroke-linecap:round; stroke-width:0.25; stroke-dasharray:3,3;"/>
<line x1="15.000000" y1="153.000000" x2="186.800000" y2="153.000000"  style="stroke: black; stroke-linecap:round; stroke-width:0.25; stroke-dasharray:3,3;"/>
<line x1="186.800000" y1="153.000000" x2="186.800000" y2="15.000000"  style="stroke: black; stroke-linecap:round; stroke-width:0.25; stroke-dasharray:3,3;"/>
<line x1="15.000000" y1="15.000000" x2="20.000000" y2="15.000000"  style="stroke: black; stroke-linecap:round; stroke-width:0.25; stroke-dasharray:3,3;"/>
<line x1="136.100000" y1="15.000000" x2="186.800000" y2="15.000000"  style="stroke: black; stroke-linecap:round; stroke-width:0.25; stroke-dasharray:3,3;"/>
<text x="20.000000" y="17.000000" font-family="Arial" font-size="7">delay(8192)((...9f : - : int)(x21)</text>
<line x1="188.800000" y1="83.000000" x2="191.800000" y2="84.000000"  transform="rotate(0.000000,191.800000,84.000000)" style="stroke: black; stroke-width:0.25;"/>
<line x1="188.800000" y1="85.000000" x2="191.800000" y2="84.000000"  transform="rotate(0.000000,191.800000,84.000000)" style="stroke: black; stroke-width:0.25;"/>
<line x1="48.900000" y1="132.000000" x2="52.900000" y2="132.000000"  style="stroke:black; stroke-linecap:round; stroke-width:0.25;"/>
<line x1="49.800000" y1="100.000000" x2="53.800000" y2="100.000000"  style="stroke:black; stroke-linecap:round; stroke-width:0.25;"/>
<line x1="52.900000" y1="68.000000" x2="56.900000" y2="68.000000"  style="stroke:black; stroke-linecap:round; stroke-width:0.25;"/>
<line x1="52.900000" y1="132.000000" x2="53.800000" y2="132.000000"  style="stroke:black; stroke-linecap:round; stroke-width:0.25;"/>
<line x1="53.800000" y1="100.000000" x2="61.800000" y2="100.000000"  style="stroke:black; stroke-linecap:round; stroke-width:0.25;"/>
<line x1="53.800000" y1="120.000000" x2="61.800000" y2="120.000000"  style="stroke:black; stroke-linecap:round; stroke-width:0.25;"/>
<line x1="53.800000" y1="132.000000" x2="53.800000" y2="120.000000"  style="stroke:black; stroke-linecap:round; stroke-width:0.25;"/>
<line x1="53.800000" y1="132.000000" x2="53.800000" y2="132.000000"  style="stroke:black; stroke-linecap:round; stroke-width:0.25;"/>
<line x1="56.900000" y1="68.000000" x2="56.900000" y2="68.000000"  style="stroke:black; stroke-linecap:round; stroke-width:0.25;"/>
<line x1="56.900000" y1="68.000000" x2="60.900000" y2="68.000000"  style="stroke:black; stroke-linecap:round; stroke-width:0.25;"/>
<line x1="61.800000" y1="100.000000" x2="61.800000" y2="112.000000"  style="stroke:black; stroke-linecap:round; stroke-width:0.25;"/>
<line x1="61.800000" y1="112.000000" x2="61.800000" y2="112.000000"  style="stroke:black; stroke-linecap:round; stroke-width:0.25;"/>
<line x1="61.800000" y1="112.000000" x2="65.800000" y2="112.000000"  style="stroke:black; stroke-linecap:round; stroke-width:0.25;"/>
<line x1="61.800000" y1="120.000000" x2="65.800000" y2="120.000000"  style="stroke:black; stroke-linecap:round; stroke-width:0.25;"/>
<line x1="84.900000" y1="68.000000" x2="88.900000" y2="68.000000"  style="stroke:black; stroke-linecap:round; stroke-width:0.25;"/>
<line x1="88.900000" y1="36.000000" x2="92.900000" y2="36.000000"  style="stroke:black; stroke-linecap:round; stroke-width:0.25;"/>
<line x1="88.900000" y1="68.000000" x2="93.800000" y2="68.000000"  style="stroke:black; stroke-linecap:round; stroke-width:0.25;"/>
<line x1="89.800000" y1="116.000000" x2="93.800000" y2="116.000000"  style="stroke:black; stroke-linecap:round; stroke-width:0.25;"/>
<line x1="92.900000" y1="36.000000" x2="133.800000" y2="36.000000"  style="stroke:black; stroke-linecap:round; stroke-width:0.25;"/>
<line x1="93.800000" y1="104.000000" x2="101.800000" y2="104.000000"  style="stroke:black; stroke-linecap:round; stroke-width:0.25;"/>
<line x1="93.800000" y1="116.000000" x2="93.800000" y2="104.000000"  style="stroke:black; stroke-linecap:round; stroke-width:0.25;"/>
<line x1="93.800000" y1="116.000000" x2="93.800000" y2="116.000000"  style="stroke:black; stroke-linecap:round; stroke-width:0.25;"/>
<line x1="93.800000" y1="68.000000" x2="101.800000" y2="68.000000"  style="stroke:black; stroke-linecap:round; stroke-width:0.25;"/>
<line x1="101.800000" y1="96.000000" x2="105.800000" y2="96.000000"  style="stroke:black; stroke-linecap:round; stroke-width:0.25;"/>
<line x1="101.800000" y1="104.000000" x2="105.800000" y2="104.000000"  style="stroke:black; stroke-linecap:round; stroke-width:0.25;"/>
<line x1="101.800000" y1="68.000000" x2="101.800000" y2="96.000000"  style="stroke:black; stroke-linecap:round; stroke-width:0.25;"/>
<line x1="101.800000" y1="96.000000" x2="101.800000" y2="96.000000"  style="stroke:black; stroke-linecap:round; stroke-width:0.25;"/>
<line x1="129.800000" y1="100.000000" x2="133.800000" y2="100.000000"  style="stroke:black; stroke-linecap:round; stroke-width:0.25;"/>
<line x1="133.800000" y1="36.000000" x2="141.800000" y2="36.000000"  style="stroke:black; stroke-linecap:round; stroke-width:0.25;"/>
<line x1="133.800000" y1="88.000000" x2="141.800000" y2="88.000000"  style="stroke:black; stroke-linecap:round; stroke-width:0.25;"/>
<line x1="133.800000" y1="100.000000" x2="133.800000" y2="88.000000"  style="stroke:black; stroke-linecap:round; stroke-width:0.25;"/>
<line x1="133.800000" y1="100.000000" x2="133.800000" y2="100.000000"  style="stroke:black; stroke-linecap:round; stroke-width:0.25;"/>
<line x1="141.800000" y1="36.000000" x2="141.800000" y2="80.000000"  style="stroke:black; stroke-linecap:round; stroke-width:0.25;"/>
<line x1="141.800000" y1="80.000000" x2="141.800000" y2="80.000000"  style="stroke:black; stroke-linecap:round; stroke-width:0.25;"/>
<line x1="141.800000" y1="80.000000" x2="145.800000" y2="80.000000"  style="stroke:black; stroke-linecap:round; stroke-width:0.25;"/>
<line x1="141.800000" y1="88.000000" x2="145.800000" y2="88.000000"  style="stroke:black; stroke-linecap:round; stroke-width:0.25;"/>
<line x1="169.800000" y1="84.000000" x2="173.800000" y2="84.000000"  style="stroke:black; stroke-linecap:round; stroke-width:0.25;"/>
<line x1="173.800000" y1="84.000000" x2="173.800000" y2="84.000000"  style="stroke:black; stroke-linecap:round; stroke-width:0.25;"/>
<line x1="173.800000" y1="84.000000" x2="177.800000" y2="84.000000"  style="stroke:black; stroke-linecap:round; stroke-width:0.25;"/>
<line x1="177.800000" y1="84.000000" x2="181.800000" y2="84.000000"  style="stroke:black; stroke-linecap:round; stroke-width:0.25;"/>
<line x1="181.800000" y1="84.000000" x2="191.800000" y2="84.000000"  style="stroke:black; stroke-linecap:round; stroke-width:0.25;"/>
</svg>
