<?xml version="1.0"?>
<svg xmlns="http://www.w3.org/2000/svg" xmlns:xlink="http://www.w3.org/1999/xlink" viewBox="0 0 362.000000 168.000000" width="181.000000mm" height="84.000000mm" version="1.1">
<defs>
   <filter id="filter" filterRes="18" x="0" y="0">
     <feGaussianBlur in="SourceGraphic" stdDeviation="1.55" result="blur"/>
     <feOffset in="blur" dx="3" dy="3"/>
   </filter>
</defs>
<a xlink:href="dmo-0x56137d2d2610.svg">
<rect x="1.000000" y="1.000000" width="361.000000" height="167.000000" rx="0.1" ry="0.1" style="stroke:none;fill:#aaaaaa;;filter:url(#filter);"/>
<rect x="0.000000" y="0.000000" width="361.000000" height="167.000000" rx="0" ry="0" style="stroke:none;fill:#ffffff;"/>
</a>
<text x="10.000000" y="7.000000" font-family="Arial" font-size="7"></text>
<a xlink:href="SR-0x56137cb45a30.svg">
<rect x="69.750000" y="25.000000" width="24.000000" height="24.000000" rx="0.1" ry="0.1" style="stroke:none;fill:#aaaaaa;;filter:url(#filter);"/>
<rect x="68.750000" y="24.000000" width="24.000000" height="24.000000" rx="0" ry="0" style="stroke:none;fill:#003366;"/>
</a>
<a xlink:href="SR-0x56137cb45a30.svg">
<text x="80.750000" y="38.000000" font-family="Arial" font-size="7" text-anchor="middle" fill="#FFFFFF">SR</text>
</a>
<circle cx="70.750000" cy="26.000000" r="1"/>
<rect x="68.850000" y="57.000000" width="25.800000" height="24.000000" rx="0.1" ry="0.1" style="stroke:none;fill:#aaaaaa;;filter:url(#filter);"/>
<rect x="67.850000" y="56.000000" width="25.800000" height="24.000000" rx="0" ry="0" style="stroke:none;fill:#f44800;"/>
<text x="80.750000" y="70.000000" font-family="Arial" font-size="7" text-anchor="middle" fill="#FFFFFF">44100</text>
<circle cx="69.850000" cy="58.000000" r="1"/>
<rect x="110.650000" y="41.000000" width="24.000000" height="24.000000" rx="0.1" ry="0.1" style="stroke:none;fill:#aaaaaa;;filter:url(#filter);"/>
<rect x="109.650000" y="40.000000" width="24.000000" height="24.000000" rx="0" ry="0" style="stroke:none;fill:#4B71A1;"/>
<text x="121.650000" y="54.000000" font-family="Arial" font-size="7" text-anchor="middle" fill="#FFFFFF">/</text>
<circle cx="111.650000" cy="42.000000" r="1"/>
<line x1="106.650000" y1="47.000000" x2="109.650000" y2="48.000000"  transform="rotate(0.000000,109.650000,48.000000)" style="stroke: black; stroke-width:0.25;"/>
<line x1="106.650000" y1="49.000000" x2="109.650000" y2="48.000000"  transform="rotate(0.000000,109.650000,48.000000)" style="stroke: black; stroke-width:0.25;"/>
<line x1="106.650000" y1="55.000000" x2="109.650000" y2="56.000000"  transform="rotate(0.000000,109.650000,56.000000)" style="stroke: black; stroke-width:0.25;"/>
<line x1="106.650000" y1="57.000000" x2="109.650000" y2="56.000000"  transform="rotate(0.000000,109.650000,56.000000)" style="stroke: black; stroke-width:0.25;"/>
<rect x="89.750000" y="89.000000" width="24.000000" height="24.000000" rx="0.1" ry="0.1" style="stroke:none;fill:#aaaaaa;;filter:url(#filter);"/>
<rect x="88.750000" y="88.000000" width="24.000000" height="24.000000" rx="0" ry="0" style="stroke:none;fill:#f44800;"/>
<text x="100.750000" y="102.000000" font-family="Arial" font-size="7" text-anchor="middle" fill="#FFFFFF">50</text>
<circle cx="90.750000" cy="90.000000" r="1"/>
<rect x="150.650000" y="57.000000" width="24.000000" height="24.000000" rx="0.1" ry="0.1" style="stroke:none;fill:#aaaaaa;;filter:url(#filter);"/>
<rect x="149.650000" y="56.000000" width="24.000000" height="24.000000" rx="0" ry="0" style="stroke:none;fill:#4B71A1;"/>
<text x="161.650000" y="70.000000" font-family="Arial" font-size="7" text-anchor="middle" fill="#FFFFFF">*</text>
<circle cx="151.650000" cy="58.000000" r="1"/>
<line x1="146.650000" y1="63.000000" x2="149.650000" y2="64.000000"  transform="rotate(0.000000,149.650000,64.000000)" style="stroke: black; stroke-width:0.25;"/>
<line x1="146.650000" y1="65.000000" x2="149.650000" y2="64.000000"  transform="rotate(0.000000,149.650000,64.000000)" style="stroke: black; stroke-width:0.25;"/>
<line x1="146.650000" y1="71.000000" x2="149.650000" y2="72.000000"  transform="rotate(0.000000,149.650000,72.000000)" style="stroke: black; stroke-width:0.25;"/>
<line x1="146.650000" y1="73.000000" x2="149.650000" y2="72.000000"  transform="rotate(0.000000,149.650000,72.000000)" style="stroke: black; stroke-width:0.25;"/>
<rect x="25.000000" y="121.000000" width="193.500000" height="24.000000" rx="0.1" ry="0.1" style="stroke:none;fill:#aaaaaa;;filter:url(#filter);"/>
<rect x="24.000000" y="120.000000" width="193.500000" height="24.000000" rx="0" ry="0" style="stroke:none;fill:#477881;"/>
<text x="120.750000" y="134.000000" font-family="Arial" font-size="7" text-anchor="middle" fill="#FFFFFF">hslider(modDepth, 0.1f, 0.0f, 1.0f, 0.001f)</text>
<circle cx="26.000000" cy="122.000000" r="1"/>
<rect x="234.500000" y="73.000000" width="24.000000" height="24.000000" rx="0.1" ry="0.1" style="stroke:none;fill:#aaaaaa;;filter:url(#filter);"/>
<rect x="233.500000" y="72.000000" width="24.000000" height="24.000000" rx="0" ry="0" style="stroke:none;fill:#4B71A1;"/>
<text x="245.500000" y="86.000000" font-family="Arial" font-size="7" text-anchor="middle" fill="#FFFFFF">*</text>
<circle cx="235.500000" cy="74.000000" r="1"/>
<line x1="230.500000" y1="79.000000" x2="233.500000" y2="80.000000"  transform="rotate(0.000000,233.500000,80.000000)" style="stroke: black; stroke-width:0.25;"/>
<line x1="230.500000" y1="81.000000" x2="233.500000" y2="80.000000"  transform="rotate(0.000000,233.500000,80.000000)" style="stroke: black; stroke-width:0.25;"/>
<line x1="230.500000" y1="87.000000" x2="233.500000" y2="88.000000"  transform="rotate(0.000000,233.500000,88.000000)" style="stroke: black; stroke-width:0.25;"/>
<line x1="230.500000" y1="89.000000" x2="233.500000" y2="88.000000"  transform="rotate(0.000000,233.500000,88.000000)" style="stroke: black; stroke-width:0.25;"/>
<a xlink:href="linear-0x56137cb16e30.svg">
<rect x="266.500000" y="73.000000" width="64.500000" height="24.000000" rx="0.1" ry="0.1" style="stroke:none;fill:#aaaaaa;;filter:url(#filter);"/>
<rect x="265.500000" y="72.000000" width="64.500000" height="24.000000" rx="0" ry="0" style="stroke:none;fill:#003366;"/>
</a>
<a xlink:href="linear-0x56137cb16e30.svg">
<text x="297.750000" y="86.000000" font-family="Arial" font-size="7" text-anchor="middle" fill="#FFFFFF">linear_interp</text>
</a>
<circle cx="267.500000" cy="74.000000" r="1"/>
<line x1="262.500000" y1="83.000000" x2="265.500000" y2="84.000000"  transform="rotate(0.000000,265.500000,84.000000)" style="stroke: black; stroke-width:0.25;"/>
<line x1="262.500000" y1="85.000000" x2="265.500000" y2="84.000000"  transform="rotate(0.000000,265.500000,84.000000)" style="stroke: black; stroke-width:0.25;"/>
<line x1="15.000000" y1="15.000000" x2="15.000000" y2="153.000000"  style="stroke: black; stroke-linecap:round; stroke-width:0.25; stroke-dasharray:3,3;"/>
<line x1="15.000000" y1="153.000000" x2="347.000000" y2="153.000000"  style="stroke: black; stroke-linecap:round; stroke-width:0.25; stroke-dasharray:3,3;"/>
<line x1="347.000000" y1="153.000000" x2="347.000000" y2="15.000000"  style="stroke: black; stroke-linecap:round; stroke-width:0.25; stroke-dasharray:3,3;"/>
<line x1="15.000000" y1="15.000000" x2="20.000000" y2="15.000000"  style="stroke: black; stroke-linecap:round; stroke-width:0.25; stroke-dasharray:3,3;"/>
<line x1="42.575000" y1="15.000000" x2="347.000000" y2="15.000000"  style="stroke: black; stroke-linecap:round; stroke-width:0.25; stroke-dasharray:3,3;"/>
<text x="20.000000" y="17.000000" font-family="Arial" font-size="7">depth</text>
<line x1="349.000000" y1="83.000000" x2="352.000000" y2="84.000000"  transform="rotate(0.000000,352.000000,84.000000)" style="stroke: black; stroke-width:0.25;"/>
<line x1="349.000000" y1="85.000000" x2="352.000000" y2="84.000000"  transform="rotate(0.000000,352.000000,84.000000)" style="stroke: black; stroke-width:0.25;"/>
<line x1="92.750000" y1="36.000000" x2="96.750000" y2="36.000000"  style="stroke:black; stroke-linecap:round; stroke-width:0.25;"/>
<line x1="93.650000" y1="68.000000" x2="97.650000" y2="68.000000"  style="stroke:black; stroke-linecap:round; stroke-width:0.25;"/>
<line x1="96.750000" y1="36.000000" x2="97.650000" y2="36.000000"  style="stroke:black; stroke-linecap:round; stroke-width:0.25;"/>
<line x1="97.650000" y1="36.000000" x2="105.650000" y2="36.000000"  style="stroke:black; stroke-linecap:round; stroke-width:0.25;"/>
<line x1="97.650000" y1="56.000000" x2="105.650000" y2="56.000000"  style="stroke:black; stroke-linecap:round; stroke-width:0.25;"/>
<line x1="97.650000" y1="68.000000" x2="97.650000" y2="56.000000"  style="stroke:black; stroke-linecap:round; stroke-width:0.25;"/>
<line x1="97.650000" y1="68.000000" x2="97.650000" y2="68.000000"  style="stroke:black; stroke-linecap:round; stroke-width:0.25;"/>
<line x1="105.650000" y1="36.000000" x2="105.650000" y2="48.000000"  style="stroke:black; stroke-linecap:round; stroke-width:0.25;"/>
<line x1="105.650000" y1="48.000000" x2="105.650000" y2="48.000000"  style="stroke:black; stroke-linecap:round; stroke-width:0.25;"/>
<line x1="105.650000" y1="48.000000" x2="109.650000" y2="48.000000"  style="stroke:black; stroke-linecap:round; stroke-width:0.25;"/>
<line x1="105.650000" y1="56.000000" x2="109.650000" y2="56.000000"  style="stroke:black; stroke-linecap:round; stroke-width:0.25;"/>
<line x1="112.750000" y1="100.000000" x2="116.750000" y2="100.000000"  style="stroke:black; stroke-linecap:round; stroke-width:0.25;"/>
<line x1="116.750000" y1="100.000000" x2="137.650000" y2="100.000000"  style="stroke:black; stroke-linecap:round; stroke-width:0.25;"/>
<line x1="133.650000" y1="52.000000" x2="137.650000" y2="52.000000"  style="stroke:black; stroke-linecap:round; stroke-width:0.25;"/>
<line x1="137.650000" y1="52.000000" x2="145.650000" y2="52.000000"  style="stroke:black; stroke-linecap:round; stroke-width:0.25;"/>
<line x1="137.650000" y1="72.000000" x2="145.650000" y2="72.000000"  style="stroke:black; stroke-linecap:round; stroke-width:0.25;"/>
<line x1="137.650000" y1="100.000000" x2="137.650000" y2="72.000000"  style="stroke:black; stroke-linecap:round; stroke-width:0.25;"/>
<line x1="137.650000" y1="100.000000" x2="137.650000" y2="100.000000"  style="stroke:black; stroke-linecap:round; stroke-width:0.25;"/>
<line x1="145.650000" y1="52.000000" x2="145.650000" y2="64.000000"  style="stroke:black; stroke-linecap:round; stroke-width:0.25;"/>
<line x1="145.650000" y1="64.000000" x2="145.650000" y2="64.000000"  style="stroke:black; stroke-linecap:round; stroke-width:0.25;"/>
<line x1="145.650000" y1="64.000000" x2="149.650000" y2="64.000000"  style="stroke:black; stroke-linecap:round; stroke-width:0.25;"/>
<line x1="145.650000" y1="72.000000" x2="149.650000" y2="72.000000"  style="stroke:black; stroke-linecap:round; stroke-width:0.25;"/>
<line x1="173.650000" y1="68.000000" x2="177.650000" y2="68.000000"  style="stroke:black; stroke-linecap:round; stroke-width:0.25;"/>
<line x1="177.650000" y1="68.000000" x2="221.500000" y2="68.000000"  style="stroke:black; stroke-linecap:round; stroke-width:0.25;"/>
<line x1="217.500000" y1="132.000000" x2="221.500000" y2="132.000000"  style="stroke:black; stroke-linecap:round; stroke-width:0.25;"/>
<line x1="221.500000" y1="68.000000" x2="229.500000" y2="68.000000"  style="stroke:black; stroke-linecap:round; stroke-width:0.25;"/>
<line x1="221.500000" y1="88.000000" x2="229.500000" y2="88.000000"  style="stroke:black; stroke-linecap:round; stroke-width:0.25;"/>
<line x1="221.500000" y1="132.000000" x2="221.500000" y2="88.000000"  style="stroke:black; stroke-linecap:round; stroke-width:0.25;"/>
<line x1="221.500000" y1="132.000000" x2="221.500000" y2="132.000000"  style="stroke:black; stroke-linecap:round; stroke-width:0.25;"/>
<line x1="229.500000" y1="68.000000" x2="229.500000" y2="80.000000"  style="stroke:black; stroke-linecap:round; stroke-width:0.25;"/>
<line x1="229.500000" y1="80.000000" x2="229.500000" y2="80.000000"  style="stroke:black; stroke-linecap:round; stroke-width:0.25;"/>
<line x1="229.500000" y1="80.000000" x2="233.500000" y2="80.000000"  style="stroke:black; stroke-linecap:round; stroke-width:0.25;"/>
<line x1="229.500000" y1="88.000000" x2="233.500000" y2="88.000000"  style="stroke:black; stroke-linecap:round; stroke-width:0.25;"/>
<line x1="257.500000" y1="84.000000" x2="261.500000" y2="84.000000"  style="stroke:black; stroke-linecap:round; stroke-width:0.25;"/>
<line x1="261.500000" y1="84.000000" x2="261.500000" y2="84.000000"  style="stroke:black; stroke-linecap:round; stroke-width:0.25;"/>
<line x1="261.500000" y1="84.000000" x2="265.500000" y2="84.000000"  style="stroke:black; stroke-linecap:round; stroke-width:0.25;"/>
<line x1="330.000000" y1="84.000000" x2="334.000000" y2="84.000000"  style="stroke:black; stroke-linecap:round; stroke-width:0.25;"/>
<line x1="334.000000" y1="84.000000" x2="334.000000" y2="84.000000"  style="stroke:black; stroke-linecap:round; stroke-width:0.25;"/>
<line x1="334.000000" y1="84.000000" x2="338.000000" y2="84.000000"  style="stroke:black; stroke-linecap:round; stroke-width:0.25;"/>
<line x1="338.000000" y1="84.000000" x2="342.000000" y2="84.000000"  style="stroke:black; stroke-linecap:round; stroke-width:0.25;"/>
<line x1="342.000000" y1="84.000000" x2="352.000000" y2="84.000000"  style="stroke:black; stroke-linecap:round; stroke-width:0.25;"/>
</svg>
