<?xml version="1.0"?>
<svg xmlns="http://www.w3.org/2000/svg" xmlns:xlink="http://www.w3.org/1999/xlink" viewBox="0 0 305.000000 200.000000" width="152.500000mm" height="100.000000mm" version="1.1">
<defs>
   <filter id="filter" filterRes="18" x="0" y="0">
     <feGaussianBlur in="SourceGraphic" stdDeviation="1.55" result="blur"/>
     <feOffset in="blur" dx="3" dy="3"/>
   </filter>
</defs>
<a xlink:href="decimal-0x56137d459160.svg">
<rect x="1.000000" y="1.000000" width="304.000000" height="199.000000" rx="0.1" ry="0.1" style="stroke:none;fill:#aaaaaa;;filter:url(#filter);"/>
<rect x="0.000000" y="0.000000" width="304.000000" height="199.000000" rx="0" ry="0" style="stroke:none;fill:#ffffff;"/>
</a>
<text x="10.000000" y="7.000000" font-family="Arial" font-size="7"></text>
<rect x="77.500000" y="25.000000" width="24.000000" height="24.000000" rx="0.1" ry="0.1" style="stroke:none;fill:#aaaaaa;;filter:url(#filter);"/>
<rect x="76.500000" y="24.000000" width="24.000000" height="24.000000" rx="0" ry="0" style="stroke:none;fill:#f44800;"/>
<text x="88.500000" y="38.000000" font-family="Arial" font-size="7" text-anchor="middle" fill="#FFFFFF">10</text>
<circle cx="78.500000" cy="26.000000" r="1"/>
<a xlink:href="depth-0x56137cd10e80.svg">
<rect x="76.600000" y="57.000000" width="25.800000" height="24.000000" rx="0.1" ry="0.1" style="stroke:none;fill:#aaaaaa;;filter:url(#filter);"/>
<rect x="75.600000" y="56.000000" width="25.800000" height="24.000000" rx="0" ry="0" style="stroke:none;fill:#003366;"/>
</a>
<a xlink:href="depth-0x56137cd10e80.svg">
<text x="88.500000" y="70.000000" font-family="Arial" font-size="7" text-anchor="middle" fill="#FFFFFF">depth</text>
</a>
<circle cx="77.600000" cy="58.000000" r="1"/>
<rect x="118.400000" y="41.000000" width="24.000000" height="24.000000" rx="0.1" ry="0.1" style="stroke:none;fill:#aaaaaa;;filter:url(#filter);"/>
<rect x="117.400000" y="40.000000" width="24.000000" height="24.000000" rx="0" ry="0" style="stroke:none;fill:#4B71A1;"/>
<text x="129.400000" y="54.000000" font-family="Arial" font-size="7" text-anchor="middle" fill="#FFFFFF">+</text>
<circle cx="119.400000" cy="42.000000" r="1"/>
<line x1="114.400000" y1="47.000000" x2="117.400000" y2="48.000000"  transform="rotate(0.000000,117.400000,48.000000)" style="stroke: black; stroke-width:0.25;"/>
<line x1="114.400000" y1="49.000000" x2="117.400000" y2="48.000000"  transform="rotate(0.000000,117.400000,48.000000)" style="stroke: black; stroke-width:0.25;"/>
<line x1="114.400000" y1="55.000000" x2="117.400000" y2="56.000000"  transform="rotate(0.000000,117.400000,56.000000)" style="stroke: black; stroke-width:0.25;"/>
<line x1="114.400000" y1="57.000000" x2="117.400000" y2="56.000000"  transform="rotate(0.000000,117.400000,56.000000)" style="stroke: black; stroke-width:0.25;"/>
<a xlink:href="depth-0x56137cd10e80.svg">
<rect x="76.600000" y="89.000000" width="25.800000" height="24.000000" rx="0.1" ry="0.1" style="stroke:none;fill:#aaaaaa;;filter:url(#filter);"/>
<rect x="75.600000" y="88.000000" width="25.800000" height="24.000000" rx="0" ry="0" style="stroke:none;fill:#003366;"/>
</a>
<a xlink:href="depth-0x56137cd10e80.svg">
<text x="88.500000" y="102.000000" font-family="Arial" font-size="7" text-anchor="middle" fill="#FFFFFF">depth</text>
</a>
<circle cx="77.600000" cy="90.000000" r="1"/>
<a xlink:href="osc-0x56137d458a20.svg">
<rect x="25.000000" y="121.000000" width="129.000000" height="24.000000" rx="0.1" ry="0.1" style="stroke:none;fill:#aaaaaa;;filter:url(#filter);"/>
<rect x="24.000000" y="120.000000" width="129.000000" height="24.000000" rx="0" ry="0" style="stroke:none;fill:#003366;"/>
</a>
<a xlink:href="osc-0x56137d458a20.svg">
<text x="88.500000" y="134.000000" font-family="Arial" font-size="7" text-anchor="middle" fill="#FFFFFF">osc(hslider(&quot;...0.5f : * : _)</text>
</a>
<circle cx="26.000000" cy="122.000000" r="1"/>
<rect x="170.000000" y="105.000000" width="24.000000" height="24.000000" rx="0.1" ry="0.1" style="stroke:none;fill:#aaaaaa;;filter:url(#filter);"/>
<rect x="169.000000" y="104.000000" width="24.000000" height="24.000000" rx="0" ry="0" style="stroke:none;fill:#4B71A1;"/>
<text x="181.000000" y="118.000000" font-family="Arial" font-size="7" text-anchor="middle" fill="#FFFFFF">*</text>
<circle cx="171.000000" cy="106.000000" r="1"/>
<line x1="166.000000" y1="111.000000" x2="169.000000" y2="112.000000"  transform="rotate(0.000000,169.000000,112.000000)" style="stroke: black; stroke-width:0.25;"/>
<line x1="166.000000" y1="113.000000" x2="169.000000" y2="112.000000"  transform="rotate(0.000000,169.000000,112.000000)" style="stroke: black; stroke-width:0.25;"/>
<line x1="166.000000" y1="119.000000" x2="169.000000" y2="120.000000"  transform="rotate(0.000000,169.000000,120.000000)" style="stroke: black; stroke-width:0.25;"/>
<line x1="166.000000" y1="121.000000" x2="169.000000" y2="120.000000"  transform="rotate(0.000000,169.000000,120.000000)" style="stroke: black; stroke-width:0.25;"/>
<rect x="210.000000" y="73.000000" width="24.000000" height="24.000000" rx="0.1" ry="0.1" style="stroke:none;fill:#aaaaaa;;filter:url(#filter);"/>
<rect x="209.000000" y="72.000000" width="24.000000" height="24.000000" rx="0" ry="0" style="stroke:none;fill:#4B71A1;"/>
<text x="221.000000" y="86.000000" font-family="Arial" font-size="7" text-anchor="middle" fill="#FFFFFF">+</text>
<circle cx="211.000000" cy="74.000000" r="1"/>
<line x1="206.000000" y1="79.000000" x2="209.000000" y2="80.000000"  transform="rotate(0.000000,209.000000,80.000000)" style="stroke: black; stroke-width:0.25;"/>
<line x1="206.000000" y1="81.000000" x2="209.000000" y2="80.000000"  transform="rotate(0.000000,209.000000,80.000000)" style="stroke: black; stroke-width:0.25;"/>
<line x1="206.000000" y1="87.000000" x2="209.000000" y2="88.000000"  transform="rotate(0.000000,209.000000,88.000000)" style="stroke: black; stroke-width:0.25;"/>
<line x1="206.000000" y1="89.000000" x2="209.000000" y2="88.000000"  transform="rotate(0.000000,209.000000,88.000000)" style="stroke: black; stroke-width:0.25;"/>
<a xlink:href="o-0x56137d1ddb70.svg">
<rect x="117.500000" y="153.000000" width="24.000000" height="24.000000" rx="0.1" ry="0.1" style="stroke:none;fill:#aaaaaa;;filter:url(#filter);"/>
<rect x="116.500000" y="152.000000" width="24.000000" height="24.000000" rx="0" ry="0" style="stroke:none;fill:#003366;"/>
</a>
<a xlink:href="o-0x56137d1ddb70.svg">
<text x="128.500000" y="166.000000" font-family="Arial" font-size="7" text-anchor="middle" fill="#FFFFFF">o</text>
</a>
<circle cx="118.500000" cy="154.000000" r="1"/>
<rect x="250.000000" y="89.000000" width="24.000000" height="24.000000" rx="0.1" ry="0.1" style="stroke:none;fill:#aaaaaa;;filter:url(#filter);"/>
<rect x="249.000000" y="88.000000" width="24.000000" height="24.000000" rx="0" ry="0" style="stroke:none;fill:#4B71A1;"/>
<text x="261.000000" y="102.000000" font-family="Arial" font-size="7" text-anchor="middle" fill="#FFFFFF">-</text>
<circle cx="251.000000" cy="90.000000" r="1"/>
<line x1="246.000000" y1="95.000000" x2="249.000000" y2="96.000000"  transform="rotate(0.000000,249.000000,96.000000)" style="stroke: black; stroke-width:0.25;"/>
<line x1="246.000000" y1="97.000000" x2="249.000000" y2="96.000000"  transform="rotate(0.000000,249.000000,96.000000)" style="stroke: black; stroke-width:0.25;"/>
<line x1="246.000000" y1="103.000000" x2="249.000000" y2="104.000000"  transform="rotate(0.000000,249.000000,104.000000)" style="stroke: black; stroke-width:0.25;"/>
<line x1="246.000000" y1="105.000000" x2="249.000000" y2="104.000000"  transform="rotate(0.000000,249.000000,104.000000)" style="stroke: black; stroke-width:0.25;"/>
<line x1="15.000000" y1="15.000000" x2="15.000000" y2="185.000000"  style="stroke: black; stroke-linecap:round; stroke-width:0.25; stroke-dasharray:3,3;"/>
<line x1="15.000000" y1="185.000000" x2="290.000000" y2="185.000000"  style="stroke: black; stroke-linecap:round; stroke-width:0.25; stroke-dasharray:3,3;"/>
<line x1="290.000000" y1="185.000000" x2="290.000000" y2="15.000000"  style="stroke: black; stroke-linecap:round; stroke-width:0.25; stroke-dasharray:3,3;"/>
<line x1="15.000000" y1="15.000000" x2="20.000000" y2="15.000000"  style="stroke: black; stroke-linecap:round; stroke-width:0.25; stroke-dasharray:3,3;"/>
<line x1="36.125000" y1="15.000000" x2="290.000000" y2="15.000000"  style="stroke: black; stroke-linecap:round; stroke-width:0.25; stroke-dasharray:3,3;"/>
<text x="20.000000" y="17.000000" font-family="Arial" font-size="7">dmo</text>
<line x1="292.000000" y1="99.000000" x2="295.000000" y2="100.000000"  transform="rotate(0.000000,295.000000,100.000000)" style="stroke: black; stroke-width:0.25;"/>
<line x1="292.000000" y1="101.000000" x2="295.000000" y2="100.000000"  transform="rotate(0.000000,295.000000,100.000000)" style="stroke: black; stroke-width:0.25;"/>
<line x1="100.500000" y1="36.000000" x2="104.500000" y2="36.000000"  style="stroke:black; stroke-linecap:round; stroke-width:0.25;"/>
<line x1="101.400000" y1="68.000000" x2="105.400000" y2="68.000000"  style="stroke:black; stroke-linecap:round; stroke-width:0.25;"/>
<line x1="101.400000" y1="100.000000" x2="105.400000" y2="100.000000"  style="stroke:black; stroke-linecap:round; stroke-width:0.25;"/>
<line x1="104.500000" y1="36.000000" x2="105.400000" y2="36.000000"  style="stroke:black; stroke-linecap:round; stroke-width:0.25;"/>
<line x1="105.400000" y1="56.000000" x2="113.400000" y2="56.000000"  style="stroke:black; stroke-linecap:round; stroke-width:0.25;"/>
<line x1="105.400000" y1="68.000000" x2="105.400000" y2="56.000000"  style="stroke:black; stroke-linecap:round; stroke-width:0.25;"/>
<line x1="105.400000" y1="68.000000" x2="105.400000" y2="68.000000"  style="stroke:black; stroke-linecap:round; stroke-width:0.25;"/>
<line x1="105.400000" y1="100.000000" x2="157.000000" y2="100.000000"  style="stroke:black; stroke-linecap:round; stroke-width:0.25;"/>
<line x1="105.400000" y1="36.000000" x2="113.400000" y2="36.000000"  style="stroke:black; stroke-linecap:round; stroke-width:0.25;"/>
<line x1="113.400000" y1="48.000000" x2="117.400000" y2="48.000000"  style="stroke:black; stroke-linecap:round; stroke-width:0.25;"/>
<line x1="113.400000" y1="56.000000" x2="117.400000" y2="56.000000"  style="stroke:black; stroke-linecap:round; stroke-width:0.25;"/>
<line x1="113.400000" y1="36.000000" x2="113.400000" y2="48.000000"  style="stroke:black; stroke-linecap:round; stroke-width:0.25;"/>
<line x1="113.400000" y1="48.000000" x2="113.400000" y2="48.000000"  style="stroke:black; stroke-linecap:round; stroke-width:0.25;"/>
<line x1="140.500000" y1="164.000000" x2="144.500000" y2="164.000000"  style="stroke:black; stroke-linecap:round; stroke-width:0.25;"/>
<line x1="141.400000" y1="52.000000" x2="145.400000" y2="52.000000"  style="stroke:black; stroke-linecap:round; stroke-width:0.25;"/>
<line x1="144.500000" y1="164.000000" x2="237.000000" y2="164.000000"  style="stroke:black; stroke-linecap:round; stroke-width:0.25;"/>
<line x1="145.400000" y1="52.000000" x2="197.000000" y2="52.000000"  style="stroke:black; stroke-linecap:round; stroke-width:0.25;"/>
<line x1="153.000000" y1="132.000000" x2="157.000000" y2="132.000000"  style="stroke:black; stroke-linecap:round; stroke-width:0.25;"/>
<line x1="157.000000" y1="100.000000" x2="165.000000" y2="100.000000"  style="stroke:black; stroke-linecap:round; stroke-width:0.25;"/>
<line x1="157.000000" y1="120.000000" x2="165.000000" y2="120.000000"  style="stroke:black; stroke-linecap:round; stroke-width:0.25;"/>
<line x1="157.000000" y1="132.000000" x2="157.000000" y2="120.000000"  style="stroke:black; stroke-linecap:round; stroke-width:0.25;"/>
<line x1="157.000000" y1="132.000000" x2="157.000000" y2="132.000000"  style="stroke:black; stroke-linecap:round; stroke-width:0.25;"/>
<line x1="165.000000" y1="100.000000" x2="165.000000" y2="112.000000"  style="stroke:black; stroke-linecap:round; stroke-width:0.25;"/>
<line x1="165.000000" y1="112.000000" x2="165.000000" y2="112.000000"  style="stroke:black; stroke-linecap:round; stroke-width:0.25;"/>
<line x1="165.000000" y1="112.000000" x2="169.000000" y2="112.000000"  style="stroke:black; stroke-linecap:round; stroke-width:0.25;"/>
<line x1="165.000000" y1="120.000000" x2="169.000000" y2="120.000000"  style="stroke:black; stroke-linecap:round; stroke-width:0.25;"/>
<line x1="193.000000" y1="116.000000" x2="197.000000" y2="116.000000"  style="stroke:black; stroke-linecap:round; stroke-width:0.25;"/>
<line x1="197.000000" y1="52.000000" x2="205.000000" y2="52.000000"  style="stroke:black; stroke-linecap:round; stroke-width:0.25;"/>
<line x1="197.000000" y1="88.000000" x2="205.000000" y2="88.000000"  style="stroke:black; stroke-linecap:round; stroke-width:0.25;"/>
<line x1="197.000000" y1="116.000000" x2="197.000000" y2="88.000000"  style="stroke:black; stroke-linecap:round; stroke-width:0.25;"/>
<line x1="197.000000" y1="116.000000" x2="197.000000" y2="116.000000"  style="stroke:black; stroke-linecap:round; stroke-width:0.25;"/>
<line x1="205.000000" y1="52.000000" x2="205.000000" y2="80.000000"  style="stroke:black; stroke-linecap:round; stroke-width:0.25;"/>
<line x1="205.000000" y1="80.000000" x2="205.000000" y2="80.000000"  style="stroke:black; stroke-linecap:round; stroke-width:0.25;"/>
<line x1="205.000000" y1="80.000000" x2="209.000000" y2="80.000000"  style="stroke:black; stroke-linecap:round; stroke-width:0.25;"/>
<line x1="205.000000" y1="88.000000" x2="209.000000" y2="88.000000"  style="stroke:black; stroke-linecap:round; stroke-width:0.25;"/>
<line x1="233.000000" y1="84.000000" x2="237.000000" y2="84.000000"  style="stroke:black; stroke-linecap:round; stroke-width:0.25;"/>
<line x1="237.000000" y1="84.000000" x2="245.000000" y2="84.000000"  style="stroke:black; stroke-linecap:round; stroke-width:0.25;"/>
<line x1="237.000000" y1="104.000000" x2="245.000000" y2="104.000000"  style="stroke:black; stroke-linecap:round; stroke-width:0.25;"/>
<line x1="237.000000" y1="164.000000" x2="237.000000" y2="104.000000"  style="stroke:black; stroke-linecap:round; stroke-width:0.25;"/>
<line x1="237.000000" y1="164.000000" x2="237.000000" y2="164.000000"  style="stroke:black; stroke-linecap:round; stroke-width:0.25;"/>
<line x1="245.000000" y1="84.000000" x2="245.000000" y2="96.000000"  style="stroke:black; stroke-linecap:round; stroke-width:0.25;"/>
<line x1="245.000000" y1="96.000000" x2="245.000000" y2="96.000000"  style="stroke:black; stroke-linecap:round; stroke-width:0.25;"/>
<line x1="245.000000" y1="96.000000" x2="249.000000" y2="96.000000"  style="stroke:black; stroke-linecap:round; stroke-width:0.25;"/>
<line x1="245.000000" y1="104.000000" x2="249.000000" y2="104.000000"  style="stroke:black; stroke-linecap:round; stroke-width:0.25;"/>
<line x1="273.000000" y1="100.000000" x2="277.000000" y2="100.000000"  style="stroke:black; stroke-linecap:round; stroke-width:0.25;"/>
<line x1="277.000000" y1="100.000000" x2="277.000000" y2="100.000000"  style="stroke:black; stroke-linecap:round; stroke-width:0.25;"/>
<line x1="277.000000" y1="100.000000" x2="281.000000" y2="100.000000"  style="stroke:black; stroke-linecap:round; stroke-width:0.25;"/>
<line x1="281.000000" y1="100.000000" x2="285.000000" y2="100.000000"  style="stroke:black; stroke-linecap:round; stroke-width:0.25;"/>
<line x1="285.000000" y1="100.000000" x2="295.000000" y2="100.000000"  style="stroke:black; stroke-linecap:round; stroke-width:0.25;"/>
</svg>
