<?xml version="1.0"?>
<svg xmlns="http://www.w3.org/2000/svg" xmlns:xlink="http://www.w3.org/1999/xlink" viewBox="0 0 342.400000 136.000000" width="171.200000mm" height="68.000000mm" version="1.1">
<defs>
   <filter id="filter" filterRes="18" x="0" y="0">
     <feGaussianBlur in="SourceGraphic" stdDeviation="1.55" result="blur"/>
     <feOffset in="blur" dx="3" dy="3"/>
   </filter>
</defs>
<a xlink:href="if-0x56137d59e7a0.svg">
<rect x="1.000000" y="1.000000" width="341.400000" height="135.000000" rx="0.1" ry="0.1" style="stroke:none;fill:#aaaaaa;;filter:url(#filter);"/>
<rect x="0.000000" y="0.000000" width="341.400000" height="135.000000" rx="0" ry="0" style="stroke:none;fill:#ffffff;"/>
</a>
<text x="10.000000" y="7.000000" font-family="Arial" font-size="7"></text>
<rect x="135.300000" y="25.000000" width="25.800000" height="24.000000" rx="0.1" ry="0.1" style="stroke:none;fill:#aaaaaa;;filter:url(#filter);"/>
<rect x="134.300000" y="24.000000" width="25.800000" height="24.000000" rx="0" ry="0" style="stroke:none;fill:#f44800;"/>
<text x="147.200000" y="38.000000" font-family="Arial" font-size="7" text-anchor="middle" fill="#FFFFFF">65533</text>
<circle cx="136.300000" cy="26.000000" r="1"/>
<a xlink:href="SR-0x56137cb45a30.svg">
<rect x="116.200000" y="57.000000" width="24.000000" height="24.000000" rx="0.1" ry="0.1" style="stroke:none;fill:#aaaaaa;;filter:url(#filter);"/>
<rect x="115.200000" y="56.000000" width="24.000000" height="24.000000" rx="0" ry="0" style="stroke:none;fill:#003366;"/>
</a>
<a xlink:href="SR-0x56137cb45a30.svg">
<text x="127.200000" y="70.000000" font-family="Arial" font-size="7" text-anchor="middle" fill="#FFFFFF">SR</text>
</a>
<circle cx="117.200000" cy="58.000000" r="1"/>
<rect x="25.000000" y="89.000000" width="206.400000" height="24.000000" rx="0.1" ry="0.1" style="stroke:none;fill:#aaaaaa;;filter:url(#filter);"/>
<rect x="24.000000" y="88.000000" width="206.400000" height="24.000000" rx="0" ry="0" style="stroke:none;fill:#477881;"/>
<text x="127.200000" y="102.000000" font-family="Arial" font-size="7" text-anchor="middle" fill="#FFFFFF">hslider(delayTime, 0.2f, 0.001f, 1.45f, 0.0001f)</text>
<circle cx="26.000000" cy="90.000000" r="1"/>
<rect x="247.400000" y="73.000000" width="24.000000" height="24.000000" rx="0.1" ry="0.1" style="stroke:none;fill:#aaaaaa;;filter:url(#filter);"/>
<rect x="246.400000" y="72.000000" width="24.000000" height="24.000000" rx="0" ry="0" style="stroke:none;fill:#4B71A1;"/>
<text x="258.400000" y="86.000000" font-family="Arial" font-size="7" text-anchor="middle" fill="#FFFFFF">*</text>
<circle cx="248.400000" cy="74.000000" r="1"/>
<line x1="243.400000" y1="79.000000" x2="246.400000" y2="80.000000"  transform="rotate(0.000000,246.400000,80.000000)" style="stroke: black; stroke-width:0.25;"/>
<line x1="243.400000" y1="81.000000" x2="246.400000" y2="80.000000"  transform="rotate(0.000000,246.400000,80.000000)" style="stroke: black; stroke-width:0.25;"/>
<line x1="243.400000" y1="87.000000" x2="246.400000" y2="88.000000"  transform="rotate(0.000000,246.400000,88.000000)" style="stroke: black; stroke-width:0.25;"/>
<line x1="243.400000" y1="89.000000" x2="246.400000" y2="88.000000"  transform="rotate(0.000000,246.400000,88.000000)" style="stroke: black; stroke-width:0.25;"/>
<rect x="287.400000" y="57.000000" width="24.000000" height="24.000000" rx="0.1" ry="0.1" style="stroke:none;fill:#aaaaaa;;filter:url(#filter);"/>
<rect x="286.400000" y="56.000000" width="24.000000" height="24.000000" rx="0" ry="0" style="stroke:none;fill:#4B71A1;"/>
<text x="298.400000" y="70.000000" font-family="Arial" font-size="7" text-anchor="middle" fill="#FFFFFF">min</text>
<circle cx="288.400000" cy="58.000000" r="1"/>
<line x1="283.400000" y1="63.000000" x2="286.400000" y2="64.000000"  transform="rotate(0.000000,286.400000,64.000000)" style="stroke: black; stroke-width:0.25;"/>
<line x1="283.400000" y1="65.000000" x2="286.400000" y2="64.000000"  transform="rotate(0.000000,286.400000,64.000000)" style="stroke: black; stroke-width:0.25;"/>
<line x1="283.400000" y1="71.000000" x2="286.400000" y2="72.000000"  transform="rotate(0.000000,286.400000,72.000000)" style="stroke: black; stroke-width:0.25;"/>
<line x1="283.400000" y1="73.000000" x2="286.400000" y2="72.000000"  transform="rotate(0.000000,286.400000,72.000000)" style="stroke: black; stroke-width:0.25;"/>
<line x1="15.000000" y1="15.000000" x2="15.000000" y2="121.000000"  style="stroke: black; stroke-linecap:round; stroke-width:0.25; stroke-dasharray:3,3;"/>
<line x1="15.000000" y1="121.000000" x2="327.400000" y2="121.000000"  style="stroke: black; stroke-linecap:round; stroke-width:0.25; stroke-dasharray:3,3;"/>
<line x1="327.400000" y1="121.000000" x2="327.400000" y2="15.000000"  style="stroke: black; stroke-linecap:round; stroke-width:0.25; stroke-dasharray:3,3;"/>
<line x1="15.000000" y1="15.000000" x2="20.000000" y2="15.000000"  style="stroke: black; stroke-linecap:round; stroke-width:0.25; stroke-dasharray:3,3;"/>
<line x1="32.900000" y1="15.000000" x2="327.400000" y2="15.000000"  style="stroke: black; stroke-linecap:round; stroke-width:0.25; stroke-dasharray:3,3;"/>
<text x="20.000000" y="17.000000" font-family="Arial" font-size="7">dt</text>
<line x1="329.400000" y1="67.000000" x2="332.400000" y2="68.000000"  transform="rotate(0.000000,332.400000,68.000000)" style="stroke: black; stroke-width:0.25;"/>
<line x1="329.400000" y1="69.000000" x2="332.400000" y2="68.000000"  transform="rotate(0.000000,332.400000,68.000000)" style="stroke: black; stroke-width:0.25;"/>
<line x1="139.200000" y1="68.000000" x2="143.200000" y2="68.000000"  style="stroke:black; stroke-linecap:round; stroke-width:0.25;"/>
<line x1="143.200000" y1="68.000000" x2="234.400000" y2="68.000000"  style="stroke:black; stroke-linecap:round; stroke-width:0.25;"/>
<line x1="160.100000" y1="36.000000" x2="164.100000" y2="36.000000"  style="stroke:black; stroke-linecap:round; stroke-width:0.25;"/>
<line x1="164.100000" y1="36.000000" x2="274.400000" y2="36.000000"  style="stroke:black; stroke-linecap:round; stroke-width:0.25;"/>
<line x1="230.400000" y1="100.000000" x2="234.400000" y2="100.000000"  style="stroke:black; stroke-linecap:round; stroke-width:0.25;"/>
<line x1="234.400000" y1="68.000000" x2="242.400000" y2="68.000000"  style="stroke:black; stroke-linecap:round; stroke-width:0.25;"/>
<line x1="234.400000" y1="88.000000" x2="242.400000" y2="88.000000"  style="stroke:black; stroke-linecap:round; stroke-width:0.25;"/>
<line x1="234.400000" y1="100.000000" x2="234.400000" y2="88.000000"  style="stroke:black; stroke-linecap:round; stroke-width:0.25;"/>
<line x1="234.400000" y1="100.000000" x2="234.400000" y2="100.000000"  style="stroke:black; stroke-linecap:round; stroke-width:0.25;"/>
<line x1="242.400000" y1="68.000000" x2="242.400000" y2="80.000000"  style="stroke:black; stroke-linecap:round; stroke-width:0.25;"/>
<line x1="242.400000" y1="80.000000" x2="242.400000" y2="80.000000"  style="stroke:black; stroke-linecap:round; stroke-width:0.25;"/>
<line x1="242.400000" y1="80.000000" x2="246.400000" y2="80.000000"  style="stroke:black; stroke-linecap:round; stroke-width:0.25;"/>
<line x1="242.400000" y1="88.000000" x2="246.400000" y2="88.000000"  style="stroke:black; stroke-linecap:round; stroke-width:0.25;"/>
<line x1="270.400000" y1="84.000000" x2="274.400000" y2="84.000000"  style="stroke:black; stroke-linecap:round; stroke-width:0.25;"/>
<line x1="274.400000" y1="36.000000" x2="282.400000" y2="36.000000"  style="stroke:black; stroke-linecap:round; stroke-width:0.25;"/>
<line x1="274.400000" y1="72.000000" x2="282.400000" y2="72.000000"  style="stroke:black; stroke-linecap:round; stroke-width:0.25;"/>
<line x1="274.400000" y1="84.000000" x2="274.400000" y2="72.000000"  style="stroke:black; stroke-linecap:round; stroke-width:0.25;"/>
<line x1="274.400000" y1="84.000000" x2="274.400000" y2="84.000000"  style="stroke:black; stroke-linecap:round; stroke-width:0.25;"/>
<line x1="282.400000" y1="36.000000" x2="282.400000" y2="64.000000"  style="stroke:black; stroke-linecap:round; stroke-width:0.25;"/>
<line x1="282.400000" y1="64.000000" x2="282.400000" y2="64.000000"  style="stroke:black; stroke-linecap:round; stroke-width:0.25;"/>
<line x1="282.400000" y1="64.000000" x2="286.400000" y2="64.000000"  style="stroke:black; stroke-linecap:round; stroke-width:0.25;"/>
<line x1="282.400000" y1="72.000000" x2="286.400000" y2="72.000000"  style="stroke:black; stroke-linecap:round; stroke-width:0.25;"/>
<line x1="310.400000" y1="68.000000" x2="314.400000" y2="68.000000"  style="stroke:black; stroke-linecap:round; stroke-width:0.25;"/>
<line x1="314.400000" y1="68.000000" x2="314.400000" y2="68.000000"  style="stroke:black; stroke-linecap:round; stroke-width:0.25;"/>
<line x1="314.400000" y1="68.000000" x2="318.400000" y2="68.000000"  style="stroke:black; stroke-linecap:round; stroke-width:0.25;"/>
<line x1="318.400000" y1="68.000000" x2="322.400000" y2="68.000000"  style="stroke:black; stroke-linecap:round; stroke-width:0.25;"/>
<line x1="322.400000" y1="68.000000" x2="332.400000" y2="68.000000"  style="stroke:black; stroke-linecap:round; stroke-width:0.25;"/>
</svg>
