<?xml version="1.0"?>
<svg xmlns="http://www.w3.org/2000/svg" xmlns:xlink="http://www.w3.org/1999/xlink" viewBox="0 0 260.600000 232.000000" width="130.300000mm" height="116.000000mm" version="1.1">
<defs>
   <filter id="filter" filterRes="18" x="0" y="0">
     <feGaussianBlur in="SourceGraphic" stdDeviation="1.55" result="blur"/>
     <feOffset in="blur" dx="3" dy="3"/>
   </filter>
</defs>
<a xlink:href="nv-0x56137d5abeb0.svg">
<rect x="1.000000" y="1.000000" width="259.600000" height="231.000000" rx="0.1" ry="0.1" style="stroke:none;fill:#aaaaaa;;filter:url(#filter);"/>
<rect x="0.000000" y="0.000000" width="259.600000" height="231.000000" rx="0" ry="0" style="stroke:none;fill:#ffffff;"/>
</a>
<text x="10.000000" y="7.000000" font-family="Arial" font-size="7"></text>
<rect x="43.950000" y="25.000000" width="24.000000" height="24.000000" rx="0.1" ry="0.1" style="stroke:none;fill:#aaaaaa;;filter:url(#filter);"/>
<rect x="42.950000" y="24.000000" width="24.000000" height="24.000000" rx="0" ry="0" style="stroke:none;fill:#47945E;"/>
<text x="54.950000" y="38.000000" font-family="Arial" font-size="7" text-anchor="middle" fill="#FFFFFF">ip</text>
<circle cx="44.950000" cy="26.000000" r="1"/>
<rect x="43.950000" y="57.000000" width="24.000000" height="24.000000" rx="0.1" ry="0.1" style="stroke:none;fill:#aaaaaa;;filter:url(#filter);"/>
<rect x="42.950000" y="56.000000" width="24.000000" height="24.000000" rx="0" ry="0" style="stroke:none;fill:#f44800;"/>
<text x="54.950000" y="70.000000" font-family="Arial" font-size="7" text-anchor="middle" fill="#FFFFFF">0</text>
<circle cx="44.950000" cy="58.000000" r="1"/>
<rect x="83.950000" y="41.000000" width="24.000000" height="24.000000" rx="0.1" ry="0.1" style="stroke:none;fill:#aaaaaa;;filter:url(#filter);"/>
<rect x="82.950000" y="40.000000" width="24.000000" height="24.000000" rx="0" ry="0" style="stroke:none;fill:#4B71A1;"/>
<text x="94.950000" y="54.000000" font-family="Arial" font-size="7" text-anchor="middle" fill="#FFFFFF">==</text>
<circle cx="84.950000" cy="42.000000" r="1"/>
<line x1="79.950000" y1="47.000000" x2="82.950000" y2="48.000000"  transform="rotate(0.000000,82.950000,48.000000)" style="stroke: black; stroke-width:0.25;"/>
<line x1="79.950000" y1="49.000000" x2="82.950000" y2="48.000000"  transform="rotate(0.000000,82.950000,48.000000)" style="stroke: black; stroke-width:0.25;"/>
<line x1="79.950000" y1="55.000000" x2="82.950000" y2="56.000000"  transform="rotate(0.000000,82.950000,56.000000)" style="stroke: black; stroke-width:0.25;"/>
<line x1="79.950000" y1="57.000000" x2="82.950000" y2="56.000000"  transform="rotate(0.000000,82.950000,56.000000)" style="stroke: black; stroke-width:0.25;"/>
<a xlink:href="dt-0x56137cb46710.svg">
<rect x="27.050000" y="89.000000" width="24.000000" height="24.000000" rx="0.1" ry="0.1" style="stroke:none;fill:#aaaaaa;;filter:url(#filter);"/>
<rect x="26.050000" y="88.000000" width="24.000000" height="24.000000" rx="0" ry="0" style="stroke:none;fill:#003366;"/>
</a>
<a xlink:href="dt-0x56137cb46710.svg">
<text x="38.050000" y="102.000000" font-family="Arial" font-size="7" text-anchor="middle" fill="#FFFFFF">dt</text>
</a>
<circle cx="28.050000" cy="90.000000" r="1"/>
<rect x="59.050000" y="89.000000" width="25.800000" height="24.000000" rx="0.1" ry="0.1" style="stroke:none;fill:#aaaaaa;;filter:url(#filter);"/>
<rect x="58.050000" y="88.000000" width="25.800000" height="24.000000" rx="0" ry="0" style="stroke:none;fill:#4B71A1;"/>
<text x="70.950000" y="102.000000" font-family="Arial" font-size="7" text-anchor="middle" fill="#FFFFFF">floor</text>
<circle cx="60.050000" cy="90.000000" r="1"/>
<line x1="55.050000" y1="99.000000" x2="58.050000" y2="100.000000"  transform="rotate(0.000000,58.050000,100.000000)" style="stroke: black; stroke-width:0.25;"/>
<line x1="55.050000" y1="101.000000" x2="58.050000" y2="100.000000"  transform="rotate(0.000000,58.050000,100.000000)" style="stroke: black; stroke-width:0.25;"/>
<rect x="43.950000" y="121.000000" width="24.000000" height="24.000000" rx="0.1" ry="0.1" style="stroke:none;fill:#aaaaaa;;filter:url(#filter);"/>
<rect x="42.950000" y="120.000000" width="24.000000" height="24.000000" rx="0" ry="0" style="stroke:none;fill:#47945E;"/>
<text x="54.950000" y="134.000000" font-family="Arial" font-size="7" text-anchor="middle" fill="#FFFFFF">d0</text>
<circle cx="44.950000" cy="122.000000" r="1"/>
<rect x="100.850000" y="105.000000" width="24.000000" height="24.000000" rx="0.1" ry="0.1" style="stroke:none;fill:#aaaaaa;;filter:url(#filter);"/>
<rect x="99.850000" y="104.000000" width="24.000000" height="24.000000" rx="0" ry="0" style="stroke:none;fill:#4B71A1;"/>
<text x="111.850000" y="118.000000" font-family="Arial" font-size="7" text-anchor="middle" fill="#FFFFFF">!=</text>
<circle cx="101.850000" cy="106.000000" r="1"/>
<line x1="96.850000" y1="111.000000" x2="99.850000" y2="112.000000"  transform="rotate(0.000000,99.850000,112.000000)" style="stroke: black; stroke-width:0.25;"/>
<line x1="96.850000" y1="113.000000" x2="99.850000" y2="112.000000"  transform="rotate(0.000000,99.850000,112.000000)" style="stroke: black; stroke-width:0.25;"/>
<line x1="96.850000" y1="119.000000" x2="99.850000" y2="120.000000"  transform="rotate(0.000000,99.850000,120.000000)" style="stroke: black; stroke-width:0.25;"/>
<line x1="96.850000" y1="121.000000" x2="99.850000" y2="120.000000"  transform="rotate(0.000000,99.850000,120.000000)" style="stroke: black; stroke-width:0.25;"/>
<rect x="140.850000" y="73.000000" width="24.000000" height="24.000000" rx="0.1" ry="0.1" style="stroke:none;fill:#aaaaaa;;filter:url(#filter);"/>
<rect x="139.850000" y="72.000000" width="24.000000" height="24.000000" rx="0" ry="0" style="stroke:none;fill:#4B71A1;"/>
<text x="151.850000" y="86.000000" font-family="Arial" font-size="7" text-anchor="middle" fill="#FFFFFF">&amp;</text>
<circle cx="141.850000" cy="74.000000" r="1"/>
<line x1="136.850000" y1="79.000000" x2="139.850000" y2="80.000000"  transform="rotate(0.000000,139.850000,80.000000)" style="stroke: black; stroke-width:0.25;"/>
<line x1="136.850000" y1="81.000000" x2="139.850000" y2="80.000000"  transform="rotate(0.000000,139.850000,80.000000)" style="stroke: black; stroke-width:0.25;"/>
<line x1="136.850000" y1="87.000000" x2="139.850000" y2="88.000000"  transform="rotate(0.000000,139.850000,88.000000)" style="stroke: black; stroke-width:0.25;"/>
<line x1="136.850000" y1="89.000000" x2="139.850000" y2="88.000000"  transform="rotate(0.000000,139.850000,88.000000)" style="stroke: black; stroke-width:0.25;"/>
<a xlink:href="if-0x56137d5965b0.svg">
<rect x="25.000000" y="153.000000" width="141.900000" height="24.000000" rx="0.1" ry="0.1" style="stroke:none;fill:#aaaaaa;;filter:url(#filter);"/>
<rect x="24.000000" y="152.000000" width="141.900000" height="24.000000" rx="0" ry="0" style="stroke:none;fill:#003366;"/>
</a>
<a xlink:href="if-0x56137d5965b0.svg">
<text x="94.950000" y="166.000000" font-family="Arial" font-size="7" text-anchor="middle" fill="#FFFFFF">if((x54,1.0f ...5351473e-05f)(0)</text>
</a>
<circle cx="26.000000" cy="154.000000" r="1"/>
<rect x="70.150000" y="185.000000" width="51.600000" height="24.000000" rx="0.1" ry="0.1" style="stroke:none;fill:#aaaaaa;;filter:url(#filter);"/>
<rect x="69.150000" y="184.000000" width="51.600000" height="24.000000" rx="0" ry="0" style="stroke:none;fill:#f44800;"/>
<text x="94.950000" y="198.000000" font-family="Arial" font-size="7" text-anchor="middle" fill="#FFFFFF">4.53515e-05</text>
<circle cx="71.150000" cy="186.000000" r="1"/>
<rect x="190.900000" y="105.000000" width="38.700000" height="24.000000" rx="0.1" ry="0.1" style="stroke:none;fill:#aaaaaa;;filter:url(#filter);"/>
<rect x="189.900000" y="104.000000" width="38.700000" height="24.000000" rx="0" ry="0" style="stroke:none;fill:#4B71A1;"/>
<text x="209.250000" y="118.000000" font-family="Arial" font-size="7" text-anchor="middle" fill="#FFFFFF">select2</text>
<circle cx="191.900000" cy="106.000000" r="1"/>
<line x1="186.900000" y1="107.000000" x2="189.900000" y2="108.000000"  transform="rotate(0.000000,189.900000,108.000000)" style="stroke: black; stroke-width:0.25;"/>
<line x1="186.900000" y1="109.000000" x2="189.900000" y2="108.000000"  transform="rotate(0.000000,189.900000,108.000000)" style="stroke: black; stroke-width:0.25;"/>
<line x1="186.900000" y1="115.000000" x2="189.900000" y2="116.000000"  transform="rotate(0.000000,189.900000,116.000000)" style="stroke: black; stroke-width:0.25;"/>
<line x1="186.900000" y1="117.000000" x2="189.900000" y2="116.000000"  transform="rotate(0.000000,189.900000,116.000000)" style="stroke: black; stroke-width:0.25;"/>
<line x1="186.900000" y1="123.000000" x2="189.900000" y2="124.000000"  transform="rotate(0.000000,189.900000,124.000000)" style="stroke: black; stroke-width:0.25;"/>
<line x1="186.900000" y1="125.000000" x2="189.900000" y2="124.000000"  transform="rotate(0.000000,189.900000,124.000000)" style="stroke: black; stroke-width:0.25;"/>
<line x1="15.000000" y1="15.000000" x2="15.000000" y2="217.000000"  style="stroke: black; stroke-linecap:round; stroke-width:0.25; stroke-dasharray:3,3;"/>
<line x1="15.000000" y1="217.000000" x2="245.600000" y2="217.000000"  style="stroke: black; stroke-linecap:round; stroke-width:0.25; stroke-dasharray:3,3;"/>
<line x1="245.600000" y1="217.000000" x2="245.600000" y2="15.000000"  style="stroke: black; stroke-linecap:round; stroke-width:0.25; stroke-dasharray:3,3;"/>
<line x1="15.000000" y1="15.000000" x2="20.000000" y2="15.000000"  style="stroke: black; stroke-linecap:round; stroke-width:0.25; stroke-dasharray:3,3;"/>
<line x1="119.975000" y1="15.000000" x2="245.600000" y2="15.000000"  style="stroke: black; stroke-linecap:round; stroke-width:0.25; stroke-dasharray:3,3;"/>
<text x="20.000000" y="17.000000" font-family="Arial" font-size="7">if((x54,0.0f ...5f : select2)</text>
<line x1="247.600000" y1="115.000000" x2="250.600000" y2="116.000000"  transform="rotate(0.000000,250.600000,116.000000)" style="stroke: black; stroke-width:0.25;"/>
<line x1="247.600000" y1="117.000000" x2="250.600000" y2="116.000000"  transform="rotate(0.000000,250.600000,116.000000)" style="stroke: black; stroke-width:0.25;"/>
<line x1="50.050000" y1="100.000000" x2="54.050000" y2="100.000000"  style="stroke:black; stroke-linecap:round; stroke-width:0.25;"/>
<line x1="54.050000" y1="100.000000" x2="54.050000" y2="100.000000"  style="stroke:black; stroke-linecap:round; stroke-width:0.25;"/>
<line x1="54.050000" y1="100.000000" x2="58.050000" y2="100.000000"  style="stroke:black; stroke-linecap:round; stroke-width:0.25;"/>
<line x1="66.950000" y1="36.000000" x2="70.950000" y2="36.000000"  style="stroke:black; stroke-linecap:round; stroke-width:0.25;"/>
<line x1="66.950000" y1="68.000000" x2="70.950000" y2="68.000000"  style="stroke:black; stroke-linecap:round; stroke-width:0.25;"/>
<line x1="66.950000" y1="132.000000" x2="70.950000" y2="132.000000"  style="stroke:black; stroke-linecap:round; stroke-width:0.25;"/>
<line x1="70.950000" y1="36.000000" x2="78.950000" y2="36.000000"  style="stroke:black; stroke-linecap:round; stroke-width:0.25;"/>
<line x1="70.950000" y1="56.000000" x2="78.950000" y2="56.000000"  style="stroke:black; stroke-linecap:round; stroke-width:0.25;"/>
<line x1="70.950000" y1="68.000000" x2="70.950000" y2="56.000000"  style="stroke:black; stroke-linecap:round; stroke-width:0.25;"/>
<line x1="70.950000" y1="68.000000" x2="70.950000" y2="68.000000"  style="stroke:black; stroke-linecap:round; stroke-width:0.25;"/>
<line x1="70.950000" y1="132.000000" x2="87.850000" y2="132.000000"  style="stroke:black; stroke-linecap:round; stroke-width:0.25;"/>
<line x1="78.950000" y1="36.000000" x2="78.950000" y2="48.000000"  style="stroke:black; stroke-linecap:round; stroke-width:0.25;"/>
<line x1="78.950000" y1="48.000000" x2="78.950000" y2="48.000000"  style="stroke:black; stroke-linecap:round; stroke-width:0.25;"/>
<line x1="78.950000" y1="48.000000" x2="82.950000" y2="48.000000"  style="stroke:black; stroke-linecap:round; stroke-width:0.25;"/>
<line x1="78.950000" y1="56.000000" x2="82.950000" y2="56.000000"  style="stroke:black; stroke-linecap:round; stroke-width:0.25;"/>
<line x1="83.850000" y1="100.000000" x2="87.850000" y2="100.000000"  style="stroke:black; stroke-linecap:round; stroke-width:0.25;"/>
<line x1="87.850000" y1="100.000000" x2="95.850000" y2="100.000000"  style="stroke:black; stroke-linecap:round; stroke-width:0.25;"/>
<line x1="87.850000" y1="120.000000" x2="95.850000" y2="120.000000"  style="stroke:black; stroke-linecap:round; stroke-width:0.25;"/>
<line x1="87.850000" y1="132.000000" x2="87.850000" y2="120.000000"  style="stroke:black; stroke-linecap:round; stroke-width:0.25;"/>
<line x1="87.850000" y1="132.000000" x2="87.850000" y2="132.000000"  style="stroke:black; stroke-linecap:round; stroke-width:0.25;"/>
<line x1="95.850000" y1="100.000000" x2="95.850000" y2="112.000000"  style="stroke:black; stroke-linecap:round; stroke-width:0.25;"/>
<line x1="95.850000" y1="112.000000" x2="95.850000" y2="112.000000"  style="stroke:black; stroke-linecap:round; stroke-width:0.25;"/>
<line x1="95.850000" y1="112.000000" x2="99.850000" y2="112.000000"  style="stroke:black; stroke-linecap:round; stroke-width:0.25;"/>
<line x1="95.850000" y1="120.000000" x2="99.850000" y2="120.000000"  style="stroke:black; stroke-linecap:round; stroke-width:0.25;"/>
<line x1="106.950000" y1="52.000000" x2="110.950000" y2="52.000000"  style="stroke:black; stroke-linecap:round; stroke-width:0.25;"/>
<line x1="110.950000" y1="52.000000" x2="127.850000" y2="52.000000"  style="stroke:black; stroke-linecap:round; stroke-width:0.25;"/>
<line x1="120.750000" y1="196.000000" x2="124.750000" y2="196.000000"  style="stroke:black; stroke-linecap:round; stroke-width:0.25;"/>
<line x1="123.850000" y1="116.000000" x2="127.850000" y2="116.000000"  style="stroke:black; stroke-linecap:round; stroke-width:0.25;"/>
<line x1="124.750000" y1="196.000000" x2="169.900000" y2="196.000000"  style="stroke:black; stroke-linecap:round; stroke-width:0.25;"/>
<line x1="127.850000" y1="52.000000" x2="135.850000" y2="52.000000"  style="stroke:black; stroke-linecap:round; stroke-width:0.25;"/>
<line x1="127.850000" y1="88.000000" x2="135.850000" y2="88.000000"  style="stroke:black; stroke-linecap:round; stroke-width:0.25;"/>
<line x1="127.850000" y1="116.000000" x2="127.850000" y2="88.000000"  style="stroke:black; stroke-linecap:round; stroke-width:0.25;"/>
<line x1="127.850000" y1="116.000000" x2="127.850000" y2="116.000000"  style="stroke:black; stroke-linecap:round; stroke-width:0.25;"/>
<line x1="135.850000" y1="52.000000" x2="135.850000" y2="80.000000"  style="stroke:black; stroke-linecap:round; stroke-width:0.25;"/>
<line x1="135.850000" y1="80.000000" x2="135.850000" y2="80.000000"  style="stroke:black; stroke-linecap:round; stroke-width:0.25;"/>
<line x1="135.850000" y1="80.000000" x2="139.850000" y2="80.000000"  style="stroke:black; stroke-linecap:round; stroke-width:0.25;"/>
<line x1="135.850000" y1="88.000000" x2="139.850000" y2="88.000000"  style="stroke:black; stroke-linecap:round; stroke-width:0.25;"/>
<line x1="163.850000" y1="84.000000" x2="167.850000" y2="84.000000"  style="stroke:black; stroke-linecap:round; stroke-width:0.25;"/>
<line x1="165.900000" y1="164.000000" x2="169.900000" y2="164.000000"  style="stroke:black; stroke-linecap:round; stroke-width:0.25;"/>
<line x1="167.850000" y1="84.000000" x2="169.900000" y2="84.000000"  style="stroke:black; stroke-linecap:round; stroke-width:0.25;"/>
<line x1="169.900000" y1="84.000000" x2="185.900000" y2="84.000000"  style="stroke:black; stroke-linecap:round; stroke-width:0.25;"/>
<line x1="169.900000" y1="116.000000" x2="185.900000" y2="116.000000"  style="stroke:black; stroke-linecap:round; stroke-width:0.25;"/>
<line x1="169.900000" y1="164.000000" x2="169.900000" y2="116.000000"  style="stroke:black; stroke-linecap:round; stroke-width:0.25;"/>
<line x1="169.900000" y1="164.000000" x2="169.900000" y2="164.000000"  style="stroke:black; stroke-linecap:round; stroke-width:0.25;"/>
<line x1="169.900000" y1="196.000000" x2="177.900000" y2="196.000000"  style="stroke:black; stroke-linecap:round; stroke-width:0.25;"/>
<line x1="177.900000" y1="124.000000" x2="185.900000" y2="124.000000"  style="stroke:black; stroke-linecap:round; stroke-width:0.25;"/>
<line x1="177.900000" y1="196.000000" x2="177.900000" y2="124.000000"  style="stroke:black; stroke-linecap:round; stroke-width:0.25;"/>
<line x1="185.900000" y1="84.000000" x2="185.900000" y2="108.000000"  style="stroke:black; stroke-linecap:round; stroke-width:0.25;"/>
<line x1="185.900000" y1="108.000000" x2="185.900000" y2="108.000000"  style="stroke:black; stroke-linecap:round; stroke-width:0.25;"/>
<line x1="185.900000" y1="108.000000" x2="189.900000" y2="108.000000"  style="stroke:black; stroke-linecap:round; stroke-width:0.25;"/>
<line x1="185.900000" y1="116.000000" x2="189.900000" y2="116.000000"  style="stroke:black; stroke-linecap:round; stroke-width:0.25;"/>
<line x1="185.900000" y1="124.000000" x2="189.900000" y2="124.000000"  style="stroke:black; stroke-linecap:round; stroke-width:0.25;"/>
<line x1="228.600000" y1="116.000000" x2="232.600000" y2="116.000000"  style="stroke:black; stroke-linecap:round; stroke-width:0.25;"/>
<line x1="232.600000" y1="116.000000" x2="232.600000" y2="116.000000"  style="stroke:black; stroke-linecap:round; stroke-width:0.25;"/>
<line x1="232.600000" y1="116.000000" x2="236.600000" y2="116.000000"  style="stroke:black; stroke-linecap:round; stroke-width:0.25;"/>
<line x1="236.600000" y1="116.000000" x2="240.600000" y2="116.000000"  style="stroke:black; stroke-linecap:round; stroke-width:0.25;"/>
<line x1="240.600000" y1="116.000000" x2="250.600000" y2="116.000000"  style="stroke:black; stroke-linecap:round; stroke-width:0.25;"/>
</svg>
