<?xml version="1.0"?>
<svg xmlns="http://www.w3.org/2000/svg" xmlns:xlink="http://www.w3.org/1999/xlink" viewBox="0 0 256.500000 232.000000" width="128.250000mm" height="116.000000mm" version="1.1">
<defs>
   <filter id="filter" filterRes="18" x="0" y="0">
     <feGaussianBlur in="SourceGraphic" stdDeviation="1.55" result="blur"/>
     <feOffset in="blur" dx="3" dy="3"/>
   </filter>
</defs>
<a xlink:href="ctrl-0x56137d5ad1c0.svg">
<rect x="1.000000" y="1.000000" width="255.500000" height="231.000000" rx="0.1" ry="0.1" style="stroke:none;fill:#aaaaaa;;filter:url(#filter);"/>
<rect x="0.000000" y="0.000000" width="255.500000" height="231.000000" rx="0" ry="0" style="stroke:none;fill:#ffffff;"/>
</a>
<text x="10.000000" y="7.000000" font-family="Arial" font-size="7"></text>
<rect x="41.900000" y="25.000000" width="24.000000" height="24.000000" rx="0.1" ry="0.1" style="stroke:none;fill:#aaaaaa;;filter:url(#filter);"/>
<rect x="40.900000" y="24.000000" width="24.000000" height="24.000000" rx="0" ry="0" style="stroke:none;fill:#47945E;"/>
<text x="52.900000" y="38.000000" font-family="Arial" font-size="7" text-anchor="middle" fill="#FFFFFF">ip</text>
<circle cx="42.900000" cy="26.000000" r="1"/>
<rect x="41.900000" y="57.000000" width="24.000000" height="24.000000" rx="0.1" ry="0.1" style="stroke:none;fill:#aaaaaa;;filter:url(#filter);"/>
<rect x="40.900000" y="56.000000" width="24.000000" height="24.000000" rx="0" ry="0" style="stroke:none;fill:#f44800;"/>
<text x="52.900000" y="70.000000" font-family="Arial" font-size="7" text-anchor="middle" fill="#FFFFFF">1</text>
<circle cx="42.900000" cy="58.000000" r="1"/>
<rect x="81.900000" y="41.000000" width="24.000000" height="24.000000" rx="0.1" ry="0.1" style="stroke:none;fill:#aaaaaa;;filter:url(#filter);"/>
<rect x="80.900000" y="40.000000" width="24.000000" height="24.000000" rx="0" ry="0" style="stroke:none;fill:#4B71A1;"/>
<text x="92.900000" y="54.000000" font-family="Arial" font-size="7" text-anchor="middle" fill="#FFFFFF">&gt;=</text>
<circle cx="82.900000" cy="42.000000" r="1"/>
<line x1="77.900000" y1="47.000000" x2="80.900000" y2="48.000000"  transform="rotate(0.000000,80.900000,48.000000)" style="stroke: black; stroke-width:0.25;"/>
<line x1="77.900000" y1="49.000000" x2="80.900000" y2="48.000000"  transform="rotate(0.000000,80.900000,48.000000)" style="stroke: black; stroke-width:0.25;"/>
<line x1="77.900000" y1="55.000000" x2="80.900000" y2="56.000000"  transform="rotate(0.000000,80.900000,56.000000)" style="stroke: black; stroke-width:0.25;"/>
<line x1="77.900000" y1="57.000000" x2="80.900000" y2="56.000000"  transform="rotate(0.000000,80.900000,56.000000)" style="stroke: black; stroke-width:0.25;"/>
<rect x="41.900000" y="89.000000" width="24.000000" height="24.000000" rx="0.1" ry="0.1" style="stroke:none;fill:#aaaaaa;;filter:url(#filter);"/>
<rect x="40.900000" y="88.000000" width="24.000000" height="24.000000" rx="0" ry="0" style="stroke:none;fill:#47945E;"/>
<text x="52.900000" y="102.000000" font-family="Arial" font-size="7" text-anchor="middle" fill="#FFFFFF">d1</text>
<circle cx="42.900000" cy="90.000000" r="1"/>
<a xlink:href="dt-0x56137cb46710.svg">
<rect x="25.000000" y="121.000000" width="24.000000" height="24.000000" rx="0.1" ry="0.1" style="stroke:none;fill:#aaaaaa;;filter:url(#filter);"/>
<rect x="24.000000" y="120.000000" width="24.000000" height="24.000000" rx="0" ry="0" style="stroke:none;fill:#003366;"/>
</a>
<a xlink:href="dt-0x56137cb46710.svg">
<text x="36.000000" y="134.000000" font-family="Arial" font-size="7" text-anchor="middle" fill="#FFFFFF">dt</text>
</a>
<circle cx="26.000000" cy="122.000000" r="1"/>
<rect x="57.000000" y="121.000000" width="25.800000" height="24.000000" rx="0.1" ry="0.1" style="stroke:none;fill:#aaaaaa;;filter:url(#filter);"/>
<rect x="56.000000" y="120.000000" width="25.800000" height="24.000000" rx="0" ry="0" style="stroke:none;fill:#4B71A1;"/>
<text x="68.900000" y="134.000000" font-family="Arial" font-size="7" text-anchor="middle" fill="#FFFFFF">floor</text>
<circle cx="58.000000" cy="122.000000" r="1"/>
<line x1="53.000000" y1="131.000000" x2="56.000000" y2="132.000000"  transform="rotate(0.000000,56.000000,132.000000)" style="stroke: black; stroke-width:0.25;"/>
<line x1="53.000000" y1="133.000000" x2="56.000000" y2="132.000000"  transform="rotate(0.000000,56.000000,132.000000)" style="stroke: black; stroke-width:0.25;"/>
<rect x="98.800000" y="105.000000" width="24.000000" height="24.000000" rx="0.1" ry="0.1" style="stroke:none;fill:#aaaaaa;;filter:url(#filter);"/>
<rect x="97.800000" y="104.000000" width="24.000000" height="24.000000" rx="0" ry="0" style="stroke:none;fill:#4B71A1;"/>
<text x="109.800000" y="118.000000" font-family="Arial" font-size="7" text-anchor="middle" fill="#FFFFFF">!=</text>
<circle cx="99.800000" cy="106.000000" r="1"/>
<line x1="94.800000" y1="111.000000" x2="97.800000" y2="112.000000"  transform="rotate(0.000000,97.800000,112.000000)" style="stroke: black; stroke-width:0.25;"/>
<line x1="94.800000" y1="113.000000" x2="97.800000" y2="112.000000"  transform="rotate(0.000000,97.800000,112.000000)" style="stroke: black; stroke-width:0.25;"/>
<line x1="94.800000" y1="119.000000" x2="97.800000" y2="120.000000"  transform="rotate(0.000000,97.800000,120.000000)" style="stroke: black; stroke-width:0.25;"/>
<line x1="94.800000" y1="121.000000" x2="97.800000" y2="120.000000"  transform="rotate(0.000000,97.800000,120.000000)" style="stroke: black; stroke-width:0.25;"/>
<rect x="138.800000" y="73.000000" width="24.000000" height="24.000000" rx="0.1" ry="0.1" style="stroke:none;fill:#aaaaaa;;filter:url(#filter);"/>
<rect x="137.800000" y="72.000000" width="24.000000" height="24.000000" rx="0" ry="0" style="stroke:none;fill:#4B71A1;"/>
<text x="149.800000" y="86.000000" font-family="Arial" font-size="7" text-anchor="middle" fill="#FFFFFF">&amp;</text>
<circle cx="139.800000" cy="74.000000" r="1"/>
<line x1="134.800000" y1="79.000000" x2="137.800000" y2="80.000000"  transform="rotate(0.000000,137.800000,80.000000)" style="stroke: black; stroke-width:0.25;"/>
<line x1="134.800000" y1="81.000000" x2="137.800000" y2="80.000000"  transform="rotate(0.000000,137.800000,80.000000)" style="stroke: black; stroke-width:0.25;"/>
<line x1="134.800000" y1="87.000000" x2="137.800000" y2="88.000000"  transform="rotate(0.000000,137.800000,88.000000)" style="stroke: black; stroke-width:0.25;"/>
<line x1="134.800000" y1="89.000000" x2="137.800000" y2="88.000000"  transform="rotate(0.000000,137.800000,88.000000)" style="stroke: black; stroke-width:0.25;"/>
<rect x="81.900000" y="153.000000" width="24.000000" height="24.000000" rx="0.1" ry="0.1" style="stroke:none;fill:#aaaaaa;;filter:url(#filter);"/>
<rect x="80.900000" y="152.000000" width="24.000000" height="24.000000" rx="0" ry="0" style="stroke:none;fill:#47945E;"/>
<text x="92.900000" y="166.000000" font-family="Arial" font-size="7" text-anchor="middle" fill="#FFFFFF">d0</text>
<circle cx="82.900000" cy="154.000000" r="1"/>
<a xlink:href="dt-0x56137cb46710.svg">
<rect x="65.000000" y="185.000000" width="24.000000" height="24.000000" rx="0.1" ry="0.1" style="stroke:none;fill:#aaaaaa;;filter:url(#filter);"/>
<rect x="64.000000" y="184.000000" width="24.000000" height="24.000000" rx="0" ry="0" style="stroke:none;fill:#003366;"/>
</a>
<a xlink:href="dt-0x56137cb46710.svg">
<text x="76.000000" y="198.000000" font-family="Arial" font-size="7" text-anchor="middle" fill="#FFFFFF">dt</text>
</a>
<circle cx="66.000000" cy="186.000000" r="1"/>
<rect x="97.000000" y="185.000000" width="25.800000" height="24.000000" rx="0.1" ry="0.1" style="stroke:none;fill:#aaaaaa;;filter:url(#filter);"/>
<rect x="96.000000" y="184.000000" width="25.800000" height="24.000000" rx="0" ry="0" style="stroke:none;fill:#4B71A1;"/>
<text x="108.900000" y="198.000000" font-family="Arial" font-size="7" text-anchor="middle" fill="#FFFFFF">floor</text>
<circle cx="98.000000" cy="186.000000" r="1"/>
<line x1="93.000000" y1="195.000000" x2="96.000000" y2="196.000000"  transform="rotate(0.000000,96.000000,196.000000)" style="stroke: black; stroke-width:0.25;"/>
<line x1="93.000000" y1="197.000000" x2="96.000000" y2="196.000000"  transform="rotate(0.000000,96.000000,196.000000)" style="stroke: black; stroke-width:0.25;"/>
<rect x="186.800000" y="105.000000" width="38.700000" height="24.000000" rx="0.1" ry="0.1" style="stroke:none;fill:#aaaaaa;;filter:url(#filter);"/>
<rect x="185.800000" y="104.000000" width="38.700000" height="24.000000" rx="0" ry="0" style="stroke:none;fill:#4B71A1;"/>
<text x="205.150000" y="118.000000" font-family="Arial" font-size="7" text-anchor="middle" fill="#FFFFFF">select2</text>
<circle cx="187.800000" cy="106.000000" r="1"/>
<line x1="182.800000" y1="107.000000" x2="185.800000" y2="108.000000"  transform="rotate(0.000000,185.800000,108.000000)" style="stroke: black; stroke-width:0.25;"/>
<line x1="182.800000" y1="109.000000" x2="185.800000" y2="108.000000"  transform="rotate(0.000000,185.800000,108.000000)" style="stroke: black; stroke-width:0.25;"/>
<line x1="182.800000" y1="115.000000" x2="185.800000" y2="116.000000"  transform="rotate(0.000000,185.800000,116.000000)" style="stroke: black; stroke-width:0.25;"/>
<line x1="182.800000" y1="117.000000" x2="185.800000" y2="116.000000"  transform="rotate(0.000000,185.800000,116.000000)" style="stroke: black; stroke-width:0.25;"/>
<line x1="182.800000" y1="123.000000" x2="185.800000" y2="124.000000"  transform="rotate(0.000000,185.800000,124.000000)" style="stroke: black; stroke-width:0.25;"/>
<line x1="182.800000" y1="125.000000" x2="185.800000" y2="124.000000"  transform="rotate(0.000000,185.800000,124.000000)" style="stroke: black; stroke-width:0.25;"/>
<line x1="15.000000" y1="15.000000" x2="15.000000" y2="217.000000"  style="stroke: black; stroke-linecap:round; stroke-width:0.25; stroke-dasharray:3,3;"/>
<line x1="15.000000" y1="217.000000" x2="241.500000" y2="217.000000"  style="stroke: black; stroke-linecap:round; stroke-width:0.25; stroke-dasharray:3,3;"/>
<line x1="241.500000" y1="217.000000" x2="241.500000" y2="15.000000"  style="stroke: black; stroke-linecap:round; stroke-width:0.25; stroke-dasharray:3,3;"/>
<line x1="15.000000" y1="15.000000" x2="20.000000" y2="15.000000"  style="stroke: black; stroke-linecap:round; stroke-width:0.25; stroke-dasharray:3,3;"/>
<line x1="36.125000" y1="15.000000" x2="241.500000" y2="15.000000"  style="stroke: black; stroke-linecap:round; stroke-width:0.25; stroke-dasharray:3,3;"/>
<text x="20.000000" y="17.000000" font-family="Arial" font-size="7">nd0</text>
<line x1="243.500000" y1="115.000000" x2="246.500000" y2="116.000000"  transform="rotate(0.000000,246.500000,116.000000)" style="stroke: black; stroke-width:0.25;"/>
<line x1="243.500000" y1="117.000000" x2="246.500000" y2="116.000000"  transform="rotate(0.000000,246.500000,116.000000)" style="stroke: black; stroke-width:0.25;"/>
<line x1="48.000000" y1="132.000000" x2="52.000000" y2="132.000000"  style="stroke:black; stroke-linecap:round; stroke-width:0.25;"/>
<line x1="52.000000" y1="132.000000" x2="52.000000" y2="132.000000"  style="stroke:black; stroke-linecap:round; stroke-width:0.25;"/>
<line x1="52.000000" y1="132.000000" x2="56.000000" y2="132.000000"  style="stroke:black; stroke-linecap:round; stroke-width:0.25;"/>
<line x1="64.900000" y1="36.000000" x2="68.900000" y2="36.000000"  style="stroke:black; stroke-linecap:round; stroke-width:0.25;"/>
<line x1="64.900000" y1="68.000000" x2="68.900000" y2="68.000000"  style="stroke:black; stroke-linecap:round; stroke-width:0.25;"/>
<line x1="64.900000" y1="100.000000" x2="68.900000" y2="100.000000"  style="stroke:black; stroke-linecap:round; stroke-width:0.25;"/>
<line x1="68.900000" y1="36.000000" x2="76.900000" y2="36.000000"  style="stroke:black; stroke-linecap:round; stroke-width:0.25;"/>
<line x1="68.900000" y1="56.000000" x2="76.900000" y2="56.000000"  style="stroke:black; stroke-linecap:round; stroke-width:0.25;"/>
<line x1="68.900000" y1="68.000000" x2="68.900000" y2="56.000000"  style="stroke:black; stroke-linecap:round; stroke-width:0.25;"/>
<line x1="68.900000" y1="68.000000" x2="68.900000" y2="68.000000"  style="stroke:black; stroke-linecap:round; stroke-width:0.25;"/>
<line x1="68.900000" y1="100.000000" x2="85.800000" y2="100.000000"  style="stroke:black; stroke-linecap:round; stroke-width:0.25;"/>
<line x1="76.900000" y1="36.000000" x2="76.900000" y2="48.000000"  style="stroke:black; stroke-linecap:round; stroke-width:0.25;"/>
<line x1="76.900000" y1="48.000000" x2="76.900000" y2="48.000000"  style="stroke:black; stroke-linecap:round; stroke-width:0.25;"/>
<line x1="76.900000" y1="48.000000" x2="80.900000" y2="48.000000"  style="stroke:black; stroke-linecap:round; stroke-width:0.25;"/>
<line x1="76.900000" y1="56.000000" x2="80.900000" y2="56.000000"  style="stroke:black; stroke-linecap:round; stroke-width:0.25;"/>
<line x1="81.800000" y1="132.000000" x2="85.800000" y2="132.000000"  style="stroke:black; stroke-linecap:round; stroke-width:0.25;"/>
<line x1="85.800000" y1="120.000000" x2="93.800000" y2="120.000000"  style="stroke:black; stroke-linecap:round; stroke-width:0.25;"/>
<line x1="85.800000" y1="132.000000" x2="85.800000" y2="120.000000"  style="stroke:black; stroke-linecap:round; stroke-width:0.25;"/>
<line x1="85.800000" y1="132.000000" x2="85.800000" y2="132.000000"  style="stroke:black; stroke-linecap:round; stroke-width:0.25;"/>
<line x1="85.800000" y1="100.000000" x2="93.800000" y2="100.000000"  style="stroke:black; stroke-linecap:round; stroke-width:0.25;"/>
<line x1="88.000000" y1="196.000000" x2="92.000000" y2="196.000000"  style="stroke:black; stroke-linecap:round; stroke-width:0.25;"/>
<line x1="92.000000" y1="196.000000" x2="92.000000" y2="196.000000"  style="stroke:black; stroke-linecap:round; stroke-width:0.25;"/>
<line x1="92.000000" y1="196.000000" x2="96.000000" y2="196.000000"  style="stroke:black; stroke-linecap:round; stroke-width:0.25;"/>
<line x1="93.800000" y1="112.000000" x2="97.800000" y2="112.000000"  style="stroke:black; stroke-linecap:round; stroke-width:0.25;"/>
<line x1="93.800000" y1="120.000000" x2="97.800000" y2="120.000000"  style="stroke:black; stroke-linecap:round; stroke-width:0.25;"/>
<line x1="93.800000" y1="100.000000" x2="93.800000" y2="112.000000"  style="stroke:black; stroke-linecap:round; stroke-width:0.25;"/>
<line x1="93.800000" y1="112.000000" x2="93.800000" y2="112.000000"  style="stroke:black; stroke-linecap:round; stroke-width:0.25;"/>
<line x1="104.900000" y1="52.000000" x2="108.900000" y2="52.000000"  style="stroke:black; stroke-linecap:round; stroke-width:0.25;"/>
<line x1="104.900000" y1="164.000000" x2="108.900000" y2="164.000000"  style="stroke:black; stroke-linecap:round; stroke-width:0.25;"/>
<line x1="108.900000" y1="52.000000" x2="125.800000" y2="52.000000"  style="stroke:black; stroke-linecap:round; stroke-width:0.25;"/>
<line x1="108.900000" y1="164.000000" x2="125.800000" y2="164.000000"  style="stroke:black; stroke-linecap:round; stroke-width:0.25;"/>
<line x1="121.800000" y1="116.000000" x2="125.800000" y2="116.000000"  style="stroke:black; stroke-linecap:round; stroke-width:0.25;"/>
<line x1="121.800000" y1="196.000000" x2="125.800000" y2="196.000000"  style="stroke:black; stroke-linecap:round; stroke-width:0.25;"/>
<line x1="125.800000" y1="88.000000" x2="133.800000" y2="88.000000"  style="stroke:black; stroke-linecap:round; stroke-width:0.25;"/>
<line x1="125.800000" y1="116.000000" x2="125.800000" y2="88.000000"  style="stroke:black; stroke-linecap:round; stroke-width:0.25;"/>
<line x1="125.800000" y1="116.000000" x2="125.800000" y2="116.000000"  style="stroke:black; stroke-linecap:round; stroke-width:0.25;"/>
<line x1="125.800000" y1="196.000000" x2="165.800000" y2="196.000000"  style="stroke:black; stroke-linecap:round; stroke-width:0.25;"/>
<line x1="125.800000" y1="52.000000" x2="133.800000" y2="52.000000"  style="stroke:black; stroke-linecap:round; stroke-width:0.25;"/>
<line x1="125.800000" y1="164.000000" x2="165.800000" y2="164.000000"  style="stroke:black; stroke-linecap:round; stroke-width:0.25;"/>
<line x1="133.800000" y1="52.000000" x2="133.800000" y2="80.000000"  style="stroke:black; stroke-linecap:round; stroke-width:0.25;"/>
<line x1="133.800000" y1="80.000000" x2="133.800000" y2="80.000000"  style="stroke:black; stroke-linecap:round; stroke-width:0.25;"/>
<line x1="133.800000" y1="80.000000" x2="137.800000" y2="80.000000"  style="stroke:black; stroke-linecap:round; stroke-width:0.25;"/>
<line x1="133.800000" y1="88.000000" x2="137.800000" y2="88.000000"  style="stroke:black; stroke-linecap:round; stroke-width:0.25;"/>
<line x1="161.800000" y1="84.000000" x2="165.800000" y2="84.000000"  style="stroke:black; stroke-linecap:round; stroke-width:0.25;"/>
<line x1="165.800000" y1="84.000000" x2="181.800000" y2="84.000000"  style="stroke:black; stroke-linecap:round; stroke-width:0.25;"/>
<line x1="165.800000" y1="116.000000" x2="181.800000" y2="116.000000"  style="stroke:black; stroke-linecap:round; stroke-width:0.25;"/>
<line x1="165.800000" y1="164.000000" x2="165.800000" y2="116.000000"  style="stroke:black; stroke-linecap:round; stroke-width:0.25;"/>
<line x1="165.800000" y1="164.000000" x2="165.800000" y2="164.000000"  style="stroke:black; stroke-linecap:round; stroke-width:0.25;"/>
<line x1="165.800000" y1="196.000000" x2="173.800000" y2="196.000000"  style="stroke:black; stroke-linecap:round; stroke-width:0.25;"/>
<line x1="173.800000" y1="124.000000" x2="181.800000" y2="124.000000"  style="stroke:black; stroke-linecap:round; stroke-width:0.25;"/>
<line x1="173.800000" y1="196.000000" x2="173.800000" y2="124.000000"  style="stroke:black; stroke-linecap:round; stroke-width:0.25;"/>
<line x1="181.800000" y1="84.000000" x2="181.800000" y2="108.000000"  style="stroke:black; stroke-linecap:round; stroke-width:0.25;"/>
<line x1="181.800000" y1="108.000000" x2="181.800000" y2="108.000000"  style="stroke:black; stroke-linecap:round; stroke-width:0.25;"/>
<line x1="181.800000" y1="108.000000" x2="185.800000" y2="108.000000"  style="stroke:black; stroke-linecap:round; stroke-width:0.25;"/>
<line x1="181.800000" y1="116.000000" x2="185.800000" y2="116.000000"  style="stroke:black; stroke-linecap:round; stroke-width:0.25;"/>
<line x1="181.800000" y1="124.000000" x2="185.800000" y2="124.000000"  style="stroke:black; stroke-linecap:round; stroke-width:0.25;"/>
<line x1="224.500000" y1="116.000000" x2="228.500000" y2="116.000000"  style="stroke:black; stroke-linecap:round; stroke-width:0.25;"/>
<line x1="228.500000" y1="116.000000" x2="228.500000" y2="116.000000"  style="stroke:black; stroke-linecap:round; stroke-width:0.25;"/>
<line x1="228.500000" y1="116.000000" x2="232.500000" y2="116.000000"  style="stroke:black; stroke-linecap:round; stroke-width:0.25;"/>
<line x1="232.500000" y1="116.000000" x2="236.500000" y2="116.000000"  style="stroke:black; stroke-linecap:round; stroke-width:0.25;"/>
<line x1="236.500000" y1="116.000000" x2="246.500000" y2="116.000000"  style="stroke:black; stroke-linecap:round; stroke-width:0.25;"/>
</svg>
