<?xml version="1.0"?>
<svg xmlns="http://www.w3.org/2000/svg" xmlns:xlink="http://www.w3.org/1999/xlink" viewBox="0 0 454.700000 348.000000" width="227.350000mm" height="174.000000mm" version="1.1">
<defs>
   <filter id="filter" filterRes="18" x="0" y="0">
     <feGaussianBlur in="SourceGraphic" stdDeviation="1.55" result="blur"/>
     <feOffset in="blur" dx="3" dy="3"/>
   </filter>
</defs>
<a xlink:href="dmo-0x56137d069370.svg">
<rect x="1.000000" y="1.000000" width="453.700000" height="347.000000" rx="0.1" ry="0.1" style="stroke:none;fill:#aaaaaa;;filter:url(#filter);"/>
<rect x="0.000000" y="0.000000" width="453.700000" height="347.000000" rx="0" ry="0" style="stroke:none;fill:#ffffff;"/>
</a>
<text x="10.000000" y="7.000000" font-family="Arial" font-size="7"></text>
<rect x="160.750000" y="25.000000" width="64.500000" height="24.000000" rx="0.1" ry="0.1" style="stroke:none;fill:#aaaaaa;;filter:url(#filter);"/>
<rect x="159.750000" y="24.000000" width="64.500000" height="24.000000" rx="0" ry="0" style="stroke:none;fill:#4B71A1;"/>
<text x="192.000000" y="38.000000" font-family="Arial" font-size="7" text-anchor="middle" fill="#FFFFFF">waveform{...}</text>
<circle cx="161.750000" cy="26.000000" r="1"/>
<rect x="46.700000" y="67.000000" width="180.600000" height="24.000000" rx="0.1" ry="0.1" style="stroke:none;fill:#aaaaaa;;filter:url(#filter);"/>
<rect x="45.700000" y="66.000000" width="180.600000" height="24.000000" rx="0" ry="0" style="stroke:none;fill:#477881;"/>
<text x="136.000000" y="80.000000" font-family="Arial" font-size="7" text-anchor="middle" fill="#FFFFFF">hslider(size, 1.0f, 0.5f, 3.0f, 0.0001f)</text>
<circle cx="47.700000" cy="68.000000" r="1"/>
<line x1="36.700000" y1="57.000000" x2="36.700000" y2="99.000000"  style="stroke: black; stroke-linecap:round; stroke-width:0.25; stroke-dasharray:3,3;"/>
<line x1="36.700000" y1="99.000000" x2="235.300000" y2="99.000000"  style="stroke: black; stroke-linecap:round; stroke-width:0.25; stroke-dasharray:3,3;"/>
<line x1="235.300000" y1="99.000000" x2="235.300000" y2="57.000000"  style="stroke: black; stroke-linecap:round; stroke-width:0.25; stroke-dasharray:3,3;"/>
<line x1="36.700000" y1="57.000000" x2="41.700000" y2="57.000000"  style="stroke: black; stroke-linecap:round; stroke-width:0.25; stroke-dasharray:3,3;"/>
<line x1="61.050000" y1="57.000000" x2="235.300000" y2="57.000000"  style="stroke: black; stroke-linecap:round; stroke-width:0.25; stroke-dasharray:3,3;"/>
<text x="41.700000" y="59.000000" font-family="Arial" font-size="7">size</text>
<rect x="45.000000" y="109.000000" width="24.000000" height="24.000000" rx="0.1" ry="0.1" style="stroke:none;fill:#aaaaaa;;filter:url(#filter);"/>
<rect x="44.000000" y="108.000000" width="24.000000" height="24.000000" rx="0" ry="0" style="stroke:none;fill:#f44800;"/>
<text x="56.000000" y="122.000000" font-family="Arial" font-size="7" text-anchor="middle" fill="#FFFFFF">10</text>
<circle cx="46.000000" cy="110.000000" r="1"/>
<rect x="25.000000" y="141.000000" width="24.000000" height="24.000000" rx="0.1" ry="0.1" style="stroke:none;fill:#aaaaaa;;filter:url(#filter);"/>
<rect x="24.000000" y="140.000000" width="24.000000" height="24.000000" rx="0" ry="0" style="stroke:none;fill:#f44800;"/>
<text x="36.000000" y="154.000000" font-family="Arial" font-size="7" text-anchor="middle" fill="#FFFFFF">19</text>
<circle cx="26.000000" cy="142.000000" r="1"/>
<rect x="25.000000" y="173.000000" width="24.000000" height="24.000000" rx="0.1" ry="0.1" style="stroke:none;fill:#aaaaaa;;filter:url(#filter);"/>
<rect x="24.000000" y="172.000000" width="24.000000" height="24.000000" rx="0" ry="0" style="stroke:none;fill:#f44800;"/>
<text x="36.000000" y="186.000000" font-family="Arial" font-size="7" text-anchor="middle" fill="#FFFFFF">1</text>
<circle cx="26.000000" cy="174.000000" r="1"/>
<rect x="65.000000" y="157.000000" width="24.000000" height="24.000000" rx="0.1" ry="0.1" style="stroke:none;fill:#aaaaaa;;filter:url(#filter);"/>
<rect x="64.000000" y="156.000000" width="24.000000" height="24.000000" rx="0" ry="0" style="stroke:none;fill:#4B71A1;"/>
<text x="76.000000" y="170.000000" font-family="Arial" font-size="7" text-anchor="middle" fill="#FFFFFF">*</text>
<circle cx="66.000000" cy="158.000000" r="1"/>
<line x1="61.000000" y1="163.000000" x2="64.000000" y2="164.000000"  transform="rotate(0.000000,64.000000,164.000000)" style="stroke: black; stroke-width:0.25;"/>
<line x1="61.000000" y1="165.000000" x2="64.000000" y2="164.000000"  transform="rotate(0.000000,64.000000,164.000000)" style="stroke: black; stroke-width:0.25;"/>
<line x1="61.000000" y1="171.000000" x2="64.000000" y2="172.000000"  transform="rotate(0.000000,64.000000,172.000000)" style="stroke: black; stroke-width:0.25;"/>
<line x1="61.000000" y1="173.000000" x2="64.000000" y2="172.000000"  transform="rotate(0.000000,64.000000,172.000000)" style="stroke: black; stroke-width:0.25;"/>
<rect x="105.000000" y="141.000000" width="24.000000" height="24.000000" rx="0.1" ry="0.1" style="stroke:none;fill:#aaaaaa;;filter:url(#filter);"/>
<rect x="104.000000" y="140.000000" width="24.000000" height="24.000000" rx="0" ry="0" style="stroke:none;fill:#4B71A1;"/>
<text x="116.000000" y="154.000000" font-family="Arial" font-size="7" text-anchor="middle" fill="#FFFFFF">+</text>
<circle cx="106.000000" cy="142.000000" r="1"/>
<line x1="101.000000" y1="147.000000" x2="104.000000" y2="148.000000"  transform="rotate(0.000000,104.000000,148.000000)" style="stroke: black; stroke-width:0.25;"/>
<line x1="101.000000" y1="149.000000" x2="104.000000" y2="148.000000"  transform="rotate(0.000000,104.000000,148.000000)" style="stroke: black; stroke-width:0.25;"/>
<line x1="101.000000" y1="155.000000" x2="104.000000" y2="156.000000"  transform="rotate(0.000000,104.000000,156.000000)" style="stroke: black; stroke-width:0.25;"/>
<line x1="101.000000" y1="157.000000" x2="104.000000" y2="156.000000"  transform="rotate(0.000000,104.000000,156.000000)" style="stroke: black; stroke-width:0.25;"/>
<rect x="65.000000" y="205.000000" width="24.000000" height="24.000000" rx="0.1" ry="0.1" style="stroke:none;fill:#aaaaaa;;filter:url(#filter);"/>
<rect x="64.000000" y="204.000000" width="24.000000" height="24.000000" rx="0" ry="0" style="stroke:none;fill:#f44800;"/>
<text x="76.000000" y="218.000000" font-family="Arial" font-size="7" text-anchor="middle" fill="#FFFFFF">13</text>
<circle cx="66.000000" cy="206.000000" r="1"/>
<rect x="145.000000" y="157.000000" width="24.000000" height="24.000000" rx="0.1" ry="0.1" style="stroke:none;fill:#aaaaaa;;filter:url(#filter);"/>
<rect x="144.000000" y="156.000000" width="24.000000" height="24.000000" rx="0" ry="0" style="stroke:none;fill:#4B71A1;"/>
<text x="156.000000" y="170.000000" font-family="Arial" font-size="7" text-anchor="middle" fill="#FFFFFF">+</text>
<circle cx="146.000000" cy="158.000000" r="1"/>
<line x1="141.000000" y1="163.000000" x2="144.000000" y2="164.000000"  transform="rotate(0.000000,144.000000,164.000000)" style="stroke: black; stroke-width:0.25;"/>
<line x1="141.000000" y1="165.000000" x2="144.000000" y2="164.000000"  transform="rotate(0.000000,144.000000,164.000000)" style="stroke: black; stroke-width:0.25;"/>
<line x1="141.000000" y1="171.000000" x2="144.000000" y2="172.000000"  transform="rotate(0.000000,144.000000,172.000000)" style="stroke: black; stroke-width:0.25;"/>
<line x1="141.000000" y1="173.000000" x2="144.000000" y2="172.000000"  transform="rotate(0.000000,144.000000,172.000000)" style="stroke: black; stroke-width:0.25;"/>
<rect x="85.000000" y="237.000000" width="24.000000" height="24.000000" rx="0.1" ry="0.1" style="stroke:none;fill:#aaaaaa;;filter:url(#filter);"/>
<rect x="84.000000" y="236.000000" width="24.000000" height="24.000000" rx="0" ry="0" style="stroke:none;fill:#f44800;"/>
<text x="96.000000" y="250.000000" font-family="Arial" font-size="7" text-anchor="middle" fill="#FFFFFF">13</text>
<circle cx="86.000000" cy="238.000000" r="1"/>
<rect x="185.000000" y="173.000000" width="24.000000" height="24.000000" rx="0.1" ry="0.1" style="stroke:none;fill:#aaaaaa;;filter:url(#filter);"/>
<rect x="184.000000" y="172.000000" width="24.000000" height="24.000000" rx="0" ry="0" style="stroke:none;fill:#4B71A1;"/>
<text x="196.000000" y="186.000000" font-family="Arial" font-size="7" text-anchor="middle" fill="#FFFFFF">+</text>
<circle cx="186.000000" cy="174.000000" r="1"/>
<line x1="181.000000" y1="179.000000" x2="184.000000" y2="180.000000"  transform="rotate(0.000000,184.000000,180.000000)" style="stroke: black; stroke-width:0.25;"/>
<line x1="181.000000" y1="181.000000" x2="184.000000" y2="180.000000"  transform="rotate(0.000000,184.000000,180.000000)" style="stroke: black; stroke-width:0.25;"/>
<line x1="181.000000" y1="187.000000" x2="184.000000" y2="188.000000"  transform="rotate(0.000000,184.000000,188.000000)" style="stroke: black; stroke-width:0.25;"/>
<line x1="181.000000" y1="189.000000" x2="184.000000" y2="188.000000"  transform="rotate(0.000000,184.000000,188.000000)" style="stroke: black; stroke-width:0.25;"/>
<rect x="105.000000" y="269.000000" width="24.000000" height="24.000000" rx="0.1" ry="0.1" style="stroke:none;fill:#aaaaaa;;filter:url(#filter);"/>
<rect x="104.000000" y="268.000000" width="24.000000" height="24.000000" rx="0" ry="0" style="stroke:none;fill:#f44800;"/>
<text x="116.000000" y="282.000000" font-family="Arial" font-size="7" text-anchor="middle" fill="#FFFFFF">13</text>
<circle cx="106.000000" cy="270.000000" r="1"/>
<rect x="225.000000" y="189.000000" width="24.000000" height="24.000000" rx="0.1" ry="0.1" style="stroke:none;fill:#aaaaaa;;filter:url(#filter);"/>
<rect x="224.000000" y="188.000000" width="24.000000" height="24.000000" rx="0" ry="0" style="stroke:none;fill:#4B71A1;"/>
<text x="236.000000" y="202.000000" font-family="Arial" font-size="7" text-anchor="middle" fill="#FFFFFF">+</text>
<circle cx="226.000000" cy="190.000000" r="1"/>
<line x1="221.000000" y1="195.000000" x2="224.000000" y2="196.000000"  transform="rotate(0.000000,224.000000,196.000000)" style="stroke: black; stroke-width:0.25;"/>
<line x1="221.000000" y1="197.000000" x2="224.000000" y2="196.000000"  transform="rotate(0.000000,224.000000,196.000000)" style="stroke: black; stroke-width:0.25;"/>
<line x1="221.000000" y1="203.000000" x2="224.000000" y2="204.000000"  transform="rotate(0.000000,224.000000,204.000000)" style="stroke: black; stroke-width:0.25;"/>
<line x1="221.000000" y1="205.000000" x2="224.000000" y2="204.000000"  transform="rotate(0.000000,224.000000,204.000000)" style="stroke: black; stroke-width:0.25;"/>
<rect x="265.000000" y="163.000000" width="24.000000" height="24.000000" rx="0.1" ry="0.1" style="stroke:none;fill:#aaaaaa;;filter:url(#filter);"/>
<rect x="264.000000" y="162.000000" width="24.000000" height="24.000000" rx="0" ry="0" style="stroke:none;fill:#4B71A1;"/>
<text x="276.000000" y="176.000000" font-family="Arial" font-size="7" text-anchor="middle" fill="#FFFFFF">*</text>
<circle cx="266.000000" cy="164.000000" r="1"/>
<line x1="261.000000" y1="169.000000" x2="264.000000" y2="170.000000"  transform="rotate(0.000000,264.000000,170.000000)" style="stroke: black; stroke-width:0.25;"/>
<line x1="261.000000" y1="171.000000" x2="264.000000" y2="170.000000"  transform="rotate(0.000000,264.000000,170.000000)" style="stroke: black; stroke-width:0.25;"/>
<line x1="261.000000" y1="177.000000" x2="264.000000" y2="178.000000"  transform="rotate(0.000000,264.000000,178.000000)" style="stroke: black; stroke-width:0.25;"/>
<line x1="261.000000" y1="179.000000" x2="264.000000" y2="178.000000"  transform="rotate(0.000000,264.000000,178.000000)" style="stroke: black; stroke-width:0.25;"/>
<rect x="145.000000" y="301.000000" width="24.000000" height="24.000000" rx="0.1" ry="0.1" style="stroke:none;fill:#aaaaaa;;filter:url(#filter);"/>
<rect x="144.000000" y="300.000000" width="24.000000" height="24.000000" rx="0" ry="0" style="stroke:none;fill:#f44800;"/>
<text x="156.000000" y="314.000000" font-family="Arial" font-size="7" text-anchor="middle" fill="#FFFFFF">10</text>
<circle cx="146.000000" cy="302.000000" r="1"/>
<rect x="305.000000" y="179.000000" width="24.000000" height="24.000000" rx="0.1" ry="0.1" style="stroke:none;fill:#aaaaaa;;filter:url(#filter);"/>
<rect x="304.000000" y="178.000000" width="24.000000" height="24.000000" rx="0" ry="0" style="stroke:none;fill:#4B71A1;"/>
<text x="316.000000" y="192.000000" font-family="Arial" font-size="7" text-anchor="middle" fill="#FFFFFF">+</text>
<circle cx="306.000000" cy="180.000000" r="1"/>
<line x1="301.000000" y1="185.000000" x2="304.000000" y2="186.000000"  transform="rotate(0.000000,304.000000,186.000000)" style="stroke: black; stroke-width:0.25;"/>
<line x1="301.000000" y1="187.000000" x2="304.000000" y2="186.000000"  transform="rotate(0.000000,304.000000,186.000000)" style="stroke: black; stroke-width:0.25;"/>
<line x1="301.000000" y1="193.000000" x2="304.000000" y2="194.000000"  transform="rotate(0.000000,304.000000,194.000000)" style="stroke: black; stroke-width:0.25;"/>
<line x1="301.000000" y1="195.000000" x2="304.000000" y2="194.000000"  transform="rotate(0.000000,304.000000,194.000000)" style="stroke: black; stroke-width:0.25;"/>
<rect x="337.000000" y="179.000000" width="24.000000" height="24.000000" rx="0.1" ry="0.1" style="stroke:none;fill:#aaaaaa;;filter:url(#filter);"/>
<rect x="336.000000" y="178.000000" width="24.000000" height="24.000000" rx="0" ry="0" style="stroke:none;fill:#4B71A1;"/>
<text x="348.000000" y="192.000000" font-family="Arial" font-size="7" text-anchor="middle" fill="#FFFFFF">int</text>
<circle cx="338.000000" cy="180.000000" r="1"/>
<line x1="333.000000" y1="189.000000" x2="336.000000" y2="190.000000"  transform="rotate(0.000000,336.000000,190.000000)" style="stroke: black; stroke-width:0.25;"/>
<line x1="333.000000" y1="191.000000" x2="336.000000" y2="190.000000"  transform="rotate(0.000000,336.000000,190.000000)" style="stroke: black; stroke-width:0.25;"/>
<rect x="385.000000" y="163.000000" width="38.700000" height="24.000000" rx="0.1" ry="0.1" style="stroke:none;fill:#aaaaaa;;filter:url(#filter);"/>
<rect x="384.000000" y="162.000000" width="38.700000" height="24.000000" rx="0" ry="0" style="stroke:none;fill:#4B71A1;"/>
<text x="403.350000" y="176.000000" font-family="Arial" font-size="7" text-anchor="middle" fill="#FFFFFF">rdtable</text>
<circle cx="386.000000" cy="164.000000" r="1"/>
<line x1="381.000000" y1="165.000000" x2="384.000000" y2="166.000000"  transform="rotate(0.000000,384.000000,166.000000)" style="stroke: black; stroke-width:0.25;"/>
<line x1="381.000000" y1="167.000000" x2="384.000000" y2="166.000000"  transform="rotate(0.000000,384.000000,166.000000)" style="stroke: black; stroke-width:0.25;"/>
<line x1="381.000000" y1="173.000000" x2="384.000000" y2="174.000000"  transform="rotate(0.000000,384.000000,174.000000)" style="stroke: black; stroke-width:0.25;"/>
<line x1="381.000000" y1="175.000000" x2="384.000000" y2="174.000000"  transform="rotate(0.000000,384.000000,174.000000)" style="stroke: black; stroke-width:0.25;"/>
<line x1="381.000000" y1="181.000000" x2="384.000000" y2="182.000000"  transform="rotate(0.000000,384.000000,182.000000)" style="stroke: black; stroke-width:0.25;"/>
<line x1="381.000000" y1="183.000000" x2="384.000000" y2="182.000000"  transform="rotate(0.000000,384.000000,182.000000)" style="stroke: black; stroke-width:0.25;"/>
<line x1="15.000000" y1="15.000000" x2="15.000000" y2="333.000000"  style="stroke: black; stroke-linecap:round; stroke-width:0.25; stroke-dasharray:3,3;"/>
<line x1="15.000000" y1="333.000000" x2="439.700000" y2="333.000000"  style="stroke: black; stroke-linecap:round; stroke-width:0.25; stroke-dasharray:3,3;"/>
<line x1="439.700000" y1="333.000000" x2="439.700000" y2="15.000000"  style="stroke: black; stroke-linecap:round; stroke-width:0.25; stroke-dasharray:3,3;"/>
<line x1="15.000000" y1="15.000000" x2="20.000000" y2="15.000000"  style="stroke: black; stroke-linecap:round; stroke-width:0.25; stroke-dasharray:3,3;"/>
<line x1="119.975000" y1="15.000000" x2="439.700000" y2="15.000000"  style="stroke: black; stroke-linecap:round; stroke-width:0.25; stroke-dasharray:3,3;"/>
<text x="20.000000" y="17.000000" font-family="Arial" font-size="7">prime_delays(... : *),10 : +)</text>
<line x1="441.700000" y1="173.000000" x2="444.700000" y2="174.000000"  transform="rotate(0.000000,444.700000,174.000000)" style="stroke: black; stroke-width:0.25;"/>
<line x1="441.700000" y1="175.000000" x2="444.700000" y2="174.000000"  transform="rotate(0.000000,444.700000,174.000000)" style="stroke: black; stroke-width:0.25;"/>
<line x1="48.000000" y1="152.000000" x2="52.000000" y2="152.000000"  style="stroke:black; stroke-linecap:round; stroke-width:0.25;"/>
<line x1="48.000000" y1="184.000000" x2="52.000000" y2="184.000000"  style="stroke:black; stroke-linecap:round; stroke-width:0.25;"/>
<line x1="52.000000" y1="152.000000" x2="60.000000" y2="152.000000"  style="stroke:black; stroke-linecap:round; stroke-width:0.25;"/>
<line x1="52.000000" y1="172.000000" x2="60.000000" y2="172.000000"  style="stroke:black; stroke-linecap:round; stroke-width:0.25;"/>
<line x1="52.000000" y1="184.000000" x2="52.000000" y2="172.000000"  style="stroke:black; stroke-linecap:round; stroke-width:0.25;"/>
<line x1="52.000000" y1="184.000000" x2="52.000000" y2="184.000000"  style="stroke:black; stroke-linecap:round; stroke-width:0.25;"/>
<line x1="60.000000" y1="152.000000" x2="60.000000" y2="164.000000"  style="stroke:black; stroke-linecap:round; stroke-width:0.25;"/>
<line x1="60.000000" y1="164.000000" x2="60.000000" y2="164.000000"  style="stroke:black; stroke-linecap:round; stroke-width:0.25;"/>
<line x1="60.000000" y1="164.000000" x2="64.000000" y2="164.000000"  style="stroke:black; stroke-linecap:round; stroke-width:0.25;"/>
<line x1="60.000000" y1="172.000000" x2="64.000000" y2="172.000000"  style="stroke:black; stroke-linecap:round; stroke-width:0.25;"/>
<line x1="68.000000" y1="120.000000" x2="72.000000" y2="120.000000"  style="stroke:black; stroke-linecap:round; stroke-width:0.25;"/>
<line x1="72.000000" y1="120.000000" x2="92.000000" y2="120.000000"  style="stroke:black; stroke-linecap:round; stroke-width:0.25;"/>
<line x1="88.000000" y1="168.000000" x2="92.000000" y2="168.000000"  style="stroke:black; stroke-linecap:round; stroke-width:0.25;"/>
<line x1="88.000000" y1="216.000000" x2="92.000000" y2="216.000000"  style="stroke:black; stroke-linecap:round; stroke-width:0.25;"/>
<line x1="92.000000" y1="120.000000" x2="100.000000" y2="120.000000"  style="stroke:black; stroke-linecap:round; stroke-width:0.25;"/>
<line x1="92.000000" y1="156.000000" x2="100.000000" y2="156.000000"  style="stroke:black; stroke-linecap:round; stroke-width:0.25;"/>
<line x1="92.000000" y1="168.000000" x2="92.000000" y2="156.000000"  style="stroke:black; stroke-linecap:round; stroke-width:0.25;"/>
<line x1="92.000000" y1="168.000000" x2="92.000000" y2="168.000000"  style="stroke:black; stroke-linecap:round; stroke-width:0.25;"/>
<line x1="92.000000" y1="216.000000" x2="132.000000" y2="216.000000"  style="stroke:black; stroke-linecap:round; stroke-width:0.25;"/>
<line x1="100.000000" y1="120.000000" x2="100.000000" y2="148.000000"  style="stroke:black; stroke-linecap:round; stroke-width:0.25;"/>
<line x1="100.000000" y1="148.000000" x2="100.000000" y2="148.000000"  style="stroke:black; stroke-linecap:round; stroke-width:0.25;"/>
<line x1="100.000000" y1="148.000000" x2="104.000000" y2="148.000000"  style="stroke:black; stroke-linecap:round; stroke-width:0.25;"/>
<line x1="100.000000" y1="156.000000" x2="104.000000" y2="156.000000"  style="stroke:black; stroke-linecap:round; stroke-width:0.25;"/>
<line x1="108.000000" y1="248.000000" x2="112.000000" y2="248.000000"  style="stroke:black; stroke-linecap:round; stroke-width:0.25;"/>
<line x1="112.000000" y1="248.000000" x2="172.000000" y2="248.000000"  style="stroke:black; stroke-linecap:round; stroke-width:0.25;"/>
<line x1="128.000000" y1="152.000000" x2="132.000000" y2="152.000000"  style="stroke:black; stroke-linecap:round; stroke-width:0.25;"/>
<line x1="128.000000" y1="280.000000" x2="132.000000" y2="280.000000"  style="stroke:black; stroke-linecap:round; stroke-width:0.25;"/>
<line x1="132.000000" y1="152.000000" x2="140.000000" y2="152.000000"  style="stroke:black; stroke-linecap:round; stroke-width:0.25;"/>
<line x1="132.000000" y1="172.000000" x2="140.000000" y2="172.000000"  style="stroke:black; stroke-linecap:round; stroke-width:0.25;"/>
<line x1="132.000000" y1="216.000000" x2="132.000000" y2="172.000000"  style="stroke:black; stroke-linecap:round; stroke-width:0.25;"/>
<line x1="132.000000" y1="216.000000" x2="132.000000" y2="216.000000"  style="stroke:black; stroke-linecap:round; stroke-width:0.25;"/>
<line x1="132.000000" y1="280.000000" x2="212.000000" y2="280.000000"  style="stroke:black; stroke-linecap:round; stroke-width:0.25;"/>
<line x1="140.000000" y1="152.000000" x2="140.000000" y2="164.000000"  style="stroke:black; stroke-linecap:round; stroke-width:0.25;"/>
<line x1="140.000000" y1="164.000000" x2="140.000000" y2="164.000000"  style="stroke:black; stroke-linecap:round; stroke-width:0.25;"/>
<line x1="140.000000" y1="164.000000" x2="144.000000" y2="164.000000"  style="stroke:black; stroke-linecap:round; stroke-width:0.25;"/>
<line x1="140.000000" y1="172.000000" x2="144.000000" y2="172.000000"  style="stroke:black; stroke-linecap:round; stroke-width:0.25;"/>
<line x1="168.000000" y1="168.000000" x2="172.000000" y2="168.000000"  style="stroke:black; stroke-linecap:round; stroke-width:0.25;"/>
<line x1="168.000000" y1="312.000000" x2="172.000000" y2="312.000000"  style="stroke:black; stroke-linecap:round; stroke-width:0.25;"/>
<line x1="172.000000" y1="168.000000" x2="180.000000" y2="168.000000"  style="stroke:black; stroke-linecap:round; stroke-width:0.25;"/>
<line x1="172.000000" y1="188.000000" x2="180.000000" y2="188.000000"  style="stroke:black; stroke-linecap:round; stroke-width:0.25;"/>
<line x1="172.000000" y1="248.000000" x2="172.000000" y2="188.000000"  style="stroke:black; stroke-linecap:round; stroke-width:0.25;"/>
<line x1="172.000000" y1="248.000000" x2="172.000000" y2="248.000000"  style="stroke:black; stroke-linecap:round; stroke-width:0.25;"/>
<line x1="172.000000" y1="312.000000" x2="292.000000" y2="312.000000"  style="stroke:black; stroke-linecap:round; stroke-width:0.25;"/>
<line x1="180.000000" y1="168.000000" x2="180.000000" y2="180.000000"  style="stroke:black; stroke-linecap:round; stroke-width:0.25;"/>
<line x1="180.000000" y1="180.000000" x2="180.000000" y2="180.000000"  style="stroke:black; stroke-linecap:round; stroke-width:0.25;"/>
<line x1="180.000000" y1="180.000000" x2="184.000000" y2="180.000000"  style="stroke:black; stroke-linecap:round; stroke-width:0.25;"/>
<line x1="180.000000" y1="188.000000" x2="184.000000" y2="188.000000"  style="stroke:black; stroke-linecap:round; stroke-width:0.25;"/>
<line x1="208.000000" y1="184.000000" x2="212.000000" y2="184.000000"  style="stroke:black; stroke-linecap:round; stroke-width:0.25;"/>
<line x1="212.000000" y1="184.000000" x2="220.000000" y2="184.000000"  style="stroke:black; stroke-linecap:round; stroke-width:0.25;"/>
<line x1="212.000000" y1="204.000000" x2="220.000000" y2="204.000000"  style="stroke:black; stroke-linecap:round; stroke-width:0.25;"/>
<line x1="212.000000" y1="280.000000" x2="212.000000" y2="204.000000"  style="stroke:black; stroke-linecap:round; stroke-width:0.25;"/>
<line x1="212.000000" y1="280.000000" x2="212.000000" y2="280.000000"  style="stroke:black; stroke-linecap:round; stroke-width:0.25;"/>
<line x1="220.000000" y1="184.000000" x2="220.000000" y2="196.000000"  style="stroke:black; stroke-linecap:round; stroke-width:0.25;"/>
<line x1="220.000000" y1="196.000000" x2="220.000000" y2="196.000000"  style="stroke:black; stroke-linecap:round; stroke-width:0.25;"/>
<line x1="220.000000" y1="196.000000" x2="224.000000" y2="196.000000"  style="stroke:black; stroke-linecap:round; stroke-width:0.25;"/>
<line x1="220.000000" y1="204.000000" x2="224.000000" y2="204.000000"  style="stroke:black; stroke-linecap:round; stroke-width:0.25;"/>
<line x1="224.250000" y1="32.000000" x2="228.250000" y2="32.000000"  style="stroke:black; stroke-linecap:round; stroke-width:0.25;"/>
<line x1="224.250000" y1="40.000000" x2="228.250000" y2="40.000000"  style="stroke:black; stroke-linecap:round; stroke-width:0.25;"/>
<line x1="226.300000" y1="78.000000" x2="230.300000" y2="78.000000"  style="stroke:black; stroke-linecap:round; stroke-width:0.25;"/>
<line x1="228.250000" y1="32.000000" x2="364.000000" y2="32.000000"  style="stroke:black; stroke-linecap:round; stroke-width:0.25;"/>
<line x1="228.250000" y1="40.000000" x2="364.000000" y2="40.000000"  style="stroke:black; stroke-linecap:round; stroke-width:0.25;"/>
<line x1="230.300000" y1="78.000000" x2="240.300000" y2="78.000000"  style="stroke:black; stroke-linecap:round; stroke-width:0.25;"/>
<line x1="240.300000" y1="78.000000" x2="252.000000" y2="78.000000"  style="stroke:black; stroke-linecap:round; stroke-width:0.25;"/>
<line x1="248.000000" y1="200.000000" x2="252.000000" y2="200.000000"  style="stroke:black; stroke-linecap:round; stroke-width:0.25;"/>
<line x1="252.000000" y1="78.000000" x2="260.000000" y2="78.000000"  style="stroke:black; stroke-linecap:round; stroke-width:0.25;"/>
<line x1="252.000000" y1="178.000000" x2="260.000000" y2="178.000000"  style="stroke:black; stroke-linecap:round; stroke-width:0.25;"/>
<line x1="252.000000" y1="200.000000" x2="252.000000" y2="178.000000"  style="stroke:black; stroke-linecap:round; stroke-width:0.25;"/>
<line x1="252.000000" y1="200.000000" x2="252.000000" y2="200.000000"  style="stroke:black; stroke-linecap:round; stroke-width:0.25;"/>
<line x1="260.000000" y1="78.000000" x2="260.000000" y2="170.000000"  style="stroke:black; stroke-linecap:round; stroke-width:0.25;"/>
<line x1="260.000000" y1="170.000000" x2="260.000000" y2="170.000000"  style="stroke:black; stroke-linecap:round; stroke-width:0.25;"/>
<line x1="260.000000" y1="170.000000" x2="264.000000" y2="170.000000"  style="stroke:black; stroke-linecap:round; stroke-width:0.25;"/>
<line x1="260.000000" y1="178.000000" x2="264.000000" y2="178.000000"  style="stroke:black; stroke-linecap:round; stroke-width:0.25;"/>
<line x1="288.000000" y1="174.000000" x2="292.000000" y2="174.000000"  style="stroke:black; stroke-linecap:round; stroke-width:0.25;"/>
<line x1="292.000000" y1="174.000000" x2="300.000000" y2="174.000000"  style="stroke:black; stroke-linecap:round; stroke-width:0.25;"/>
<line x1="292.000000" y1="194.000000" x2="300.000000" y2="194.000000"  style="stroke:black; stroke-linecap:round; stroke-width:0.25;"/>
<line x1="292.000000" y1="312.000000" x2="292.000000" y2="194.000000"  style="stroke:black; stroke-linecap:round; stroke-width:0.25;"/>
<line x1="292.000000" y1="312.000000" x2="292.000000" y2="312.000000"  style="stroke:black; stroke-linecap:round; stroke-width:0.25;"/>
<line x1="300.000000" y1="174.000000" x2="300.000000" y2="186.000000"  style="stroke:black; stroke-linecap:round; stroke-width:0.25;"/>
<line x1="300.000000" y1="186.000000" x2="300.000000" y2="186.000000"  style="stroke:black; stroke-linecap:round; stroke-width:0.25;"/>
<line x1="300.000000" y1="186.000000" x2="304.000000" y2="186.000000"  style="stroke:black; stroke-linecap:round; stroke-width:0.25;"/>
<line x1="300.000000" y1="194.000000" x2="304.000000" y2="194.000000"  style="stroke:black; stroke-linecap:round; stroke-width:0.25;"/>
<line x1="328.000000" y1="190.000000" x2="332.000000" y2="190.000000"  style="stroke:black; stroke-linecap:round; stroke-width:0.25;"/>
<line x1="332.000000" y1="190.000000" x2="332.000000" y2="190.000000"  style="stroke:black; stroke-linecap:round; stroke-width:0.25;"/>
<line x1="332.000000" y1="190.000000" x2="336.000000" y2="190.000000"  style="stroke:black; stroke-linecap:round; stroke-width:0.25;"/>
<line x1="360.000000" y1="190.000000" x2="364.000000" y2="190.000000"  style="stroke:black; stroke-linecap:round; stroke-width:0.25;"/>
<line x1="364.000000" y1="32.000000" x2="380.000000" y2="32.000000"  style="stroke:black; stroke-linecap:round; stroke-width:0.25;"/>
<line x1="364.000000" y1="40.000000" x2="372.000000" y2="40.000000"  style="stroke:black; stroke-linecap:round; stroke-width:0.25;"/>
<line x1="364.000000" y1="182.000000" x2="380.000000" y2="182.000000"  style="stroke:black; stroke-linecap:round; stroke-width:0.25;"/>
<line x1="364.000000" y1="190.000000" x2="364.000000" y2="182.000000"  style="stroke:black; stroke-linecap:round; stroke-width:0.25;"/>
<line x1="364.000000" y1="190.000000" x2="364.000000" y2="190.000000"  style="stroke:black; stroke-linecap:round; stroke-width:0.25;"/>
<line x1="372.000000" y1="40.000000" x2="372.000000" y2="174.000000"  style="stroke:black; stroke-linecap:round; stroke-width:0.25;"/>
<line x1="372.000000" y1="174.000000" x2="380.000000" y2="174.000000"  style="stroke:black; stroke-linecap:round; stroke-width:0.25;"/>
<line x1="380.000000" y1="32.000000" x2="380.000000" y2="166.000000"  style="stroke:black; stroke-linecap:round; stroke-width:0.25;"/>
<line x1="380.000000" y1="166.000000" x2="380.000000" y2="166.000000"  style="stroke:black; stroke-linecap:round; stroke-width:0.25;"/>
<line x1="380.000000" y1="166.000000" x2="384.000000" y2="166.000000"  style="stroke:black; stroke-linecap:round; stroke-width:0.25;"/>
<line x1="380.000000" y1="174.000000" x2="384.000000" y2="174.000000"  style="stroke:black; stroke-linecap:round; stroke-width:0.25;"/>
<line x1="380.000000" y1="182.000000" x2="384.000000" y2="182.000000"  style="stroke:black; stroke-linecap:round; stroke-width:0.25;"/>
<line x1="422.700000" y1="174.000000" x2="426.700000" y2="174.000000"  style="stroke:black; stroke-linecap:round; stroke-width:0.25;"/>
<line x1="426.700000" y1="174.000000" x2="426.700000" y2="174.000000"  style="stroke:black; stroke-linecap:round; stroke-width:0.25;"/>
<line x1="426.700000" y1="174.000000" x2="430.700000" y2="174.000000"  style="stroke:black; stroke-linecap:round; stroke-width:0.25;"/>
<line x1="430.700000" y1="174.000000" x2="434.700000" y2="174.000000"  style="stroke:black; stroke-linecap:round; stroke-width:0.25;"/>
<line x1="434.700000" y1="174.000000" x2="444.700000" y2="174.000000"  style="stroke:black; stroke-linecap:round; stroke-width:0.25;"/>
</svg>
