<?xml version="1.0"?>
<svg xmlns="http://www.w3.org/2000/svg" xmlns:xlink="http://www.w3.org/1999/xlink" viewBox="0 0 431.300000 316.000000" width="215.650000mm" height="158.000000mm" version="1.1">
<defs>
   <filter id="filter" filterRes="18" x="0" y="0">
     <feGaussianBlur in="SourceGraphic" stdDeviation="1.55" result="blur"/>
     <feOffset in="blur" dx="3" dy="3"/>
   </filter>
</defs>
<a xlink:href="dmo-0x56137d09ad10.svg">
<rect x="1.000000" y="1.000000" width="430.300000" height="315.000000" rx="0.1" ry="0.1" style="stroke:none;fill:#aaaaaa;;filter:url(#filter);"/>
<rect x="0.000000" y="0.000000" width="430.300000" height="315.000000" rx="0" ry="0" style="stroke:none;fill:#ffffff;"/>
</a>
<text x="10.000000" y="7.000000" font-family="Arial" font-size="7"></text>
<rect x="149.050000" y="25.000000" width="64.500000" height="24.000000" rx="0.1" ry="0.1" style="stroke:none;fill:#aaaaaa;;filter:url(#filter);"/>
<rect x="148.050000" y="24.000000" width="64.500000" height="24.000000" rx="0" ry="0" style="stroke:none;fill:#4B71A1;"/>
<text x="180.300000" y="38.000000" font-family="Arial" font-size="7" text-anchor="middle" fill="#FFFFFF">waveform{...}</text>
<circle cx="150.050000" cy="26.000000" r="1"/>
<rect x="35.000000" y="67.000000" width="180.600000" height="24.000000" rx="0.1" ry="0.1" style="stroke:none;fill:#aaaaaa;;filter:url(#filter);"/>
<rect x="34.000000" y="66.000000" width="180.600000" height="24.000000" rx="0" ry="0" style="stroke:none;fill:#477881;"/>
<text x="124.300000" y="80.000000" font-family="Arial" font-size="7" text-anchor="middle" fill="#FFFFFF">hslider(size, 1.0f, 0.5f, 3.0f, 0.0001f)</text>
<circle cx="36.000000" cy="68.000000" r="1"/>
<line x1="25.000000" y1="57.000000" x2="25.000000" y2="99.000000"  style="stroke: black; stroke-linecap:round; stroke-width:0.25; stroke-dasharray:3,3;"/>
<line x1="25.000000" y1="99.000000" x2="223.600000" y2="99.000000"  style="stroke: black; stroke-linecap:round; stroke-width:0.25; stroke-dasharray:3,3;"/>
<line x1="223.600000" y1="99.000000" x2="223.600000" y2="57.000000"  style="stroke: black; stroke-linecap:round; stroke-width:0.25; stroke-dasharray:3,3;"/>
<line x1="25.000000" y1="57.000000" x2="30.000000" y2="57.000000"  style="stroke: black; stroke-linecap:round; stroke-width:0.25; stroke-dasharray:3,3;"/>
<line x1="49.350000" y1="57.000000" x2="223.600000" y2="57.000000"  style="stroke: black; stroke-linecap:round; stroke-width:0.25; stroke-dasharray:3,3;"/>
<text x="30.000000" y="59.000000" font-family="Arial" font-size="7">size</text>
<rect x="53.300000" y="109.000000" width="24.000000" height="24.000000" rx="0.1" ry="0.1" style="stroke:none;fill:#aaaaaa;;filter:url(#filter);"/>
<rect x="52.300000" y="108.000000" width="24.000000" height="24.000000" rx="0" ry="0" style="stroke:none;fill:#f44800;"/>
<text x="64.300000" y="122.000000" font-family="Arial" font-size="7" text-anchor="middle" fill="#FFFFFF">10</text>
<circle cx="54.300000" cy="110.000000" r="1"/>
<rect x="33.300000" y="141.000000" width="24.000000" height="24.000000" rx="0.1" ry="0.1" style="stroke:none;fill:#aaaaaa;;filter:url(#filter);"/>
<rect x="32.300000" y="140.000000" width="24.000000" height="24.000000" rx="0" ry="0" style="stroke:none;fill:#f44800;"/>
<text x="44.300000" y="154.000000" font-family="Arial" font-size="7" text-anchor="middle" fill="#FFFFFF">19</text>
<circle cx="34.300000" cy="142.000000" r="1"/>
<rect x="33.300000" y="173.000000" width="24.000000" height="24.000000" rx="0.1" ry="0.1" style="stroke:none;fill:#aaaaaa;;filter:url(#filter);"/>
<rect x="32.300000" y="172.000000" width="24.000000" height="24.000000" rx="0" ry="0" style="stroke:none;fill:#f44800;"/>
<text x="44.300000" y="186.000000" font-family="Arial" font-size="7" text-anchor="middle" fill="#FFFFFF">1</text>
<circle cx="34.300000" cy="174.000000" r="1"/>
<rect x="73.300000" y="157.000000" width="24.000000" height="24.000000" rx="0.1" ry="0.1" style="stroke:none;fill:#aaaaaa;;filter:url(#filter);"/>
<rect x="72.300000" y="156.000000" width="24.000000" height="24.000000" rx="0" ry="0" style="stroke:none;fill:#4B71A1;"/>
<text x="84.300000" y="170.000000" font-family="Arial" font-size="7" text-anchor="middle" fill="#FFFFFF">*</text>
<circle cx="74.300000" cy="158.000000" r="1"/>
<line x1="69.300000" y1="163.000000" x2="72.300000" y2="164.000000"  transform="rotate(0.000000,72.300000,164.000000)" style="stroke: black; stroke-width:0.25;"/>
<line x1="69.300000" y1="165.000000" x2="72.300000" y2="164.000000"  transform="rotate(0.000000,72.300000,164.000000)" style="stroke: black; stroke-width:0.25;"/>
<line x1="69.300000" y1="171.000000" x2="72.300000" y2="172.000000"  transform="rotate(0.000000,72.300000,172.000000)" style="stroke: black; stroke-width:0.25;"/>
<line x1="69.300000" y1="173.000000" x2="72.300000" y2="172.000000"  transform="rotate(0.000000,72.300000,172.000000)" style="stroke: black; stroke-width:0.25;"/>
<rect x="113.300000" y="141.000000" width="24.000000" height="24.000000" rx="0.1" ry="0.1" style="stroke:none;fill:#aaaaaa;;filter:url(#filter);"/>
<rect x="112.300000" y="140.000000" width="24.000000" height="24.000000" rx="0" ry="0" style="stroke:none;fill:#4B71A1;"/>
<text x="124.300000" y="154.000000" font-family="Arial" font-size="7" text-anchor="middle" fill="#FFFFFF">+</text>
<circle cx="114.300000" cy="142.000000" r="1"/>
<line x1="109.300000" y1="147.000000" x2="112.300000" y2="148.000000"  transform="rotate(0.000000,112.300000,148.000000)" style="stroke: black; stroke-width:0.25;"/>
<line x1="109.300000" y1="149.000000" x2="112.300000" y2="148.000000"  transform="rotate(0.000000,112.300000,148.000000)" style="stroke: black; stroke-width:0.25;"/>
<line x1="109.300000" y1="155.000000" x2="112.300000" y2="156.000000"  transform="rotate(0.000000,112.300000,156.000000)" style="stroke: black; stroke-width:0.25;"/>
<line x1="109.300000" y1="157.000000" x2="112.300000" y2="156.000000"  transform="rotate(0.000000,112.300000,156.000000)" style="stroke: black; stroke-width:0.25;"/>
<rect x="73.300000" y="205.000000" width="24.000000" height="24.000000" rx="0.1" ry="0.1" style="stroke:none;fill:#aaaaaa;;filter:url(#filter);"/>
<rect x="72.300000" y="204.000000" width="24.000000" height="24.000000" rx="0" ry="0" style="stroke:none;fill:#f44800;"/>
<text x="84.300000" y="218.000000" font-family="Arial" font-size="7" text-anchor="middle" fill="#FFFFFF">13</text>
<circle cx="74.300000" cy="206.000000" r="1"/>
<rect x="153.300000" y="157.000000" width="24.000000" height="24.000000" rx="0.1" ry="0.1" style="stroke:none;fill:#aaaaaa;;filter:url(#filter);"/>
<rect x="152.300000" y="156.000000" width="24.000000" height="24.000000" rx="0" ry="0" style="stroke:none;fill:#4B71A1;"/>
<text x="164.300000" y="170.000000" font-family="Arial" font-size="7" text-anchor="middle" fill="#FFFFFF">+</text>
<circle cx="154.300000" cy="158.000000" r="1"/>
<line x1="149.300000" y1="163.000000" x2="152.300000" y2="164.000000"  transform="rotate(0.000000,152.300000,164.000000)" style="stroke: black; stroke-width:0.25;"/>
<line x1="149.300000" y1="165.000000" x2="152.300000" y2="164.000000"  transform="rotate(0.000000,152.300000,164.000000)" style="stroke: black; stroke-width:0.25;"/>
<line x1="149.300000" y1="171.000000" x2="152.300000" y2="172.000000"  transform="rotate(0.000000,152.300000,172.000000)" style="stroke: black; stroke-width:0.25;"/>
<line x1="149.300000" y1="173.000000" x2="152.300000" y2="172.000000"  transform="rotate(0.000000,152.300000,172.000000)" style="stroke: black; stroke-width:0.25;"/>
<rect x="93.300000" y="237.000000" width="24.000000" height="24.000000" rx="0.1" ry="0.1" style="stroke:none;fill:#aaaaaa;;filter:url(#filter);"/>
<rect x="92.300000" y="236.000000" width="24.000000" height="24.000000" rx="0" ry="0" style="stroke:none;fill:#f44800;"/>
<text x="104.300000" y="250.000000" font-family="Arial" font-size="7" text-anchor="middle" fill="#FFFFFF">13</text>
<circle cx="94.300000" cy="238.000000" r="1"/>
<rect x="193.300000" y="173.000000" width="24.000000" height="24.000000" rx="0.1" ry="0.1" style="stroke:none;fill:#aaaaaa;;filter:url(#filter);"/>
<rect x="192.300000" y="172.000000" width="24.000000" height="24.000000" rx="0" ry="0" style="stroke:none;fill:#4B71A1;"/>
<text x="204.300000" y="186.000000" font-family="Arial" font-size="7" text-anchor="middle" fill="#FFFFFF">+</text>
<circle cx="194.300000" cy="174.000000" r="1"/>
<line x1="189.300000" y1="179.000000" x2="192.300000" y2="180.000000"  transform="rotate(0.000000,192.300000,180.000000)" style="stroke: black; stroke-width:0.25;"/>
<line x1="189.300000" y1="181.000000" x2="192.300000" y2="180.000000"  transform="rotate(0.000000,192.300000,180.000000)" style="stroke: black; stroke-width:0.25;"/>
<line x1="189.300000" y1="187.000000" x2="192.300000" y2="188.000000"  transform="rotate(0.000000,192.300000,188.000000)" style="stroke: black; stroke-width:0.25;"/>
<line x1="189.300000" y1="189.000000" x2="192.300000" y2="188.000000"  transform="rotate(0.000000,192.300000,188.000000)" style="stroke: black; stroke-width:0.25;"/>
<rect x="241.600000" y="147.000000" width="24.000000" height="24.000000" rx="0.1" ry="0.1" style="stroke:none;fill:#aaaaaa;;filter:url(#filter);"/>
<rect x="240.600000" y="146.000000" width="24.000000" height="24.000000" rx="0" ry="0" style="stroke:none;fill:#4B71A1;"/>
<text x="252.600000" y="160.000000" font-family="Arial" font-size="7" text-anchor="middle" fill="#FFFFFF">*</text>
<circle cx="242.600000" cy="148.000000" r="1"/>
<line x1="237.600000" y1="153.000000" x2="240.600000" y2="154.000000"  transform="rotate(0.000000,240.600000,154.000000)" style="stroke: black; stroke-width:0.25;"/>
<line x1="237.600000" y1="155.000000" x2="240.600000" y2="154.000000"  transform="rotate(0.000000,240.600000,154.000000)" style="stroke: black; stroke-width:0.25;"/>
<line x1="237.600000" y1="161.000000" x2="240.600000" y2="162.000000"  transform="rotate(0.000000,240.600000,162.000000)" style="stroke: black; stroke-width:0.25;"/>
<line x1="237.600000" y1="163.000000" x2="240.600000" y2="162.000000"  transform="rotate(0.000000,240.600000,162.000000)" style="stroke: black; stroke-width:0.25;"/>
<rect x="133.300000" y="269.000000" width="24.000000" height="24.000000" rx="0.1" ry="0.1" style="stroke:none;fill:#aaaaaa;;filter:url(#filter);"/>
<rect x="132.300000" y="268.000000" width="24.000000" height="24.000000" rx="0" ry="0" style="stroke:none;fill:#f44800;"/>
<text x="144.300000" y="282.000000" font-family="Arial" font-size="7" text-anchor="middle" fill="#FFFFFF">10</text>
<circle cx="134.300000" cy="270.000000" r="1"/>
<rect x="281.600000" y="163.000000" width="24.000000" height="24.000000" rx="0.1" ry="0.1" style="stroke:none;fill:#aaaaaa;;filter:url(#filter);"/>
<rect x="280.600000" y="162.000000" width="24.000000" height="24.000000" rx="0" ry="0" style="stroke:none;fill:#4B71A1;"/>
<text x="292.600000" y="176.000000" font-family="Arial" font-size="7" text-anchor="middle" fill="#FFFFFF">+</text>
<circle cx="282.600000" cy="164.000000" r="1"/>
<line x1="277.600000" y1="169.000000" x2="280.600000" y2="170.000000"  transform="rotate(0.000000,280.600000,170.000000)" style="stroke: black; stroke-width:0.25;"/>
<line x1="277.600000" y1="171.000000" x2="280.600000" y2="170.000000"  transform="rotate(0.000000,280.600000,170.000000)" style="stroke: black; stroke-width:0.25;"/>
<line x1="277.600000" y1="177.000000" x2="280.600000" y2="178.000000"  transform="rotate(0.000000,280.600000,178.000000)" style="stroke: black; stroke-width:0.25;"/>
<line x1="277.600000" y1="179.000000" x2="280.600000" y2="178.000000"  transform="rotate(0.000000,280.600000,178.000000)" style="stroke: black; stroke-width:0.25;"/>
<rect x="313.600000" y="163.000000" width="24.000000" height="24.000000" rx="0.1" ry="0.1" style="stroke:none;fill:#aaaaaa;;filter:url(#filter);"/>
<rect x="312.600000" y="162.000000" width="24.000000" height="24.000000" rx="0" ry="0" style="stroke:none;fill:#4B71A1;"/>
<text x="324.600000" y="176.000000" font-family="Arial" font-size="7" text-anchor="middle" fill="#FFFFFF">int</text>
<circle cx="314.600000" cy="164.000000" r="1"/>
<line x1="309.600000" y1="173.000000" x2="312.600000" y2="174.000000"  transform="rotate(0.000000,312.600000,174.000000)" style="stroke: black; stroke-width:0.25;"/>
<line x1="309.600000" y1="175.000000" x2="312.600000" y2="174.000000"  transform="rotate(0.000000,312.600000,174.000000)" style="stroke: black; stroke-width:0.25;"/>
<rect x="361.600000" y="147.000000" width="38.700000" height="24.000000" rx="0.1" ry="0.1" style="stroke:none;fill:#aaaaaa;;filter:url(#filter);"/>
<rect x="360.600000" y="146.000000" width="38.700000" height="24.000000" rx="0" ry="0" style="stroke:none;fill:#4B71A1;"/>
<text x="379.950000" y="160.000000" font-family="Arial" font-size="7" text-anchor="middle" fill="#FFFFFF">rdtable</text>
<circle cx="362.600000" cy="148.000000" r="1"/>
<line x1="357.600000" y1="149.000000" x2="360.600000" y2="150.000000"  transform="rotate(0.000000,360.600000,150.000000)" style="stroke: black; stroke-width:0.25;"/>
<line x1="357.600000" y1="151.000000" x2="360.600000" y2="150.000000"  transform="rotate(0.000000,360.600000,150.000000)" style="stroke: black; stroke-width:0.25;"/>
<line x1="357.600000" y1="157.000000" x2="360.600000" y2="158.000000"  transform="rotate(0.000000,360.600000,158.000000)" style="stroke: black; stroke-width:0.25;"/>
<line x1="357.600000" y1="159.000000" x2="360.600000" y2="158.000000"  transform="rotate(0.000000,360.600000,158.000000)" style="stroke: black; stroke-width:0.25;"/>
<line x1="357.600000" y1="165.000000" x2="360.600000" y2="166.000000"  transform="rotate(0.000000,360.600000,166.000000)" style="stroke: black; stroke-width:0.25;"/>
<line x1="357.600000" y1="167.000000" x2="360.600000" y2="166.000000"  transform="rotate(0.000000,360.600000,166.000000)" style="stroke: black; stroke-width:0.25;"/>
<line x1="15.000000" y1="15.000000" x2="15.000000" y2="301.000000"  style="stroke: black; stroke-linecap:round; stroke-width:0.25; stroke-dasharray:3,3;"/>
<line x1="15.000000" y1="301.000000" x2="416.300000" y2="301.000000"  style="stroke: black; stroke-linecap:round; stroke-width:0.25; stroke-dasharray:3,3;"/>
<line x1="416.300000" y1="301.000000" x2="416.300000" y2="15.000000"  style="stroke: black; stroke-linecap:round; stroke-width:0.25; stroke-dasharray:3,3;"/>
<line x1="15.000000" y1="15.000000" x2="20.000000" y2="15.000000"  style="stroke: black; stroke-linecap:round; stroke-width:0.25; stroke-dasharray:3,3;"/>
<line x1="119.975000" y1="15.000000" x2="416.300000" y2="15.000000"  style="stroke: black; stroke-linecap:round; stroke-width:0.25; stroke-dasharray:3,3;"/>
<text x="20.000000" y="17.000000" font-family="Arial" font-size="7">prime_delays(... : *),10 : +)</text>
<line x1="418.300000" y1="157.000000" x2="421.300000" y2="158.000000"  transform="rotate(0.000000,421.300000,158.000000)" style="stroke: black; stroke-width:0.25;"/>
<line x1="418.300000" y1="159.000000" x2="421.300000" y2="158.000000"  transform="rotate(0.000000,421.300000,158.000000)" style="stroke: black; stroke-width:0.25;"/>
<line x1="56.300000" y1="152.000000" x2="60.300000" y2="152.000000"  style="stroke:black; stroke-linecap:round; stroke-width:0.25;"/>
<line x1="56.300000" y1="184.000000" x2="60.300000" y2="184.000000"  style="stroke:black; stroke-linecap:round; stroke-width:0.25;"/>
<line x1="60.300000" y1="152.000000" x2="68.300000" y2="152.000000"  style="stroke:black; stroke-linecap:round; stroke-width:0.25;"/>
<line x1="60.300000" y1="172.000000" x2="68.300000" y2="172.000000"  style="stroke:black; stroke-linecap:round; stroke-width:0.25;"/>
<line x1="60.300000" y1="184.000000" x2="60.300000" y2="172.000000"  style="stroke:black; stroke-linecap:round; stroke-width:0.25;"/>
<line x1="60.300000" y1="184.000000" x2="60.300000" y2="184.000000"  style="stroke:black; stroke-linecap:round; stroke-width:0.25;"/>
<line x1="68.300000" y1="152.000000" x2="68.300000" y2="164.000000"  style="stroke:black; stroke-linecap:round; stroke-width:0.25;"/>
<line x1="68.300000" y1="164.000000" x2="68.300000" y2="164.000000"  style="stroke:black; stroke-linecap:round; stroke-width:0.25;"/>
<line x1="68.300000" y1="164.000000" x2="72.300000" y2="164.000000"  style="stroke:black; stroke-linecap:round; stroke-width:0.25;"/>
<line x1="68.300000" y1="172.000000" x2="72.300000" y2="172.000000"  style="stroke:black; stroke-linecap:round; stroke-width:0.25;"/>
<line x1="76.300000" y1="120.000000" x2="80.300000" y2="120.000000"  style="stroke:black; stroke-linecap:round; stroke-width:0.25;"/>
<line x1="80.300000" y1="120.000000" x2="100.300000" y2="120.000000"  style="stroke:black; stroke-linecap:round; stroke-width:0.25;"/>
<line x1="96.300000" y1="168.000000" x2="100.300000" y2="168.000000"  style="stroke:black; stroke-linecap:round; stroke-width:0.25;"/>
<line x1="96.300000" y1="216.000000" x2="100.300000" y2="216.000000"  style="stroke:black; stroke-linecap:round; stroke-width:0.25;"/>
<line x1="100.300000" y1="120.000000" x2="108.300000" y2="120.000000"  style="stroke:black; stroke-linecap:round; stroke-width:0.25;"/>
<line x1="100.300000" y1="156.000000" x2="108.300000" y2="156.000000"  style="stroke:black; stroke-linecap:round; stroke-width:0.25;"/>
<line x1="100.300000" y1="168.000000" x2="100.300000" y2="156.000000"  style="stroke:black; stroke-linecap:round; stroke-width:0.25;"/>
<line x1="100.300000" y1="168.000000" x2="100.300000" y2="168.000000"  style="stroke:black; stroke-linecap:round; stroke-width:0.25;"/>
<line x1="100.300000" y1="216.000000" x2="140.300000" y2="216.000000"  style="stroke:black; stroke-linecap:round; stroke-width:0.25;"/>
<line x1="108.300000" y1="120.000000" x2="108.300000" y2="148.000000"  style="stroke:black; stroke-linecap:round; stroke-width:0.25;"/>
<line x1="108.300000" y1="148.000000" x2="108.300000" y2="148.000000"  style="stroke:black; stroke-linecap:round; stroke-width:0.25;"/>
<line x1="108.300000" y1="148.000000" x2="112.300000" y2="148.000000"  style="stroke:black; stroke-linecap:round; stroke-width:0.25;"/>
<line x1="108.300000" y1="156.000000" x2="112.300000" y2="156.000000"  style="stroke:black; stroke-linecap:round; stroke-width:0.25;"/>
<line x1="116.300000" y1="248.000000" x2="120.300000" y2="248.000000"  style="stroke:black; stroke-linecap:round; stroke-width:0.25;"/>
<line x1="120.300000" y1="248.000000" x2="180.300000" y2="248.000000"  style="stroke:black; stroke-linecap:round; stroke-width:0.25;"/>
<line x1="136.300000" y1="152.000000" x2="140.300000" y2="152.000000"  style="stroke:black; stroke-linecap:round; stroke-width:0.25;"/>
<line x1="140.300000" y1="152.000000" x2="148.300000" y2="152.000000"  style="stroke:black; stroke-linecap:round; stroke-width:0.25;"/>
<line x1="140.300000" y1="172.000000" x2="148.300000" y2="172.000000"  style="stroke:black; stroke-linecap:round; stroke-width:0.25;"/>
<line x1="140.300000" y1="216.000000" x2="140.300000" y2="172.000000"  style="stroke:black; stroke-linecap:round; stroke-width:0.25;"/>
<line x1="140.300000" y1="216.000000" x2="140.300000" y2="216.000000"  style="stroke:black; stroke-linecap:round; stroke-width:0.25;"/>
<line x1="148.300000" y1="152.000000" x2="148.300000" y2="164.000000"  style="stroke:black; stroke-linecap:round; stroke-width:0.25;"/>
<line x1="148.300000" y1="164.000000" x2="148.300000" y2="164.000000"  style="stroke:black; stroke-linecap:round; stroke-width:0.25;"/>
<line x1="148.300000" y1="164.000000" x2="152.300000" y2="164.000000"  style="stroke:black; stroke-linecap:round; stroke-width:0.25;"/>
<line x1="148.300000" y1="172.000000" x2="152.300000" y2="172.000000"  style="stroke:black; stroke-linecap:round; stroke-width:0.25;"/>
<line x1="156.300000" y1="280.000000" x2="160.300000" y2="280.000000"  style="stroke:black; stroke-linecap:round; stroke-width:0.25;"/>
<line x1="160.300000" y1="280.000000" x2="268.600000" y2="280.000000"  style="stroke:black; stroke-linecap:round; stroke-width:0.25;"/>
<line x1="176.300000" y1="168.000000" x2="180.300000" y2="168.000000"  style="stroke:black; stroke-linecap:round; stroke-width:0.25;"/>
<line x1="180.300000" y1="168.000000" x2="188.300000" y2="168.000000"  style="stroke:black; stroke-linecap:round; stroke-width:0.25;"/>
<line x1="180.300000" y1="188.000000" x2="188.300000" y2="188.000000"  style="stroke:black; stroke-linecap:round; stroke-width:0.25;"/>
<line x1="180.300000" y1="248.000000" x2="180.300000" y2="188.000000"  style="stroke:black; stroke-linecap:round; stroke-width:0.25;"/>
<line x1="180.300000" y1="248.000000" x2="180.300000" y2="248.000000"  style="stroke:black; stroke-linecap:round; stroke-width:0.25;"/>
<line x1="188.300000" y1="168.000000" x2="188.300000" y2="180.000000"  style="stroke:black; stroke-linecap:round; stroke-width:0.25;"/>
<line x1="188.300000" y1="180.000000" x2="188.300000" y2="180.000000"  style="stroke:black; stroke-linecap:round; stroke-width:0.25;"/>
<line x1="188.300000" y1="180.000000" x2="192.300000" y2="180.000000"  style="stroke:black; stroke-linecap:round; stroke-width:0.25;"/>
<line x1="188.300000" y1="188.000000" x2="192.300000" y2="188.000000"  style="stroke:black; stroke-linecap:round; stroke-width:0.25;"/>
<line x1="212.550000" y1="32.000000" x2="216.550000" y2="32.000000"  style="stroke:black; stroke-linecap:round; stroke-width:0.25;"/>
<line x1="212.550000" y1="40.000000" x2="216.550000" y2="40.000000"  style="stroke:black; stroke-linecap:round; stroke-width:0.25;"/>
<line x1="214.600000" y1="78.000000" x2="218.600000" y2="78.000000"  style="stroke:black; stroke-linecap:round; stroke-width:0.25;"/>
<line x1="216.300000" y1="184.000000" x2="220.300000" y2="184.000000"  style="stroke:black; stroke-linecap:round; stroke-width:0.25;"/>
<line x1="216.550000" y1="32.000000" x2="340.600000" y2="32.000000"  style="stroke:black; stroke-linecap:round; stroke-width:0.25;"/>
<line x1="216.550000" y1="40.000000" x2="340.600000" y2="40.000000"  style="stroke:black; stroke-linecap:round; stroke-width:0.25;"/>
<line x1="218.600000" y1="78.000000" x2="228.600000" y2="78.000000"  style="stroke:black; stroke-linecap:round; stroke-width:0.25;"/>
<line x1="220.300000" y1="184.000000" x2="228.600000" y2="184.000000"  style="stroke:black; stroke-linecap:round; stroke-width:0.25;"/>
<line x1="228.600000" y1="78.000000" x2="236.600000" y2="78.000000"  style="stroke:black; stroke-linecap:round; stroke-width:0.25;"/>
<line x1="228.600000" y1="162.000000" x2="236.600000" y2="162.000000"  style="stroke:black; stroke-linecap:round; stroke-width:0.25;"/>
<line x1="228.600000" y1="184.000000" x2="228.600000" y2="162.000000"  style="stroke:black; stroke-linecap:round; stroke-width:0.25;"/>
<line x1="228.600000" y1="184.000000" x2="228.600000" y2="184.000000"  style="stroke:black; stroke-linecap:round; stroke-width:0.25;"/>
<line x1="236.600000" y1="78.000000" x2="236.600000" y2="154.000000"  style="stroke:black; stroke-linecap:round; stroke-width:0.25;"/>
<line x1="236.600000" y1="154.000000" x2="236.600000" y2="154.000000"  style="stroke:black; stroke-linecap:round; stroke-width:0.25;"/>
<line x1="236.600000" y1="154.000000" x2="240.600000" y2="154.000000"  style="stroke:black; stroke-linecap:round; stroke-width:0.25;"/>
<line x1="236.600000" y1="162.000000" x2="240.600000" y2="162.000000"  style="stroke:black; stroke-linecap:round; stroke-width:0.25;"/>
<line x1="264.600000" y1="158.000000" x2="268.600000" y2="158.000000"  style="stroke:black; stroke-linecap:round; stroke-width:0.25;"/>
<line x1="268.600000" y1="158.000000" x2="276.600000" y2="158.000000"  style="stroke:black; stroke-linecap:round; stroke-width:0.25;"/>
<line x1="268.600000" y1="178.000000" x2="276.600000" y2="178.000000"  style="stroke:black; stroke-linecap:round; stroke-width:0.25;"/>
<line x1="268.600000" y1="280.000000" x2="268.600000" y2="178.000000"  style="stroke:black; stroke-linecap:round; stroke-width:0.25;"/>
<line x1="268.600000" y1="280.000000" x2="268.600000" y2="280.000000"  style="stroke:black; stroke-linecap:round; stroke-width:0.25;"/>
<line x1="276.600000" y1="158.000000" x2="276.600000" y2="170.000000"  style="stroke:black; stroke-linecap:round; stroke-width:0.25;"/>
<line x1="276.600000" y1="170.000000" x2="276.600000" y2="170.000000"  style="stroke:black; stroke-linecap:round; stroke-width:0.25;"/>
<line x1="276.600000" y1="170.000000" x2="280.600000" y2="170.000000"  style="stroke:black; stroke-linecap:round; stroke-width:0.25;"/>
<line x1="276.600000" y1="178.000000" x2="280.600000" y2="178.000000"  style="stroke:black; stroke-linecap:round; stroke-width:0.25;"/>
<line x1="304.600000" y1="174.000000" x2="308.600000" y2="174.000000"  style="stroke:black; stroke-linecap:round; stroke-width:0.25;"/>
<line x1="308.600000" y1="174.000000" x2="308.600000" y2="174.000000"  style="stroke:black; stroke-linecap:round; stroke-width:0.25;"/>
<line x1="308.600000" y1="174.000000" x2="312.600000" y2="174.000000"  style="stroke:black; stroke-linecap:round; stroke-width:0.25;"/>
<line x1="336.600000" y1="174.000000" x2="340.600000" y2="174.000000"  style="stroke:black; stroke-linecap:round; stroke-width:0.25;"/>
<line x1="340.600000" y1="32.000000" x2="356.600000" y2="32.000000"  style="stroke:black; stroke-linecap:round; stroke-width:0.25;"/>
<line x1="340.600000" y1="40.000000" x2="348.600000" y2="40.000000"  style="stroke:black; stroke-linecap:round; stroke-width:0.25;"/>
<line x1="340.600000" y1="166.000000" x2="356.600000" y2="166.000000"  style="stroke:black; stroke-linecap:round; stroke-width:0.25;"/>
<line x1="340.600000" y1="174.000000" x2="340.600000" y2="166.000000"  style="stroke:black; stroke-linecap:round; stroke-width:0.25;"/>
<line x1="340.600000" y1="174.000000" x2="340.600000" y2="174.000000"  style="stroke:black; stroke-linecap:round; stroke-width:0.25;"/>
<line x1="348.600000" y1="40.000000" x2="348.600000" y2="158.000000"  style="stroke:black; stroke-linecap:round; stroke-width:0.25;"/>
<line x1="348.600000" y1="158.000000" x2="356.600000" y2="158.000000"  style="stroke:black; stroke-linecap:round; stroke-width:0.25;"/>
<line x1="356.600000" y1="32.000000" x2="356.600000" y2="150.000000"  style="stroke:black; stroke-linecap:round; stroke-width:0.25;"/>
<line x1="356.600000" y1="150.000000" x2="356.600000" y2="150.000000"  style="stroke:black; stroke-linecap:round; stroke-width:0.25;"/>
<line x1="356.600000" y1="150.000000" x2="360.600000" y2="150.000000"  style="stroke:black; stroke-linecap:round; stroke-width:0.25;"/>
<line x1="356.600000" y1="158.000000" x2="360.600000" y2="158.000000"  style="stroke:black; stroke-linecap:round; stroke-width:0.25;"/>
<line x1="356.600000" y1="166.000000" x2="360.600000" y2="166.000000"  style="stroke:black; stroke-linecap:round; stroke-width:0.25;"/>
<line x1="399.300000" y1="158.000000" x2="403.300000" y2="158.000000"  style="stroke:black; stroke-linecap:round; stroke-width:0.25;"/>
<line x1="403.300000" y1="158.000000" x2="403.300000" y2="158.000000"  style="stroke:black; stroke-linecap:round; stroke-width:0.25;"/>
<line x1="403.300000" y1="158.000000" x2="407.300000" y2="158.000000"  style="stroke:black; stroke-linecap:round; stroke-width:0.25;"/>
<line x1="407.300000" y1="158.000000" x2="411.300000" y2="158.000000"  style="stroke:black; stroke-linecap:round; stroke-width:0.25;"/>
<line x1="411.300000" y1="158.000000" x2="421.300000" y2="158.000000"  style="stroke:black; stroke-linecap:round; stroke-width:0.25;"/>
</svg>
