<?xml version="1.0"?>
<svg xmlns="http://www.w3.org/2000/svg" xmlns:xlink="http://www.w3.org/1999/xlink" viewBox="0 0 391.300000 220.000000" width="195.650000mm" height="110.000000mm" version="1.1">
<defs>
   <filter id="filter" filterRes="18" x="0" y="0">
     <feGaussianBlur in="SourceGraphic" stdDeviation="1.55" result="blur"/>
     <feOffset in="blur" dx="3" dy="3"/>
   </filter>
</defs>
<a xlink:href="dmo-0x56137d0e4da0.svg">
<rect x="1.000000" y="1.000000" width="390.300000" height="219.000000" rx="0.1" ry="0.1" style="stroke:none;fill:#aaaaaa;;filter:url(#filter);"/>
<rect x="0.000000" y="0.000000" width="390.300000" height="219.000000" rx="0" ry="0" style="stroke:none;fill:#ffffff;"/>
</a>
<text x="10.000000" y="7.000000" font-family="Arial" font-size="7"></text>
<rect x="129.050000" y="25.000000" width="64.500000" height="24.000000" rx="0.1" ry="0.1" style="stroke:none;fill:#aaaaaa;;filter:url(#filter);"/>
<rect x="128.050000" y="24.000000" width="64.500000" height="24.000000" rx="0" ry="0" style="stroke:none;fill:#4B71A1;"/>
<text x="160.300000" y="38.000000" font-family="Arial" font-size="7" text-anchor="middle" fill="#FFFFFF">waveform{...}</text>
<circle cx="130.050000" cy="26.000000" r="1"/>
<rect x="35.000000" y="67.000000" width="180.600000" height="24.000000" rx="0.1" ry="0.1" style="stroke:none;fill:#aaaaaa;;filter:url(#filter);"/>
<rect x="34.000000" y="66.000000" width="180.600000" height="24.000000" rx="0" ry="0" style="stroke:none;fill:#477881;"/>
<text x="124.300000" y="80.000000" font-family="Arial" font-size="7" text-anchor="middle" fill="#FFFFFF">hslider(size, 1.0f, 0.5f, 3.0f, 0.0001f)</text>
<circle cx="36.000000" cy="68.000000" r="1"/>
<line x1="25.000000" y1="57.000000" x2="25.000000" y2="99.000000"  style="stroke: black; stroke-linecap:round; stroke-width:0.25; stroke-dasharray:3,3;"/>
<line x1="25.000000" y1="99.000000" x2="223.600000" y2="99.000000"  style="stroke: black; stroke-linecap:round; stroke-width:0.25; stroke-dasharray:3,3;"/>
<line x1="223.600000" y1="99.000000" x2="223.600000" y2="57.000000"  style="stroke: black; stroke-linecap:round; stroke-width:0.25; stroke-dasharray:3,3;"/>
<line x1="25.000000" y1="57.000000" x2="30.000000" y2="57.000000"  style="stroke: black; stroke-linecap:round; stroke-width:0.25; stroke-dasharray:3,3;"/>
<line x1="49.350000" y1="57.000000" x2="223.600000" y2="57.000000"  style="stroke: black; stroke-linecap:round; stroke-width:0.25; stroke-dasharray:3,3;"/>
<text x="30.000000" y="59.000000" font-family="Arial" font-size="7">size</text>
<rect x="93.300000" y="109.000000" width="24.000000" height="24.000000" rx="0.1" ry="0.1" style="stroke:none;fill:#aaaaaa;;filter:url(#filter);"/>
<rect x="92.300000" y="108.000000" width="24.000000" height="24.000000" rx="0" ry="0" style="stroke:none;fill:#f44800;"/>
<text x="104.300000" y="122.000000" font-family="Arial" font-size="7" text-anchor="middle" fill="#FFFFFF">10</text>
<circle cx="94.300000" cy="110.000000" r="1"/>
<rect x="73.300000" y="141.000000" width="24.000000" height="24.000000" rx="0.1" ry="0.1" style="stroke:none;fill:#aaaaaa;;filter:url(#filter);"/>
<rect x="72.300000" y="140.000000" width="24.000000" height="24.000000" rx="0" ry="0" style="stroke:none;fill:#f44800;"/>
<text x="84.300000" y="154.000000" font-family="Arial" font-size="7" text-anchor="middle" fill="#FFFFFF">19</text>
<circle cx="74.300000" cy="142.000000" r="1"/>
<rect x="73.300000" y="173.000000" width="24.000000" height="24.000000" rx="0.1" ry="0.1" style="stroke:none;fill:#aaaaaa;;filter:url(#filter);"/>
<rect x="72.300000" y="172.000000" width="24.000000" height="24.000000" rx="0" ry="0" style="stroke:none;fill:#f44800;"/>
<text x="84.300000" y="186.000000" font-family="Arial" font-size="7" text-anchor="middle" fill="#FFFFFF">1</text>
<circle cx="74.300000" cy="174.000000" r="1"/>
<rect x="113.300000" y="157.000000" width="24.000000" height="24.000000" rx="0.1" ry="0.1" style="stroke:none;fill:#aaaaaa;;filter:url(#filter);"/>
<rect x="112.300000" y="156.000000" width="24.000000" height="24.000000" rx="0" ry="0" style="stroke:none;fill:#4B71A1;"/>
<text x="124.300000" y="170.000000" font-family="Arial" font-size="7" text-anchor="middle" fill="#FFFFFF">*</text>
<circle cx="114.300000" cy="158.000000" r="1"/>
<line x1="109.300000" y1="163.000000" x2="112.300000" y2="164.000000"  transform="rotate(0.000000,112.300000,164.000000)" style="stroke: black; stroke-width:0.25;"/>
<line x1="109.300000" y1="165.000000" x2="112.300000" y2="164.000000"  transform="rotate(0.000000,112.300000,164.000000)" style="stroke: black; stroke-width:0.25;"/>
<line x1="109.300000" y1="171.000000" x2="112.300000" y2="172.000000"  transform="rotate(0.000000,112.300000,172.000000)" style="stroke: black; stroke-width:0.25;"/>
<line x1="109.300000" y1="173.000000" x2="112.300000" y2="172.000000"  transform="rotate(0.000000,112.300000,172.000000)" style="stroke: black; stroke-width:0.25;"/>
<rect x="153.300000" y="141.000000" width="24.000000" height="24.000000" rx="0.1" ry="0.1" style="stroke:none;fill:#aaaaaa;;filter:url(#filter);"/>
<rect x="152.300000" y="140.000000" width="24.000000" height="24.000000" rx="0" ry="0" style="stroke:none;fill:#4B71A1;"/>
<text x="164.300000" y="154.000000" font-family="Arial" font-size="7" text-anchor="middle" fill="#FFFFFF">+</text>
<circle cx="154.300000" cy="142.000000" r="1"/>
<line x1="149.300000" y1="147.000000" x2="152.300000" y2="148.000000"  transform="rotate(0.000000,152.300000,148.000000)" style="stroke: black; stroke-width:0.25;"/>
<line x1="149.300000" y1="149.000000" x2="152.300000" y2="148.000000"  transform="rotate(0.000000,152.300000,148.000000)" style="stroke: black; stroke-width:0.25;"/>
<line x1="149.300000" y1="155.000000" x2="152.300000" y2="156.000000"  transform="rotate(0.000000,152.300000,156.000000)" style="stroke: black; stroke-width:0.25;"/>
<line x1="149.300000" y1="157.000000" x2="152.300000" y2="156.000000"  transform="rotate(0.000000,152.300000,156.000000)" style="stroke: black; stroke-width:0.25;"/>
<rect x="241.600000" y="115.000000" width="24.000000" height="24.000000" rx="0.1" ry="0.1" style="stroke:none;fill:#aaaaaa;;filter:url(#filter);"/>
<rect x="240.600000" y="114.000000" width="24.000000" height="24.000000" rx="0" ry="0" style="stroke:none;fill:#4B71A1;"/>
<text x="252.600000" y="128.000000" font-family="Arial" font-size="7" text-anchor="middle" fill="#FFFFFF">*</text>
<circle cx="242.600000" cy="116.000000" r="1"/>
<line x1="237.600000" y1="121.000000" x2="240.600000" y2="122.000000"  transform="rotate(0.000000,240.600000,122.000000)" style="stroke: black; stroke-width:0.25;"/>
<line x1="237.600000" y1="123.000000" x2="240.600000" y2="122.000000"  transform="rotate(0.000000,240.600000,122.000000)" style="stroke: black; stroke-width:0.25;"/>
<line x1="237.600000" y1="129.000000" x2="240.600000" y2="130.000000"  transform="rotate(0.000000,240.600000,130.000000)" style="stroke: black; stroke-width:0.25;"/>
<line x1="237.600000" y1="131.000000" x2="240.600000" y2="130.000000"  transform="rotate(0.000000,240.600000,130.000000)" style="stroke: black; stroke-width:0.25;"/>
<rect x="273.600000" y="115.000000" width="24.000000" height="24.000000" rx="0.1" ry="0.1" style="stroke:none;fill:#aaaaaa;;filter:url(#filter);"/>
<rect x="272.600000" y="114.000000" width="24.000000" height="24.000000" rx="0" ry="0" style="stroke:none;fill:#4B71A1;"/>
<text x="284.600000" y="128.000000" font-family="Arial" font-size="7" text-anchor="middle" fill="#FFFFFF">int</text>
<circle cx="274.600000" cy="116.000000" r="1"/>
<line x1="269.600000" y1="125.000000" x2="272.600000" y2="126.000000"  transform="rotate(0.000000,272.600000,126.000000)" style="stroke: black; stroke-width:0.25;"/>
<line x1="269.600000" y1="127.000000" x2="272.600000" y2="126.000000"  transform="rotate(0.000000,272.600000,126.000000)" style="stroke: black; stroke-width:0.25;"/>
<rect x="321.600000" y="99.000000" width="38.700000" height="24.000000" rx="0.1" ry="0.1" style="stroke:none;fill:#aaaaaa;;filter:url(#filter);"/>
<rect x="320.600000" y="98.000000" width="38.700000" height="24.000000" rx="0" ry="0" style="stroke:none;fill:#4B71A1;"/>
<text x="339.950000" y="112.000000" font-family="Arial" font-size="7" text-anchor="middle" fill="#FFFFFF">rdtable</text>
<circle cx="322.600000" cy="100.000000" r="1"/>
<line x1="317.600000" y1="101.000000" x2="320.600000" y2="102.000000"  transform="rotate(0.000000,320.600000,102.000000)" style="stroke: black; stroke-width:0.25;"/>
<line x1="317.600000" y1="103.000000" x2="320.600000" y2="102.000000"  transform="rotate(0.000000,320.600000,102.000000)" style="stroke: black; stroke-width:0.25;"/>
<line x1="317.600000" y1="109.000000" x2="320.600000" y2="110.000000"  transform="rotate(0.000000,320.600000,110.000000)" style="stroke: black; stroke-width:0.25;"/>
<line x1="317.600000" y1="111.000000" x2="320.600000" y2="110.000000"  transform="rotate(0.000000,320.600000,110.000000)" style="stroke: black; stroke-width:0.25;"/>
<line x1="317.600000" y1="117.000000" x2="320.600000" y2="118.000000"  transform="rotate(0.000000,320.600000,118.000000)" style="stroke: black; stroke-width:0.25;"/>
<line x1="317.600000" y1="119.000000" x2="320.600000" y2="118.000000"  transform="rotate(0.000000,320.600000,118.000000)" style="stroke: black; stroke-width:0.25;"/>
<line x1="15.000000" y1="15.000000" x2="15.000000" y2="205.000000"  style="stroke: black; stroke-linecap:round; stroke-width:0.25; stroke-dasharray:3,3;"/>
<line x1="15.000000" y1="205.000000" x2="376.300000" y2="205.000000"  style="stroke: black; stroke-linecap:round; stroke-width:0.25; stroke-dasharray:3,3;"/>
<line x1="376.300000" y1="205.000000" x2="376.300000" y2="15.000000"  style="stroke: black; stroke-linecap:round; stroke-width:0.25; stroke-dasharray:3,3;"/>
<line x1="15.000000" y1="15.000000" x2="20.000000" y2="15.000000"  style="stroke: black; stroke-linecap:round; stroke-width:0.25; stroke-dasharray:3,3;"/>
<line x1="119.975000" y1="15.000000" x2="376.300000" y2="15.000000"  style="stroke: black; stroke-linecap:round; stroke-width:0.25; stroke-dasharray:3,3;"/>
<text x="20.000000" y="17.000000" font-family="Arial" font-size="7">prime_delays(... *) : +) : *)</text>
<line x1="378.300000" y1="109.000000" x2="381.300000" y2="110.000000"  transform="rotate(0.000000,381.300000,110.000000)" style="stroke: black; stroke-width:0.25;"/>
<line x1="378.300000" y1="111.000000" x2="381.300000" y2="110.000000"  transform="rotate(0.000000,381.300000,110.000000)" style="stroke: black; stroke-width:0.25;"/>
<line x1="96.300000" y1="152.000000" x2="100.300000" y2="152.000000"  style="stroke:black; stroke-linecap:round; stroke-width:0.25;"/>
<line x1="96.300000" y1="184.000000" x2="100.300000" y2="184.000000"  style="stroke:black; stroke-linecap:round; stroke-width:0.25;"/>
<line x1="100.300000" y1="152.000000" x2="108.300000" y2="152.000000"  style="stroke:black; stroke-linecap:round; stroke-width:0.25;"/>
<line x1="100.300000" y1="172.000000" x2="108.300000" y2="172.000000"  style="stroke:black; stroke-linecap:round; stroke-width:0.25;"/>
<line x1="100.300000" y1="184.000000" x2="100.300000" y2="172.000000"  style="stroke:black; stroke-linecap:round; stroke-width:0.25;"/>
<line x1="100.300000" y1="184.000000" x2="100.300000" y2="184.000000"  style="stroke:black; stroke-linecap:round; stroke-width:0.25;"/>
<line x1="108.300000" y1="152.000000" x2="108.300000" y2="164.000000"  style="stroke:black; stroke-linecap:round; stroke-width:0.25;"/>
<line x1="108.300000" y1="164.000000" x2="108.300000" y2="164.000000"  style="stroke:black; stroke-linecap:round; stroke-width:0.25;"/>
<line x1="108.300000" y1="164.000000" x2="112.300000" y2="164.000000"  style="stroke:black; stroke-linecap:round; stroke-width:0.25;"/>
<line x1="108.300000" y1="172.000000" x2="112.300000" y2="172.000000"  style="stroke:black; stroke-linecap:round; stroke-width:0.25;"/>
<line x1="116.300000" y1="120.000000" x2="120.300000" y2="120.000000"  style="stroke:black; stroke-linecap:round; stroke-width:0.25;"/>
<line x1="120.300000" y1="120.000000" x2="140.300000" y2="120.000000"  style="stroke:black; stroke-linecap:round; stroke-width:0.25;"/>
<line x1="136.300000" y1="168.000000" x2="140.300000" y2="168.000000"  style="stroke:black; stroke-linecap:round; stroke-width:0.25;"/>
<line x1="140.300000" y1="120.000000" x2="148.300000" y2="120.000000"  style="stroke:black; stroke-linecap:round; stroke-width:0.25;"/>
<line x1="140.300000" y1="156.000000" x2="148.300000" y2="156.000000"  style="stroke:black; stroke-linecap:round; stroke-width:0.25;"/>
<line x1="140.300000" y1="168.000000" x2="140.300000" y2="156.000000"  style="stroke:black; stroke-linecap:round; stroke-width:0.25;"/>
<line x1="140.300000" y1="168.000000" x2="140.300000" y2="168.000000"  style="stroke:black; stroke-linecap:round; stroke-width:0.25;"/>
<line x1="148.300000" y1="120.000000" x2="148.300000" y2="148.000000"  style="stroke:black; stroke-linecap:round; stroke-width:0.25;"/>
<line x1="148.300000" y1="148.000000" x2="148.300000" y2="148.000000"  style="stroke:black; stroke-linecap:round; stroke-width:0.25;"/>
<line x1="148.300000" y1="148.000000" x2="152.300000" y2="148.000000"  style="stroke:black; stroke-linecap:round; stroke-width:0.25;"/>
<line x1="148.300000" y1="156.000000" x2="152.300000" y2="156.000000"  style="stroke:black; stroke-linecap:round; stroke-width:0.25;"/>
<line x1="176.300000" y1="152.000000" x2="180.300000" y2="152.000000"  style="stroke:black; stroke-linecap:round; stroke-width:0.25;"/>
<line x1="180.300000" y1="152.000000" x2="228.600000" y2="152.000000"  style="stroke:black; stroke-linecap:round; stroke-width:0.25;"/>
<line x1="192.550000" y1="32.000000" x2="196.550000" y2="32.000000"  style="stroke:black; stroke-linecap:round; stroke-width:0.25;"/>
<line x1="192.550000" y1="40.000000" x2="196.550000" y2="40.000000"  style="stroke:black; stroke-linecap:round; stroke-width:0.25;"/>
<line x1="196.550000" y1="32.000000" x2="300.600000" y2="32.000000"  style="stroke:black; stroke-linecap:round; stroke-width:0.25;"/>
<line x1="196.550000" y1="40.000000" x2="300.600000" y2="40.000000"  style="stroke:black; stroke-linecap:round; stroke-width:0.25;"/>
<line x1="214.600000" y1="78.000000" x2="218.600000" y2="78.000000"  style="stroke:black; stroke-linecap:round; stroke-width:0.25;"/>
<line x1="218.600000" y1="78.000000" x2="228.600000" y2="78.000000"  style="stroke:black; stroke-linecap:round; stroke-width:0.25;"/>
<line x1="228.600000" y1="78.000000" x2="236.600000" y2="78.000000"  style="stroke:black; stroke-linecap:round; stroke-width:0.25;"/>
<line x1="228.600000" y1="130.000000" x2="236.600000" y2="130.000000"  style="stroke:black; stroke-linecap:round; stroke-width:0.25;"/>
<line x1="228.600000" y1="152.000000" x2="228.600000" y2="130.000000"  style="stroke:black; stroke-linecap:round; stroke-width:0.25;"/>
<line x1="228.600000" y1="152.000000" x2="228.600000" y2="152.000000"  style="stroke:black; stroke-linecap:round; stroke-width:0.25;"/>
<line x1="236.600000" y1="78.000000" x2="236.600000" y2="122.000000"  style="stroke:black; stroke-linecap:round; stroke-width:0.25;"/>
<line x1="236.600000" y1="122.000000" x2="236.600000" y2="122.000000"  style="stroke:black; stroke-linecap:round; stroke-width:0.25;"/>
<line x1="236.600000" y1="122.000000" x2="240.600000" y2="122.000000"  style="stroke:black; stroke-linecap:round; stroke-width:0.25;"/>
<line x1="236.600000" y1="130.000000" x2="240.600000" y2="130.000000"  style="stroke:black; stroke-linecap:round; stroke-width:0.25;"/>
<line x1="264.600000" y1="126.000000" x2="268.600000" y2="126.000000"  style="stroke:black; stroke-linecap:round; stroke-width:0.25;"/>
<line x1="268.600000" y1="126.000000" x2="268.600000" y2="126.000000"  style="stroke:black; stroke-linecap:round; stroke-width:0.25;"/>
<line x1="268.600000" y1="126.000000" x2="272.600000" y2="126.000000"  style="stroke:black; stroke-linecap:round; stroke-width:0.25;"/>
<line x1="296.600000" y1="126.000000" x2="300.600000" y2="126.000000"  style="stroke:black; stroke-linecap:round; stroke-width:0.25;"/>
<line x1="300.600000" y1="32.000000" x2="316.600000" y2="32.000000"  style="stroke:black; stroke-linecap:round; stroke-width:0.25;"/>
<line x1="300.600000" y1="40.000000" x2="308.600000" y2="40.000000"  style="stroke:black; stroke-linecap:round; stroke-width:0.25;"/>
<line x1="300.600000" y1="118.000000" x2="316.600000" y2="118.000000"  style="stroke:black; stroke-linecap:round; stroke-width:0.25;"/>
<line x1="300.600000" y1="126.000000" x2="300.600000" y2="118.000000"  style="stroke:black; stroke-linecap:round; stroke-width:0.25;"/>
<line x1="300.600000" y1="126.000000" x2="300.600000" y2="126.000000"  style="stroke:black; stroke-linecap:round; stroke-width:0.25;"/>
<line x1="308.600000" y1="40.000000" x2="308.600000" y2="110.000000"  style="stroke:black; stroke-linecap:round; stroke-width:0.25;"/>
<line x1="308.600000" y1="110.000000" x2="316.600000" y2="110.000000"  style="stroke:black; stroke-linecap:round; stroke-width:0.25;"/>
<line x1="316.600000" y1="32.000000" x2="316.600000" y2="102.000000"  style="stroke:black; stroke-linecap:round; stroke-width:0.25;"/>
<line x1="316.600000" y1="102.000000" x2="316.600000" y2="102.000000"  style="stroke:black; stroke-linecap:round; stroke-width:0.25;"/>
<line x1="316.600000" y1="102.000000" x2="320.600000" y2="102.000000"  style="stroke:black; stroke-linecap:round; stroke-width:0.25;"/>
<line x1="316.600000" y1="110.000000" x2="320.600000" y2="110.000000"  style="stroke:black; stroke-linecap:round; stroke-width:0.25;"/>
<line x1="316.600000" y1="118.000000" x2="320.600000" y2="118.000000"  style="stroke:black; stroke-linecap:round; stroke-width:0.25;"/>
<line x1="359.300000" y1="110.000000" x2="363.300000" y2="110.000000"  style="stroke:black; stroke-linecap:round; stroke-width:0.25;"/>
<line x1="363.300000" y1="110.000000" x2="363.300000" y2="110.000000"  style="stroke:black; stroke-linecap:round; stroke-width:0.25;"/>
<line x1="363.300000" y1="110.000000" x2="367.300000" y2="110.000000"  style="stroke:black; stroke-linecap:round; stroke-width:0.25;"/>
<line x1="367.300000" y1="110.000000" x2="371.300000" y2="110.000000"  style="stroke:black; stroke-linecap:round; stroke-width:0.25;"/>
<line x1="371.300000" y1="110.000000" x2="381.300000" y2="110.000000"  style="stroke:black; stroke-linecap:round; stroke-width:0.25;"/>
</svg>
