<?xml version="1.0"?>
<svg xmlns="http://www.w3.org/2000/svg" xmlns:xlink="http://www.w3.org/1999/xlink" viewBox="0 0 357.800000 312.000000" width="178.900000mm" height="156.000000mm" version="1.1">
<defs>
   <filter id="filter" filterRes="18" x="0" y="0">
     <feGaussianBlur in="SourceGraphic" stdDeviation="1.55" result="blur"/>
     <feOffset in="blur" dx="3" dy="3"/>
   </filter>
</defs>
<a xlink:href="process.svg">
<rect x="1.000000" y="1.000000" width="356.800000" height="311.000000" rx="0.1" ry="0.1" style="stroke:none;fill:#aaaaaa;;filter:url(#filter);"/>
<rect x="0.000000" y="0.000000" width="356.800000" height="311.000000" rx="0" ry="0" style="stroke:none;fill:#ffffff;"/>
</a>
<text x="10.000000" y="7.000000" font-family="Arial" font-size="7"></text>
<rect x="143.000000" y="43.000000" width="25.800000" height="24.000000" rx="0.1" ry="0.1" style="stroke:none;fill:#aaaaaa;;filter:url(#filter);"/>
<rect x="142.000000" y="42.000000" width="25.800000" height="24.000000" rx="0" ry="0" style="stroke:none;fill:#f44800;"/>
<text x="154.900000" y="56.000000" font-family="Arial" font-size="7" text-anchor="middle" fill="#FFFFFF">1.5708</text>
<circle cx="144.000000" cy="44.000000" r="1"/>
<rect x="176.800000" y="43.000000" width="24.000000" height="24.000000" rx="0.1" ry="0.1" style="stroke:none;fill:#aaaaaa;;filter:url(#filter);"/>
<rect x="175.800000" y="42.000000" width="24.000000" height="24.000000" rx="0" ry="0" style="stroke:none;fill:#4B71A1;"/>
<text x="187.800000" y="56.000000" font-family="Arial" font-size="7" text-anchor="middle" fill="#FFFFFF">cos</text>
<circle cx="177.800000" cy="44.000000" r="1"/>
<line x1="172.800000" y1="53.000000" x2="175.800000" y2="54.000000"  transform="rotate(0.000000,175.800000,54.000000)" style="stroke: black; stroke-width:0.25;"/>
<line x1="172.800000" y1="55.000000" x2="175.800000" y2="54.000000"  transform="rotate(0.000000,175.800000,54.000000)" style="stroke: black; stroke-width:0.25;"/>
<line x1="133.000000" y1="33.000000" x2="133.000000" y2="75.000000"  style="stroke: black; stroke-linecap:round; stroke-width:0.25; stroke-dasharray:3,3;"/>
<line x1="133.000000" y1="75.000000" x2="208.800000" y2="75.000000"  style="stroke: black; stroke-linecap:round; stroke-width:0.25; stroke-dasharray:3,3;"/>
<line x1="208.800000" y1="75.000000" x2="208.800000" y2="33.000000"  style="stroke: black; stroke-linecap:round; stroke-width:0.25; stroke-dasharray:3,3;"/>
<line x1="133.000000" y1="33.000000" x2="138.000000" y2="33.000000"  style="stroke: black; stroke-linecap:round; stroke-width:0.25; stroke-dasharray:3,3;"/>
<line x1="147.675000" y1="33.000000" x2="208.800000" y2="33.000000"  style="stroke: black; stroke-linecap:round; stroke-width:0.25; stroke-dasharray:3,3;"/>
<text x="138.000000" y="35.000000" font-family="Arial" font-size="7">c</text>
<rect x="226.800000" y="39.000000" width="24.000000" height="24.000000" rx="0.1" ry="0.1" style="stroke:none;fill:#aaaaaa;;filter:url(#filter);"/>
<rect x="225.800000" y="38.000000" width="24.000000" height="24.000000" rx="0" ry="0" style="stroke:none;fill:#4B71A1;"/>
<text x="237.800000" y="52.000000" font-family="Arial" font-size="7" text-anchor="middle" fill="#FFFFFF">*</text>
<circle cx="227.800000" cy="40.000000" r="1"/>
<line x1="222.800000" y1="45.000000" x2="225.800000" y2="46.000000"  transform="rotate(0.000000,225.800000,46.000000)" style="stroke: black; stroke-width:0.25;"/>
<line x1="222.800000" y1="47.000000" x2="225.800000" y2="46.000000"  transform="rotate(0.000000,225.800000,46.000000)" style="stroke: black; stroke-width:0.25;"/>
<line x1="222.800000" y1="53.000000" x2="225.800000" y2="54.000000"  transform="rotate(0.000000,225.800000,54.000000)" style="stroke: black; stroke-width:0.25;"/>
<line x1="222.800000" y1="55.000000" x2="225.800000" y2="54.000000"  transform="rotate(0.000000,225.800000,54.000000)" style="stroke: black; stroke-width:0.25;"/>
<rect x="139.900000" y="93.000000" width="24.000000" height="24.000000" rx="0.1" ry="0.1" style="stroke:none;fill:#aaaaaa;;filter:url(#filter);"/>
<rect x="138.900000" y="92.000000" width="24.000000" height="24.000000" rx="0" ry="0" style="stroke:none;fill:#f44800;"/>
<text x="150.900000" y="106.000000" font-family="Arial" font-size="7" text-anchor="middle" fill="#FFFFFF">0</text>
<circle cx="140.900000" cy="94.000000" r="1"/>
<rect x="123.000000" y="135.000000" width="25.800000" height="24.000000" rx="0.1" ry="0.1" style="stroke:none;fill:#aaaaaa;;filter:url(#filter);"/>
<rect x="122.000000" y="134.000000" width="25.800000" height="24.000000" rx="0" ry="0" style="stroke:none;fill:#f44800;"/>
<text x="134.900000" y="148.000000" font-family="Arial" font-size="7" text-anchor="middle" fill="#FFFFFF">1.5708</text>
<circle cx="124.000000" cy="136.000000" r="1"/>
<rect x="156.800000" y="135.000000" width="24.000000" height="24.000000" rx="0.1" ry="0.1" style="stroke:none;fill:#aaaaaa;;filter:url(#filter);"/>
<rect x="155.800000" y="134.000000" width="24.000000" height="24.000000" rx="0" ry="0" style="stroke:none;fill:#4B71A1;"/>
<text x="167.800000" y="148.000000" font-family="Arial" font-size="7" text-anchor="middle" fill="#FFFFFF">sin</text>
<circle cx="157.800000" cy="136.000000" r="1"/>
<line x1="152.800000" y1="145.000000" x2="155.800000" y2="146.000000"  transform="rotate(0.000000,155.800000,146.000000)" style="stroke: black; stroke-width:0.25;"/>
<line x1="152.800000" y1="147.000000" x2="155.800000" y2="146.000000"  transform="rotate(0.000000,155.800000,146.000000)" style="stroke: black; stroke-width:0.25;"/>
<line x1="113.000000" y1="125.000000" x2="113.000000" y2="167.000000"  style="stroke: black; stroke-linecap:round; stroke-width:0.25; stroke-dasharray:3,3;"/>
<line x1="113.000000" y1="167.000000" x2="188.800000" y2="167.000000"  style="stroke: black; stroke-linecap:round; stroke-width:0.25; stroke-dasharray:3,3;"/>
<line x1="188.800000" y1="167.000000" x2="188.800000" y2="125.000000"  style="stroke: black; stroke-linecap:round; stroke-width:0.25; stroke-dasharray:3,3;"/>
<line x1="113.000000" y1="125.000000" x2="118.000000" y2="125.000000"  style="stroke: black; stroke-linecap:round; stroke-width:0.25; stroke-dasharray:3,3;"/>
<line x1="127.675000" y1="125.000000" x2="188.800000" y2="125.000000"  style="stroke: black; stroke-linecap:round; stroke-width:0.25; stroke-dasharray:3,3;"/>
<text x="118.000000" y="127.000000" font-family="Arial" font-size="7">s</text>
<rect x="206.800000" y="119.000000" width="24.000000" height="24.000000" rx="0.1" ry="0.1" style="stroke:none;fill:#aaaaaa;;filter:url(#filter);"/>
<rect x="205.800000" y="118.000000" width="24.000000" height="24.000000" rx="0" ry="0" style="stroke:none;fill:#4B71A1;"/>
<text x="217.800000" y="132.000000" font-family="Arial" font-size="7" text-anchor="middle" fill="#FFFFFF">-</text>
<circle cx="207.800000" cy="120.000000" r="1"/>
<line x1="202.800000" y1="125.000000" x2="205.800000" y2="126.000000"  transform="rotate(0.000000,205.800000,126.000000)" style="stroke: black; stroke-width:0.25;"/>
<line x1="202.800000" y1="127.000000" x2="205.800000" y2="126.000000"  transform="rotate(0.000000,205.800000,126.000000)" style="stroke: black; stroke-width:0.25;"/>
<line x1="202.800000" y1="133.000000" x2="205.800000" y2="134.000000"  transform="rotate(0.000000,205.800000,134.000000)" style="stroke: black; stroke-width:0.25;"/>
<line x1="202.800000" y1="135.000000" x2="205.800000" y2="134.000000"  transform="rotate(0.000000,205.800000,134.000000)" style="stroke: black; stroke-width:0.25;"/>
<rect x="246.800000" y="115.000000" width="24.000000" height="24.000000" rx="0.1" ry="0.1" style="stroke:none;fill:#aaaaaa;;filter:url(#filter);"/>
<rect x="245.800000" y="114.000000" width="24.000000" height="24.000000" rx="0" ry="0" style="stroke:none;fill:#4B71A1;"/>
<text x="257.800000" y="128.000000" font-family="Arial" font-size="7" text-anchor="middle" fill="#FFFFFF">*</text>
<circle cx="247.800000" cy="116.000000" r="1"/>
<line x1="242.800000" y1="121.000000" x2="245.800000" y2="122.000000"  transform="rotate(0.000000,245.800000,122.000000)" style="stroke: black; stroke-width:0.25;"/>
<line x1="242.800000" y1="123.000000" x2="245.800000" y2="122.000000"  transform="rotate(0.000000,245.800000,122.000000)" style="stroke: black; stroke-width:0.25;"/>
<line x1="242.800000" y1="129.000000" x2="245.800000" y2="130.000000"  transform="rotate(0.000000,245.800000,130.000000)" style="stroke: black; stroke-width:0.25;"/>
<line x1="242.800000" y1="131.000000" x2="245.800000" y2="130.000000"  transform="rotate(0.000000,245.800000,130.000000)" style="stroke: black; stroke-width:0.25;"/>
<rect x="143.000000" y="195.000000" width="25.800000" height="24.000000" rx="0.1" ry="0.1" style="stroke:none;fill:#aaaaaa;;filter:url(#filter);"/>
<rect x="142.000000" y="194.000000" width="25.800000" height="24.000000" rx="0" ry="0" style="stroke:none;fill:#f44800;"/>
<text x="154.900000" y="208.000000" font-family="Arial" font-size="7" text-anchor="middle" fill="#FFFFFF">1.5708</text>
<circle cx="144.000000" cy="196.000000" r="1"/>
<rect x="176.800000" y="195.000000" width="24.000000" height="24.000000" rx="0.1" ry="0.1" style="stroke:none;fill:#aaaaaa;;filter:url(#filter);"/>
<rect x="175.800000" y="194.000000" width="24.000000" height="24.000000" rx="0" ry="0" style="stroke:none;fill:#4B71A1;"/>
<text x="187.800000" y="208.000000" font-family="Arial" font-size="7" text-anchor="middle" fill="#FFFFFF">sin</text>
<circle cx="177.800000" cy="196.000000" r="1"/>
<line x1="172.800000" y1="205.000000" x2="175.800000" y2="206.000000"  transform="rotate(0.000000,175.800000,206.000000)" style="stroke: black; stroke-width:0.25;"/>
<line x1="172.800000" y1="207.000000" x2="175.800000" y2="206.000000"  transform="rotate(0.000000,175.800000,206.000000)" style="stroke: black; stroke-width:0.25;"/>
<line x1="133.000000" y1="185.000000" x2="133.000000" y2="227.000000"  style="stroke: black; stroke-linecap:round; stroke-width:0.25; stroke-dasharray:3,3;"/>
<line x1="133.000000" y1="227.000000" x2="208.800000" y2="227.000000"  style="stroke: black; stroke-linecap:round; stroke-width:0.25; stroke-dasharray:3,3;"/>
<line x1="208.800000" y1="227.000000" x2="208.800000" y2="185.000000"  style="stroke: black; stroke-linecap:round; stroke-width:0.25; stroke-dasharray:3,3;"/>
<line x1="133.000000" y1="185.000000" x2="138.000000" y2="185.000000"  style="stroke: black; stroke-linecap:round; stroke-width:0.25; stroke-dasharray:3,3;"/>
<line x1="147.675000" y1="185.000000" x2="208.800000" y2="185.000000"  style="stroke: black; stroke-linecap:round; stroke-width:0.25; stroke-dasharray:3,3;"/>
<text x="138.000000" y="187.000000" font-family="Arial" font-size="7">s</text>
<rect x="226.800000" y="191.000000" width="24.000000" height="24.000000" rx="0.1" ry="0.1" style="stroke:none;fill:#aaaaaa;;filter:url(#filter);"/>
<rect x="225.800000" y="190.000000" width="24.000000" height="24.000000" rx="0" ry="0" style="stroke:none;fill:#4B71A1;"/>
<text x="237.800000" y="204.000000" font-family="Arial" font-size="7" text-anchor="middle" fill="#FFFFFF">*</text>
<circle cx="227.800000" cy="192.000000" r="1"/>
<line x1="222.800000" y1="197.000000" x2="225.800000" y2="198.000000"  transform="rotate(0.000000,225.800000,198.000000)" style="stroke: black; stroke-width:0.25;"/>
<line x1="222.800000" y1="199.000000" x2="225.800000" y2="198.000000"  transform="rotate(0.000000,225.800000,198.000000)" style="stroke: black; stroke-width:0.25;"/>
<line x1="222.800000" y1="205.000000" x2="225.800000" y2="206.000000"  transform="rotate(0.000000,225.800000,206.000000)" style="stroke: black; stroke-width:0.25;"/>
<line x1="222.800000" y1="207.000000" x2="225.800000" y2="206.000000"  transform="rotate(0.000000,225.800000,206.000000)" style="stroke: black; stroke-width:0.25;"/>
<rect x="143.000000" y="255.000000" width="25.800000" height="24.000000" rx="0.1" ry="0.1" style="stroke:none;fill:#aaaaaa;;filter:url(#filter);"/>
<rect x="142.000000" y="254.000000" width="25.800000" height="24.000000" rx="0" ry="0" style="stroke:none;fill:#f44800;"/>
<text x="154.900000" y="268.000000" font-family="Arial" font-size="7" text-anchor="middle" fill="#FFFFFF">1.5708</text>
<circle cx="144.000000" cy="256.000000" r="1"/>
<rect x="176.800000" y="255.000000" width="24.000000" height="24.000000" rx="0.1" ry="0.1" style="stroke:none;fill:#aaaaaa;;filter:url(#filter);"/>
<rect x="175.800000" y="254.000000" width="24.000000" height="24.000000" rx="0" ry="0" style="stroke:none;fill:#4B71A1;"/>
<text x="187.800000" y="268.000000" font-family="Arial" font-size="7" text-anchor="middle" fill="#FFFFFF">cos</text>
<circle cx="177.800000" cy="256.000000" r="1"/>
<line x1="172.800000" y1="265.000000" x2="175.800000" y2="266.000000"  transform="rotate(0.000000,175.800000,266.000000)" style="stroke: black; stroke-width:0.25;"/>
<line x1="172.800000" y1="267.000000" x2="175.800000" y2="266.000000"  transform="rotate(0.000000,175.800000,266.000000)" style="stroke: black; stroke-width:0.25;"/>
<line x1="133.000000" y1="245.000000" x2="133.000000" y2="287.000000"  style="stroke: black; stroke-linecap:round; stroke-width:0.25; stroke-dasharray:3,3;"/>
<line x1="133.000000" y1="287.000000" x2="208.800000" y2="287.000000"  style="stroke: black; stroke-linecap:round; stroke-width:0.25; stroke-dasharray:3,3;"/>
<line x1="208.800000" y1="287.000000" x2="208.800000" y2="245.000000"  style="stroke: black; stroke-linecap:round; stroke-width:0.25; stroke-dasharray:3,3;"/>
<line x1="133.000000" y1="245.000000" x2="138.000000" y2="245.000000"  style="stroke: black; stroke-linecap:round; stroke-width:0.25; stroke-dasharray:3,3;"/>
<line x1="147.675000" y1="245.000000" x2="208.800000" y2="245.000000"  style="stroke: black; stroke-linecap:round; stroke-width:0.25; stroke-dasharray:3,3;"/>
<text x="138.000000" y="247.000000" font-family="Arial" font-size="7">c</text>
<rect x="226.800000" y="251.000000" width="24.000000" height="24.000000" rx="0.1" ry="0.1" style="stroke:none;fill:#aaaaaa;;filter:url(#filter);"/>
<rect x="225.800000" y="250.000000" width="24.000000" height="24.000000" rx="0" ry="0" style="stroke:none;fill:#4B71A1;"/>
<text x="237.800000" y="264.000000" font-family="Arial" font-size="7" text-anchor="middle" fill="#FFFFFF">*</text>
<circle cx="227.800000" cy="252.000000" r="1"/>
<line x1="222.800000" y1="257.000000" x2="225.800000" y2="258.000000"  transform="rotate(0.000000,225.800000,258.000000)" style="stroke: black; stroke-width:0.25;"/>
<line x1="222.800000" y1="259.000000" x2="225.800000" y2="258.000000"  transform="rotate(0.000000,225.800000,258.000000)" style="stroke: black; stroke-width:0.25;"/>
<line x1="222.800000" y1="265.000000" x2="225.800000" y2="266.000000"  transform="rotate(0.000000,225.800000,266.000000)" style="stroke: black; stroke-width:0.25;"/>
<line x1="222.800000" y1="267.000000" x2="225.800000" y2="266.000000"  transform="rotate(0.000000,225.800000,266.000000)" style="stroke: black; stroke-width:0.25;"/>
<rect x="294.800000" y="129.000000" width="24.000000" height="24.000000" rx="0.1" ry="0.1" style="stroke:none;fill:#aaaaaa;;filter:url(#filter);"/>
<rect x="293.800000" y="128.000000" width="24.000000" height="24.000000" rx="0" ry="0" style="stroke:none;fill:#4B71A1;"/>
<text x="305.800000" y="142.000000" font-family="Arial" font-size="7" text-anchor="middle" fill="#FFFFFF">+</text>
<circle cx="295.800000" cy="130.000000" r="1"/>
<line x1="290.800000" y1="135.000000" x2="293.800000" y2="136.000000"  transform="rotate(0.000000,293.800000,136.000000)" style="stroke: black; stroke-width:0.25;"/>
<line x1="290.800000" y1="137.000000" x2="293.800000" y2="136.000000"  transform="rotate(0.000000,293.800000,136.000000)" style="stroke: black; stroke-width:0.25;"/>
<line x1="290.800000" y1="143.000000" x2="293.800000" y2="144.000000"  transform="rotate(0.000000,293.800000,144.000000)" style="stroke: black; stroke-width:0.25;"/>
<line x1="290.800000" y1="145.000000" x2="293.800000" y2="144.000000"  transform="rotate(0.000000,293.800000,144.000000)" style="stroke: black; stroke-width:0.25;"/>
<rect x="294.800000" y="161.000000" width="24.000000" height="24.000000" rx="0.1" ry="0.1" style="stroke:none;fill:#aaaaaa;;filter:url(#filter);"/>
<rect x="293.800000" y="160.000000" width="24.000000" height="24.000000" rx="0" ry="0" style="stroke:none;fill:#4B71A1;"/>
<text x="305.800000" y="174.000000" font-family="Arial" font-size="7" text-anchor="middle" fill="#FFFFFF">+</text>
<circle cx="295.800000" cy="162.000000" r="1"/>
<line x1="290.800000" y1="167.000000" x2="293.800000" y2="168.000000"  transform="rotate(0.000000,293.800000,168.000000)" style="stroke: black; stroke-width:0.25;"/>
<line x1="290.800000" y1="169.000000" x2="293.800000" y2="168.000000"  transform="rotate(0.000000,293.800000,168.000000)" style="stroke: black; stroke-width:0.25;"/>
<line x1="290.800000" y1="175.000000" x2="293.800000" y2="176.000000"  transform="rotate(0.000000,293.800000,176.000000)" style="stroke: black; stroke-width:0.25;"/>
<line x1="290.800000" y1="177.000000" x2="293.800000" y2="176.000000"  transform="rotate(0.000000,293.800000,176.000000)" style="stroke: black; stroke-width:0.25;"/>
<line x1="15.000000" y1="15.000000" x2="15.000000" y2="297.000000"  style="stroke: black; stroke-linecap:round; stroke-width:0.25; stroke-dasharray:3,3;"/>
<line x1="15.000000" y1="297.000000" x2="342.800000" y2="297.000000"  style="stroke: black; stroke-linecap:round; stroke-width:0.25; stroke-dasharray:3,3;"/>
<line x1="342.800000" y1="297.000000" x2="342.800000" y2="15.000000"  style="stroke: black; stroke-linecap:round; stroke-width:0.25; stroke-dasharray:3,3;"/>
<line x1="15.000000" y1="15.000000" x2="20.000000" y2="15.000000"  style="stroke: black; stroke-linecap:round; stroke-width:0.25; stroke-dasharray:3,3;"/>
<line x1="87.725000" y1="15.000000" x2="342.800000" y2="15.000000"  style="stroke: black; stroke-linecap:round; stroke-width:0.25; stroke-dasharray:3,3;"/>
<text x="20.000000" y="17.000000" font-family="Arial" font-size="7">rotator(1.5707964f)</text>
<line x1="344.800000" y1="151.000000" x2="347.800000" y2="152.000000"  transform="rotate(0.000000,347.800000,152.000000)" style="stroke: black; stroke-width:0.25;"/>
<line x1="344.800000" y1="153.000000" x2="347.800000" y2="152.000000"  transform="rotate(0.000000,347.800000,152.000000)" style="stroke: black; stroke-width:0.25;"/>
<line x1="344.800000" y1="159.000000" x2="347.800000" y2="160.000000"  transform="rotate(0.000000,347.800000,160.000000)" style="stroke: black; stroke-width:0.25;"/>
<line x1="344.800000" y1="161.000000" x2="347.800000" y2="160.000000"  transform="rotate(0.000000,347.800000,160.000000)" style="stroke: black; stroke-width:0.25;"/>
<line x1="10.000000" y1="152.000000" x2="20.000000" y2="152.000000"  style="stroke:black; stroke-linecap:round; stroke-width:0.25;"/>
<line x1="10.000000" y1="160.000000" x2="20.000000" y2="160.000000"  style="stroke:black; stroke-linecap:round; stroke-width:0.25;"/>
<line x1="20.000000" y1="152.000000" x2="24.000000" y2="152.000000"  style="stroke:black; stroke-linecap:round; stroke-width:0.25;"/>
<line x1="20.000000" y1="160.000000" x2="24.000000" y2="160.000000"  style="stroke:black; stroke-linecap:round; stroke-width:0.25;"/>
<line x1="24.000000" y1="152.000000" x2="28.000000" y2="152.000000"  style="stroke:black; stroke-linecap:round; stroke-width:0.25;"/>
<line x1="24.000000" y1="160.000000" x2="28.000000" y2="160.000000"  style="stroke:black; stroke-linecap:round; stroke-width:0.25;"/>
<line x1="28.000000" y1="152.000000" x2="28.000000" y2="152.000000"  style="stroke:black; stroke-linecap:round; stroke-width:0.25;"/>
<line x1="28.000000" y1="152.000000" x2="32.000000" y2="152.000000"  style="stroke:black; stroke-linecap:round; stroke-width:0.25;"/>
<line x1="28.000000" y1="160.000000" x2="28.000000" y2="160.000000"  style="stroke:black; stroke-linecap:round; stroke-width:0.25;"/>
<line x1="28.000000" y1="160.000000" x2="32.000000" y2="160.000000"  style="stroke:black; stroke-linecap:round; stroke-width:0.25;"/>
<line x1="32.000000" y1="152.000000" x2="36.000000" y2="152.000000"  style="stroke:black; stroke-linecap:round; stroke-width:0.25;"/>
<line x1="32.000000" y1="160.000000" x2="36.000000" y2="160.000000"  style="stroke:black; stroke-linecap:round; stroke-width:0.25;"/>
<line x1="36.000000" y1="152.000000" x2="108.000000" y2="24.000000"  style="stroke:black; stroke-linecap:round; stroke-width:0.25;"/>
<line x1="36.000000" y1="152.000000" x2="108.000000" y2="176.000000"  style="stroke:black; stroke-linecap:round; stroke-width:0.25;"/>
<line x1="36.000000" y1="160.000000" x2="108.000000" y2="84.000000"  style="stroke:black; stroke-linecap:round; stroke-width:0.25;"/>
<line x1="36.000000" y1="160.000000" x2="108.000000" y2="236.000000"  style="stroke:black; stroke-linecap:round; stroke-width:0.25;"/>
<line x1="108.000000" y1="24.000000" x2="128.000000" y2="24.000000"  style="stroke:black; stroke-linecap:round; stroke-width:0.25;"/>
<line x1="108.000000" y1="84.000000" x2="170.900000" y2="84.000000"  style="stroke:black; stroke-linecap:round; stroke-width:0.25;"/>
<line x1="108.000000" y1="176.000000" x2="128.000000" y2="176.000000"  style="stroke:black; stroke-linecap:round; stroke-width:0.25;"/>
<line x1="108.000000" y1="236.000000" x2="128.000000" y2="236.000000"  style="stroke:black; stroke-linecap:round; stroke-width:0.25;"/>
<line x1="128.000000" y1="24.000000" x2="170.900000" y2="24.000000"  style="stroke:black; stroke-linecap:round; stroke-width:0.25;"/>
<line x1="128.000000" y1="176.000000" x2="170.900000" y2="176.000000"  style="stroke:black; stroke-linecap:round; stroke-width:0.25;"/>
<line x1="128.000000" y1="236.000000" x2="170.900000" y2="236.000000"  style="stroke:black; stroke-linecap:round; stroke-width:0.25;"/>
<line x1="147.800000" y1="146.000000" x2="151.800000" y2="146.000000"  style="stroke:black; stroke-linecap:round; stroke-width:0.25;"/>
<line x1="151.800000" y1="146.000000" x2="151.800000" y2="146.000000"  style="stroke:black; stroke-linecap:round; stroke-width:0.25;"/>
<line x1="151.800000" y1="146.000000" x2="155.800000" y2="146.000000"  style="stroke:black; stroke-linecap:round; stroke-width:0.25;"/>
<line x1="162.900000" y1="104.000000" x2="166.900000" y2="104.000000"  style="stroke:black; stroke-linecap:round; stroke-width:0.25;"/>
<line x1="166.900000" y1="104.000000" x2="193.800000" y2="104.000000"  style="stroke:black; stroke-linecap:round; stroke-width:0.25;"/>
<line x1="167.800000" y1="54.000000" x2="171.800000" y2="54.000000"  style="stroke:black; stroke-linecap:round; stroke-width:0.25;"/>
<line x1="167.800000" y1="206.000000" x2="171.800000" y2="206.000000"  style="stroke:black; stroke-linecap:round; stroke-width:0.25;"/>
<line x1="167.800000" y1="266.000000" x2="171.800000" y2="266.000000"  style="stroke:black; stroke-linecap:round; stroke-width:0.25;"/>
<line x1="170.900000" y1="24.000000" x2="213.800000" y2="24.000000"  style="stroke:black; stroke-linecap:round; stroke-width:0.25;"/>
<line x1="170.900000" y1="84.000000" x2="233.800000" y2="84.000000"  style="stroke:black; stroke-linecap:round; stroke-width:0.25;"/>
<line x1="170.900000" y1="176.000000" x2="213.800000" y2="176.000000"  style="stroke:black; stroke-linecap:round; stroke-width:0.25;"/>
<line x1="170.900000" y1="236.000000" x2="213.800000" y2="236.000000"  style="stroke:black; stroke-linecap:round; stroke-width:0.25;"/>
<line x1="171.800000" y1="54.000000" x2="171.800000" y2="54.000000"  style="stroke:black; stroke-linecap:round; stroke-width:0.25;"/>
<line x1="171.800000" y1="54.000000" x2="175.800000" y2="54.000000"  style="stroke:black; stroke-linecap:round; stroke-width:0.25;"/>
<line x1="171.800000" y1="206.000000" x2="171.800000" y2="206.000000"  style="stroke:black; stroke-linecap:round; stroke-width:0.25;"/>
<line x1="171.800000" y1="206.000000" x2="175.800000" y2="206.000000"  style="stroke:black; stroke-linecap:round; stroke-width:0.25;"/>
<line x1="171.800000" y1="266.000000" x2="171.800000" y2="266.000000"  style="stroke:black; stroke-linecap:round; stroke-width:0.25;"/>
<line x1="171.800000" y1="266.000000" x2="175.800000" y2="266.000000"  style="stroke:black; stroke-linecap:round; stroke-width:0.25;"/>
<line x1="179.800000" y1="146.000000" x2="183.800000" y2="146.000000"  style="stroke:black; stroke-linecap:round; stroke-width:0.25;"/>
<line x1="183.800000" y1="146.000000" x2="193.800000" y2="146.000000"  style="stroke:black; stroke-linecap:round; stroke-width:0.25;"/>
<line x1="193.800000" y1="104.000000" x2="201.800000" y2="104.000000"  style="stroke:black; stroke-linecap:round; stroke-width:0.25;"/>
<line x1="193.800000" y1="134.000000" x2="201.800000" y2="134.000000"  style="stroke:black; stroke-linecap:round; stroke-width:0.25;"/>
<line x1="193.800000" y1="146.000000" x2="193.800000" y2="134.000000"  style="stroke:black; stroke-linecap:round; stroke-width:0.25;"/>
<line x1="193.800000" y1="146.000000" x2="193.800000" y2="146.000000"  style="stroke:black; stroke-linecap:round; stroke-width:0.25;"/>
<line x1="199.800000" y1="54.000000" x2="203.800000" y2="54.000000"  style="stroke:black; stroke-linecap:round; stroke-width:0.25;"/>
<line x1="199.800000" y1="206.000000" x2="203.800000" y2="206.000000"  style="stroke:black; stroke-linecap:round; stroke-width:0.25;"/>
<line x1="199.800000" y1="266.000000" x2="203.800000" y2="266.000000"  style="stroke:black; stroke-linecap:round; stroke-width:0.25;"/>
<line x1="201.800000" y1="104.000000" x2="201.800000" y2="126.000000"  style="stroke:black; stroke-linecap:round; stroke-width:0.25;"/>
<line x1="201.800000" y1="126.000000" x2="201.800000" y2="126.000000"  style="stroke:black; stroke-linecap:round; stroke-width:0.25;"/>
<line x1="201.800000" y1="126.000000" x2="205.800000" y2="126.000000"  style="stroke:black; stroke-linecap:round; stroke-width:0.25;"/>
<line x1="201.800000" y1="134.000000" x2="205.800000" y2="134.000000"  style="stroke:black; stroke-linecap:round; stroke-width:0.25;"/>
<line x1="203.800000" y1="54.000000" x2="213.800000" y2="54.000000"  style="stroke:black; stroke-linecap:round; stroke-width:0.25;"/>
<line x1="203.800000" y1="206.000000" x2="213.800000" y2="206.000000"  style="stroke:black; stroke-linecap:round; stroke-width:0.25;"/>
<line x1="203.800000" y1="266.000000" x2="213.800000" y2="266.000000"  style="stroke:black; stroke-linecap:round; stroke-width:0.25;"/>
<line x1="213.800000" y1="24.000000" x2="221.800000" y2="24.000000"  style="stroke:black; stroke-linecap:round; stroke-width:0.25;"/>
<line x1="213.800000" y1="54.000000" x2="221.800000" y2="54.000000"  style="stroke:black; stroke-linecap:round; stroke-width:0.25;"/>
<line x1="213.800000" y1="176.000000" x2="221.800000" y2="176.000000"  style="stroke:black; stroke-linecap:round; stroke-width:0.25;"/>
<line x1="213.800000" y1="206.000000" x2="221.800000" y2="206.000000"  style="stroke:black; stroke-linecap:round; stroke-width:0.25;"/>
<line x1="213.800000" y1="236.000000" x2="221.800000" y2="236.000000"  style="stroke:black; stroke-linecap:round; stroke-width:0.25;"/>
<line x1="213.800000" y1="266.000000" x2="221.800000" y2="266.000000"  style="stroke:black; stroke-linecap:round; stroke-width:0.25;"/>
<line x1="221.800000" y1="24.000000" x2="221.800000" y2="46.000000"  style="stroke:black; stroke-linecap:round; stroke-width:0.25;"/>
<line x1="221.800000" y1="46.000000" x2="221.800000" y2="46.000000"  style="stroke:black; stroke-linecap:round; stroke-width:0.25;"/>
<line x1="221.800000" y1="46.000000" x2="225.800000" y2="46.000000"  style="stroke:black; stroke-linecap:round; stroke-width:0.25;"/>
<line x1="221.800000" y1="54.000000" x2="225.800000" y2="54.000000"  style="stroke:black; stroke-linecap:round; stroke-width:0.25;"/>
<line x1="221.800000" y1="176.000000" x2="221.800000" y2="198.000000"  style="stroke:black; stroke-linecap:round; stroke-width:0.25;"/>
<line x1="221.800000" y1="198.000000" x2="221.800000" y2="198.000000"  style="stroke:black; stroke-linecap:round; stroke-width:0.25;"/>
<line x1="221.800000" y1="198.000000" x2="225.800000" y2="198.000000"  style="stroke:black; stroke-linecap:round; stroke-width:0.25;"/>
<line x1="221.800000" y1="206.000000" x2="225.800000" y2="206.000000"  style="stroke:black; stroke-linecap:round; stroke-width:0.25;"/>
<line x1="221.800000" y1="236.000000" x2="221.800000" y2="258.000000"  style="stroke:black; stroke-linecap:round; stroke-width:0.25;"/>
<line x1="221.800000" y1="258.000000" x2="221.800000" y2="258.000000"  style="stroke:black; stroke-linecap:round; stroke-width:0.25;"/>
<line x1="221.800000" y1="258.000000" x2="225.800000" y2="258.000000"  style="stroke:black; stroke-linecap:round; stroke-width:0.25;"/>
<line x1="221.800000" y1="266.000000" x2="225.800000" y2="266.000000"  style="stroke:black; stroke-linecap:round; stroke-width:0.25;"/>
<line x1="229.800000" y1="130.000000" x2="233.800000" y2="130.000000"  style="stroke:black; stroke-linecap:round; stroke-width:0.25;"/>
<line x1="233.800000" y1="84.000000" x2="241.800000" y2="84.000000"  style="stroke:black; stroke-linecap:round; stroke-width:0.25;"/>
<line x1="233.800000" y1="130.000000" x2="241.800000" y2="130.000000"  style="stroke:black; stroke-linecap:round; stroke-width:0.25;"/>
<line x1="241.800000" y1="84.000000" x2="241.800000" y2="122.000000"  style="stroke:black; stroke-linecap:round; stroke-width:0.25;"/>
<line x1="241.800000" y1="122.000000" x2="241.800000" y2="122.000000"  style="stroke:black; stroke-linecap:round; stroke-width:0.25;"/>
<line x1="241.800000" y1="122.000000" x2="245.800000" y2="122.000000"  style="stroke:black; stroke-linecap:round; stroke-width:0.25;"/>
<line x1="241.800000" y1="130.000000" x2="245.800000" y2="130.000000"  style="stroke:black; stroke-linecap:round; stroke-width:0.25;"/>
<line x1="249.800000" y1="50.000000" x2="253.800000" y2="50.000000"  style="stroke:black; stroke-linecap:round; stroke-width:0.25;"/>
<line x1="249.800000" y1="202.000000" x2="253.800000" y2="202.000000"  style="stroke:black; stroke-linecap:round; stroke-width:0.25;"/>
<line x1="249.800000" y1="262.000000" x2="253.800000" y2="262.000000"  style="stroke:black; stroke-linecap:round; stroke-width:0.25;"/>
<line x1="253.800000" y1="50.000000" x2="273.800000" y2="50.000000"  style="stroke:black; stroke-linecap:round; stroke-width:0.25;"/>
<line x1="253.800000" y1="202.000000" x2="273.800000" y2="202.000000"  style="stroke:black; stroke-linecap:round; stroke-width:0.25;"/>
<line x1="253.800000" y1="262.000000" x2="273.800000" y2="262.000000"  style="stroke:black; stroke-linecap:round; stroke-width:0.25;"/>
<line x1="269.800000" y1="126.000000" x2="273.800000" y2="126.000000"  style="stroke:black; stroke-linecap:round; stroke-width:0.25;"/>
<line x1="273.800000" y1="50.000000" x2="289.800000" y2="50.000000"  style="stroke:black; stroke-linecap:round; stroke-width:0.25;"/>
<line x1="273.800000" y1="126.000000" x2="281.800000" y2="126.000000"  style="stroke:black; stroke-linecap:round; stroke-width:0.25;"/>
<line x1="273.800000" y1="168.000000" x2="289.800000" y2="168.000000"  style="stroke:black; stroke-linecap:round; stroke-width:0.25;"/>
<line x1="273.800000" y1="202.000000" x2="273.800000" y2="168.000000"  style="stroke:black; stroke-linecap:round; stroke-width:0.25;"/>
<line x1="273.800000" y1="202.000000" x2="273.800000" y2="202.000000"  style="stroke:black; stroke-linecap:round; stroke-width:0.25;"/>
<line x1="273.800000" y1="262.000000" x2="281.800000" y2="262.000000"  style="stroke:black; stroke-linecap:round; stroke-width:0.25;"/>
<line x1="281.800000" y1="126.000000" x2="281.800000" y2="144.000000"  style="stroke:black; stroke-linecap:round; stroke-width:0.25;"/>
<line x1="281.800000" y1="144.000000" x2="289.800000" y2="144.000000"  style="stroke:black; stroke-linecap:round; stroke-width:0.25;"/>
<line x1="281.800000" y1="176.000000" x2="289.800000" y2="176.000000"  style="stroke:black; stroke-linecap:round; stroke-width:0.25;"/>
<line x1="281.800000" y1="262.000000" x2="281.800000" y2="176.000000"  style="stroke:black; stroke-linecap:round; stroke-width:0.25;"/>
<line x1="289.800000" y1="50.000000" x2="289.800000" y2="136.000000"  style="stroke:black; stroke-linecap:round; stroke-width:0.25;"/>
<line x1="289.800000" y1="136.000000" x2="289.800000" y2="136.000000"  style="stroke:black; stroke-linecap:round; stroke-width:0.25;"/>
<line x1="289.800000" y1="136.000000" x2="293.800000" y2="136.000000"  style="stroke:black; stroke-linecap:round; stroke-width:0.25;"/>
<line x1="289.800000" y1="144.000000" x2="293.800000" y2="144.000000"  style="stroke:black; stroke-linecap:round; stroke-width:0.25;"/>
<line x1="289.800000" y1="168.000000" x2="293.800000" y2="168.000000"  style="stroke:black; stroke-linecap:round; stroke-width:0.25;"/>
<line x1="289.800000" y1="176.000000" x2="293.800000" y2="176.000000"  style="stroke:black; stroke-linecap:round; stroke-width:0.25;"/>
<line x1="317.800000" y1="140.000000" x2="321.800000" y2="140.000000"  style="stroke:black; stroke-linecap:round; stroke-width:0.25;"/>
<line x1="317.800000" y1="172.000000" x2="321.800000" y2="172.000000"  style="stroke:black; stroke-linecap:round; stroke-width:0.25;"/>
<line x1="321.800000" y1="140.000000" x2="329.800000" y2="140.000000"  style="stroke:black; stroke-linecap:round; stroke-width:0.25;"/>
<line x1="321.800000" y1="160.000000" x2="329.800000" y2="160.000000"  style="stroke:black; stroke-linecap:round; stroke-width:0.25;"/>
<line x1="321.800000" y1="172.000000" x2="321.800000" y2="160.000000"  style="stroke:black; stroke-linecap:round; stroke-width:0.25;"/>
<line x1="321.800000" y1="172.000000" x2="321.800000" y2="172.000000"  style="stroke:black; stroke-linecap:round; stroke-width:0.25;"/>
<line x1="329.800000" y1="140.000000" x2="329.800000" y2="152.000000"  style="stroke:black; stroke-linecap:round; stroke-width:0.25;"/>
<line x1="329.800000" y1="152.000000" x2="329.800000" y2="152.000000"  style="stroke:black; stroke-linecap:round; stroke-width:0.25;"/>
<line x1="329.800000" y1="152.000000" x2="333.800000" y2="152.000000"  style="stroke:black; stroke-linecap:round; stroke-width:0.25;"/>
<line x1="329.800000" y1="160.000000" x2="329.800000" y2="160.000000"  style="stroke:black; stroke-linecap:round; stroke-width:0.25;"/>
<line x1="329.800000" y1="160.000000" x2="333.800000" y2="160.000000"  style="stroke:black; stroke-linecap:round; stroke-width:0.25;"/>
<line x1="333.800000" y1="152.000000" x2="337.800000" y2="152.000000"  style="stroke:black; stroke-linecap:round; stroke-width:0.25;"/>
<line x1="333.800000" y1="160.000000" x2="337.800000" y2="160.000000"  style="stroke:black; stroke-linecap:round; stroke-width:0.25;"/>
<line x1="337.800000" y1="152.000000" x2="347.800000" y2="152.000000"  style="stroke:black; stroke-linecap:round; stroke-width:0.25;"/>
<line x1="337.800000" y1="160.000000" x2="347.800000" y2="160.000000"  style="stroke:black; stroke-linecap:round; stroke-width:0.25;"/>
</svg>
