<?xml version="1.0"?>
<svg xmlns="http://www.w3.org/2000/svg" xmlns:xlink="http://www.w3.org/1999/xlink" viewBox="0 0 508.600000 144.000000" width="254.300000mm" height="72.000000mm" version="1.1">
<defs>
   <filter id="filter" filterRes="18" x="0" y="0">
     <feGaussianBlur in="SourceGraphic" stdDeviation="1.55" result="blur"/>
     <feOffset in="blur" dx="3" dy="3"/>
   </filter>
</defs>
<a xlink:href="dmo-0x56137d17a910.svg">
<rect x="1.000000" y="1.000000" width="507.600000" height="143.000000" rx="0.1" ry="0.1" style="stroke:none;fill:#aaaaaa;;filter:url(#filter);"/>
<rect x="0.000000" y="0.000000" width="507.600000" height="143.000000" rx="0" ry="0" style="stroke:none;fill:#ffffff;"/>
</a>
<text x="10.000000" y="7.000000" font-family="Arial" font-size="7"></text>
<rect x="41.900000" y="49.000000" width="24.000000" height="24.000000" rx="0.1" ry="0.1" style="stroke:none;fill:#aaaaaa;;filter:url(#filter);"/>
<rect x="40.900000" y="48.000000" width="24.000000" height="24.000000" rx="0" ry="0" style="stroke:none;fill:#f44800;"/>
<text x="52.900000" y="62.000000" font-family="Arial" font-size="7" text-anchor="middle" fill="#FFFFFF">1</text>
<circle cx="42.900000" cy="50.000000" r="1"/>
<rect x="41.000000" y="81.000000" width="25.800000" height="24.000000" rx="0.1" ry="0.1" style="stroke:none;fill:#aaaaaa;;filter:url(#filter);"/>
<rect x="40.000000" y="80.000000" width="25.800000" height="24.000000" rx="0" ry="0" style="stroke:none;fill:#f44800;"/>
<text x="52.900000" y="94.000000" font-family="Arial" font-size="7" text-anchor="middle" fill="#FFFFFF">0.999</text>
<circle cx="42.000000" cy="82.000000" r="1"/>
<rect x="82.800000" y="65.000000" width="24.000000" height="24.000000" rx="0.1" ry="0.1" style="stroke:none;fill:#aaaaaa;;filter:url(#filter);"/>
<rect x="81.800000" y="64.000000" width="24.000000" height="24.000000" rx="0" ry="0" style="stroke:none;fill:#4B71A1;"/>
<text x="93.800000" y="78.000000" font-family="Arial" font-size="7" text-anchor="middle" fill="#FFFFFF">-</text>
<circle cx="83.800000" cy="66.000000" r="1"/>
<line x1="78.800000" y1="71.000000" x2="81.800000" y2="72.000000"  transform="rotate(0.000000,81.800000,72.000000)" style="stroke: black; stroke-width:0.25;"/>
<line x1="78.800000" y1="73.000000" x2="81.800000" y2="72.000000"  transform="rotate(0.000000,81.800000,72.000000)" style="stroke: black; stroke-width:0.25;"/>
<line x1="78.800000" y1="79.000000" x2="81.800000" y2="80.000000"  transform="rotate(0.000000,81.800000,80.000000)" style="stroke: black; stroke-width:0.25;"/>
<line x1="78.800000" y1="81.000000" x2="81.800000" y2="80.000000"  transform="rotate(0.000000,81.800000,80.000000)" style="stroke: black; stroke-width:0.25;"/>
<rect x="122.800000" y="61.000000" width="24.000000" height="24.000000" rx="0.1" ry="0.1" style="stroke:none;fill:#aaaaaa;;filter:url(#filter);"/>
<rect x="121.800000" y="60.000000" width="24.000000" height="24.000000" rx="0" ry="0" style="stroke:none;fill:#4B71A1;"/>
<text x="133.800000" y="74.000000" font-family="Arial" font-size="7" text-anchor="middle" fill="#FFFFFF">*</text>
<circle cx="123.800000" cy="62.000000" r="1"/>
<line x1="118.800000" y1="67.000000" x2="121.800000" y2="68.000000"  transform="rotate(0.000000,121.800000,68.000000)" style="stroke: black; stroke-width:0.25;"/>
<line x1="118.800000" y1="69.000000" x2="121.800000" y2="68.000000"  transform="rotate(0.000000,121.800000,68.000000)" style="stroke: black; stroke-width:0.25;"/>
<line x1="118.800000" y1="75.000000" x2="121.800000" y2="76.000000"  transform="rotate(0.000000,121.800000,76.000000)" style="stroke: black; stroke-width:0.25;"/>
<line x1="118.800000" y1="77.000000" x2="121.800000" y2="76.000000"  transform="rotate(0.000000,121.800000,76.000000)" style="stroke: black; stroke-width:0.25;"/>
<rect x="304.200000" y="97.000000" width="24.000000" height="24.000000" rx="0.1" ry="0.1" style="stroke:none;fill:#aaaaaa;;filter:url(#filter);"/>
<rect x="303.200000" y="96.000000" width="24.000000" height="24.000000" rx="0" ry="0" style="stroke:none;fill:#4B71A1;"/>
<text x="315.200000" y="110.000000" font-family="Arial" font-size="7" text-anchor="middle" fill="#FFFFFF">+</text>
<circle cx="305.200000" cy="98.000000" r="1"/>
<line x1="300.200000" y1="103.000000" x2="303.200000" y2="104.000000"  transform="rotate(0.000000,303.200000,104.000000)" style="stroke: black; stroke-width:0.25;"/>
<line x1="300.200000" y1="105.000000" x2="303.200000" y2="104.000000"  transform="rotate(0.000000,303.200000,104.000000)" style="stroke: black; stroke-width:0.25;"/>
<line x1="300.200000" y1="111.000000" x2="303.200000" y2="112.000000"  transform="rotate(0.000000,303.200000,112.000000)" style="stroke: black; stroke-width:0.25;"/>
<line x1="300.200000" y1="113.000000" x2="303.200000" y2="112.000000"  transform="rotate(0.000000,303.200000,112.000000)" style="stroke: black; stroke-width:0.25;"/>
<a xlink:href="prime-0x56137cdbe9d0.svg">
<rect x="332.600000" y="57.000000" width="129.000000" height="24.000000" rx="0.1" ry="0.1" style="stroke:none;fill:#aaaaaa;;filter:url(#filter);"/>
<rect x="331.600000" y="56.000000" width="129.000000" height="24.000000" rx="0" ry="0" style="stroke:none;fill:#003366;"/>
</a>
<a xlink:href="prime-0x56137cdbe9d0.svg">
<text x="396.100000" y="70.000000" font-family="Arial" font-size="7" text-anchor="middle" fill="#FFFFFF">prime_delays(...,13 : +) : *)</text>
</a>
<circle cx="458.600000" cy="78.000000" r="1"/>
<a xlink:href="init-0x56137cbc8150.svg">
<rect x="377.750000" y="25.000000" width="38.700000" height="24.000000" rx="0.1" ry="0.1" style="stroke:none;fill:#aaaaaa;;filter:url(#filter);"/>
<rect x="376.750000" y="24.000000" width="38.700000" height="24.000000" rx="0" ry="0" style="stroke:none;fill:#003366;"/>
</a>
<a xlink:href="init-0x56137cbc8150.svg">
<text x="396.100000" y="38.000000" font-family="Arial" font-size="7" text-anchor="middle" fill="#FFFFFF">init(1)</text>
</a>
<circle cx="413.450000" cy="46.000000" r="1"/>
<rect x="292.600000" y="41.000000" width="24.000000" height="24.000000" rx="0.1" ry="0.1" style="stroke:none;fill:#aaaaaa;;filter:url(#filter);"/>
<rect x="291.600000" y="40.000000" width="24.000000" height="24.000000" rx="0" ry="0" style="stroke:none;fill:#4B71A1;"/>
<text x="303.600000" y="54.000000" font-family="Arial" font-size="7" text-anchor="middle" fill="#FFFFFF">*</text>
<circle cx="313.600000" cy="62.000000" r="1"/>
<line x1="318.600000" y1="55.000000" x2="315.600000" y2="56.000000"  transform="rotate(0.000000,315.600000,56.000000)" style="stroke: black; stroke-width:0.25;"/>
<line x1="318.600000" y1="57.000000" x2="315.600000" y2="56.000000"  transform="rotate(0.000000,315.600000,56.000000)" style="stroke: black; stroke-width:0.25;"/>
<line x1="318.600000" y1="47.000000" x2="315.600000" y2="48.000000"  transform="rotate(0.000000,315.600000,48.000000)" style="stroke: black; stroke-width:0.25;"/>
<line x1="318.600000" y1="49.000000" x2="315.600000" y2="48.000000"  transform="rotate(0.000000,315.600000,48.000000)" style="stroke: black; stroke-width:0.25;"/>
<rect x="252.600000" y="45.000000" width="24.000000" height="24.000000" rx="0.1" ry="0.1" style="stroke:none;fill:#aaaaaa;;filter:url(#filter);"/>
<rect x="251.600000" y="44.000000" width="24.000000" height="24.000000" rx="0" ry="0" style="stroke:none;fill:#4B71A1;"/>
<text x="263.600000" y="58.000000" font-family="Arial" font-size="7" text-anchor="middle" fill="#FFFFFF">+</text>
<circle cx="273.600000" cy="66.000000" r="1"/>
<line x1="278.600000" y1="59.000000" x2="275.600000" y2="60.000000"  transform="rotate(0.000000,275.600000,60.000000)" style="stroke: black; stroke-width:0.25;"/>
<line x1="278.600000" y1="61.000000" x2="275.600000" y2="60.000000"  transform="rotate(0.000000,275.600000,60.000000)" style="stroke: black; stroke-width:0.25;"/>
<line x1="278.600000" y1="51.000000" x2="275.600000" y2="52.000000"  transform="rotate(0.000000,275.600000,52.000000)" style="stroke: black; stroke-width:0.25;"/>
<line x1="278.600000" y1="53.000000" x2="275.600000" y2="52.000000"  transform="rotate(0.000000,275.600000,52.000000)" style="stroke: black; stroke-width:0.25;"/>
<rect x="210.800000" y="41.000000" width="25.800000" height="24.000000" rx="0.1" ry="0.1" style="stroke:none;fill:#aaaaaa;;filter:url(#filter);"/>
<rect x="209.800000" y="40.000000" width="25.800000" height="24.000000" rx="0" ry="0" style="stroke:none;fill:#f44800;"/>
<text x="222.700000" y="54.000000" font-family="Arial" font-size="7" text-anchor="middle" fill="#FFFFFF">0.999</text>
<circle cx="233.600000" cy="62.000000" r="1"/>
<rect x="170.800000" y="45.000000" width="24.000000" height="24.000000" rx="0.1" ry="0.1" style="stroke:none;fill:#aaaaaa;;filter:url(#filter);"/>
<rect x="169.800000" y="44.000000" width="24.000000" height="24.000000" rx="0" ry="0" style="stroke:none;fill:#4B71A1;"/>
<text x="181.800000" y="58.000000" font-family="Arial" font-size="7" text-anchor="middle" fill="#FFFFFF">*</text>
<circle cx="191.800000" cy="66.000000" r="1"/>
<line x1="196.800000" y1="59.000000" x2="193.800000" y2="60.000000"  transform="rotate(0.000000,193.800000,60.000000)" style="stroke: black; stroke-width:0.25;"/>
<line x1="196.800000" y1="61.000000" x2="193.800000" y2="60.000000"  transform="rotate(0.000000,193.800000,60.000000)" style="stroke: black; stroke-width:0.25;"/>
<line x1="196.800000" y1="51.000000" x2="193.800000" y2="52.000000"  transform="rotate(0.000000,193.800000,52.000000)" style="stroke: black; stroke-width:0.25;"/>
<line x1="196.800000" y1="53.000000" x2="193.800000" y2="52.000000"  transform="rotate(0.000000,193.800000,52.000000)" style="stroke: black; stroke-width:0.25;"/>
<line x1="462.600000" y1="108.000000" x2="462.600000" y2="104.000000"  style="stroke:black; stroke-linecap:round; stroke-width:0.25;"/>
<line x1="462.600000" y1="104.000000" x2="466.600000" y2="104.000000"  style="stroke:black; stroke-linecap:round; stroke-width:0.25;"/>
<line x1="466.600000" y1="104.000000" x2="466.600000" y2="108.000000"  style="stroke:black; stroke-linecap:round; stroke-width:0.25;"/>
<line x1="15.000000" y1="15.000000" x2="15.000000" y2="129.000000"  style="stroke: black; stroke-linecap:round; stroke-width:0.25; stroke-dasharray:3,3;"/>
<line x1="15.000000" y1="129.000000" x2="493.600000" y2="129.000000"  style="stroke: black; stroke-linecap:round; stroke-width:0.25; stroke-dasharray:3,3;"/>
<line x1="493.600000" y1="129.000000" x2="493.600000" y2="15.000000"  style="stroke: black; stroke-linecap:round; stroke-width:0.25; stroke-dasharray:3,3;"/>
<line x1="15.000000" y1="15.000000" x2="20.000000" y2="15.000000"  style="stroke: black; stroke-linecap:round; stroke-width:0.25; stroke-dasharray:3,3;"/>
<line x1="119.975000" y1="15.000000" x2="493.600000" y2="15.000000"  style="stroke: black; stroke-linecap:round; stroke-width:0.25; stroke-dasharray:3,3;"/>
<text x="20.000000" y="17.000000" font-family="Arial" font-size="7">smooth_init(0...t) : rdtable)</text>
<line x1="495.600000" y1="71.000000" x2="498.600000" y2="72.000000"  transform="rotate(0.000000,498.600000,72.000000)" style="stroke: black; stroke-width:0.25;"/>
<line x1="495.600000" y1="73.000000" x2="498.600000" y2="72.000000"  transform="rotate(0.000000,498.600000,72.000000)" style="stroke: black; stroke-width:0.25;"/>
<line x1="10.000000" y1="72.000000" x2="20.000000" y2="72.000000"  style="stroke:black; stroke-linecap:round; stroke-width:0.25;"/>
<line x1="20.000000" y1="72.000000" x2="24.000000" y2="72.000000"  style="stroke:black; stroke-linecap:round; stroke-width:0.25;"/>
<line x1="24.000000" y1="72.000000" x2="28.000000" y2="72.000000"  style="stroke:black; stroke-linecap:round; stroke-width:0.25;"/>
<line x1="28.000000" y1="40.000000" x2="36.000000" y2="40.000000"  style="stroke:black; stroke-linecap:round; stroke-width:0.25;"/>
<line x1="28.000000" y1="72.000000" x2="28.000000" y2="40.000000"  style="stroke:black; stroke-linecap:round; stroke-width:0.25;"/>
<line x1="28.000000" y1="72.000000" x2="28.000000" y2="72.000000"  style="stroke:black; stroke-linecap:round; stroke-width:0.25;"/>
<line x1="36.000000" y1="40.000000" x2="72.900000" y2="40.000000"  style="stroke:black; stroke-linecap:round; stroke-width:0.25;"/>
<line x1="64.900000" y1="60.000000" x2="68.900000" y2="60.000000"  style="stroke:black; stroke-linecap:round; stroke-width:0.25;"/>
<line x1="65.800000" y1="92.000000" x2="69.800000" y2="92.000000"  style="stroke:black; stroke-linecap:round; stroke-width:0.25;"/>
<line x1="68.900000" y1="60.000000" x2="69.800000" y2="60.000000"  style="stroke:black; stroke-linecap:round; stroke-width:0.25;"/>
<line x1="69.800000" y1="80.000000" x2="77.800000" y2="80.000000"  style="stroke:black; stroke-linecap:round; stroke-width:0.25;"/>
<line x1="69.800000" y1="92.000000" x2="69.800000" y2="80.000000"  style="stroke:black; stroke-linecap:round; stroke-width:0.25;"/>
<line x1="69.800000" y1="92.000000" x2="69.800000" y2="92.000000"  style="stroke:black; stroke-linecap:round; stroke-width:0.25;"/>
<line x1="69.800000" y1="60.000000" x2="77.800000" y2="60.000000"  style="stroke:black; stroke-linecap:round; stroke-width:0.25;"/>
<line x1="72.900000" y1="40.000000" x2="109.800000" y2="40.000000"  style="stroke:black; stroke-linecap:round; stroke-width:0.25;"/>
<line x1="77.800000" y1="72.000000" x2="81.800000" y2="72.000000"  style="stroke:black; stroke-linecap:round; stroke-width:0.25;"/>
<line x1="77.800000" y1="80.000000" x2="81.800000" y2="80.000000"  style="stroke:black; stroke-linecap:round; stroke-width:0.25;"/>
<line x1="77.800000" y1="60.000000" x2="77.800000" y2="72.000000"  style="stroke:black; stroke-linecap:round; stroke-width:0.25;"/>
<line x1="77.800000" y1="72.000000" x2="77.800000" y2="72.000000"  style="stroke:black; stroke-linecap:round; stroke-width:0.25;"/>
<line x1="105.800000" y1="76.000000" x2="109.800000" y2="76.000000"  style="stroke:black; stroke-linecap:round; stroke-width:0.25;"/>
<line x1="109.800000" y1="76.000000" x2="117.800000" y2="76.000000"  style="stroke:black; stroke-linecap:round; stroke-width:0.25;"/>
<line x1="109.800000" y1="40.000000" x2="117.800000" y2="40.000000"  style="stroke:black; stroke-linecap:round; stroke-width:0.25;"/>
<line x1="117.800000" y1="68.000000" x2="121.800000" y2="68.000000"  style="stroke:black; stroke-linecap:round; stroke-width:0.25;"/>
<line x1="117.800000" y1="76.000000" x2="121.800000" y2="76.000000"  style="stroke:black; stroke-linecap:round; stroke-width:0.25;"/>
<line x1="117.800000" y1="40.000000" x2="117.800000" y2="68.000000"  style="stroke:black; stroke-linecap:round; stroke-width:0.25;"/>
<line x1="117.800000" y1="68.000000" x2="117.800000" y2="68.000000"  style="stroke:black; stroke-linecap:round; stroke-width:0.25;"/>
<line x1="145.800000" y1="72.000000" x2="149.800000" y2="72.000000"  style="stroke:black; stroke-linecap:round; stroke-width:0.25;"/>
<line x1="149.800000" y1="72.000000" x2="157.800000" y2="72.000000"  style="stroke:black; stroke-linecap:round; stroke-width:0.25;"/>
<line x1="157.800000" y1="72.000000" x2="157.800000" y2="112.000000"  style="stroke:black; stroke-linecap:round; stroke-width:0.25;"/>
<line x1="157.800000" y1="112.000000" x2="157.800000" y2="112.000000"  style="stroke:black; stroke-linecap:round; stroke-width:0.25;"/>
<line x1="157.800000" y1="112.000000" x2="165.800000" y2="112.000000"  style="stroke:black; stroke-linecap:round; stroke-width:0.25;"/>
<line x1="165.800000" y1="56.000000" x2="165.800000" y2="56.000000"  style="stroke:black; stroke-linecap:round; stroke-width:0.25;"/>
<line x1="165.800000" y1="56.000000" x2="165.800000" y2="104.000000"  style="stroke:black; stroke-linecap:round; stroke-width:0.25;"/>
<line x1="165.800000" y1="104.000000" x2="165.800000" y2="104.000000"  style="stroke:black; stroke-linecap:round; stroke-width:0.25;"/>
<line x1="165.800000" y1="104.000000" x2="299.200000" y2="104.000000"  style="stroke:black; stroke-linecap:round; stroke-width:0.25;"/>
<line x1="165.800000" y1="112.000000" x2="299.200000" y2="112.000000"  style="stroke:black; stroke-linecap:round; stroke-width:0.25;"/>
<line x1="169.800000" y1="56.000000" x2="165.800000" y2="56.000000"  style="stroke:black; stroke-linecap:round; stroke-width:0.25;"/>
<line x1="197.800000" y1="52.000000" x2="193.800000" y2="52.000000"  style="stroke:black; stroke-linecap:round; stroke-width:0.25;"/>
<line x1="197.800000" y1="60.000000" x2="193.800000" y2="60.000000"  style="stroke:black; stroke-linecap:round; stroke-width:0.25;"/>
<line x1="197.800000" y1="60.000000" x2="197.800000" y2="60.000000"  style="stroke:black; stroke-linecap:round; stroke-width:0.25;"/>
<line x1="197.800000" y1="72.000000" x2="197.800000" y2="60.000000"  style="stroke:black; stroke-linecap:round; stroke-width:0.25;"/>
<line x1="205.800000" y1="52.000000" x2="197.800000" y2="52.000000"  style="stroke:black; stroke-linecap:round; stroke-width:0.25;"/>
<line x1="205.800000" y1="72.000000" x2="197.800000" y2="72.000000"  style="stroke:black; stroke-linecap:round; stroke-width:0.25;"/>
<line x1="209.800000" y1="52.000000" x2="205.800000" y2="52.000000"  style="stroke:black; stroke-linecap:round; stroke-width:0.25;"/>
<line x1="222.700000" y1="72.000000" x2="205.800000" y2="72.000000"  style="stroke:black; stroke-linecap:round; stroke-width:0.25;"/>
<line x1="239.600000" y1="72.000000" x2="222.700000" y2="72.000000"  style="stroke:black; stroke-linecap:round; stroke-width:0.25;"/>
<line x1="247.600000" y1="56.000000" x2="247.600000" y2="56.000000"  style="stroke:black; stroke-linecap:round; stroke-width:0.25;"/>
<line x1="247.600000" y1="56.000000" x2="247.600000" y2="72.000000"  style="stroke:black; stroke-linecap:round; stroke-width:0.25;"/>
<line x1="247.600000" y1="72.000000" x2="239.600000" y2="72.000000"  style="stroke:black; stroke-linecap:round; stroke-width:0.25;"/>
<line x1="251.600000" y1="56.000000" x2="247.600000" y2="56.000000"  style="stroke:black; stroke-linecap:round; stroke-width:0.25;"/>
<line x1="279.600000" y1="52.000000" x2="275.600000" y2="52.000000"  style="stroke:black; stroke-linecap:round; stroke-width:0.25;"/>
<line x1="279.600000" y1="60.000000" x2="275.600000" y2="60.000000"  style="stroke:black; stroke-linecap:round; stroke-width:0.25;"/>
<line x1="279.600000" y1="60.000000" x2="279.600000" y2="60.000000"  style="stroke:black; stroke-linecap:round; stroke-width:0.25;"/>
<line x1="279.600000" y1="88.000000" x2="279.600000" y2="60.000000"  style="stroke:black; stroke-linecap:round; stroke-width:0.25;"/>
<line x1="287.600000" y1="52.000000" x2="279.600000" y2="52.000000"  style="stroke:black; stroke-linecap:round; stroke-width:0.25;"/>
<line x1="287.600000" y1="88.000000" x2="279.600000" y2="88.000000"  style="stroke:black; stroke-linecap:round; stroke-width:0.25;"/>
<line x1="291.600000" y1="52.000000" x2="287.600000" y2="52.000000"  style="stroke:black; stroke-linecap:round; stroke-width:0.25;"/>
<line x1="299.200000" y1="104.000000" x2="303.200000" y2="104.000000"  style="stroke:black; stroke-linecap:round; stroke-width:0.25;"/>
<line x1="299.200000" y1="112.000000" x2="303.200000" y2="112.000000"  style="stroke:black; stroke-linecap:round; stroke-width:0.25;"/>
<line x1="319.600000" y1="48.000000" x2="315.600000" y2="48.000000"  style="stroke:black; stroke-linecap:round; stroke-width:0.25;"/>
<line x1="319.600000" y1="56.000000" x2="315.600000" y2="56.000000"  style="stroke:black; stroke-linecap:round; stroke-width:0.25;"/>
<line x1="319.600000" y1="56.000000" x2="319.600000" y2="56.000000"  style="stroke:black; stroke-linecap:round; stroke-width:0.25;"/>
<line x1="319.600000" y1="68.000000" x2="319.600000" y2="56.000000"  style="stroke:black; stroke-linecap:round; stroke-width:0.25;"/>
<line x1="327.200000" y1="108.000000" x2="331.200000" y2="108.000000"  style="stroke:black; stroke-linecap:round; stroke-width:0.25;"/>
<line x1="327.600000" y1="36.000000" x2="327.600000" y2="36.000000"  style="stroke:black; stroke-linecap:round; stroke-width:0.25;"/>
<line x1="327.600000" y1="36.000000" x2="327.600000" y2="48.000000"  style="stroke:black; stroke-linecap:round; stroke-width:0.25;"/>
<line x1="327.600000" y1="48.000000" x2="319.600000" y2="48.000000"  style="stroke:black; stroke-linecap:round; stroke-width:0.25;"/>
<line x1="327.600000" y1="68.000000" x2="319.600000" y2="68.000000"  style="stroke:black; stroke-linecap:round; stroke-width:0.25;"/>
<line x1="331.200000" y1="108.000000" x2="464.600000" y2="108.000000"  style="stroke:black; stroke-linecap:round; stroke-width:0.25;"/>
<line x1="331.600000" y1="68.000000" x2="327.600000" y2="68.000000"  style="stroke:black; stroke-linecap:round; stroke-width:0.25;"/>
<line x1="372.750000" y1="36.000000" x2="327.600000" y2="36.000000"  style="stroke:black; stroke-linecap:round; stroke-width:0.25;"/>
<line x1="376.100000" y1="88.000000" x2="287.600000" y2="88.000000"  style="stroke:black; stroke-linecap:round; stroke-width:0.25;"/>
<line x1="376.750000" y1="36.000000" x2="372.750000" y2="36.000000"  style="stroke:black; stroke-linecap:round; stroke-width:0.25;"/>
<line x1="464.600000" y1="88.000000" x2="376.100000" y2="88.000000"  style="stroke:black; stroke-linecap:round; stroke-width:0.25;"/>
<line x1="464.600000" y1="88.000000" x2="464.600000" y2="88.000000"  style="stroke:black; stroke-linecap:round; stroke-width:0.25;"/>
<line x1="464.600000" y1="104.000000" x2="464.600000" y2="88.000000"  style="stroke:black; stroke-linecap:round; stroke-width:0.25;"/>
<line x1="464.600000" y1="108.000000" x2="466.600000" y2="108.000000"  style="stroke:black; stroke-linecap:round; stroke-width:0.25;"/>
<line x1="466.600000" y1="108.000000" x2="472.600000" y2="108.000000"  style="stroke:black; stroke-linecap:round; stroke-width:0.25;"/>
<line x1="472.600000" y1="72.000000" x2="480.600000" y2="72.000000"  style="stroke:black; stroke-linecap:round; stroke-width:0.25;"/>
<line x1="472.600000" y1="108.000000" x2="472.600000" y2="72.000000"  style="stroke:black; stroke-linecap:round; stroke-width:0.25;"/>
<line x1="472.600000" y1="108.000000" x2="472.600000" y2="108.000000"  style="stroke:black; stroke-linecap:round; stroke-width:0.25;"/>
<line x1="480.600000" y1="72.000000" x2="484.600000" y2="72.000000"  style="stroke:black; stroke-linecap:round; stroke-width:0.25;"/>
<line x1="484.600000" y1="72.000000" x2="488.600000" y2="72.000000"  style="stroke:black; stroke-linecap:round; stroke-width:0.25;"/>
<line x1="488.600000" y1="72.000000" x2="498.600000" y2="72.000000"  style="stroke:black; stroke-linecap:round; stroke-width:0.25;"/>
</svg>
