<?xml version="1.0" encoding="UTF-8" standalone="no"?>
<!-- Created with Inkscape (http://www.inkscape.org/) -->

<svg
   xmlns:dc="http://purl.org/dc/elements/1.1/"
   xmlns:cc="http://creativecommons.org/ns#"
   xmlns:rdf="http://www.w3.org/1999/02/22-rdf-syntax-ns#"
   xmlns:svg="http://www.w3.org/2000/svg"
   xmlns="http://www.w3.org/2000/svg"
   xmlns:sodipodi="http://sodipodi.sourceforge.net/DTD/sodipodi-0.dtd"
   xmlns:inkscape="http://www.inkscape.org/namespaces/inkscape"
   width="297mm"
   height="210mm"
   viewBox="0 0 297 210"
   version="1.1"
   id="svg8"
   inkscape:version="0.92.3 (2405546, 2018-03-11)"
   sodipodi:docname="keyboard_double.svg">
  <defs
     id="defs2" />
  <sodipodi:namedview
     id="base"
     pagecolor="#ffffff"
     bordercolor="#666666"
     borderopacity="1.0"
     inkscape:pageopacity="0.0"
     inkscape:pageshadow="2"
     inkscape:zoom="0.51626528"
     inkscape:cx="573.22694"
     inkscape:cy="414.70947"
     inkscape:document-units="mm"
     inkscape:current-layer="g891"
     showgrid="true"
     inkscape:window-width="1401"
     inkscape:window-height="845"
     inkscape:window-x="39"
     inkscape:window-y="27"
     inkscape:window-maximized="1">
    <inkscape:grid
       type="xygrid"
       id="grid815" />
  </sodipodi:namedview>
  <metadata
     id="metadata5">
    <rdf:RDF>
      <cc:Work
         rdf:about="">
        <dc:format>image/svg+xml</dc:format>
        <dc:type
           rdf:resource="http://purl.org/dc/dcmitype/StillImage" />
        <dc:title></dc:title>
      </cc:Work>
    </rdf:RDF>
  </metadata>
  <g
     inkscape:label="Layer 1"
     inkscape:groupmode="layer"
     id="layer1"
     transform="translate(0,-87)">
    <g
       transform="matrix(0.05932331,0,0,-0.05932331,49.866623,269.03496)"
       inkscape:label="ink_ext_XXXXXX"
       id="g891">
      <g
         id="g1041"
         transform="translate(3.7775104,20.213304)">
        <g
           transform="matrix(16.85678,0,0,-16.85678,-944.60517,4391.4242)"
           id="g964">
          <path
             style="fill:none;stroke:#000000;stroke-width:1.33577001px;stroke-linecap:butt;stroke-linejoin:miter;stroke-opacity:1"
             d="m 22.177728,283.0634 v -13.0903 l -6.815274,-6.54512 -6.8152751,6.54512 v 13.0903"
             id="path817"
             inkscape:connector-curvature="0" />
          <path
             style="fill:none;stroke:#000000;stroke-width:1.36153841px;stroke-linecap:butt;stroke-linejoin:miter;stroke-opacity:1"
             d="M 15.362454,264.02311 V 283.0634"
             id="path819"
             inkscape:connector-curvature="0" />
          <path
             style="fill:none;stroke:#000000;stroke-width:1.22469366px;stroke-linecap:butt;stroke-linejoin:miter;stroke-opacity:1"
             d="m 11.847699,270.27619 v 15.40529"
             id="path821"
             inkscape:connector-curvature="0" />
          <path
             style="fill:none;stroke:#000000;stroke-width:1.22469366px;stroke-linecap:butt;stroke-linejoin:miter;stroke-opacity:1"
             d="m 18.662969,270.27619 v 15.40529"
             id="path823"
             inkscape:connector-curvature="0" />
          <path
             style="fill:none;stroke:#000000;stroke-width:1.33577001px;stroke-linecap:butt;stroke-linejoin:miter;stroke-opacity:1"
             d="m 42.623548,283.0634 v -13.0903 l -6.815275,-6.54512 -6.815275,6.54512 v 13.0903"
             id="path817-6"
             inkscape:connector-curvature="0" />
          <path
             style="fill:none;stroke:#000000;stroke-width:1.36153841px;stroke-linecap:butt;stroke-linejoin:miter;stroke-opacity:1"
             d="M 35.808273,264.02311 V 283.0634"
             id="path819-7"
             inkscape:connector-curvature="0" />
          <path
             style="fill:none;stroke:#000000;stroke-width:1.22469366px;stroke-linecap:butt;stroke-linejoin:miter;stroke-opacity:1"
             d="m 32.293519,270.27619 v 15.40529"
             id="path821-5"
             inkscape:connector-curvature="0" />
          <path
             style="fill:none;stroke:#000000;stroke-width:1.22469366px;stroke-linecap:butt;stroke-linejoin:miter;stroke-opacity:1"
             d="m 39.108788,270.27619 v 15.40529"
             id="path823-3"
             inkscape:connector-curvature="0" />
          <path
             style="fill:none;stroke:#000000;stroke-width:1.33577001px;stroke-linecap:butt;stroke-linejoin:miter;stroke-opacity:1"
             d="m 63.858015,282.76032 v -13.0903 l -6.815274,-6.54513 -6.815275,6.54513 v 13.0903"
             id="path817-2"
             inkscape:connector-curvature="0" />
          <path
             style="fill:none;stroke:#000000;stroke-width:1.36153841px;stroke-linecap:butt;stroke-linejoin:miter;stroke-opacity:1"
             d="m 57.042741,263.72003 v 19.04029"
             id="path819-9"
             inkscape:connector-curvature="0" />
          <path
             style="fill:none;stroke:#000000;stroke-width:1.22469366px;stroke-linecap:butt;stroke-linejoin:miter;stroke-opacity:1"
             d="m 53.527986,269.9731 v 15.4053"
             id="path821-1"
             inkscape:connector-curvature="0" />
          <path
             style="fill:none;stroke:#000000;stroke-width:1.22469366px;stroke-linecap:butt;stroke-linejoin:miter;stroke-opacity:1"
             d="m 60.343256,269.9731 v 15.4053"
             id="path823-2"
             inkscape:connector-curvature="0" />
          <path
             style="fill:none;stroke:#000000;stroke-width:1.33577001px;stroke-linecap:butt;stroke-linejoin:miter;stroke-opacity:1"
             d="m 84.303835,282.76032 v -13.0903 l -6.815275,-6.54513 -6.815275,6.54513 v 13.0903"
             id="path817-6-9"
             inkscape:connector-curvature="0" />
          <path
             style="fill:none;stroke:#000000;stroke-width:1.36153841px;stroke-linecap:butt;stroke-linejoin:miter;stroke-opacity:1"
             d="m 77.48856,263.72003 v 19.04029"
             id="path819-7-3"
             inkscape:connector-curvature="0" />
          <path
             style="fill:none;stroke:#000000;stroke-width:1.22469366px;stroke-linecap:butt;stroke-linejoin:miter;stroke-opacity:1"
             d="m 73.973806,269.9731 v 15.4053"
             id="path821-5-6"
             inkscape:connector-curvature="0" />
          <path
             style="fill:none;stroke:#000000;stroke-width:1.22469366px;stroke-linecap:butt;stroke-linejoin:miter;stroke-opacity:1"
             d="m 80.789075,269.9731 v 15.4053"
             id="path823-3-0"
             inkscape:connector-curvature="0" />
          <path
             style="fill:none;stroke:#000000;stroke-width:1.33577001px;stroke-linecap:butt;stroke-linejoin:miter;stroke-opacity:1"
             d="m 103.96101,283.0634 v -13.0903 l -6.815279,-6.54512 -6.815275,6.54512 v 13.0903"
             id="path817-61"
             inkscape:connector-curvature="0" />
          <path
             style="fill:none;stroke:#000000;stroke-width:1.36153841px;stroke-linecap:butt;stroke-linejoin:miter;stroke-opacity:1"
             d="M 97.145731,264.02311 V 283.0634"
             id="path819-8"
             inkscape:connector-curvature="0" />
          <path
             style="fill:none;stroke:#000000;stroke-width:1.22469366px;stroke-linecap:butt;stroke-linejoin:miter;stroke-opacity:1"
             d="m 93.630977,270.27619 v 15.40529"
             id="path821-7"
             inkscape:connector-curvature="0" />
          <path
             style="fill:none;stroke:#000000;stroke-width:1.22469366px;stroke-linecap:butt;stroke-linejoin:miter;stroke-opacity:1"
             d="m 100.44625,270.27619 v 15.40529"
             id="path823-9"
             inkscape:connector-curvature="0" />
          <path
             style="fill:none;stroke:#000000;stroke-width:1.33577001px;stroke-linecap:butt;stroke-linejoin:miter;stroke-opacity:1"
             d="m 124.40684,283.0634 v -13.0903 l -6.81528,-6.54512 -6.81527,6.54512 v 13.0903"
             id="path817-6-3"
             inkscape:connector-curvature="0" />
          <path
             style="fill:none;stroke:#000000;stroke-width:1.36153841px;stroke-linecap:butt;stroke-linejoin:miter;stroke-opacity:1"
             d="M 117.59156,264.02311 V 283.0634"
             id="path819-7-7"
             inkscape:connector-curvature="0" />
          <path
             style="fill:none;stroke:#000000;stroke-width:1.22469366px;stroke-linecap:butt;stroke-linejoin:miter;stroke-opacity:1"
             d="m 114.07681,270.27619 v 15.40529"
             id="path821-5-5"
             inkscape:connector-curvature="0" />
          <path
             style="fill:none;stroke:#000000;stroke-width:1.22469366px;stroke-linecap:butt;stroke-linejoin:miter;stroke-opacity:1"
             d="m 120.89208,270.27619 v 15.40529"
             id="path823-3-9"
             inkscape:connector-curvature="0" />
          <path
             style="fill:none;stroke:#000000;stroke-width:1.33577001px;stroke-linecap:butt;stroke-linejoin:miter;stroke-opacity:1"
             d="m 144.85264,283.0634 v -13.0903 l -6.81527,-6.54512 -6.81528,6.54512 v 13.0903"
             id="path817-6-3-8"
             inkscape:connector-curvature="0" />
          <path
             style="fill:none;stroke:#000000;stroke-width:1.36153841px;stroke-linecap:butt;stroke-linejoin:miter;stroke-opacity:1"
             d="M 138.03737,264.02311 V 283.0634"
             id="path819-7-7-9"
             inkscape:connector-curvature="0" />
          <path
             style="fill:none;stroke:#000000;stroke-width:1.22469366px;stroke-linecap:butt;stroke-linejoin:miter;stroke-opacity:1"
             d="m 134.52262,270.27619 v 15.40529"
             id="path821-5-5-7"
             inkscape:connector-curvature="0" />
          <path
             style="fill:none;stroke:#000000;stroke-width:1.22469366px;stroke-linecap:butt;stroke-linejoin:miter;stroke-opacity:1"
             d="m 141.33788,270.27619 v 15.40529"
             id="path823-3-9-3"
             inkscape:connector-curvature="0" />
          <path
             style="fill:none;stroke:#000000;stroke-width:1.34206176px;stroke-linecap:butt;stroke-linejoin:miter;stroke-opacity:1"
             d="M 11.232389,285.68148 H 141.94529"
             id="path1009"
             inkscape:connector-curvature="0" />
          <path
             style="fill:none;stroke:#000000;stroke-width:1.33577001px;stroke-linecap:butt;stroke-linejoin:miter;stroke-opacity:1"
             d="m 32.507757,244.09557 v 13.0903 l -6.815274,6.54514 -6.815275,-6.54514 v -13.0903"
             id="path817-1"
             inkscape:connector-curvature="0" />
          <path
             style="fill:none;stroke:#000000;stroke-width:1.36153841px;stroke-linecap:butt;stroke-linejoin:miter;stroke-opacity:1"
             d="M 25.692483,263.13588 V 244.09557"
             id="path819-2"
             inkscape:connector-curvature="0" />
          <path
             style="fill:none;stroke:#000000;stroke-width:1.22469366px;stroke-linecap:butt;stroke-linejoin:miter;stroke-opacity:1"
             d="m 22.177728,256.88279 v -15.4053"
             id="path821-9"
             inkscape:connector-curvature="0" />
          <path
             style="fill:none;stroke:#000000;stroke-width:1.22469366px;stroke-linecap:butt;stroke-linejoin:miter;stroke-opacity:1"
             d="m 28.992998,256.88279 v -15.4053"
             id="path823-31"
             inkscape:connector-curvature="0" />
          <path
             style="fill:none;stroke:#000000;stroke-width:1.33577001px;stroke-linecap:butt;stroke-linejoin:miter;stroke-opacity:1"
             d="m 52.953577,244.09557 v 13.0903 l -6.815275,6.54514 -6.815275,-6.54514 v -13.0903"
             id="path817-6-94"
             inkscape:connector-curvature="0" />
          <path
             style="fill:none;stroke:#000000;stroke-width:1.36153841px;stroke-linecap:butt;stroke-linejoin:miter;stroke-opacity:1"
             d="M 46.138302,263.13588 V 244.09557"
             id="path819-7-78"
             inkscape:connector-curvature="0" />
          <path
             style="fill:none;stroke:#000000;stroke-width:1.22469366px;stroke-linecap:butt;stroke-linejoin:miter;stroke-opacity:1"
             d="m 42.623548,256.88279 v -15.4053"
             id="path821-5-4"
             inkscape:connector-curvature="0" />
          <path
             style="fill:none;stroke:#000000;stroke-width:1.22469366px;stroke-linecap:butt;stroke-linejoin:miter;stroke-opacity:1"
             d="m 49.438823,256.88279 v -15.4053"
             id="path823-3-5"
             inkscape:connector-curvature="0" />
          <path
             style="fill:none;stroke:#000000;stroke-width:1.33577001px;stroke-linecap:butt;stroke-linejoin:miter;stroke-opacity:1"
             d="m 94.633869,244.39866 v 13.0903 l -6.815275,6.54514 -6.815275,-6.54514 v -13.0903"
             id="path817-6-9-0"
             inkscape:connector-curvature="0" />
          <path
             style="fill:none;stroke:#000000;stroke-width:1.36153841px;stroke-linecap:butt;stroke-linejoin:miter;stroke-opacity:1"
             d="m 87.818594,263.43896 v -19.0403"
             id="path819-7-3-6"
             inkscape:connector-curvature="0" />
          <path
             style="fill:none;stroke:#000000;stroke-width:1.22469366px;stroke-linecap:butt;stroke-linejoin:miter;stroke-opacity:1"
             d="M 84.30384,257.18587 V 241.78063"
             id="path821-5-6-3"
             inkscape:connector-curvature="0" />
          <path
             style="fill:none;stroke:#000000;stroke-width:1.22469366px;stroke-linecap:butt;stroke-linejoin:miter;stroke-opacity:1"
             d="M 91.11911,257.18587 V 241.78063"
             id="path823-3-0-2"
             inkscape:connector-curvature="0" />
          <path
             style="fill:none;stroke:#000000;stroke-width:1.33577001px;stroke-linecap:butt;stroke-linejoin:miter;stroke-opacity:1"
             d="m 114.29104,244.09557 v 13.0903 l -6.81527,6.54514 -6.81528,-6.54514 v -13.0903"
             id="path817-61-0"
             inkscape:connector-curvature="0" />
          <path
             style="fill:none;stroke:#000000;stroke-width:1.36153841px;stroke-linecap:butt;stroke-linejoin:miter;stroke-opacity:1"
             d="M 107.47577,263.13588 V 244.09557"
             id="path819-8-6"
             inkscape:connector-curvature="0" />
          <path
             style="fill:none;stroke:#000000;stroke-width:1.22469366px;stroke-linecap:butt;stroke-linejoin:miter;stroke-opacity:1"
             d="m 103.96101,256.88279 v -15.4053"
             id="path821-7-1"
             inkscape:connector-curvature="0" />
          <path
             style="fill:none;stroke:#000000;stroke-width:1.22469366px;stroke-linecap:butt;stroke-linejoin:miter;stroke-opacity:1"
             d="m 110.77628,256.88279 v -15.4053"
             id="path823-9-5"
             inkscape:connector-curvature="0" />
          <path
             style="fill:none;stroke:#000000;stroke-width:1.33577001px;stroke-linecap:butt;stroke-linejoin:miter;stroke-opacity:1"
             d="m 134.73687,244.09557 v 13.0903 l -6.81528,6.54514 -6.81527,-6.54514 v -13.0903"
             id="path817-6-3-5"
             inkscape:connector-curvature="0" />
          <path
             style="fill:none;stroke:#000000;stroke-width:1.36153841px;stroke-linecap:butt;stroke-linejoin:miter;stroke-opacity:1"
             d="M 127.92159,263.13588 V 244.09557"
             id="path819-7-7-4"
             inkscape:connector-curvature="0" />
          <path
             style="fill:none;stroke:#000000;stroke-width:1.22469366px;stroke-linecap:butt;stroke-linejoin:miter;stroke-opacity:1"
             d="m 124.40684,256.88279 v -15.4053"
             id="path821-5-5-76"
             inkscape:connector-curvature="0" />
          <path
             style="fill:none;stroke:#000000;stroke-width:1.22469366px;stroke-linecap:butt;stroke-linejoin:miter;stroke-opacity:1"
             d="m 131.22211,256.88279 v -15.4053"
             id="path823-3-9-5"
             inkscape:connector-curvature="0" />
          <path
             style="fill:none;stroke:#000000;stroke-width:1.23259985px;stroke-linecap:butt;stroke-linejoin:miter;stroke-opacity:1"
             d="M 21.55371,241.47749 H 131.81363"
             id="path1009-4"
             inkscape:connector-curvature="0" />
        </g>
        <g
           id="g893"
           transform="scale(0.1)">
          <path
             d="m 3543.33,2410.25 c 0,-66.27 -53.73,-120 -120,-120 H 2156.67 c -66.27,0 -120,53.73 -120,120 v 73.34 c 0,66.27 53.73,120 120,120 h 1266.66 c 66.27,0 120,-53.73 120,-120 v -73.34"
             style="fill:#231f20;fill-opacity:1;fill-rule:nonzero;stroke:none"
             id="path895"
             inkscape:connector-curvature="0" />
          <path
             d="m 1273.41,2601.13 c -7.83,1.6 -15.94,2.45 -24.25,2.45 h -28.96 c -0.07,0 -0.14,0.01 -0.2,0.01 -0.1,0 -0.19,-0.01 -0.28,-0.01 H 429.156 c -66.269,0 -120,-53.72 -120,-120 v -73.33 c 0,-66.28 53.731,-120 120,-120 h 255.938 537.416 c 14.57,0 28.48,-2.73 41.4,-7.48 137,-30.67 239.42,-152.93 239.42,-299.18 0,-146.26 -102.42,-268.52 -239.42,-299.19 -12.92,-4.75 -26.83,-7.48 -41.4,-7.48 H 1089.16 692.758 419.156 c -66.269,0 -120,-53.72 -120,-120 v -0.01 -59.99 -636.658 c 0,-66.274 53.719,-120 120,-120 h 73.328 c 66.282,0 120.012,53.726 120.012,120 v 516.658 h 606.664 c 0.07,0 0.14,0.01 0.21,0.01 0.21,0 0.42,-0.01 0.63,-0.01 338.73,0 613.34,274.6 613.34,613.33 0,320.73 -246.23,583.79 -559.93,610.88"
             style="fill:#231f20;fill-opacity:1;fill-rule:nonzero;stroke:none"
             id="path897"
             inkscape:connector-curvature="0" />
          <path
             d="m 3543.33,1635.25 c 0,-66.28 -53.73,-120 -120,-120 H 2156.67 c -66.27,0 -120,53.72 -120,120 v 73.33 c 0,66.28 53.73,120 120,120 h 1266.66 c 66.27,0 120,-53.72 120,-120 v -73.33"
             style="fill:#231f20;fill-opacity:1;fill-rule:nonzero;stroke:none"
             id="path899"
             inkscape:connector-curvature="0" />
          <path
             d="m 3543.33,860.25 c 0,-66.281 -53.73,-120 -120,-120 H 2156.67 c -66.27,0 -120,53.719 -120,120 v 73.332 c 0,66.277 53.73,119.998 120,119.998 h 1266.66 c 66.27,0 120,-53.721 120,-119.998 V 860.25"
             style="fill:#231f20;fill-opacity:1;fill-rule:nonzero;stroke:none"
             id="path901"
             inkscape:connector-curvature="0" />
          <path
             d="m 454.551,404.23 c 0,12.059 -1.848,22.418 -5.528,31.071 -3.687,8.648 -8.793,15.289 -15.324,19.918 -6.531,4.64 -13.758,6.953 -21.683,6.953 -12.618,0 -23.25,-4.973 -31.899,-14.902 -8.652,-9.938 -12.976,-24.559 -12.976,-43.879 0,-18.192 4.297,-32.34 12.886,-42.45 8.602,-10.101 19.258,-15.152 31.989,-15.152 7.589,0 14.625,2.203 21.097,6.621 6.477,4.399 11.668,11.02 15.575,19.84 3.906,8.82 5.863,19.469 5.863,31.98 z m -89.59,66.481 v -5.52 c 8.594,10.598 17.523,18.391 26.793,23.36 9.266,4.961 19.762,7.449 31.484,7.449 14.063,0 27.012,-3.629 38.848,-10.891 11.832,-7.25 21.18,-17.859 28.047,-31.808 6.863,-13.961 10.297,-30.481 10.297,-49.571 0,-14.07 -1.985,-26.988 -5.942,-38.761 -3.965,-11.778 -9.406,-21.66 -16.328,-29.641 -6.926,-7.988 -15.097,-14.129 -24.531,-18.43 -9.434,-4.289 -19.566,-6.449 -30.391,-6.449 -13.062,0 -24.035,2.633 -32.906,7.883 -8.879,5.238 -17.336,12.938 -25.371,23.109 v -68.66 c 0,-20.101 -7.316,-30.14 -21.938,-30.14 -8.597,0 -14.293,2.589 -17.082,7.781 -2.793,5.199 -4.183,12.758 -4.183,22.687 v 197.27 c 0,8.711 1.894,15.211 5.691,19.512 3.797,4.289 8.989,6.441 15.574,6.441 6.473,0 11.747,-2.203 15.825,-6.613 4.074,-4.41 6.113,-10.75 6.113,-19.008"
             style="fill:#231f20;fill-opacity:1;fill-rule:nonzero;stroke:none"
             id="path903"
             inkscape:connector-curvature="0" />
          <path
             d="M 537.105,338.262 V 536.52 c 0,9.16 2.032,16.082 6.11,20.769 4.074,4.691 9.574,7.031 16.492,7.031 6.926,0 12.504,-2.32 16.746,-6.949 4.246,-4.633 6.363,-11.582 6.363,-20.851 V 338.262 c 0,-9.27 -2.148,-16.223 -6.445,-20.852 -4.301,-4.629 -9.851,-6.961 -16.664,-6.961 -6.695,0 -12.141,2.41 -16.324,7.211 -4.188,4.801 -6.278,11.66 -6.278,20.602"
             style="fill:#231f20;fill-opacity:1;fill-rule:nonzero;stroke:none"
             id="path905"
             inkscape:connector-curvature="0" />
          <path
             d="m 742.574,402.391 c -6.699,-2.45 -16.441,-5.051 -29.222,-7.789 -12.786,-2.731 -21.633,-4.743 -26.539,-6.02 -4.918,-1.293 -9.606,-3.801 -14.071,-7.543 -4.465,-3.738 -6.695,-8.957 -6.695,-15.648 0,-6.93 2.621,-12.821 7.871,-17.672 5.242,-4.86 12.105,-7.289 20.594,-7.289 9.043,0 17.386,1.992 25.035,5.941 7.644,3.969 13.258,9.07 16.832,15.32 4.125,6.93 6.195,18.309 6.195,34.168 z m 3.012,-66.141 c -11.051,-8.602 -21.742,-15.051 -32.066,-19.352 -10.329,-4.289 -21.915,-6.449 -34.75,-6.449 -11.719,0 -22.016,2.332 -30.895,6.961 -8.875,4.629 -15.711,10.91 -20.512,18.84 -4.8,7.922 -7.203,16.52 -7.203,25.789 0,12.5 3.961,23.16 11.891,31.981 7.926,8.82 18.808,14.73 32.656,17.75 2.898,0.671 10.102,2.171 21.602,4.519 11.496,2.352 21.347,4.5 29.554,6.449 8.203,1.953 17.106,4.332 26.711,7.114 -0.562,12.058 -2.988,20.91 -7.285,26.539 -4.297,5.64 -13.203,8.461 -26.711,8.461 -11.609,0 -20.348,-1.622 -26.207,-4.852 -5.863,-3.25 -10.883,-8.102 -15.07,-14.578 -4.188,-6.473 -7.145,-10.742 -8.871,-12.813 -1.735,-2.058 -5.446,-3.089 -11.141,-3.089 -5.137,0 -9.574,1.652 -13.309,4.941 -3.746,3.289 -5.613,7.508 -5.613,12.641 0,8.039 2.848,15.847 8.543,23.437 5.692,7.602 14.567,13.852 26.625,18.762 12.055,4.91 27.07,7.359 45.043,7.359 20.094,0 35.891,-2.371 47.391,-7.101 11.496,-4.758 19.617,-12.258 24.363,-22.528 4.746,-10.281 7.117,-23.89 7.117,-40.859 0,-10.723 -0.027,-19.82 -0.082,-27.301 -0.058,-7.48 -0.14,-15.801 -0.254,-24.949 0,-8.59 1.426,-17.563 4.274,-26.871 2.847,-9.332 4.265,-15.332 4.265,-18 0,-4.692 -2.199,-8.969 -6.609,-12.813 -4.414,-3.847 -9.41,-5.789 -14.988,-5.789 -4.692,0 -9.325,2.211 -13.899,6.633 -4.582,4.398 -9.437,10.797 -14.57,19.168"
             style="fill:#231f20;fill-opacity:1;fill-rule:nonzero;stroke:none"
             id="path907"
             inkscape:connector-curvature="0" />
          <path
             d="m 871.516,304.762 4.183,10.218 -56.265,141.668 c -3.461,8.141 -5.192,14.063 -5.192,17.75 0,3.911 1.008,7.532 3.016,10.883 2.012,3.348 4.773,6.028 8.289,8.039 3.516,2.012 7.172,3.012 10.969,3.012 6.586,0 11.554,-2.09 14.906,-6.281 3.344,-4.192 6.305,-10.18 8.871,-17.992 l 38.684,-112.528 36.671,104.649 c 2.903,8.48 5.528,15.129 7.872,19.929 2.343,4.801 4.824,8.032 7.453,9.711 2.621,1.672 6.332,2.512 11.132,2.512 3.461,0 6.782,-0.922 9.965,-2.762 3.184,-1.851 5.633,-4.328 7.368,-7.449 1.73,-3.129 2.597,-6.43 2.597,-9.883 -0.449,-2.117 -1.176,-5.136 -2.176,-9.047 -1.007,-3.902 -2.238,-7.871 -3.687,-11.882 L 916.559,299.23 c -5.137,-13.73 -10.164,-24.5 -15.071,-32.308 -4.918,-7.813 -11.414,-13.82 -19.511,-18 -8.094,-4.192 -19.004,-6.281 -32.735,-6.281 -13.398,0 -23.445,1.449 -30.14,4.347 -6.7,2.91 -10.047,8.211 -10.047,15.91 0,5.25 1.59,9.293 4.769,12.141 3.184,2.852 7.899,4.27 14.149,4.27 2.457,0 4.859,-0.329 7.203,-1 2.898,-0.68 5.414,-1.008 7.535,-1.008 5.25,0 9.379,0.781 12.391,2.34 3.011,1.57 5.718,4.269 8.121,8.129 2.402,3.851 5.168,9.519 8.293,16.992"
             style="fill:#231f20;fill-opacity:1;fill-rule:nonzero;stroke:none"
             id="path909"
             inkscape:connector-curvature="0" />
          <path
             d="m 1123.2,402.391 c -6.7,-2.45 -16.44,-5.051 -29.23,-7.789 -12.78,-2.731 -21.63,-4.743 -26.53,-6.02 -4.92,-1.293 -9.61,-3.801 -14.07,-7.543 -4.47,-3.738 -6.7,-8.957 -6.7,-15.648 0,-6.93 2.62,-12.821 7.87,-17.672 5.25,-4.86 12.11,-7.289 20.6,-7.289 9.04,0 17.38,1.992 25.03,5.941 7.65,3.969 13.26,9.07 16.83,15.32 4.13,6.93 6.2,18.309 6.2,34.168 z m 3.01,-66.141 c -11.05,-8.602 -21.74,-15.051 -32.06,-19.352 -10.33,-4.289 -21.92,-6.449 -34.76,-6.449 -11.71,0 -22.01,2.332 -30.89,6.961 -8.88,4.629 -15.71,10.91 -20.51,18.84 -4.8,7.922 -7.2,16.52 -7.2,25.789 0,12.5 3.96,23.16 11.89,31.981 7.92,8.82 18.8,14.73 32.65,17.75 2.9,0.671 10.1,2.171 21.6,4.519 11.5,2.352 21.35,4.5 29.56,6.449 8.2,1.953 17.1,4.332 26.71,7.114 -0.56,12.058 -2.99,20.91 -7.29,26.539 -4.29,5.64 -13.2,8.461 -26.71,8.461 -11.61,0 -20.34,-1.622 -26.2,-4.852 -5.87,-3.25 -10.89,-8.102 -15.08,-14.578 -4.18,-6.473 -7.14,-10.742 -8.87,-12.813 -1.73,-2.058 -5.44,-3.089 -11.13,-3.089 -5.14,0 -9.58,1.652 -13.32,4.941 -3.74,3.289 -5.61,7.508 -5.61,12.641 0,8.039 2.85,15.847 8.54,23.437 5.7,7.602 14.57,13.852 26.63,18.762 12.06,4.91 27.07,7.359 45.04,7.359 20.1,0 35.89,-2.371 47.39,-7.101 11.5,-4.758 19.62,-12.258 24.37,-22.528 4.74,-10.281 7.12,-23.89 7.12,-40.859 0,-10.723 -0.03,-19.82 -0.09,-27.301 -0.06,-7.48 -0.14,-15.801 -0.25,-24.949 0,-8.59 1.43,-17.563 4.27,-26.871 2.85,-9.332 4.27,-15.332 4.27,-18 0,-4.692 -2.2,-8.969 -6.61,-12.813 -4.42,-3.847 -9.41,-5.789 -14.99,-5.789 -4.69,0 -9.32,2.211 -13.9,6.633 -4.58,4.398 -9.44,10.797 -14.57,19.168"
             style="fill:#231f20;fill-opacity:1;fill-rule:nonzero;stroke:none"
             id="path911"
             inkscape:connector-curvature="0" />
          <path
             d="m 1254.32,402.391 c 0,-18.2 4.15,-32.18 12.47,-41.95 8.32,-9.769 19.23,-14.652 32.74,-14.652 11.5,0 21.4,5 29.72,14.992 8.32,9.989 12.48,24.301 12.48,42.949 0,12.059 -1.73,22.442 -5.19,31.149 -3.46,8.711 -8.38,15.43 -14.74,20.172 -6.37,4.75 -13.79,7.121 -22.27,7.121 -8.71,0 -16.47,-2.371 -23.28,-7.121 -6.81,-4.742 -12.17,-11.61 -16.07,-20.59 -3.92,-8.992 -5.86,-19.68 -5.86,-32.07 z m -2.18,135.808 v -69.84 c 8.59,8.942 17.36,15.782 26.29,20.52 8.93,4.75 19.98,7.121 33.16,7.121 15.18,0 28.49,-3.602 39.93,-10.801 11.44,-7.207 20.32,-17.648 26.63,-31.32 6.3,-13.668 9.46,-29.891 9.46,-48.641 0,-13.847 -1.76,-26.539 -5.28,-38.097 -3.51,-11.551 -8.62,-21.582 -15.32,-30.059 -6.7,-8.48 -14.82,-15.043 -24.36,-19.672 -9.55,-4.629 -20.07,-6.961 -31.57,-6.961 -7.03,0 -13.64,0.84 -19.84,2.52 -6.2,1.672 -11.47,3.883 -15.82,6.613 -4.36,2.738 -8.07,5.547 -11.14,8.457 -3.07,2.902 -7.12,7.262 -12.14,13.063 v -4.524 c 0,-8.598 -2.07,-15.098 -6.2,-19.496 -4.13,-4.422 -9.38,-6.633 -15.74,-6.633 -6.47,0 -11.64,2.211 -15.49,6.633 -3.85,4.398 -5.77,10.898 -5.77,19.496 v 199.613 c 0,9.258 1.86,16.27 5.61,21.008 3.73,4.75 8.95,7.121 15.65,7.121 7.04,0 12.45,-2.261 16.25,-6.789 3.79,-4.519 5.69,-10.961 5.69,-19.332"
             style="fill:#231f20;fill-opacity:1;fill-rule:nonzero;stroke:none"
             id="path913"
             inkscape:connector-curvature="0" />
          <path
             d="M 1419.77,338.262 V 536.52 c 0,9.16 2.03,16.082 6.1,20.769 4.08,4.691 9.58,7.031 16.5,7.031 6.92,0 12.5,-2.32 16.75,-6.949 4.24,-4.633 6.36,-11.582 6.36,-20.851 V 338.262 c 0,-9.27 -2.15,-16.223 -6.45,-20.852 -4.3,-4.629 -9.85,-6.961 -16.66,-6.961 -6.7,0 -12.14,2.41 -16.33,7.211 -4.18,4.801 -6.27,11.66 -6.27,20.602"
             style="fill:#231f20;fill-opacity:1;fill-rule:nonzero;stroke:none"
             id="path915"
             inkscape:connector-curvature="0" />
          <path
             d="m 1550.88,418.129 h 82.89 c -1.11,15.621 -5.33,27.32 -12.64,35.09 -7.31,7.75 -16.94,11.633 -28.88,11.633 -11.39,0 -20.75,-3.942 -28.06,-11.813 -7.31,-7.867 -11.74,-19.5 -13.31,-34.91 z m 89.42,-25.957 h -89.42 c 0.11,-10.383 2.21,-19.531 6.28,-27.461 4.08,-7.93 9.49,-13.891 16.24,-17.922 6.76,-4.008 14.21,-6.019 22.36,-6.019 5.47,0 10.47,0.64 14.99,1.921 4.52,1.278 8.9,3.289 13.14,6.039 4.24,2.719 8.15,5.661 11.73,8.782 3.56,3.129 8.2,7.367 13.9,12.726 2.34,2.012 5.69,3.024 10.04,3.024 4.69,0 8.48,-1.293 11.39,-3.864 2.9,-2.566 4.35,-6.187 4.35,-10.878 0,-4.129 -1.62,-8.961 -4.86,-14.489 -3.23,-5.519 -8.12,-10.832 -14.64,-15.91 -6.54,-5.082 -14.74,-9.289 -24.62,-12.641 -9.88,-3.351 -21.24,-5.031 -34.08,-5.031 -29.36,0 -52.19,8.383 -68.49,25.121 -16.3,16.75 -24.44,39.461 -24.44,68.16 0,13.5 2,26.04 6.02,37.59 4.02,11.559 9.88,21.469 17.58,29.731 7.71,8.258 17.2,14.59 28.47,19 11.27,4.41 23.78,6.609 37.51,6.609 17.86,0 33.18,-3.762 45.97,-11.289 12.78,-7.539 22.36,-17.281 28.72,-29.223 6.36,-11.957 9.54,-24.117 9.54,-36.519 0,-11.488 -3.29,-18.938 -9.88,-22.348 -6.59,-3.41 -15.85,-5.109 -27.8,-5.109"
             style="fill:#231f20;fill-opacity:1;fill-rule:nonzero;stroke:none"
             id="path917"
             inkscape:connector-curvature="0" />
          <path
             d="m 1754.67,418.129 h 82.89 c -1.11,15.621 -5.33,27.32 -12.64,35.09 -7.31,7.75 -16.94,11.633 -28.88,11.633 -11.39,0 -20.75,-3.942 -28.06,-11.813 -7.31,-7.867 -11.74,-19.5 -13.31,-34.91 z m 89.42,-25.957 h -89.42 c 0.11,-10.383 2.21,-19.531 6.28,-27.461 4.07,-7.93 9.49,-13.891 16.24,-17.922 6.76,-4.008 14.21,-6.019 22.36,-6.019 5.47,0 10.46,0.64 14.99,1.921 4.52,1.278 8.9,3.289 13.14,6.039 4.24,2.719 8.15,5.661 11.72,8.782 3.57,3.129 8.21,7.367 13.91,12.726 2.34,2.012 5.69,3.024 10.04,3.024 4.69,0 8.48,-1.293 11.39,-3.864 2.9,-2.566 4.35,-6.187 4.35,-10.878 0,-4.129 -1.62,-8.961 -4.86,-14.489 -3.23,-5.519 -8.12,-10.832 -14.65,-15.91 -6.53,-5.082 -14.73,-9.289 -24.61,-12.641 -9.88,-3.351 -21.24,-5.031 -34.08,-5.031 -29.36,0 -52.19,8.383 -68.49,25.121 -16.3,16.75 -24.45,39.461 -24.45,68.16 0,13.5 2.01,26.04 6.03,37.59 4.02,11.559 9.88,21.469 17.58,29.731 7.71,8.258 17.19,14.59 28.47,19 11.27,4.41 23.78,6.609 37.51,6.609 17.86,0 33.18,-3.762 45.97,-11.289 12.78,-7.539 22.35,-17.281 28.72,-29.223 6.36,-11.957 9.54,-24.117 9.54,-36.519 0,-11.488 -3.29,-18.938 -9.88,-22.348 -6.59,-3.41 -15.85,-5.109 -27.8,-5.109"
             style="fill:#231f20;fill-opacity:1;fill-rule:nonzero;stroke:none"
             id="path919"
             inkscape:connector-curvature="0" />
          <path
             d="M 1920.29,338.262 V 536.52 c 0,9.16 2.03,16.082 6.11,20.769 4.07,4.691 9.58,7.031 16.49,7.031 6.91,0 12.5,-2.32 16.74,-6.949 4.26,-4.633 6.37,-11.582 6.37,-20.851 V 338.262 c 0,-9.27 -2.15,-16.223 -6.45,-20.852 -4.3,-4.629 -9.84,-6.961 -16.66,-6.961 -6.7,0 -12.13,2.41 -16.33,7.211 -4.18,4.801 -6.27,11.66 -6.27,20.602"
             style="fill:#231f20;fill-opacity:1;fill-rule:nonzero;stroke:none"
             id="path921"
             inkscape:connector-curvature="0" />
          <path
             d="m 2051.4,418.129 h 82.89 c -1.12,15.621 -5.33,27.32 -12.64,35.09 -7.31,7.75 -16.94,11.633 -28.89,11.633 -11.38,0 -20.74,-3.942 -28.04,-11.813 -7.32,-7.867 -11.76,-19.5 -13.32,-34.91 z m 89.42,-25.957 h -89.42 c 0.11,-10.383 2.2,-19.531 6.28,-27.461 4.08,-7.93 9.49,-13.891 16.25,-17.922 6.74,-4.008 14.2,-6.019 22.35,-6.019 5.47,0 10.47,0.64 14.99,1.921 4.52,1.278 8.9,3.289 13.14,6.039 4.24,2.719 8.15,5.661 11.72,8.782 3.58,3.129 8.21,7.367 13.9,12.726 2.34,2.012 5.69,3.024 10.05,3.024 4.69,0 8.48,-1.293 11.38,-3.864 2.91,-2.566 4.36,-6.187 4.36,-10.878 0,-4.129 -1.62,-8.961 -4.85,-14.489 -3.25,-5.519 -8.13,-10.832 -14.66,-15.91 -6.52,-5.082 -14.74,-9.289 -24.61,-12.641 -9.88,-3.351 -21.24,-5.031 -34.08,-5.031 -29.37,0 -52.19,8.383 -68.49,25.121 -16.3,16.75 -24.45,39.461 -24.45,68.16 0,13.5 2.01,26.04 6.03,37.59 4.02,11.559 9.88,21.469 17.58,29.731 7.71,8.258 17.19,14.59 28.47,19 11.28,4.41 23.78,6.609 37.51,6.609 17.86,0 33.18,-3.762 45.96,-11.289 12.79,-7.539 22.36,-17.281 28.73,-29.223 6.36,-11.957 9.54,-24.117 9.54,-36.519 0,-11.488 -3.29,-18.938 -9.88,-22.348 -6.59,-3.41 -15.86,-5.109 -27.8,-5.109"
             style="fill:#231f20;fill-opacity:1;fill-rule:nonzero;stroke:none"
             id="path923"
             inkscape:connector-curvature="0" />
          <path
             d="m 2380.96,367.059 c 0,-5.7 -1.7,-11.778 -5.11,-18.258 -3.41,-6.469 -8.59,-12.641 -15.58,-18.5 -6.97,-5.86 -15.76,-10.582 -26.36,-14.153 -10.61,-3.566 -22.56,-5.347 -35.84,-5.347 -28.25,0 -50.3,8.23 -66.15,24.691 -15.85,16.469 -23.78,38.539 -23.78,66.227 0,18.75 3.63,35.34 10.89,49.73 7.26,14.403 17.75,25.539 31.48,33.41 13.73,7.871 30.14,11.801 49.24,11.801 11.82,0 22.68,-1.719 32.56,-5.18 9.89,-3.468 18.26,-7.929 25.12,-13.398 6.87,-5.473 12.11,-11.312 15.74,-17.5 3.63,-6.191 5.44,-11.973 5.44,-17.332 0,-5.469 -2.04,-10.109 -6.11,-13.898 -4.07,-3.801 -9.01,-5.692 -14.81,-5.692 -3.8,0 -6.96,0.969 -9.47,2.93 -2.51,1.949 -5.33,5.101 -8.45,9.461 -5.59,8.488 -11.42,14.84 -17.5,19.09 -6.09,4.238 -13.82,6.359 -23.2,6.359 -13.5,0 -24.39,-5.27 -32.65,-15.82 -8.27,-10.551 -12.4,-24.981 -12.4,-43.289 0,-8.602 1.07,-16.5 3.19,-23.692 2.12,-7.199 5.19,-13.34 9.21,-18.418 4.02,-5.09 8.87,-8.941 14.57,-11.551 5.69,-2.628 11.94,-3.941 18.76,-3.941 9.15,0 16.99,2.121 23.52,6.359 6.53,4.243 12.31,10.723 17.34,19.422 2.78,5.141 5.8,9.149 9.04,12.059 3.23,2.902 7.2,4.359 11.88,4.359 5.59,0 10.22,-2.129 13.9,-6.367 3.69,-4.242 5.53,-8.762 5.53,-13.562"
             style="fill:#231f20;fill-opacity:1;fill-rule:nonzero;stroke:none"
             id="path925"
             inkscape:connector-curvature="0" />
          <path
             d="m 2423.32,492.309 h 5.02 v 27.472 c 0,7.36 0.2,13.141 0.59,17.321 0.39,4.187 1.48,7.796 3.27,10.808 1.78,3.121 4.35,5.66 7.7,7.621 3.35,1.949 7.08,2.93 11.21,2.93 5.81,0 11.06,-2.18 15.75,-6.531 3.12,-2.899 5.1,-6.45 5.94,-10.641 0.84,-4.187 1.26,-10.117 1.26,-17.828 v -31.152 h 16.74 c 6.48,0 11.42,-1.528 14.83,-4.598 3.4,-3.082 5.1,-7.012 5.1,-11.813 0,-6.136 -2.43,-10.437 -7.28,-12.886 -4.86,-2.461 -11.81,-3.692 -20.85,-3.692 h -8.54 v -84.058 c 0,-7.141 0.25,-12.641 0.75,-16.5 0.5,-3.84 1.84,-6.973 4.02,-9.371 2.18,-2.403 5.72,-3.602 10.63,-3.602 2.69,0 6.31,0.473 10.89,1.422 4.57,0.949 8.15,1.43 10.71,1.43 3.7,0 7.02,-1.493 9.98,-4.442 2.94,-2.961 4.43,-6.617 4.43,-10.969 0,-7.371 -4.02,-13.011 -12.06,-16.921 -8.04,-3.899 -19.59,-5.86 -34.66,-5.86 -14.3,0 -25.12,2.41 -32.49,7.211 -7.36,4.801 -12.2,11.442 -14.48,19.922 -2.29,8.488 -3.44,19.816 -3.44,34 v 87.738 h -6.03 c -6.59,0 -11.61,1.559 -15.06,4.7 -3.47,3.109 -5.2,7.082 -5.2,11.878 0,4.801 1.82,8.731 5.45,11.813 3.62,3.07 8.9,4.598 15.82,4.598"
             style="fill:#231f20;fill-opacity:1;fill-rule:nonzero;stroke:none"
             id="path927"
             inkscape:connector-curvature="0" />
          <path
             d="m 2587.6,376.43 v -38.168 c 0,-9.27 -2.18,-16.223 -6.54,-20.852 -4.35,-4.629 -9.88,-6.961 -16.58,-6.961 -6.58,0 -12,2.352 -16.24,7.051 -4.24,4.68 -6.36,11.602 -6.36,20.762 V 465.52 c 0,20.539 7.43,30.812 22.27,30.812 7.59,0 13.07,-2.402 16.42,-7.191 3.35,-4.809 5.18,-11.903 5.51,-21.27 5.47,9.367 11.09,16.461 16.84,21.27 5.74,4.789 13.42,7.191 23.03,7.191 9.6,0 18.91,-2.402 27.96,-7.191 9.04,-4.809 13.56,-11.18 13.56,-19.102 0,-5.578 -1.92,-10.18 -5.78,-13.809 -3.85,-3.628 -8.01,-5.441 -12.47,-5.441 -1.67,0 -5.72,1.02 -12.14,3.09 -6.43,2.07 -12.09,3.101 -17,3.101 -6.7,0 -12.17,-1.761 -16.41,-5.281 -4.25,-3.508 -7.54,-8.73 -9.88,-15.648 -2.34,-6.922 -3.97,-15.16 -4.85,-24.699 -0.9,-9.551 -1.34,-21.192 -1.34,-34.922"
             style="fill:#231f20;fill-opacity:1;fill-rule:nonzero;stroke:none"
             id="path929"
             inkscape:connector-curvature="0" />
          <path
             d="m 2804.62,403.391 c 0,18.648 -4.1,33.16 -12.31,43.539 -8.2,10.39 -19.23,15.57 -33.07,15.57 -8.94,0 -16.81,-2.309 -23.61,-6.941 -6.81,-4.637 -12.06,-11.469 -15.75,-20.52 -3.68,-9.039 -5.51,-19.59 -5.51,-31.648 0,-11.942 1.8,-22.379 5.43,-31.309 3.63,-8.934 8.82,-15.773 15.58,-20.512 6.75,-4.75 14.71,-7.121 23.86,-7.121 13.84,0 24.87,5.211 33.07,15.66 8.21,10.43 12.31,24.871 12.31,43.282 z m 45.88,0 c 0,-13.621 -2.12,-26.18 -6.36,-37.672 -4.25,-11.508 -10.38,-21.379 -18.42,-29.637 -8.03,-8.262 -17.64,-14.602 -28.81,-19 -11.16,-4.422 -23.72,-6.633 -37.67,-6.633 -13.84,0 -26.29,2.242 -37.35,6.699 -11.04,4.473 -20.62,10.864 -28.72,19.184 -8.09,8.309 -14.22,18.137 -18.41,29.477 -4.18,11.32 -6.28,23.851 -6.28,37.582 0,13.839 2.12,26.519 6.36,38.019 4.24,11.5 10.33,21.32 18.26,29.469 7.92,8.152 17.52,14.43 28.79,18.84 11.28,4.41 23.73,6.613 37.35,6.613 13.84,0 26.4,-2.23 37.67,-6.703 11.28,-4.457 20.94,-10.828 28.98,-19.09 8.04,-8.258 14.15,-18.078 18.33,-29.469 4.19,-11.39 6.28,-23.949 6.28,-37.679"
             style="fill:#231f20;fill-opacity:1;fill-rule:nonzero;stroke:none"
             id="path931"
             inkscape:connector-curvature="0" />
          <path
             d="m 2928.03,471.051 v -5.531 c 8.03,10.609 16.83,18.39 26.37,23.359 9.55,4.961 20.52,7.453 32.91,7.453 12.06,0 22.83,-2.621 32.32,-7.871 9.49,-5.242 16.58,-12.672 21.27,-22.27 3.01,-5.582 4.96,-11.609 5.86,-18.082 0.89,-6.48 1.34,-14.738 1.34,-24.777 v -85.07 c 0,-9.16 -2.09,-16.082 -6.28,-20.762 -4.19,-4.699 -9.63,-7.051 -16.33,-7.051 -6.81,0 -12.34,2.41 -16.57,7.211 -4.25,4.801 -6.37,11.66 -6.37,20.602 v 76.187 c 0,15.071 -2.09,26.59 -6.28,34.582 -4.19,7.981 -12.53,11.969 -25.04,11.969 -8.14,0 -15.57,-2.43 -22.27,-7.281 -6.69,-4.86 -11.61,-11.539 -14.73,-20.008 -2.24,-6.82 -3.35,-19.551 -3.35,-38.191 v -57.258 c 0,-9.27 -2.15,-16.223 -6.45,-20.852 -4.3,-4.629 -9.85,-6.961 -16.66,-6.961 -6.59,0 -12,2.41 -16.25,7.211 -4.23,4.801 -6.35,11.66 -6.35,20.602 v 132.117 c 0,8.711 1.89,15.211 5.69,19.512 3.79,4.289 8.98,6.441 15.57,6.441 4.02,0 7.64,-0.941 10.88,-2.852 3.24,-1.89 5.83,-4.742 7.79,-8.531 1.95,-3.801 2.93,-8.429 2.93,-13.898"
             style="fill:#231f20;fill-opacity:1;fill-rule:nonzero;stroke:none"
             id="path933"
             inkscape:connector-curvature="0" />
          <path
             d="M 3139.37,470.379 V 338.262 c 0,-9.16 -2.18,-16.082 -6.54,-20.762 -4.35,-4.699 -9.87,-7.051 -16.57,-7.051 -6.7,0 -12.14,2.41 -16.33,7.211 -4.19,4.801 -6.28,11.66 -6.28,20.602 v 130.777 c 0,9.043 2.09,15.852 6.28,20.43 4.19,4.582 9.63,6.863 16.33,6.863 6.7,0 12.22,-2.281 16.57,-6.863 4.36,-4.578 6.54,-10.949 6.54,-19.09 z m -22.61,47.223 c -6.36,0 -11.81,1.957 -16.33,5.859 -4.52,3.91 -6.78,9.437 -6.78,16.57 0,6.481 2.32,11.809 6.95,16 4.63,4.188 10.02,6.278 16.16,6.278 5.92,0 11.16,-1.899 15.74,-5.688 4.58,-3.801 6.87,-9.332 6.87,-16.59 0,-7.031 -2.24,-12.531 -6.7,-16.492 -4.47,-3.957 -9.77,-5.937 -15.91,-5.937"
             style="fill:#231f20;fill-opacity:1;fill-rule:nonzero;stroke:none"
             id="path935"
             inkscape:connector-curvature="0" />
          <path
             d="m 3350.53,367.059 c 0,-5.7 -1.7,-11.778 -5.11,-18.258 -3.41,-6.469 -8.59,-12.641 -15.58,-18.5 -6.97,-5.86 -15.76,-10.582 -26.36,-14.153 -10.61,-3.566 -22.56,-5.347 -35.84,-5.347 -28.25,0 -50.3,8.23 -66.15,24.691 -15.85,16.469 -23.78,38.539 -23.78,66.227 0,18.75 3.63,35.34 10.89,49.73 7.26,14.403 17.75,25.539 31.48,33.41 13.73,7.871 30.14,11.801 49.24,11.801 11.82,0 22.68,-1.719 32.56,-5.18 9.89,-3.468 18.26,-7.929 25.12,-13.398 6.87,-5.473 12.11,-11.312 15.74,-17.5 3.63,-6.191 5.44,-11.973 5.44,-17.332 0,-5.469 -2.04,-10.109 -6.11,-13.898 -4.07,-3.801 -9.01,-5.692 -14.81,-5.692 -3.8,0 -6.96,0.969 -9.47,2.93 -2.51,1.949 -5.33,5.101 -8.45,9.461 -5.59,8.488 -11.42,14.84 -17.5,19.09 -6.09,4.238 -13.82,6.359 -23.2,6.359 -13.5,0 -24.39,-5.27 -32.65,-15.82 -8.27,-10.551 -12.4,-24.981 -12.4,-43.289 0,-8.602 1.07,-16.5 3.19,-23.692 2.12,-7.199 5.19,-13.34 9.21,-18.418 4.02,-5.09 8.87,-8.941 14.57,-11.551 5.69,-2.628 11.94,-3.941 18.76,-3.941 9.15,0 16.99,2.121 23.52,6.359 6.54,4.243 12.31,10.723 17.34,19.422 2.78,5.141 5.8,9.149 9.04,12.059 3.23,2.902 7.2,4.359 11.88,4.359 5.59,0 10.22,-2.129 13.9,-6.367 3.69,-4.242 5.53,-8.762 5.53,-13.562"
             style="fill:#231f20;fill-opacity:1;fill-rule:nonzero;stroke:none"
             id="path937"
             inkscape:connector-curvature="0" />
          <path
             d="m 3537.57,370.238 c 0,-12.617 -3.07,-23.418 -9.21,-32.398 -6.14,-8.988 -15.21,-15.801 -27.21,-20.43 -12,-4.629 -26.6,-6.961 -43.79,-6.961 -16.41,0 -30.48,2.52 -42.19,7.543 -11.73,5.02 -20.38,11.297 -25.96,18.84 -5.59,7.539 -8.38,15.098 -8.38,22.699 0,5.02 1.79,9.309 5.36,12.891 3.58,3.566 8.1,5.359 13.57,5.359 4.79,0 8.48,-1.172 11.05,-3.531 2.57,-2.34 5.02,-5.629 7.36,-9.871 4.69,-8.149 10.31,-14.238 16.84,-18.25 6.52,-4.027 15.43,-6.039 26.71,-6.039 9.15,0 16.66,2.039 22.52,6.121 5.86,4.07 8.79,8.738 8.79,13.98 0,8.039 -3.04,13.899 -9.12,17.59 -6.1,3.68 -16.11,7.199 -30.06,10.551 -15.74,3.898 -28.56,8 -38.44,12.297 -9.87,4.301 -17.77,9.961 -23.69,17 -5.92,7.031 -8.88,15.691 -8.88,25.961 0,9.148 2.74,17.801 8.2,25.949 5.47,8.152 13.54,14.652 24.2,19.512 10.67,4.847 23.53,7.281 38.61,7.281 11.82,0 22.46,-1.23 31.89,-3.684 9.44,-2.457 17.31,-5.75 23.62,-9.878 6.3,-4.129 11.1,-8.711 14.4,-13.731 3.29,-5.019 4.94,-9.937 4.94,-14.738 0,-5.242 -1.76,-9.539 -5.28,-12.891 -3.52,-3.351 -8.51,-5.031 -14.98,-5.031 -4.69,0 -8.68,1.34 -11.98,4.031 -3.3,2.672 -7.06,6.692 -11.3,12.051 -3.46,4.461 -7.53,8.031 -12.23,10.719 -4.69,2.672 -11.05,4.011 -19.08,4.011 -8.26,0 -15.13,-1.761 -20.6,-5.269 -5.48,-3.524 -8.21,-7.902 -8.21,-13.152 0,-4.801 2.01,-8.739 6.03,-11.801 4.02,-3.071 9.44,-5.61 16.24,-7.617 6.81,-2.012 16.19,-4.461 28.14,-7.364 14.17,-3.468 25.75,-7.597 34.75,-12.398 8.98,-4.801 15.79,-10.461 20.43,-17 4.62,-6.531 6.94,-13.981 6.94,-22.352"
             style="fill:#231f20;fill-opacity:1;fill-rule:nonzero;stroke:none"
             id="path939"
             inkscape:connector-curvature="0" />
        </g>
      </g>
      <g
         id="g964-6-7"
         transform="matrix(16.85678,0,0,-16.85678,1479.6083,4411.1697)">
        <path
           inkscape:connector-curvature="0"
           id="path817-7-8"
           d="m 22.177728,283.0634 v -13.0903 l -6.815274,-6.54512 -6.8152751,6.54512 v 13.0903"
           style="fill:none;stroke:#000000;stroke-width:1.33577001px;stroke-linecap:butt;stroke-linejoin:miter;stroke-opacity:1" />
        <path
           inkscape:connector-curvature="0"
           id="path819-5-6"
           d="M 15.362454,264.02311 V 283.0634"
           style="fill:none;stroke:#000000;stroke-width:1.36153841px;stroke-linecap:butt;stroke-linejoin:miter;stroke-opacity:1" />
        <path
           inkscape:connector-curvature="0"
           id="path821-3-8"
           d="m 11.847699,270.27619 v 15.40529"
           style="fill:none;stroke:#000000;stroke-width:1.22469366px;stroke-linecap:butt;stroke-linejoin:miter;stroke-opacity:1" />
        <path
           inkscape:connector-curvature="0"
           id="path823-5-8"
           d="m 18.662969,270.27619 v 15.40529"
           style="fill:none;stroke:#000000;stroke-width:1.22469366px;stroke-linecap:butt;stroke-linejoin:miter;stroke-opacity:1" />
        <path
           inkscape:connector-curvature="0"
           id="path817-6-6-4"
           d="m 42.623548,283.0634 v -13.0903 l -6.815275,-6.54512 -6.815275,6.54512 v 13.0903"
           style="fill:none;stroke:#000000;stroke-width:1.33577001px;stroke-linecap:butt;stroke-linejoin:miter;stroke-opacity:1" />
        <path
           inkscape:connector-curvature="0"
           id="path819-7-2-3"
           d="M 35.808273,264.02311 V 283.0634"
           style="fill:none;stroke:#000000;stroke-width:1.36153841px;stroke-linecap:butt;stroke-linejoin:miter;stroke-opacity:1" />
        <path
           inkscape:connector-curvature="0"
           id="path821-5-9-1"
           d="m 32.293519,270.27619 v 15.40529"
           style="fill:none;stroke:#000000;stroke-width:1.22469366px;stroke-linecap:butt;stroke-linejoin:miter;stroke-opacity:1" />
        <path
           inkscape:connector-curvature="0"
           id="path823-3-1-4"
           d="m 39.108788,270.27619 v 15.40529"
           style="fill:none;stroke:#000000;stroke-width:1.22469366px;stroke-linecap:butt;stroke-linejoin:miter;stroke-opacity:1" />
        <path
           inkscape:connector-curvature="0"
           id="path817-2-2-9"
           d="m 63.858015,282.76032 v -13.0903 l -6.815274,-6.54513 -6.815275,6.54513 v 13.0903"
           style="fill:none;stroke:#000000;stroke-width:1.33577001px;stroke-linecap:butt;stroke-linejoin:miter;stroke-opacity:1" />
        <path
           inkscape:connector-curvature="0"
           id="path819-9-7-2"
           d="m 57.042741,263.72003 v 19.04029"
           style="fill:none;stroke:#000000;stroke-width:1.36153841px;stroke-linecap:butt;stroke-linejoin:miter;stroke-opacity:1" />
        <path
           inkscape:connector-curvature="0"
           id="path821-1-0-0"
           d="m 53.527986,269.9731 v 15.4053"
           style="fill:none;stroke:#000000;stroke-width:1.22469366px;stroke-linecap:butt;stroke-linejoin:miter;stroke-opacity:1" />
        <path
           inkscape:connector-curvature="0"
           id="path823-2-9-6"
           d="m 60.343256,269.9731 v 15.4053"
           style="fill:none;stroke:#000000;stroke-width:1.22469366px;stroke-linecap:butt;stroke-linejoin:miter;stroke-opacity:1" />
        <path
           inkscape:connector-curvature="0"
           id="path817-6-9-3-8"
           d="m 84.303835,282.76032 v -13.0903 l -6.815275,-6.54513 -6.815275,6.54513 v 13.0903"
           style="fill:none;stroke:#000000;stroke-width:1.33577001px;stroke-linecap:butt;stroke-linejoin:miter;stroke-opacity:1" />
        <path
           inkscape:connector-curvature="0"
           id="path819-7-3-60-9"
           d="m 77.48856,263.72003 v 19.04029"
           style="fill:none;stroke:#000000;stroke-width:1.36153841px;stroke-linecap:butt;stroke-linejoin:miter;stroke-opacity:1" />
        <path
           inkscape:connector-curvature="0"
           id="path821-5-6-6-2"
           d="m 73.973806,269.9731 v 15.4053"
           style="fill:none;stroke:#000000;stroke-width:1.22469366px;stroke-linecap:butt;stroke-linejoin:miter;stroke-opacity:1" />
        <path
           inkscape:connector-curvature="0"
           id="path823-3-0-26-6"
           d="m 80.789075,269.9731 v 15.4053"
           style="fill:none;stroke:#000000;stroke-width:1.22469366px;stroke-linecap:butt;stroke-linejoin:miter;stroke-opacity:1" />
        <path
           inkscape:connector-curvature="0"
           id="path817-61-1-6"
           d="m 103.96101,283.0634 v -13.0903 l -6.815279,-6.54512 -6.815275,6.54512 v 13.0903"
           style="fill:none;stroke:#000000;stroke-width:1.33577001px;stroke-linecap:butt;stroke-linejoin:miter;stroke-opacity:1" />
        <path
           inkscape:connector-curvature="0"
           id="path819-8-8-4"
           d="M 97.145731,264.02311 V 283.0634"
           style="fill:none;stroke:#000000;stroke-width:1.36153841px;stroke-linecap:butt;stroke-linejoin:miter;stroke-opacity:1" />
        <path
           inkscape:connector-curvature="0"
           id="path821-7-7-9"
           d="m 93.630977,270.27619 v 15.40529"
           style="fill:none;stroke:#000000;stroke-width:1.22469366px;stroke-linecap:butt;stroke-linejoin:miter;stroke-opacity:1" />
        <path
           inkscape:connector-curvature="0"
           id="path823-9-9-5"
           d="m 100.44625,270.27619 v 15.40529"
           style="fill:none;stroke:#000000;stroke-width:1.22469366px;stroke-linecap:butt;stroke-linejoin:miter;stroke-opacity:1" />
        <path
           inkscape:connector-curvature="0"
           id="path817-6-3-2-0"
           d="m 124.40684,283.0634 v -13.0903 l -6.81528,-6.54512 -6.81527,6.54512 v 13.0903"
           style="fill:none;stroke:#000000;stroke-width:1.33577001px;stroke-linecap:butt;stroke-linejoin:miter;stroke-opacity:1" />
        <path
           inkscape:connector-curvature="0"
           id="path819-7-7-0-4"
           d="M 117.59156,264.02311 V 283.0634"
           style="fill:none;stroke:#000000;stroke-width:1.36153841px;stroke-linecap:butt;stroke-linejoin:miter;stroke-opacity:1" />
        <path
           inkscape:connector-curvature="0"
           id="path821-5-5-2-8"
           d="m 114.07681,270.27619 v 15.40529"
           style="fill:none;stroke:#000000;stroke-width:1.22469366px;stroke-linecap:butt;stroke-linejoin:miter;stroke-opacity:1" />
        <path
           inkscape:connector-curvature="0"
           id="path823-3-9-37-7"
           d="m 120.89208,270.27619 v 15.40529"
           style="fill:none;stroke:#000000;stroke-width:1.22469366px;stroke-linecap:butt;stroke-linejoin:miter;stroke-opacity:1" />
        <path
           inkscape:connector-curvature="0"
           id="path817-6-3-8-5-1"
           d="m 144.85264,283.0634 v -13.0903 l -6.81527,-6.54512 -6.81528,6.54512 v 13.0903"
           style="fill:none;stroke:#000000;stroke-width:1.33577001px;stroke-linecap:butt;stroke-linejoin:miter;stroke-opacity:1" />
        <path
           inkscape:connector-curvature="0"
           id="path819-7-7-9-9-7"
           d="M 138.03737,264.02311 V 283.0634"
           style="fill:none;stroke:#000000;stroke-width:1.36153841px;stroke-linecap:butt;stroke-linejoin:miter;stroke-opacity:1" />
        <path
           inkscape:connector-curvature="0"
           id="path821-5-5-7-2-2"
           d="m 134.52262,270.27619 v 15.40529"
           style="fill:none;stroke:#000000;stroke-width:1.22469366px;stroke-linecap:butt;stroke-linejoin:miter;stroke-opacity:1" />
        <path
           inkscape:connector-curvature="0"
           id="path823-3-9-3-2-7"
           d="m 141.33788,270.27619 v 15.40529"
           style="fill:none;stroke:#000000;stroke-width:1.22469366px;stroke-linecap:butt;stroke-linejoin:miter;stroke-opacity:1" />
        <path
           inkscape:connector-curvature="0"
           id="path1009-8-2"
           d="M 11.232389,285.68148 H 141.94529"
           style="fill:none;stroke:#000000;stroke-width:1.34206176px;stroke-linecap:butt;stroke-linejoin:miter;stroke-opacity:1" />
        <path
           inkscape:connector-curvature="0"
           id="path817-1-9-2"
           d="m 32.507757,244.09557 v 13.0903 l -6.815274,6.54514 -6.815275,-6.54514 v -13.0903"
           style="fill:none;stroke:#000000;stroke-width:1.33577001px;stroke-linecap:butt;stroke-linejoin:miter;stroke-opacity:1" />
        <path
           inkscape:connector-curvature="0"
           id="path819-2-7-6"
           d="M 25.692483,263.13588 V 244.09557"
           style="fill:none;stroke:#000000;stroke-width:1.36153841px;stroke-linecap:butt;stroke-linejoin:miter;stroke-opacity:1" />
        <path
           inkscape:connector-curvature="0"
           id="path821-9-3-1"
           d="m 22.177728,256.88279 v -15.4053"
           style="fill:none;stroke:#000000;stroke-width:1.22469366px;stroke-linecap:butt;stroke-linejoin:miter;stroke-opacity:1" />
        <path
           inkscape:connector-curvature="0"
           id="path823-31-6-0"
           d="m 28.992998,256.88279 v -15.4053"
           style="fill:none;stroke:#000000;stroke-width:1.22469366px;stroke-linecap:butt;stroke-linejoin:miter;stroke-opacity:1" />
        <path
           inkscape:connector-curvature="0"
           id="path817-6-94-1-6"
           d="m 52.953577,244.09557 v 13.0903 l -6.815275,6.54514 -6.815275,-6.54514 v -13.0903"
           style="fill:none;stroke:#000000;stroke-width:1.33577001px;stroke-linecap:butt;stroke-linejoin:miter;stroke-opacity:1" />
        <path
           inkscape:connector-curvature="0"
           id="path819-7-78-2-1"
           d="M 46.138302,263.13588 V 244.09557"
           style="fill:none;stroke:#000000;stroke-width:1.36153841px;stroke-linecap:butt;stroke-linejoin:miter;stroke-opacity:1" />
        <path
           inkscape:connector-curvature="0"
           id="path821-5-4-9-5"
           d="m 42.623548,256.88279 v -15.4053"
           style="fill:none;stroke:#000000;stroke-width:1.22469366px;stroke-linecap:butt;stroke-linejoin:miter;stroke-opacity:1" />
        <path
           inkscape:connector-curvature="0"
           id="path823-3-5-3-9"
           d="m 49.438823,256.88279 v -15.4053"
           style="fill:none;stroke:#000000;stroke-width:1.22469366px;stroke-linecap:butt;stroke-linejoin:miter;stroke-opacity:1" />
        <path
           inkscape:connector-curvature="0"
           id="path817-6-9-0-1-4"
           d="m 94.633869,244.39866 v 13.0903 l -6.815275,6.54514 -6.815275,-6.54514 v -13.0903"
           style="fill:none;stroke:#000000;stroke-width:1.33577001px;stroke-linecap:butt;stroke-linejoin:miter;stroke-opacity:1" />
        <path
           inkscape:connector-curvature="0"
           id="path819-7-3-6-9-9"
           d="m 87.818594,263.43896 v -19.0403"
           style="fill:none;stroke:#000000;stroke-width:1.36153841px;stroke-linecap:butt;stroke-linejoin:miter;stroke-opacity:1" />
        <path
           inkscape:connector-curvature="0"
           id="path821-5-6-3-4-0"
           d="M 84.30384,257.18587 V 241.78063"
           style="fill:none;stroke:#000000;stroke-width:1.22469366px;stroke-linecap:butt;stroke-linejoin:miter;stroke-opacity:1" />
        <path
           inkscape:connector-curvature="0"
           id="path823-3-0-2-7-9"
           d="M 91.11911,257.18587 V 241.78063"
           style="fill:none;stroke:#000000;stroke-width:1.22469366px;stroke-linecap:butt;stroke-linejoin:miter;stroke-opacity:1" />
        <path
           inkscape:connector-curvature="0"
           id="path817-61-0-8-1"
           d="m 114.29104,244.09557 v 13.0903 l -6.81527,6.54514 -6.81528,-6.54514 v -13.0903"
           style="fill:none;stroke:#000000;stroke-width:1.33577001px;stroke-linecap:butt;stroke-linejoin:miter;stroke-opacity:1" />
        <path
           inkscape:connector-curvature="0"
           id="path819-8-6-4-7"
           d="M 107.47577,263.13588 V 244.09557"
           style="fill:none;stroke:#000000;stroke-width:1.36153841px;stroke-linecap:butt;stroke-linejoin:miter;stroke-opacity:1" />
        <path
           inkscape:connector-curvature="0"
           id="path821-7-1-5-7"
           d="m 103.96101,256.88279 v -15.4053"
           style="fill:none;stroke:#000000;stroke-width:1.22469366px;stroke-linecap:butt;stroke-linejoin:miter;stroke-opacity:1" />
        <path
           inkscape:connector-curvature="0"
           id="path823-9-5-0-1"
           d="m 110.77628,256.88279 v -15.4053"
           style="fill:none;stroke:#000000;stroke-width:1.22469366px;stroke-linecap:butt;stroke-linejoin:miter;stroke-opacity:1" />
        <path
           inkscape:connector-curvature="0"
           id="path817-6-3-5-3-1"
           d="m 134.73687,244.09557 v 13.0903 l -6.81528,6.54514 -6.81527,-6.54514 v -13.0903"
           style="fill:none;stroke:#000000;stroke-width:1.33577001px;stroke-linecap:butt;stroke-linejoin:miter;stroke-opacity:1" />
        <path
           inkscape:connector-curvature="0"
           id="path819-7-7-4-6-5"
           d="M 127.92159,263.13588 V 244.09557"
           style="fill:none;stroke:#000000;stroke-width:1.36153841px;stroke-linecap:butt;stroke-linejoin:miter;stroke-opacity:1" />
        <path
           inkscape:connector-curvature="0"
           id="path821-5-5-76-1-9"
           d="m 124.40684,256.88279 v -15.4053"
           style="fill:none;stroke:#000000;stroke-width:1.22469366px;stroke-linecap:butt;stroke-linejoin:miter;stroke-opacity:1" />
        <path
           inkscape:connector-curvature="0"
           id="path823-3-9-5-0-7"
           d="m 131.22211,256.88279 v -15.4053"
           style="fill:none;stroke:#000000;stroke-width:1.22469366px;stroke-linecap:butt;stroke-linejoin:miter;stroke-opacity:1" />
        <path
           inkscape:connector-curvature="0"
           id="path1009-4-6-7"
           d="M 21.55371,241.47749 H 131.81363"
           style="fill:none;stroke:#000000;stroke-width:1.23259985px;stroke-linecap:butt;stroke-linejoin:miter;stroke-opacity:1" />
      </g>
    </g>
  </g>
</svg>
