G04 MADE WITH FRITZING*
G04 WWW.FRITZING.ORG*
G04 DOUBLE SIDED*
G04 HOLES PLATED*
G04 CONTOUR ON CENTER OF CONTOUR VECTOR*
%ASAXBY*%
%FSLAX23Y23*%
%MOIN*%
%OFA0B0*%
%SFA1.0B1.0*%
%ADD10C,0.074000*%
%ADD11C,0.083307*%
%ADD12C,0.039370*%
%ADD13C,0.024000*%
%ADD14R,0.001000X0.001000*%
%LNCOPPER0*%
G90*
G70*
G54D10*
X2657Y2072D03*
X2957Y2772D03*
X3057Y2072D03*
X2457Y2072D03*
X2857Y2072D03*
X3257Y2072D03*
X2557Y2072D03*
X2757Y2072D03*
X2957Y2072D03*
X3157Y2072D03*
X2457Y2772D03*
X2857Y2772D03*
X2557Y2772D03*
X2657Y2772D03*
X2757Y2772D03*
X2157Y2072D03*
X2257Y2072D03*
X2357Y2072D03*
X2657Y2072D03*
X2957Y2772D03*
X3057Y2072D03*
X2457Y2072D03*
X2857Y2072D03*
X3257Y2072D03*
X2557Y2072D03*
X2757Y2072D03*
X2957Y2072D03*
X3157Y2072D03*
X2457Y2772D03*
X2857Y2772D03*
X2557Y2772D03*
X2657Y2772D03*
X2757Y2772D03*
X2157Y2072D03*
X2257Y2072D03*
X2357Y2072D03*
G54D11*
X2454Y2426D03*
X2554Y2426D03*
X2654Y2426D03*
X2754Y2426D03*
X2854Y2426D03*
X2954Y2426D03*
X2454Y2544D03*
X2554Y2544D03*
X2654Y2544D03*
X2754Y2544D03*
X2854Y2544D03*
X2954Y2544D03*
G54D12*
X5032Y1891D03*
X5441Y155D03*
X858Y1024D03*
X1662Y1026D03*
X3305Y1011D03*
X451Y1019D03*
X1256Y1020D03*
X2093Y1032D03*
X2896Y1029D03*
X3672Y1018D03*
X4077Y1024D03*
X4886Y1026D03*
X4476Y1019D03*
X5281Y1020D03*
G54D13*
X467Y1029D02*
X2130Y2056D01*
D02*
X874Y1035D02*
X2232Y2053D01*
D02*
X1674Y1041D02*
X2438Y2047D01*
D02*
X2101Y1050D02*
X2544Y2044D01*
D02*
X2892Y1048D02*
X2664Y2042D01*
D02*
X3296Y1028D02*
X2771Y2044D01*
D02*
X3661Y1033D02*
X2876Y2047D01*
D02*
X4063Y1037D02*
X2980Y2051D01*
D02*
X4461Y1030D02*
X3082Y2054D01*
D02*
X4870Y1036D02*
X3183Y2056D01*
D02*
X5264Y1029D02*
X3284Y2058D01*
D02*
X2454Y2577D02*
X2456Y2741D01*
D02*
X2454Y2459D02*
X2454Y2512D01*
D02*
X2554Y2577D02*
X2556Y2741D01*
D02*
X2554Y2459D02*
X2554Y2512D01*
D02*
X2654Y2577D02*
X2656Y2741D01*
D02*
X2654Y2459D02*
X2654Y2512D01*
D02*
X2754Y2577D02*
X2756Y2741D01*
D02*
X2754Y2459D02*
X2754Y2512D01*
D02*
X2854Y2577D02*
X2856Y2741D01*
D02*
X2854Y2459D02*
X2854Y2512D01*
D02*
X2954Y2577D02*
X2956Y2741D01*
D02*
X2954Y2459D02*
X2954Y2512D01*
D02*
X5444Y1005D02*
X5441Y174D01*
D02*
X5040Y1874D02*
X5444Y1005D01*
D02*
X5014Y1896D02*
X2985Y2418D01*
G54D14*
X2354Y2084D02*
X2358Y2084D01*
X2351Y2083D02*
X2361Y2083D01*
X2349Y2082D02*
X2362Y2082D01*
X2348Y2081D02*
X2364Y2081D01*
X2347Y2080D02*
X2365Y2080D01*
X2346Y2079D02*
X2365Y2079D01*
X2346Y2078D02*
X2366Y2078D01*
X2345Y2077D02*
X2366Y2077D01*
X2345Y2076D02*
X2367Y2076D01*
X2345Y2075D02*
X2367Y2075D01*
X2345Y2074D02*
X2367Y2074D01*
X2344Y2073D02*
X2367Y2073D01*
X2344Y2072D02*
X2367Y2072D01*
X2344Y2071D02*
X2367Y2071D01*
X2344Y2070D02*
X2367Y2070D01*
X2343Y2069D02*
X2367Y2069D01*
X2343Y2068D02*
X2367Y2068D01*
X2342Y2067D02*
X2367Y2067D01*
X2342Y2066D02*
X2366Y2066D01*
X2342Y2065D02*
X2366Y2065D01*
X2341Y2064D02*
X2366Y2064D01*
X2341Y2063D02*
X2366Y2063D01*
X2340Y2062D02*
X2365Y2062D01*
X2340Y2061D02*
X2365Y2061D01*
X2339Y2060D02*
X2364Y2060D01*
X2338Y2059D02*
X2364Y2059D01*
X2338Y2058D02*
X2364Y2058D01*
X2337Y2057D02*
X2363Y2057D01*
X2337Y2056D02*
X2363Y2056D01*
X2336Y2055D02*
X2362Y2055D01*
X2336Y2054D02*
X2362Y2054D01*
X2335Y2053D02*
X2361Y2053D01*
X2334Y2052D02*
X2361Y2052D01*
X2334Y2051D02*
X2360Y2051D01*
X2333Y2050D02*
X2360Y2050D01*
X2332Y2049D02*
X2359Y2049D01*
X2332Y2048D02*
X2359Y2048D01*
X2331Y2047D02*
X2358Y2047D01*
X2330Y2046D02*
X2358Y2046D01*
X2330Y2045D02*
X2357Y2045D01*
X2329Y2044D02*
X2357Y2044D01*
X2328Y2043D02*
X2356Y2043D01*
X2328Y2042D02*
X2355Y2042D01*
X2327Y2041D02*
X2355Y2041D01*
X2326Y2040D02*
X2354Y2040D01*
X2325Y2039D02*
X2353Y2039D01*
X2325Y2038D02*
X2353Y2038D01*
X2324Y2037D02*
X2352Y2037D01*
X2323Y2036D02*
X2352Y2036D01*
X2322Y2035D02*
X2351Y2035D01*
X2322Y2034D02*
X2350Y2034D01*
X2321Y2033D02*
X2350Y2033D01*
X2320Y2032D02*
X2349Y2032D01*
X2319Y2031D02*
X2348Y2031D01*
X2319Y2030D02*
X2347Y2030D01*
X2318Y2029D02*
X2347Y2029D01*
X2317Y2028D02*
X2346Y2028D01*
X2316Y2027D02*
X2345Y2027D01*
X2316Y2026D02*
X2345Y2026D01*
X2315Y2025D02*
X2344Y2025D01*
X2314Y2024D02*
X2343Y2024D01*
X2313Y2023D02*
X2342Y2023D01*
X2312Y2022D02*
X2342Y2022D01*
X2312Y2021D02*
X2341Y2021D01*
X2311Y2020D02*
X2340Y2020D01*
X2310Y2019D02*
X2339Y2019D01*
X2309Y2018D02*
X2339Y2018D01*
X2308Y2017D02*
X2338Y2017D01*
X2308Y2016D02*
X2337Y2016D01*
X2307Y2015D02*
X2336Y2015D01*
X2306Y2014D02*
X2336Y2014D01*
X2305Y2013D02*
X2335Y2013D01*
X2304Y2012D02*
X2334Y2012D01*
X2304Y2011D02*
X2333Y2011D01*
X2303Y2010D02*
X2333Y2010D01*
X2302Y2009D02*
X2332Y2009D01*
X2301Y2008D02*
X2331Y2008D01*
X2300Y2007D02*
X2330Y2007D01*
X2299Y2006D02*
X2329Y2006D01*
X2299Y2005D02*
X2329Y2005D01*
X2298Y2004D02*
X2328Y2004D01*
X2297Y2003D02*
X2327Y2003D01*
X2296Y2002D02*
X2326Y2002D01*
X2295Y2001D02*
X2325Y2001D01*
X2294Y2000D02*
X2325Y2000D01*
X2293Y1999D02*
X2324Y1999D01*
X2293Y1998D02*
X2323Y1998D01*
X2292Y1997D02*
X2322Y1997D01*
X2291Y1996D02*
X2321Y1996D01*
X2290Y1995D02*
X2320Y1995D01*
X2289Y1994D02*
X2320Y1994D01*
X2288Y1993D02*
X2319Y1993D01*
X2287Y1992D02*
X2318Y1992D01*
X2286Y1991D02*
X2317Y1991D01*
X2286Y1990D02*
X2316Y1990D01*
X2285Y1989D02*
X2315Y1989D01*
X2284Y1988D02*
X2315Y1988D01*
X2283Y1987D02*
X2314Y1987D01*
X2282Y1986D02*
X2313Y1986D01*
X2281Y1985D02*
X2312Y1985D01*
X2280Y1984D02*
X2311Y1984D01*
X2279Y1983D02*
X2310Y1983D01*
X2279Y1982D02*
X2309Y1982D01*
X2278Y1981D02*
X2309Y1981D01*
X2277Y1980D02*
X2308Y1980D01*
X2276Y1979D02*
X2307Y1979D01*
X2275Y1978D02*
X2306Y1978D01*
X2274Y1977D02*
X2305Y1977D01*
X2273Y1976D02*
X2304Y1976D01*
X2272Y1975D02*
X2303Y1975D01*
X2271Y1974D02*
X2303Y1974D01*
X2270Y1973D02*
X2302Y1973D01*
X2270Y1972D02*
X2301Y1972D01*
X2269Y1971D02*
X2300Y1971D01*
X2268Y1970D02*
X2299Y1970D01*
X2267Y1969D02*
X2298Y1969D01*
X2266Y1968D02*
X2297Y1968D01*
X2265Y1967D02*
X2296Y1967D01*
X2264Y1966D02*
X2295Y1966D01*
X2263Y1965D02*
X2295Y1965D01*
X2262Y1964D02*
X2294Y1964D01*
X2261Y1963D02*
X2293Y1963D01*
X2260Y1962D02*
X2292Y1962D01*
X2259Y1961D02*
X2291Y1961D01*
X2258Y1960D02*
X2290Y1960D01*
X2258Y1959D02*
X2289Y1959D01*
X2257Y1958D02*
X2288Y1958D01*
X2256Y1957D02*
X2287Y1957D01*
X2255Y1956D02*
X2286Y1956D01*
X2254Y1955D02*
X2285Y1955D01*
X2253Y1954D02*
X2285Y1954D01*
X2252Y1953D02*
X2284Y1953D01*
X2251Y1952D02*
X2283Y1952D01*
X2250Y1951D02*
X2282Y1951D01*
X2249Y1950D02*
X2281Y1950D01*
X2248Y1949D02*
X2280Y1949D01*
X2247Y1948D02*
X2279Y1948D01*
X2246Y1947D02*
X2278Y1947D01*
X2246Y1946D02*
X2277Y1946D01*
X2245Y1945D02*
X2276Y1945D01*
X2244Y1944D02*
X2275Y1944D01*
X2243Y1943D02*
X2274Y1943D01*
X2242Y1942D02*
X2273Y1942D01*
X2241Y1941D02*
X2273Y1941D01*
X2240Y1940D02*
X2272Y1940D01*
X2239Y1939D02*
X2271Y1939D01*
X2238Y1938D02*
X2270Y1938D01*
X2237Y1937D02*
X2269Y1937D01*
X2236Y1936D02*
X2268Y1936D01*
X2235Y1935D02*
X2267Y1935D01*
X2234Y1934D02*
X2266Y1934D01*
X2233Y1933D02*
X2265Y1933D01*
X2232Y1932D02*
X2264Y1932D01*
X2231Y1931D02*
X2263Y1931D01*
X2230Y1930D02*
X2262Y1930D01*
X2229Y1929D02*
X2261Y1929D01*
X2228Y1928D02*
X2261Y1928D01*
X2227Y1927D02*
X2260Y1927D01*
X2226Y1926D02*
X2259Y1926D01*
X2226Y1925D02*
X2258Y1925D01*
X2225Y1924D02*
X2257Y1924D01*
X2224Y1923D02*
X2256Y1923D01*
X2223Y1922D02*
X2255Y1922D01*
X2222Y1921D02*
X2254Y1921D01*
X2221Y1920D02*
X2253Y1920D01*
X2220Y1919D02*
X2252Y1919D01*
X2219Y1918D02*
X2251Y1918D01*
X2218Y1917D02*
X2250Y1917D01*
X2217Y1916D02*
X2249Y1916D01*
X2216Y1915D02*
X2248Y1915D01*
X2215Y1914D02*
X2247Y1914D01*
X2214Y1913D02*
X2246Y1913D01*
X2213Y1912D02*
X2245Y1912D01*
X2212Y1911D02*
X2244Y1911D01*
X2211Y1910D02*
X2243Y1910D01*
X2210Y1909D02*
X2242Y1909D01*
X2209Y1908D02*
X2241Y1908D01*
X2208Y1907D02*
X2240Y1907D01*
X2207Y1906D02*
X2240Y1906D01*
X2206Y1905D02*
X2239Y1905D01*
X2205Y1904D02*
X2238Y1904D01*
X2204Y1903D02*
X2237Y1903D01*
X2203Y1902D02*
X2236Y1902D01*
X2202Y1901D02*
X2235Y1901D01*
X2201Y1900D02*
X2234Y1900D01*
X2200Y1899D02*
X2233Y1899D01*
X2199Y1898D02*
X2232Y1898D01*
X2198Y1897D02*
X2231Y1897D01*
X2197Y1896D02*
X2230Y1896D01*
X2196Y1895D02*
X2229Y1895D01*
X2195Y1894D02*
X2228Y1894D01*
X2194Y1893D02*
X2227Y1893D01*
X2193Y1892D02*
X2226Y1892D01*
X2192Y1891D02*
X2225Y1891D01*
X2191Y1890D02*
X2224Y1890D01*
X2190Y1889D02*
X2223Y1889D01*
X2189Y1888D02*
X2222Y1888D01*
X2188Y1887D02*
X2221Y1887D01*
X2187Y1886D02*
X2220Y1886D01*
X2187Y1885D02*
X2219Y1885D01*
X2186Y1884D02*
X2218Y1884D01*
X2185Y1883D02*
X2217Y1883D01*
X2184Y1882D02*
X2216Y1882D01*
X2183Y1881D02*
X2215Y1881D01*
X2182Y1880D02*
X2214Y1880D01*
X2181Y1879D02*
X2213Y1879D01*
X2180Y1878D02*
X2212Y1878D01*
X2179Y1877D02*
X2211Y1877D01*
X2178Y1876D02*
X2210Y1876D01*
X2177Y1875D02*
X2209Y1875D01*
X2176Y1874D02*
X2208Y1874D01*
X2175Y1873D02*
X2207Y1873D01*
X2174Y1872D02*
X2206Y1872D01*
X2173Y1871D02*
X2205Y1871D01*
X2172Y1870D02*
X2204Y1870D01*
X2171Y1869D02*
X2203Y1869D01*
X2170Y1868D02*
X2202Y1868D01*
X2169Y1867D02*
X2201Y1867D01*
X2168Y1866D02*
X2200Y1866D01*
X2167Y1865D02*
X2199Y1865D01*
X2166Y1864D02*
X2199Y1864D01*
X2165Y1863D02*
X2198Y1863D01*
X2164Y1862D02*
X2197Y1862D01*
X2163Y1861D02*
X2196Y1861D01*
X2162Y1860D02*
X2195Y1860D01*
X2161Y1859D02*
X2194Y1859D01*
X2160Y1858D02*
X2193Y1858D01*
X2159Y1857D02*
X2192Y1857D01*
X2158Y1856D02*
X2191Y1856D01*
X2157Y1855D02*
X2190Y1855D01*
X2156Y1854D02*
X2189Y1854D01*
X2155Y1853D02*
X2188Y1853D01*
X2154Y1852D02*
X2187Y1852D01*
X2153Y1851D02*
X2186Y1851D01*
X2152Y1850D02*
X2185Y1850D01*
X2150Y1849D02*
X2184Y1849D01*
X2149Y1848D02*
X2183Y1848D01*
X2148Y1847D02*
X2182Y1847D01*
X2147Y1846D02*
X2181Y1846D01*
X2146Y1845D02*
X2180Y1845D01*
X2145Y1844D02*
X2179Y1844D01*
X2144Y1843D02*
X2178Y1843D01*
X2143Y1842D02*
X2177Y1842D01*
X2142Y1841D02*
X2176Y1841D01*
X2141Y1840D02*
X2175Y1840D01*
X2140Y1839D02*
X2174Y1839D01*
X2139Y1838D02*
X2172Y1838D01*
X2138Y1837D02*
X2171Y1837D01*
X2137Y1836D02*
X2170Y1836D01*
X2136Y1835D02*
X2169Y1835D01*
X2135Y1834D02*
X2168Y1834D01*
X2134Y1833D02*
X2167Y1833D01*
X2133Y1832D02*
X2166Y1832D01*
X2132Y1831D02*
X2165Y1831D01*
X2131Y1830D02*
X2164Y1830D01*
X2130Y1829D02*
X2163Y1829D01*
X2129Y1828D02*
X2162Y1828D01*
X2128Y1827D02*
X2161Y1827D01*
X2127Y1826D02*
X2160Y1826D01*
X2126Y1825D02*
X2159Y1825D01*
X2125Y1824D02*
X2158Y1824D01*
X2124Y1823D02*
X2157Y1823D01*
X2123Y1822D02*
X2156Y1822D01*
X2122Y1821D02*
X2155Y1821D01*
X2121Y1820D02*
X2154Y1820D01*
X2120Y1819D02*
X2153Y1819D01*
X2119Y1818D02*
X2152Y1818D01*
X2118Y1817D02*
X2151Y1817D01*
X2117Y1816D02*
X2150Y1816D01*
X2116Y1815D02*
X2149Y1815D01*
X2115Y1814D02*
X2148Y1814D01*
X2114Y1813D02*
X2147Y1813D01*
X2113Y1812D02*
X2146Y1812D01*
X2112Y1811D02*
X2145Y1811D01*
X2111Y1810D02*
X2144Y1810D01*
X2110Y1809D02*
X2143Y1809D01*
X2109Y1808D02*
X2142Y1808D01*
X2108Y1807D02*
X2141Y1807D01*
X2107Y1806D02*
X2140Y1806D01*
X2106Y1805D02*
X2139Y1805D01*
X2105Y1804D02*
X2138Y1804D01*
X2104Y1803D02*
X2137Y1803D01*
X2103Y1802D02*
X2136Y1802D01*
X2102Y1801D02*
X2135Y1801D01*
X2100Y1800D02*
X2134Y1800D01*
X2099Y1799D02*
X2133Y1799D01*
X2098Y1798D02*
X2132Y1798D01*
X2097Y1797D02*
X2131Y1797D01*
X2096Y1796D02*
X2130Y1796D01*
X2095Y1795D02*
X2129Y1795D01*
X2094Y1794D02*
X2128Y1794D01*
X2093Y1793D02*
X2127Y1793D01*
X2092Y1792D02*
X2126Y1792D01*
X2091Y1791D02*
X2125Y1791D01*
X2090Y1790D02*
X2124Y1790D01*
X2089Y1789D02*
X2123Y1789D01*
X2088Y1788D02*
X2122Y1788D01*
X2087Y1787D02*
X2121Y1787D01*
X2086Y1786D02*
X2120Y1786D01*
X2085Y1785D02*
X2118Y1785D01*
X2084Y1784D02*
X2117Y1784D01*
X2083Y1783D02*
X2116Y1783D01*
X2082Y1782D02*
X2115Y1782D01*
X2081Y1781D02*
X2114Y1781D01*
X2080Y1780D02*
X2113Y1780D01*
X2079Y1779D02*
X2112Y1779D01*
X2078Y1778D02*
X2111Y1778D01*
X2077Y1777D02*
X2110Y1777D01*
X2076Y1776D02*
X2109Y1776D01*
X2075Y1775D02*
X2108Y1775D01*
X2074Y1774D02*
X2107Y1774D01*
X2072Y1773D02*
X2106Y1773D01*
X2071Y1772D02*
X2105Y1772D01*
X2070Y1771D02*
X2104Y1771D01*
X2069Y1770D02*
X2103Y1770D01*
X2068Y1769D02*
X2102Y1769D01*
X2067Y1768D02*
X2101Y1768D01*
X2066Y1767D02*
X2100Y1767D01*
X2065Y1766D02*
X2099Y1766D01*
X2064Y1765D02*
X2098Y1765D01*
X2063Y1764D02*
X2097Y1764D01*
X2062Y1763D02*
X2096Y1763D01*
X2061Y1762D02*
X2095Y1762D01*
X2060Y1761D02*
X2094Y1761D01*
X2059Y1760D02*
X2093Y1760D01*
X2058Y1759D02*
X2092Y1759D01*
X2057Y1758D02*
X2091Y1758D01*
X2056Y1757D02*
X2089Y1757D01*
X2055Y1756D02*
X2088Y1756D01*
X2054Y1755D02*
X2087Y1755D01*
X2053Y1754D02*
X2086Y1754D01*
X2052Y1753D02*
X2085Y1753D01*
X2051Y1752D02*
X2084Y1752D01*
X2050Y1751D02*
X2083Y1751D01*
X2048Y1750D02*
X2082Y1750D01*
X2047Y1749D02*
X2081Y1749D01*
X2046Y1748D02*
X2080Y1748D01*
X2045Y1747D02*
X2079Y1747D01*
X2044Y1746D02*
X2078Y1746D01*
X2043Y1745D02*
X2077Y1745D01*
X2042Y1744D02*
X2076Y1744D01*
X2041Y1743D02*
X2075Y1743D01*
X2040Y1742D02*
X2074Y1742D01*
X2039Y1741D02*
X2073Y1741D01*
X2038Y1740D02*
X2072Y1740D01*
X2037Y1739D02*
X2071Y1739D01*
X2036Y1738D02*
X2070Y1738D01*
X2035Y1737D02*
X2069Y1737D01*
X2034Y1736D02*
X2068Y1736D01*
X2033Y1735D02*
X2067Y1735D01*
X2032Y1734D02*
X2065Y1734D01*
X2031Y1733D02*
X2064Y1733D01*
X2030Y1732D02*
X2063Y1732D01*
X2028Y1731D02*
X2062Y1731D01*
X2027Y1730D02*
X2061Y1730D01*
X2026Y1729D02*
X2060Y1729D01*
X2025Y1728D02*
X2059Y1728D01*
X2024Y1727D02*
X2058Y1727D01*
X2023Y1726D02*
X2057Y1726D01*
X2022Y1725D02*
X2056Y1725D01*
X2021Y1724D02*
X2055Y1724D01*
X2020Y1723D02*
X2054Y1723D01*
X2019Y1722D02*
X2053Y1722D01*
X2018Y1721D02*
X2052Y1721D01*
X2017Y1720D02*
X2051Y1720D01*
X2016Y1719D02*
X2050Y1719D01*
X2015Y1718D02*
X2049Y1718D01*
X2014Y1717D02*
X2048Y1717D01*
X2013Y1716D02*
X2047Y1716D01*
X2012Y1715D02*
X2045Y1715D01*
X2010Y1714D02*
X2044Y1714D01*
X2009Y1713D02*
X2043Y1713D01*
X2008Y1712D02*
X2042Y1712D01*
X2007Y1711D02*
X2041Y1711D01*
X2006Y1710D02*
X2040Y1710D01*
X2005Y1709D02*
X2039Y1709D01*
X2004Y1708D02*
X2038Y1708D01*
X2003Y1707D02*
X2037Y1707D01*
X2002Y1706D02*
X2036Y1706D01*
X2001Y1705D02*
X2035Y1705D01*
X2000Y1704D02*
X2034Y1704D01*
X1999Y1703D02*
X2033Y1703D01*
X1998Y1702D02*
X2032Y1702D01*
X1997Y1701D02*
X2031Y1701D01*
X1996Y1700D02*
X2030Y1700D01*
X1995Y1699D02*
X2029Y1699D01*
X1994Y1698D02*
X2027Y1698D01*
X1992Y1697D02*
X2026Y1697D01*
X1991Y1696D02*
X2025Y1696D01*
X1990Y1695D02*
X2024Y1695D01*
X1989Y1694D02*
X2023Y1694D01*
X1988Y1693D02*
X2022Y1693D01*
X1987Y1692D02*
X2021Y1692D01*
X1986Y1691D02*
X2020Y1691D01*
X1985Y1690D02*
X2019Y1690D01*
X1984Y1689D02*
X2018Y1689D01*
X1983Y1688D02*
X2017Y1688D01*
X1982Y1687D02*
X2016Y1687D01*
X1981Y1686D02*
X2015Y1686D01*
X1980Y1685D02*
X2014Y1685D01*
X1979Y1684D02*
X2013Y1684D01*
X1978Y1683D02*
X2012Y1683D01*
X1976Y1682D02*
X2011Y1682D01*
X1975Y1681D02*
X2009Y1681D01*
X1974Y1680D02*
X2008Y1680D01*
X1973Y1679D02*
X2007Y1679D01*
X1972Y1678D02*
X2006Y1678D01*
X1971Y1677D02*
X2005Y1677D01*
X1970Y1676D02*
X2004Y1676D01*
X1969Y1675D02*
X2003Y1675D01*
X1968Y1674D02*
X2002Y1674D01*
X1967Y1673D02*
X2001Y1673D01*
X1966Y1672D02*
X2000Y1672D01*
X1965Y1671D02*
X1999Y1671D01*
X1964Y1670D02*
X1998Y1670D01*
X1963Y1669D02*
X1997Y1669D01*
X1961Y1668D02*
X1996Y1668D01*
X1960Y1667D02*
X1995Y1667D01*
X1959Y1666D02*
X1993Y1666D01*
X1958Y1665D02*
X1992Y1665D01*
X1957Y1664D02*
X1991Y1664D01*
X1956Y1663D02*
X1990Y1663D01*
X1955Y1662D02*
X1989Y1662D01*
X1954Y1661D02*
X1988Y1661D01*
X1953Y1660D02*
X1987Y1660D01*
X1952Y1659D02*
X1986Y1659D01*
X1951Y1658D02*
X1985Y1658D01*
X1950Y1657D02*
X1984Y1657D01*
X1949Y1656D02*
X1983Y1656D01*
X1948Y1655D02*
X1982Y1655D01*
X1947Y1654D02*
X1981Y1654D01*
X1945Y1653D02*
X1980Y1653D01*
X1944Y1652D02*
X1979Y1652D01*
X1943Y1651D02*
X1977Y1651D01*
X1942Y1650D02*
X1976Y1650D01*
X1941Y1649D02*
X1975Y1649D01*
X1940Y1648D02*
X1974Y1648D01*
X1939Y1647D02*
X1973Y1647D01*
X1938Y1646D02*
X1972Y1646D01*
X1937Y1645D02*
X1971Y1645D01*
X1936Y1644D02*
X1970Y1644D01*
X1935Y1643D02*
X1969Y1643D01*
X1934Y1642D02*
X1968Y1642D01*
X1932Y1641D02*
X1967Y1641D01*
X1931Y1640D02*
X1966Y1640D01*
X1930Y1639D02*
X1965Y1639D01*
X1929Y1638D02*
X1964Y1638D01*
X1928Y1637D02*
X1962Y1637D01*
X1927Y1636D02*
X1961Y1636D01*
X1926Y1635D02*
X1960Y1635D01*
X1925Y1634D02*
X1959Y1634D01*
X1924Y1633D02*
X1958Y1633D01*
X1923Y1632D02*
X1957Y1632D01*
X1922Y1631D02*
X1956Y1631D01*
X1921Y1630D02*
X1955Y1630D01*
X1920Y1629D02*
X1954Y1629D01*
X1918Y1628D02*
X1953Y1628D01*
X1917Y1627D02*
X1952Y1627D01*
X1916Y1626D02*
X1951Y1626D01*
X1915Y1625D02*
X1950Y1625D01*
X1914Y1624D02*
X1948Y1624D01*
X1913Y1623D02*
X1947Y1623D01*
X1912Y1622D02*
X1946Y1622D01*
X1911Y1621D02*
X1945Y1621D01*
X1910Y1620D02*
X1944Y1620D01*
X1909Y1619D02*
X1943Y1619D01*
X1908Y1618D02*
X1942Y1618D01*
X1907Y1617D02*
X1941Y1617D01*
X1906Y1616D02*
X1940Y1616D01*
X1904Y1615D02*
X1939Y1615D01*
X1903Y1614D02*
X1938Y1614D01*
X1902Y1613D02*
X1937Y1613D01*
X1901Y1612D02*
X1936Y1612D01*
X1900Y1611D02*
X1934Y1611D01*
X1899Y1610D02*
X1933Y1610D01*
X1898Y1609D02*
X1932Y1609D01*
X1897Y1608D02*
X1931Y1608D01*
X1896Y1607D02*
X1930Y1607D01*
X1895Y1606D02*
X1929Y1606D01*
X1894Y1605D02*
X1928Y1605D01*
X1893Y1604D02*
X1927Y1604D01*
X1891Y1603D02*
X1926Y1603D01*
X1890Y1602D02*
X1925Y1602D01*
X1889Y1601D02*
X1924Y1601D01*
X1888Y1600D02*
X1923Y1600D01*
X1887Y1599D02*
X1922Y1599D01*
X1886Y1598D02*
X1920Y1598D01*
X1885Y1597D02*
X1919Y1597D01*
X1884Y1596D02*
X1918Y1596D01*
X1883Y1595D02*
X1917Y1595D01*
X1882Y1594D02*
X1916Y1594D01*
X1881Y1593D02*
X1915Y1593D01*
X1879Y1592D02*
X1914Y1592D01*
X1878Y1591D02*
X1913Y1591D01*
X1877Y1590D02*
X1912Y1590D01*
X1876Y1589D02*
X1911Y1589D01*
X1875Y1588D02*
X1910Y1588D01*
X1874Y1587D02*
X1909Y1587D01*
X1873Y1586D02*
X1907Y1586D01*
X1872Y1585D02*
X1906Y1585D01*
X1871Y1584D02*
X1905Y1584D01*
X1870Y1583D02*
X1904Y1583D01*
X1869Y1582D02*
X1903Y1582D01*
X1867Y1581D02*
X1902Y1581D01*
X1866Y1580D02*
X1901Y1580D01*
X1865Y1579D02*
X1900Y1579D01*
X1864Y1578D02*
X1899Y1578D01*
X1863Y1577D02*
X1898Y1577D01*
X1862Y1576D02*
X1897Y1576D01*
X1861Y1575D02*
X1895Y1575D01*
X1860Y1574D02*
X1894Y1574D01*
X1859Y1573D02*
X1893Y1573D01*
X1858Y1572D02*
X1892Y1572D01*
X1857Y1571D02*
X1891Y1571D01*
X1855Y1570D02*
X1890Y1570D01*
X1854Y1569D02*
X1889Y1569D01*
X1853Y1568D02*
X1888Y1568D01*
X1852Y1567D02*
X1887Y1567D01*
X1851Y1566D02*
X1886Y1566D01*
X1850Y1565D02*
X1885Y1565D01*
X1849Y1564D02*
X1883Y1564D01*
X1848Y1563D02*
X1882Y1563D01*
X1847Y1562D02*
X1881Y1562D01*
X1846Y1561D02*
X1880Y1561D01*
X1845Y1560D02*
X1879Y1560D01*
X1843Y1559D02*
X1878Y1559D01*
X1842Y1558D02*
X1877Y1558D01*
X1841Y1557D02*
X1876Y1557D01*
X1840Y1556D02*
X1875Y1556D01*
X1839Y1555D02*
X1874Y1555D01*
X1838Y1554D02*
X1872Y1554D01*
X1837Y1553D02*
X1871Y1553D01*
X1836Y1552D02*
X1870Y1552D01*
X1835Y1551D02*
X1869Y1551D01*
X1834Y1550D02*
X1868Y1550D01*
X1833Y1549D02*
X1867Y1549D01*
X1831Y1548D02*
X1866Y1548D01*
X1830Y1547D02*
X1865Y1547D01*
X1829Y1546D02*
X1864Y1546D01*
X1828Y1545D02*
X1863Y1545D01*
X1827Y1544D02*
X1862Y1544D01*
X1826Y1543D02*
X1860Y1543D01*
X1825Y1542D02*
X1859Y1542D01*
X1824Y1541D02*
X1858Y1541D01*
X1823Y1540D02*
X1857Y1540D01*
X1822Y1539D02*
X1856Y1539D01*
X1821Y1538D02*
X1855Y1538D01*
X1819Y1537D02*
X1854Y1537D01*
X1818Y1536D02*
X1853Y1536D01*
X1817Y1535D02*
X1852Y1535D01*
X1816Y1534D02*
X1851Y1534D01*
X1815Y1533D02*
X1850Y1533D01*
X1814Y1532D02*
X1848Y1532D01*
X1813Y1531D02*
X1847Y1531D01*
X1812Y1530D02*
X1846Y1530D01*
X1811Y1529D02*
X1845Y1529D01*
X1810Y1528D02*
X1844Y1528D01*
X1809Y1527D02*
X1843Y1527D01*
X1807Y1526D02*
X1842Y1526D01*
X1806Y1525D02*
X1841Y1525D01*
X1805Y1524D02*
X1840Y1524D01*
X1804Y1523D02*
X1839Y1523D01*
X1803Y1522D02*
X1838Y1522D01*
X1802Y1521D02*
X1836Y1521D01*
X1801Y1520D02*
X1835Y1520D01*
X1800Y1519D02*
X1834Y1519D01*
X1799Y1518D02*
X1833Y1518D01*
X1798Y1517D02*
X1832Y1517D01*
X1796Y1516D02*
X1831Y1516D01*
X1795Y1515D02*
X1830Y1515D01*
X1794Y1514D02*
X1829Y1514D01*
X1793Y1513D02*
X1828Y1513D01*
X1792Y1512D02*
X1827Y1512D01*
X1791Y1511D02*
X1826Y1511D01*
X1790Y1510D02*
X1824Y1510D01*
X1789Y1509D02*
X1823Y1509D01*
X1788Y1508D02*
X1822Y1508D01*
X1787Y1507D02*
X1821Y1507D01*
X1785Y1506D02*
X1820Y1506D01*
X1784Y1505D02*
X1819Y1505D01*
X1783Y1504D02*
X1818Y1504D01*
X1782Y1503D02*
X1817Y1503D01*
X1781Y1502D02*
X1816Y1502D01*
X1780Y1501D02*
X1815Y1501D01*
X1779Y1500D02*
X1814Y1500D01*
X1778Y1499D02*
X1812Y1499D01*
X1777Y1498D02*
X1811Y1498D01*
X1776Y1497D02*
X1810Y1497D01*
X1774Y1496D02*
X1809Y1496D01*
X1773Y1495D02*
X1808Y1495D01*
X1772Y1494D02*
X1807Y1494D01*
X1771Y1493D02*
X1806Y1493D01*
X1770Y1492D02*
X1805Y1492D01*
X1769Y1491D02*
X1804Y1491D01*
X1768Y1490D02*
X1803Y1490D01*
X1767Y1489D02*
X1801Y1489D01*
X1766Y1488D02*
X1800Y1488D01*
X1764Y1487D02*
X1799Y1487D01*
X1763Y1486D02*
X1798Y1486D01*
X1762Y1485D02*
X1797Y1485D01*
X1761Y1484D02*
X1796Y1484D01*
X1760Y1483D02*
X1795Y1483D01*
X1759Y1482D02*
X1794Y1482D01*
X1758Y1481D02*
X1793Y1481D01*
X1757Y1480D02*
X1791Y1480D01*
X1756Y1479D02*
X1790Y1479D01*
X1755Y1478D02*
X1789Y1478D01*
X1753Y1477D02*
X1788Y1477D01*
X1752Y1476D02*
X1787Y1476D01*
X1751Y1475D02*
X1786Y1475D01*
X1750Y1474D02*
X1785Y1474D01*
X1749Y1473D02*
X1784Y1473D01*
X1748Y1472D02*
X1783Y1472D01*
X1747Y1471D02*
X1782Y1471D01*
X1746Y1470D02*
X1780Y1470D01*
X1745Y1469D02*
X1779Y1469D01*
X1743Y1468D02*
X1778Y1468D01*
X1742Y1467D02*
X1777Y1467D01*
X1741Y1466D02*
X1776Y1466D01*
X1740Y1465D02*
X1775Y1465D01*
X1739Y1464D02*
X1774Y1464D01*
X1738Y1463D02*
X1773Y1463D01*
X1737Y1462D02*
X1772Y1462D01*
X1736Y1461D02*
X1770Y1461D01*
X1735Y1460D02*
X1769Y1460D01*
X1734Y1459D02*
X1768Y1459D01*
X1732Y1458D02*
X1767Y1458D01*
X1731Y1457D02*
X1766Y1457D01*
X1730Y1456D02*
X1765Y1456D01*
X1729Y1455D02*
X1764Y1455D01*
X1728Y1454D02*
X1763Y1454D01*
X1727Y1453D02*
X1762Y1453D01*
X1726Y1452D02*
X1761Y1452D01*
X1725Y1451D02*
X1759Y1451D01*
X1724Y1450D02*
X1758Y1450D01*
X1722Y1449D02*
X1757Y1449D01*
X1721Y1448D02*
X1756Y1448D01*
X1720Y1447D02*
X1755Y1447D01*
X1719Y1446D02*
X1754Y1446D01*
X1718Y1445D02*
X1753Y1445D01*
X1717Y1444D02*
X1752Y1444D01*
X1716Y1443D02*
X1751Y1443D01*
X1715Y1442D02*
X1749Y1442D01*
X1714Y1441D02*
X1748Y1441D01*
X1713Y1440D02*
X1747Y1440D01*
X1711Y1439D02*
X1746Y1439D01*
X1710Y1438D02*
X1745Y1438D01*
X1709Y1437D02*
X1744Y1437D01*
X1708Y1436D02*
X1743Y1436D01*
X1707Y1435D02*
X1742Y1435D01*
X1706Y1434D02*
X1741Y1434D01*
X1705Y1433D02*
X1740Y1433D01*
X1704Y1432D02*
X1738Y1432D01*
X1703Y1431D02*
X1737Y1431D01*
X1701Y1430D02*
X1736Y1430D01*
X1700Y1429D02*
X1735Y1429D01*
X1699Y1428D02*
X1734Y1428D01*
X1698Y1427D02*
X1733Y1427D01*
X1697Y1426D02*
X1732Y1426D01*
X1696Y1425D02*
X1731Y1425D01*
X1695Y1424D02*
X1730Y1424D01*
X1694Y1423D02*
X1728Y1423D01*
X1693Y1422D02*
X1727Y1422D01*
X1691Y1421D02*
X1726Y1421D01*
X1690Y1420D02*
X1725Y1420D01*
X1689Y1419D02*
X1724Y1419D01*
X1688Y1418D02*
X1723Y1418D01*
X1687Y1417D02*
X1722Y1417D01*
X1686Y1416D02*
X1721Y1416D01*
X1685Y1415D02*
X1720Y1415D01*
X1684Y1414D02*
X1719Y1414D01*
X1683Y1413D02*
X1717Y1413D01*
X1681Y1412D02*
X1716Y1412D01*
X1680Y1411D02*
X1715Y1411D01*
X1679Y1410D02*
X1714Y1410D01*
X1678Y1409D02*
X1713Y1409D01*
X1677Y1408D02*
X1712Y1408D01*
X1676Y1407D02*
X1711Y1407D01*
X1675Y1406D02*
X1710Y1406D01*
X1674Y1405D02*
X1709Y1405D01*
X1673Y1404D02*
X1707Y1404D01*
X1671Y1403D02*
X1706Y1403D01*
X1670Y1402D02*
X1705Y1402D01*
X1669Y1401D02*
X1704Y1401D01*
X1668Y1400D02*
X1703Y1400D01*
X1667Y1399D02*
X1702Y1399D01*
X1666Y1398D02*
X1701Y1398D01*
X1665Y1397D02*
X1700Y1397D01*
X1664Y1396D02*
X1699Y1396D01*
X1662Y1395D02*
X1697Y1395D01*
X1661Y1394D02*
X1696Y1394D01*
X1660Y1393D02*
X1695Y1393D01*
X1659Y1392D02*
X1694Y1392D01*
X1658Y1391D02*
X1693Y1391D01*
X1657Y1390D02*
X1692Y1390D01*
X1656Y1389D02*
X1691Y1389D01*
X1655Y1388D02*
X1690Y1388D01*
X1654Y1387D02*
X1689Y1387D01*
X1652Y1386D02*
X1687Y1386D01*
X1651Y1385D02*
X1686Y1385D01*
X1650Y1384D02*
X1685Y1384D01*
X1649Y1383D02*
X1684Y1383D01*
X1648Y1382D02*
X1683Y1382D01*
X1647Y1381D02*
X1682Y1381D01*
X1646Y1380D02*
X1681Y1380D01*
X1645Y1379D02*
X1680Y1379D01*
X1643Y1378D02*
X1678Y1378D01*
X1642Y1377D02*
X1677Y1377D01*
X1641Y1376D02*
X1676Y1376D01*
X1640Y1375D02*
X1675Y1375D01*
X1639Y1374D02*
X1674Y1374D01*
X1638Y1373D02*
X1673Y1373D01*
X1637Y1372D02*
X1672Y1372D01*
X1636Y1371D02*
X1671Y1371D01*
X1635Y1370D02*
X1670Y1370D01*
X1633Y1369D02*
X1668Y1369D01*
X1632Y1368D02*
X1667Y1368D01*
X1631Y1367D02*
X1666Y1367D01*
X1630Y1366D02*
X1665Y1366D01*
X1629Y1365D02*
X1664Y1365D01*
X1628Y1364D02*
X1663Y1364D01*
X1627Y1363D02*
X1662Y1363D01*
X1626Y1362D02*
X1661Y1362D01*
X1625Y1361D02*
X1659Y1361D01*
X1623Y1360D02*
X1658Y1360D01*
X1622Y1359D02*
X1657Y1359D01*
X1621Y1358D02*
X1656Y1358D01*
X1620Y1357D02*
X1655Y1357D01*
X1619Y1356D02*
X1654Y1356D01*
X1618Y1355D02*
X1653Y1355D01*
X1617Y1354D02*
X1652Y1354D01*
X1616Y1353D02*
X1651Y1353D01*
X1614Y1352D02*
X1649Y1352D01*
X1613Y1351D02*
X1648Y1351D01*
X1612Y1350D02*
X1647Y1350D01*
X1611Y1349D02*
X1646Y1349D01*
X1610Y1348D02*
X1645Y1348D01*
X1609Y1347D02*
X1644Y1347D01*
X1608Y1346D02*
X1643Y1346D01*
X1607Y1345D02*
X1642Y1345D01*
X1606Y1344D02*
X1641Y1344D01*
X1604Y1343D02*
X1639Y1343D01*
X1603Y1342D02*
X1638Y1342D01*
X1602Y1341D02*
X1637Y1341D01*
X1601Y1340D02*
X1636Y1340D01*
X1600Y1339D02*
X1635Y1339D01*
X1599Y1338D02*
X1634Y1338D01*
X1598Y1337D02*
X1633Y1337D01*
X1597Y1336D02*
X1632Y1336D01*
X1595Y1335D02*
X1630Y1335D01*
X1594Y1334D02*
X1629Y1334D01*
X1593Y1333D02*
X1628Y1333D01*
X1592Y1332D02*
X1627Y1332D01*
X1591Y1331D02*
X1626Y1331D01*
X1590Y1330D02*
X1625Y1330D01*
X1589Y1329D02*
X1624Y1329D01*
X1588Y1328D02*
X1623Y1328D01*
X1586Y1327D02*
X1622Y1327D01*
X1585Y1326D02*
X1620Y1326D01*
X1584Y1325D02*
X1619Y1325D01*
X1583Y1324D02*
X1618Y1324D01*
X1582Y1323D02*
X1617Y1323D01*
X1581Y1322D02*
X1616Y1322D01*
X1580Y1321D02*
X1615Y1321D01*
X1579Y1320D02*
X1614Y1320D01*
X1577Y1319D02*
X1613Y1319D01*
X1576Y1318D02*
X1611Y1318D01*
X1575Y1317D02*
X1610Y1317D01*
X1574Y1316D02*
X1609Y1316D01*
X1573Y1315D02*
X1608Y1315D01*
X1572Y1314D02*
X1607Y1314D01*
X1571Y1313D02*
X1606Y1313D01*
X1570Y1312D02*
X1605Y1312D01*
X1568Y1311D02*
X1604Y1311D01*
X1567Y1310D02*
X1602Y1310D01*
X1566Y1309D02*
X1601Y1309D01*
X1565Y1308D02*
X1600Y1308D01*
X1564Y1307D02*
X1599Y1307D01*
X1563Y1306D02*
X1598Y1306D01*
X1562Y1305D02*
X1597Y1305D01*
X1561Y1304D02*
X1596Y1304D01*
X1559Y1303D02*
X1595Y1303D01*
X1558Y1302D02*
X1593Y1302D01*
X1557Y1301D02*
X1592Y1301D01*
X1556Y1300D02*
X1591Y1300D01*
X1555Y1299D02*
X1590Y1299D01*
X1554Y1298D02*
X1589Y1298D01*
X1553Y1297D02*
X1588Y1297D01*
X1552Y1296D02*
X1587Y1296D01*
X1550Y1295D02*
X1586Y1295D01*
X1549Y1294D02*
X1584Y1294D01*
X1548Y1293D02*
X1583Y1293D01*
X1547Y1292D02*
X1582Y1292D01*
X1546Y1291D02*
X1581Y1291D01*
X1545Y1290D02*
X1580Y1290D01*
X1544Y1289D02*
X1579Y1289D01*
X1543Y1288D02*
X1578Y1288D01*
X1541Y1287D02*
X1577Y1287D01*
X1540Y1286D02*
X1575Y1286D01*
X1539Y1285D02*
X1574Y1285D01*
X1538Y1284D02*
X1573Y1284D01*
X1537Y1283D02*
X1572Y1283D01*
X1536Y1282D02*
X1571Y1282D01*
X1535Y1281D02*
X1570Y1281D01*
X1534Y1280D02*
X1569Y1280D01*
X1532Y1279D02*
X1568Y1279D01*
X1531Y1278D02*
X1566Y1278D01*
X1530Y1277D02*
X1565Y1277D01*
X1529Y1276D02*
X1564Y1276D01*
X1528Y1275D02*
X1563Y1275D01*
X1527Y1274D02*
X1562Y1274D01*
X1526Y1273D02*
X1561Y1273D01*
X1525Y1272D02*
X1560Y1272D01*
X1523Y1271D02*
X1559Y1271D01*
X1522Y1270D02*
X1557Y1270D01*
X1521Y1269D02*
X1556Y1269D01*
X1520Y1268D02*
X1555Y1268D01*
X1519Y1267D02*
X1554Y1267D01*
X1518Y1266D02*
X1553Y1266D01*
X1517Y1265D02*
X1552Y1265D01*
X1516Y1264D02*
X1551Y1264D01*
X1514Y1263D02*
X1550Y1263D01*
X1513Y1262D02*
X1548Y1262D01*
X1512Y1261D02*
X1547Y1261D01*
X1511Y1260D02*
X1546Y1260D01*
X1510Y1259D02*
X1545Y1259D01*
X1509Y1258D02*
X1544Y1258D01*
X1508Y1257D02*
X1543Y1257D01*
X1507Y1256D02*
X1542Y1256D01*
X1505Y1255D02*
X1541Y1255D01*
X1504Y1254D02*
X1539Y1254D01*
X1503Y1253D02*
X1538Y1253D01*
X1502Y1252D02*
X1537Y1252D01*
X1501Y1251D02*
X1536Y1251D01*
X1500Y1250D02*
X1535Y1250D01*
X1499Y1249D02*
X1534Y1249D01*
X1498Y1248D02*
X1533Y1248D01*
X1496Y1247D02*
X1532Y1247D01*
X1495Y1246D02*
X1530Y1246D01*
X1494Y1245D02*
X1529Y1245D01*
X1493Y1244D02*
X1528Y1244D01*
X1492Y1243D02*
X1527Y1243D01*
X1491Y1242D02*
X1526Y1242D01*
X1490Y1241D02*
X1525Y1241D01*
X1488Y1240D02*
X1524Y1240D01*
X1487Y1239D02*
X1523Y1239D01*
X1486Y1238D02*
X1521Y1238D01*
X1485Y1237D02*
X1520Y1237D01*
X1484Y1236D02*
X1519Y1236D01*
X1483Y1235D02*
X1518Y1235D01*
X1482Y1234D02*
X1517Y1234D01*
X1481Y1233D02*
X1516Y1233D01*
X1479Y1232D02*
X1515Y1232D01*
X1478Y1231D02*
X1514Y1231D01*
X1477Y1230D02*
X1512Y1230D01*
X1476Y1229D02*
X1511Y1229D01*
X1475Y1228D02*
X1510Y1228D01*
X1474Y1227D02*
X1509Y1227D01*
X1473Y1226D02*
X1508Y1226D01*
X1471Y1225D02*
X1507Y1225D01*
X1470Y1224D02*
X1506Y1224D01*
X1469Y1223D02*
X1504Y1223D01*
X1468Y1222D02*
X1503Y1222D01*
X1467Y1221D02*
X1502Y1221D01*
X1466Y1220D02*
X1501Y1220D01*
X1465Y1219D02*
X1500Y1219D01*
X1464Y1218D02*
X1499Y1218D01*
X1462Y1217D02*
X1498Y1217D01*
X1461Y1216D02*
X1497Y1216D01*
X1460Y1215D02*
X1495Y1215D01*
X1459Y1214D02*
X1494Y1214D01*
X1458Y1213D02*
X1493Y1213D01*
X1457Y1212D02*
X1492Y1212D01*
X1456Y1211D02*
X1491Y1211D01*
X1454Y1210D02*
X1490Y1210D01*
X1453Y1209D02*
X1489Y1209D01*
X1452Y1208D02*
X1487Y1208D01*
X1451Y1207D02*
X1486Y1207D01*
X1450Y1206D02*
X1485Y1206D01*
X1449Y1205D02*
X1484Y1205D01*
X1448Y1204D02*
X1483Y1204D01*
X1447Y1203D02*
X1482Y1203D01*
X1445Y1202D02*
X1481Y1202D01*
X1444Y1201D02*
X1480Y1201D01*
X1443Y1200D02*
X1478Y1200D01*
X1442Y1199D02*
X1477Y1199D01*
X1441Y1198D02*
X1476Y1198D01*
X1440Y1197D02*
X1475Y1197D01*
X1439Y1196D02*
X1474Y1196D01*
X1437Y1195D02*
X1473Y1195D01*
X1436Y1194D02*
X1472Y1194D01*
X1435Y1193D02*
X1470Y1193D01*
X1434Y1192D02*
X1469Y1192D01*
X1433Y1191D02*
X1468Y1191D01*
X1432Y1190D02*
X1467Y1190D01*
X1431Y1189D02*
X1466Y1189D01*
X1429Y1188D02*
X1465Y1188D01*
X1428Y1187D02*
X1464Y1187D01*
X1427Y1186D02*
X1463Y1186D01*
X1426Y1185D02*
X1461Y1185D01*
X1425Y1184D02*
X1460Y1184D01*
X1424Y1183D02*
X1459Y1183D01*
X1423Y1182D02*
X1458Y1182D01*
X1422Y1181D02*
X1457Y1181D01*
X1420Y1180D02*
X1456Y1180D01*
X1419Y1179D02*
X1455Y1179D01*
X1418Y1178D02*
X1453Y1178D01*
X1417Y1177D02*
X1452Y1177D01*
X1416Y1176D02*
X1451Y1176D01*
X1415Y1175D02*
X1450Y1175D01*
X1414Y1174D02*
X1449Y1174D01*
X1412Y1173D02*
X1448Y1173D01*
X1411Y1172D02*
X1447Y1172D01*
X1410Y1171D02*
X1446Y1171D01*
X1409Y1170D02*
X1444Y1170D01*
X1408Y1169D02*
X1443Y1169D01*
X1407Y1168D02*
X1442Y1168D01*
X1406Y1167D02*
X1441Y1167D01*
X1404Y1166D02*
X1440Y1166D01*
X1403Y1165D02*
X1439Y1165D01*
X1402Y1164D02*
X1438Y1164D01*
X1401Y1163D02*
X1436Y1163D01*
X1400Y1162D02*
X1435Y1162D01*
X1399Y1161D02*
X1434Y1161D01*
X1398Y1160D02*
X1433Y1160D01*
X1396Y1159D02*
X1432Y1159D01*
X1395Y1158D02*
X1431Y1158D01*
X1394Y1157D02*
X1430Y1157D01*
X1393Y1156D02*
X1428Y1156D01*
X1392Y1155D02*
X1427Y1155D01*
X1391Y1154D02*
X1426Y1154D01*
X1390Y1153D02*
X1425Y1153D01*
X1388Y1152D02*
X1424Y1152D01*
X1387Y1151D02*
X1423Y1151D01*
X1386Y1150D02*
X1422Y1150D01*
X1385Y1149D02*
X1420Y1149D01*
X1384Y1148D02*
X1419Y1148D01*
X1383Y1147D02*
X1418Y1147D01*
X1382Y1146D02*
X1417Y1146D01*
X1380Y1145D02*
X1416Y1145D01*
X1379Y1144D02*
X1415Y1144D01*
X1378Y1143D02*
X1414Y1143D01*
X1377Y1142D02*
X1412Y1142D01*
X1376Y1141D02*
X1411Y1141D01*
X1375Y1140D02*
X1410Y1140D01*
X1374Y1139D02*
X1409Y1139D01*
X1372Y1138D02*
X1408Y1138D01*
X1371Y1137D02*
X1407Y1137D01*
X1370Y1136D02*
X1406Y1136D01*
X1369Y1135D02*
X1404Y1135D01*
X1368Y1134D02*
X1403Y1134D01*
X1367Y1133D02*
X1402Y1133D01*
X1366Y1132D02*
X1401Y1132D01*
X1364Y1131D02*
X1400Y1131D01*
X1363Y1130D02*
X1399Y1130D01*
X1362Y1129D02*
X1398Y1129D01*
X1361Y1128D02*
X1396Y1128D01*
X1360Y1127D02*
X1395Y1127D01*
X1359Y1126D02*
X1394Y1126D01*
X1358Y1125D02*
X1393Y1125D01*
X1356Y1124D02*
X1392Y1124D01*
X1355Y1123D02*
X1391Y1123D01*
X1354Y1122D02*
X1390Y1122D01*
X1353Y1121D02*
X1388Y1121D01*
X1352Y1120D02*
X1387Y1120D01*
X1351Y1119D02*
X1386Y1119D01*
X1350Y1118D02*
X1385Y1118D01*
X1348Y1117D02*
X1384Y1117D01*
X1347Y1116D02*
X1383Y1116D01*
X1346Y1115D02*
X1382Y1115D01*
X1345Y1114D02*
X1380Y1114D01*
X1344Y1113D02*
X1379Y1113D01*
X1343Y1112D02*
X1378Y1112D01*
X1342Y1111D02*
X1377Y1111D01*
X1340Y1110D02*
X1376Y1110D01*
X1339Y1109D02*
X1375Y1109D01*
X1338Y1108D02*
X1374Y1108D01*
X1337Y1107D02*
X1372Y1107D01*
X1336Y1106D02*
X1371Y1106D01*
X1335Y1105D02*
X1370Y1105D01*
X1334Y1104D02*
X1369Y1104D01*
X1332Y1103D02*
X1368Y1103D01*
X1331Y1102D02*
X1367Y1102D01*
X1330Y1101D02*
X1366Y1101D01*
X1329Y1100D02*
X1364Y1100D01*
X1328Y1099D02*
X1363Y1099D01*
X1327Y1098D02*
X1362Y1098D01*
X1326Y1097D02*
X1361Y1097D01*
X1324Y1096D02*
X1360Y1096D01*
X1323Y1095D02*
X1359Y1095D01*
X1322Y1094D02*
X1358Y1094D01*
X1321Y1093D02*
X1356Y1093D01*
X1320Y1092D02*
X1355Y1092D01*
X1319Y1091D02*
X1354Y1091D01*
X1318Y1090D02*
X1353Y1090D01*
X1316Y1089D02*
X1352Y1089D01*
X1315Y1088D02*
X1351Y1088D01*
X1314Y1087D02*
X1350Y1087D01*
X1313Y1086D02*
X1348Y1086D01*
X1312Y1085D02*
X1347Y1085D01*
X1311Y1084D02*
X1346Y1084D01*
X1310Y1083D02*
X1345Y1083D01*
X1308Y1082D02*
X1344Y1082D01*
X1307Y1081D02*
X1343Y1081D01*
X1306Y1080D02*
X1342Y1080D01*
X1305Y1079D02*
X1340Y1079D01*
X1304Y1078D02*
X1339Y1078D01*
X1303Y1077D02*
X1338Y1077D01*
X1302Y1076D02*
X1337Y1076D01*
X1300Y1075D02*
X1336Y1075D01*
X1299Y1074D02*
X1335Y1074D01*
X1298Y1073D02*
X1334Y1073D01*
X1297Y1072D02*
X1332Y1072D01*
X1296Y1071D02*
X1331Y1071D01*
X1295Y1070D02*
X1330Y1070D01*
X1294Y1069D02*
X1329Y1069D01*
X1292Y1068D02*
X1328Y1068D01*
X1291Y1067D02*
X1327Y1067D01*
X1290Y1066D02*
X1326Y1066D01*
X1289Y1065D02*
X1324Y1065D01*
X1288Y1064D02*
X1323Y1064D01*
X1287Y1063D02*
X1322Y1063D01*
X1285Y1062D02*
X1321Y1062D01*
X1284Y1061D02*
X1320Y1061D01*
X1283Y1060D02*
X1319Y1060D01*
X1282Y1059D02*
X1318Y1059D01*
X1281Y1058D02*
X1316Y1058D01*
X1280Y1057D02*
X1315Y1057D01*
X1279Y1056D02*
X1314Y1056D01*
X1277Y1055D02*
X1313Y1055D01*
X1276Y1054D02*
X1312Y1054D01*
X1275Y1053D02*
X1311Y1053D01*
X1274Y1052D02*
X1310Y1052D01*
X1273Y1051D02*
X1308Y1051D01*
X1272Y1050D02*
X1307Y1050D01*
X1271Y1049D02*
X1306Y1049D01*
X1269Y1048D02*
X1305Y1048D01*
X1268Y1047D02*
X1304Y1047D01*
X1267Y1046D02*
X1303Y1046D01*
X1266Y1045D02*
X1302Y1045D01*
X1265Y1044D02*
X1300Y1044D01*
X1264Y1043D02*
X1299Y1043D01*
X1262Y1042D02*
X1298Y1042D01*
X1261Y1041D02*
X1297Y1041D01*
X1260Y1040D02*
X1296Y1040D01*
X1259Y1039D02*
X1295Y1039D01*
X1258Y1038D02*
X1293Y1038D01*
X1257Y1037D02*
X1292Y1037D01*
X1256Y1036D02*
X1291Y1036D01*
X1254Y1035D02*
X1290Y1035D01*
X1253Y1034D02*
X1289Y1034D01*
X1252Y1033D02*
X1288Y1033D01*
X1251Y1032D02*
X1287Y1032D01*
X1250Y1031D02*
X1285Y1031D01*
X1249Y1030D02*
X1284Y1030D01*
X1248Y1029D02*
X1283Y1029D01*
X1247Y1028D02*
X1282Y1028D01*
X1246Y1027D02*
X1281Y1027D01*
X1245Y1026D02*
X1280Y1026D01*
X1245Y1025D02*
X1279Y1025D01*
X1245Y1024D02*
X1277Y1024D01*
X1244Y1023D02*
X1276Y1023D01*
X1244Y1022D02*
X1275Y1022D01*
X1244Y1021D02*
X1274Y1021D01*
X1244Y1020D02*
X1273Y1020D01*
X1244Y1019D02*
X1272Y1019D01*
X1244Y1018D02*
X1270Y1018D01*
X1245Y1017D02*
X1269Y1017D01*
X1245Y1016D02*
X1268Y1016D01*
X1245Y1015D02*
X1267Y1015D01*
X1246Y1014D02*
X1266Y1014D01*
X1247Y1013D02*
X1265Y1013D01*
X1248Y1012D02*
X1264Y1012D01*
X1249Y1011D02*
X1262Y1011D01*
X1250Y1010D02*
X1261Y1010D01*
X1253Y1009D02*
X1258Y1009D01*
D02*
G04 End of Copper0*
M02*