G04 MADE WITH FRITZING*
G04 WWW.FRITZING.ORG*
G04 DOUBLE SIDED*
G04 HOLES PLATED*
G04 CONTOUR ON CENTER OF CONTOUR VECTOR*
%ASAXBY*%
%FSLAX23Y23*%
%MOIN*%
%OFA0B0*%
%SFA1.0B1.0*%
%ADD10C,0.074000*%
%ADD11C,0.083307*%
%ADD12C,0.039370*%
%ADD13C,0.024000*%
%ADD14R,0.001000X0.001000*%
%LNCOPPER0*%
G90*
G70*
G54D10*
X2657Y2072D03*
X2957Y2772D03*
X3057Y2072D03*
X2457Y2072D03*
X2857Y2072D03*
X3257Y2072D03*
X2557Y2072D03*
X2757Y2072D03*
X2957Y2072D03*
X3157Y2072D03*
X2457Y2772D03*
X2857Y2772D03*
X2557Y2772D03*
X2657Y2772D03*
X2757Y2772D03*
X2157Y2072D03*
X2257Y2072D03*
X2357Y2072D03*
X2657Y2072D03*
X2957Y2772D03*
X3057Y2072D03*
X2457Y2072D03*
X2857Y2072D03*
X3257Y2072D03*
X2557Y2072D03*
X2757Y2072D03*
X2957Y2072D03*
X3157Y2072D03*
X2457Y2772D03*
X2857Y2772D03*
X2557Y2772D03*
X2657Y2772D03*
X2757Y2772D03*
X2157Y2072D03*
X2257Y2072D03*
X2357Y2072D03*
G54D11*
X2454Y2426D03*
X2554Y2426D03*
X2654Y2426D03*
X2754Y2426D03*
X2854Y2426D03*
X2954Y2426D03*
X2454Y2544D03*
X2554Y2544D03*
X2654Y2544D03*
X2754Y2544D03*
X2854Y2544D03*
X2954Y2544D03*
G54D12*
X5012Y1889D03*
X5410Y154D03*
X858Y1024D03*
X1663Y1023D03*
X3303Y1010D03*
X451Y1019D03*
X1255Y1022D03*
X2093Y1032D03*
X2898Y1032D03*
X3671Y1020D03*
X4077Y1025D03*
X4882Y1025D03*
X4476Y1019D03*
X5281Y1020D03*
G54D13*
X467Y1029D02*
X2130Y2056D01*
D02*
X873Y1035D02*
X2232Y2053D01*
D02*
X1674Y1038D02*
X2438Y2047D01*
D02*
X2101Y1050D02*
X2544Y2044D01*
D02*
X2893Y1050D02*
X2664Y2042D01*
D02*
X3294Y1027D02*
X2771Y2044D01*
D02*
X3659Y1035D02*
X2876Y2047D01*
D02*
X4063Y1038D02*
X2980Y2051D01*
D02*
X4461Y1030D02*
X3082Y2054D01*
D02*
X4866Y1035D02*
X3183Y2056D01*
D02*
X5264Y1029D02*
X3284Y2058D01*
D02*
X2454Y2577D02*
X2456Y2741D01*
D02*
X2454Y2459D02*
X2454Y2512D01*
D02*
X2554Y2577D02*
X2556Y2741D01*
D02*
X2554Y2459D02*
X2554Y2512D01*
D02*
X2654Y2577D02*
X2656Y2741D01*
D02*
X2654Y2459D02*
X2654Y2512D01*
D02*
X2754Y2577D02*
X2756Y2741D01*
D02*
X2754Y2459D02*
X2754Y2512D01*
D02*
X2854Y2577D02*
X2856Y2741D01*
D02*
X2854Y2459D02*
X2854Y2512D01*
D02*
X2954Y2577D02*
X2956Y2741D01*
D02*
X2954Y2459D02*
X2954Y2512D01*
D02*
X5411Y1014D02*
X5410Y173D01*
D02*
X5020Y1872D02*
X5411Y1014D01*
D02*
X4994Y1894D02*
X2985Y2418D01*
G54D14*
X2354Y2084D02*
X2358Y2084D01*
X2351Y2083D02*
X2361Y2083D01*
X2349Y2082D02*
X2362Y2082D01*
X2348Y2081D02*
X2364Y2081D01*
X2347Y2080D02*
X2365Y2080D01*
X2346Y2079D02*
X2365Y2079D01*
X2346Y2078D02*
X2366Y2078D01*
X2345Y2077D02*
X2366Y2077D01*
X2345Y2076D02*
X2367Y2076D01*
X2345Y2075D02*
X2367Y2075D01*
X2345Y2074D02*
X2367Y2074D01*
X2344Y2073D02*
X2367Y2073D01*
X2344Y2072D02*
X2367Y2072D01*
X2344Y2071D02*
X2367Y2071D01*
X2344Y2070D02*
X2367Y2070D01*
X2343Y2069D02*
X2367Y2069D01*
X2343Y2068D02*
X2367Y2068D01*
X2342Y2067D02*
X2367Y2067D01*
X2342Y2066D02*
X2366Y2066D01*
X2342Y2065D02*
X2366Y2065D01*
X2341Y2064D02*
X2366Y2064D01*
X2340Y2063D02*
X2365Y2063D01*
X2340Y2062D02*
X2365Y2062D01*
X2339Y2061D02*
X2365Y2061D01*
X2339Y2060D02*
X2364Y2060D01*
X2338Y2059D02*
X2364Y2059D01*
X2338Y2058D02*
X2364Y2058D01*
X2337Y2057D02*
X2363Y2057D01*
X2337Y2056D02*
X2363Y2056D01*
X2336Y2055D02*
X2362Y2055D01*
X2335Y2054D02*
X2362Y2054D01*
X2335Y2053D02*
X2361Y2053D01*
X2334Y2052D02*
X2361Y2052D01*
X2333Y2051D02*
X2360Y2051D01*
X2333Y2050D02*
X2360Y2050D01*
X2332Y2049D02*
X2359Y2049D01*
X2331Y2048D02*
X2359Y2048D01*
X2331Y2047D02*
X2358Y2047D01*
X2330Y2046D02*
X2358Y2046D01*
X2329Y2045D02*
X2357Y2045D01*
X2329Y2044D02*
X2356Y2044D01*
X2328Y2043D02*
X2356Y2043D01*
X2327Y2042D02*
X2355Y2042D01*
X2326Y2041D02*
X2354Y2041D01*
X2326Y2040D02*
X2354Y2040D01*
X2325Y2039D02*
X2353Y2039D01*
X2324Y2038D02*
X2353Y2038D01*
X2324Y2037D02*
X2352Y2037D01*
X2323Y2036D02*
X2351Y2036D01*
X2322Y2035D02*
X2351Y2035D01*
X2321Y2034D02*
X2350Y2034D01*
X2321Y2033D02*
X2349Y2033D01*
X2320Y2032D02*
X2348Y2032D01*
X2319Y2031D02*
X2348Y2031D01*
X2318Y2030D02*
X2347Y2030D01*
X2318Y2029D02*
X2346Y2029D01*
X2317Y2028D02*
X2346Y2028D01*
X2316Y2027D02*
X2345Y2027D01*
X2315Y2026D02*
X2344Y2026D01*
X2314Y2025D02*
X2344Y2025D01*
X2314Y2024D02*
X2343Y2024D01*
X2313Y2023D02*
X2342Y2023D01*
X2312Y2022D02*
X2341Y2022D01*
X2311Y2021D02*
X2341Y2021D01*
X2310Y2020D02*
X2340Y2020D01*
X2310Y2019D02*
X2339Y2019D01*
X2309Y2018D02*
X2338Y2018D01*
X2308Y2017D02*
X2337Y2017D01*
X2307Y2016D02*
X2337Y2016D01*
X2306Y2015D02*
X2336Y2015D01*
X2305Y2014D02*
X2335Y2014D01*
X2305Y2013D02*
X2334Y2013D01*
X2304Y2012D02*
X2334Y2012D01*
X2303Y2011D02*
X2333Y2011D01*
X2302Y2010D02*
X2332Y2010D01*
X2301Y2009D02*
X2331Y2009D01*
X2300Y2008D02*
X2330Y2008D01*
X2300Y2007D02*
X2330Y2007D01*
X2299Y2006D02*
X2329Y2006D01*
X2298Y2005D02*
X2328Y2005D01*
X2297Y2004D02*
X2327Y2004D01*
X2296Y2003D02*
X2326Y2003D01*
X2295Y2002D02*
X2326Y2002D01*
X2294Y2001D02*
X2325Y2001D01*
X2294Y2000D02*
X2324Y2000D01*
X2293Y1999D02*
X2323Y1999D01*
X2292Y1998D02*
X2322Y1998D01*
X2291Y1997D02*
X2321Y1997D01*
X2290Y1996D02*
X2321Y1996D01*
X2289Y1995D02*
X2320Y1995D01*
X2288Y1994D02*
X2319Y1994D01*
X2287Y1993D02*
X2318Y1993D01*
X2287Y1992D02*
X2317Y1992D01*
X2286Y1991D02*
X2316Y1991D01*
X2285Y1990D02*
X2316Y1990D01*
X2284Y1989D02*
X2315Y1989D01*
X2283Y1988D02*
X2314Y1988D01*
X2282Y1987D02*
X2313Y1987D01*
X2281Y1986D02*
X2312Y1986D01*
X2280Y1985D02*
X2311Y1985D01*
X2279Y1984D02*
X2310Y1984D01*
X2279Y1983D02*
X2310Y1983D01*
X2278Y1982D02*
X2309Y1982D01*
X2277Y1981D02*
X2308Y1981D01*
X2276Y1980D02*
X2307Y1980D01*
X2275Y1979D02*
X2306Y1979D01*
X2274Y1978D02*
X2305Y1978D01*
X2273Y1977D02*
X2304Y1977D01*
X2272Y1976D02*
X2303Y1976D01*
X2271Y1975D02*
X2303Y1975D01*
X2270Y1974D02*
X2302Y1974D01*
X2270Y1973D02*
X2301Y1973D01*
X2269Y1972D02*
X2300Y1972D01*
X2268Y1971D02*
X2299Y1971D01*
X2267Y1970D02*
X2298Y1970D01*
X2266Y1969D02*
X2297Y1969D01*
X2265Y1968D02*
X2296Y1968D01*
X2264Y1967D02*
X2295Y1967D01*
X2263Y1966D02*
X2295Y1966D01*
X2262Y1965D02*
X2294Y1965D01*
X2261Y1964D02*
X2293Y1964D01*
X2260Y1963D02*
X2292Y1963D01*
X2259Y1962D02*
X2291Y1962D01*
X2258Y1961D02*
X2290Y1961D01*
X2258Y1960D02*
X2289Y1960D01*
X2257Y1959D02*
X2288Y1959D01*
X2256Y1958D02*
X2287Y1958D01*
X2255Y1957D02*
X2286Y1957D01*
X2254Y1956D02*
X2286Y1956D01*
X2253Y1955D02*
X2285Y1955D01*
X2252Y1954D02*
X2284Y1954D01*
X2251Y1953D02*
X2283Y1953D01*
X2250Y1952D02*
X2282Y1952D01*
X2249Y1951D02*
X2281Y1951D01*
X2248Y1950D02*
X2280Y1950D01*
X2247Y1949D02*
X2279Y1949D01*
X2246Y1948D02*
X2278Y1948D01*
X2245Y1947D02*
X2277Y1947D01*
X2245Y1946D02*
X2276Y1946D01*
X2244Y1945D02*
X2275Y1945D01*
X2243Y1944D02*
X2274Y1944D01*
X2242Y1943D02*
X2273Y1943D01*
X2241Y1942D02*
X2273Y1942D01*
X2240Y1941D02*
X2272Y1941D01*
X2239Y1940D02*
X2271Y1940D01*
X2238Y1939D02*
X2270Y1939D01*
X2237Y1938D02*
X2269Y1938D01*
X2236Y1937D02*
X2268Y1937D01*
X2235Y1936D02*
X2267Y1936D01*
X2234Y1935D02*
X2266Y1935D01*
X2233Y1934D02*
X2265Y1934D01*
X2232Y1933D02*
X2264Y1933D01*
X2231Y1932D02*
X2263Y1932D01*
X2230Y1931D02*
X2262Y1931D01*
X2229Y1930D02*
X2261Y1930D01*
X2228Y1929D02*
X2260Y1929D01*
X2227Y1928D02*
X2260Y1928D01*
X2226Y1927D02*
X2259Y1927D01*
X2225Y1926D02*
X2258Y1926D01*
X2224Y1925D02*
X2257Y1925D01*
X2223Y1924D02*
X2256Y1924D01*
X2222Y1923D02*
X2255Y1923D01*
X2221Y1922D02*
X2254Y1922D01*
X2221Y1921D02*
X2253Y1921D01*
X2220Y1920D02*
X2252Y1920D01*
X2219Y1919D02*
X2251Y1919D01*
X2218Y1918D02*
X2250Y1918D01*
X2217Y1917D02*
X2249Y1917D01*
X2216Y1916D02*
X2248Y1916D01*
X2215Y1915D02*
X2247Y1915D01*
X2214Y1914D02*
X2246Y1914D01*
X2213Y1913D02*
X2245Y1913D01*
X2212Y1912D02*
X2244Y1912D01*
X2211Y1911D02*
X2243Y1911D01*
X2210Y1910D02*
X2242Y1910D01*
X2209Y1909D02*
X2241Y1909D01*
X2208Y1908D02*
X2240Y1908D01*
X2207Y1907D02*
X2239Y1907D01*
X2206Y1906D02*
X2238Y1906D01*
X2205Y1905D02*
X2237Y1905D01*
X2204Y1904D02*
X2236Y1904D01*
X2203Y1903D02*
X2236Y1903D01*
X2202Y1902D02*
X2235Y1902D01*
X2201Y1901D02*
X2234Y1901D01*
X2200Y1900D02*
X2233Y1900D01*
X2199Y1899D02*
X2232Y1899D01*
X2198Y1898D02*
X2231Y1898D01*
X2197Y1897D02*
X2230Y1897D01*
X2196Y1896D02*
X2229Y1896D01*
X2195Y1895D02*
X2228Y1895D01*
X2194Y1894D02*
X2227Y1894D01*
X2193Y1893D02*
X2226Y1893D01*
X2192Y1892D02*
X2225Y1892D01*
X2191Y1891D02*
X2224Y1891D01*
X2190Y1890D02*
X2223Y1890D01*
X2189Y1889D02*
X2222Y1889D01*
X2188Y1888D02*
X2221Y1888D01*
X2187Y1887D02*
X2220Y1887D01*
X2186Y1886D02*
X2219Y1886D01*
X2185Y1885D02*
X2218Y1885D01*
X2184Y1884D02*
X2217Y1884D01*
X2183Y1883D02*
X2216Y1883D01*
X2182Y1882D02*
X2215Y1882D01*
X2181Y1881D02*
X2214Y1881D01*
X2180Y1880D02*
X2213Y1880D01*
X2179Y1879D02*
X2212Y1879D01*
X2178Y1878D02*
X2211Y1878D01*
X2177Y1877D02*
X2210Y1877D01*
X2176Y1876D02*
X2209Y1876D01*
X2175Y1875D02*
X2208Y1875D01*
X2174Y1874D02*
X2207Y1874D01*
X2173Y1873D02*
X2206Y1873D01*
X2172Y1872D02*
X2205Y1872D01*
X2171Y1871D02*
X2204Y1871D01*
X2170Y1870D02*
X2203Y1870D01*
X2169Y1869D02*
X2202Y1869D01*
X2168Y1868D02*
X2201Y1868D01*
X2167Y1867D02*
X2200Y1867D01*
X2166Y1866D02*
X2199Y1866D01*
X2165Y1865D02*
X2198Y1865D01*
X2164Y1864D02*
X2197Y1864D01*
X2163Y1863D02*
X2196Y1863D01*
X2162Y1862D02*
X2195Y1862D01*
X2161Y1861D02*
X2194Y1861D01*
X2160Y1860D02*
X2193Y1860D01*
X2159Y1859D02*
X2192Y1859D01*
X2158Y1858D02*
X2191Y1858D01*
X2157Y1857D02*
X2190Y1857D01*
X2156Y1856D02*
X2189Y1856D01*
X2155Y1855D02*
X2188Y1855D01*
X2154Y1854D02*
X2187Y1854D01*
X2153Y1853D02*
X2186Y1853D01*
X2152Y1852D02*
X2185Y1852D01*
X2151Y1851D02*
X2184Y1851D01*
X2150Y1850D02*
X2183Y1850D01*
X2149Y1849D02*
X2182Y1849D01*
X2148Y1848D02*
X2181Y1848D01*
X2147Y1847D02*
X2180Y1847D01*
X2146Y1846D02*
X2179Y1846D01*
X2145Y1845D02*
X2178Y1845D01*
X2144Y1844D02*
X2177Y1844D01*
X2143Y1843D02*
X2176Y1843D01*
X2142Y1842D02*
X2175Y1842D01*
X2141Y1841D02*
X2174Y1841D01*
X2140Y1840D02*
X2173Y1840D01*
X2139Y1839D02*
X2172Y1839D01*
X2138Y1838D02*
X2171Y1838D01*
X2137Y1837D02*
X2170Y1837D01*
X2136Y1836D02*
X2169Y1836D01*
X2135Y1835D02*
X2168Y1835D01*
X2134Y1834D02*
X2167Y1834D01*
X2133Y1833D02*
X2166Y1833D01*
X2132Y1832D02*
X2165Y1832D01*
X2131Y1831D02*
X2164Y1831D01*
X2130Y1830D02*
X2163Y1830D01*
X2129Y1829D02*
X2162Y1829D01*
X2128Y1828D02*
X2161Y1828D01*
X2127Y1827D02*
X2160Y1827D01*
X2126Y1826D02*
X2159Y1826D01*
X2125Y1825D02*
X2158Y1825D01*
X2124Y1824D02*
X2157Y1824D01*
X2123Y1823D02*
X2156Y1823D01*
X2122Y1822D02*
X2155Y1822D01*
X2121Y1821D02*
X2154Y1821D01*
X2120Y1820D02*
X2153Y1820D01*
X2118Y1819D02*
X2152Y1819D01*
X2117Y1818D02*
X2151Y1818D01*
X2116Y1817D02*
X2150Y1817D01*
X2115Y1816D02*
X2149Y1816D01*
X2114Y1815D02*
X2148Y1815D01*
X2113Y1814D02*
X2147Y1814D01*
X2112Y1813D02*
X2146Y1813D01*
X2111Y1812D02*
X2145Y1812D01*
X2110Y1811D02*
X2144Y1811D01*
X2109Y1810D02*
X2143Y1810D01*
X2108Y1809D02*
X2142Y1809D01*
X2107Y1808D02*
X2141Y1808D01*
X2106Y1807D02*
X2140Y1807D01*
X2105Y1806D02*
X2139Y1806D01*
X2104Y1805D02*
X2138Y1805D01*
X2103Y1804D02*
X2136Y1804D01*
X2102Y1803D02*
X2135Y1803D01*
X2101Y1802D02*
X2134Y1802D01*
X2100Y1801D02*
X2133Y1801D01*
X2099Y1800D02*
X2132Y1800D01*
X2098Y1799D02*
X2131Y1799D01*
X2097Y1798D02*
X2130Y1798D01*
X2096Y1797D02*
X2129Y1797D01*
X2095Y1796D02*
X2128Y1796D01*
X2094Y1795D02*
X2127Y1795D01*
X2093Y1794D02*
X2126Y1794D01*
X2092Y1793D02*
X2125Y1793D01*
X2091Y1792D02*
X2124Y1792D01*
X2090Y1791D02*
X2123Y1791D01*
X2089Y1790D02*
X2122Y1790D01*
X2088Y1789D02*
X2121Y1789D01*
X2087Y1788D02*
X2120Y1788D01*
X2085Y1787D02*
X2119Y1787D01*
X2084Y1786D02*
X2118Y1786D01*
X2083Y1785D02*
X2117Y1785D01*
X2082Y1784D02*
X2116Y1784D01*
X2081Y1783D02*
X2115Y1783D01*
X2080Y1782D02*
X2114Y1782D01*
X2079Y1781D02*
X2113Y1781D01*
X2078Y1780D02*
X2112Y1780D01*
X2077Y1779D02*
X2111Y1779D01*
X2076Y1778D02*
X2110Y1778D01*
X2075Y1777D02*
X2109Y1777D01*
X2074Y1776D02*
X2108Y1776D01*
X2073Y1775D02*
X2107Y1775D01*
X2072Y1774D02*
X2106Y1774D01*
X2071Y1773D02*
X2105Y1773D01*
X2070Y1772D02*
X2104Y1772D01*
X2069Y1771D02*
X2102Y1771D01*
X2068Y1770D02*
X2101Y1770D01*
X2067Y1769D02*
X2100Y1769D01*
X2066Y1768D02*
X2099Y1768D01*
X2065Y1767D02*
X2098Y1767D01*
X2064Y1766D02*
X2097Y1766D01*
X2062Y1765D02*
X2096Y1765D01*
X2061Y1764D02*
X2095Y1764D01*
X2060Y1763D02*
X2094Y1763D01*
X2059Y1762D02*
X2093Y1762D01*
X2058Y1761D02*
X2092Y1761D01*
X2057Y1760D02*
X2091Y1760D01*
X2056Y1759D02*
X2090Y1759D01*
X2055Y1758D02*
X2089Y1758D01*
X2054Y1757D02*
X2088Y1757D01*
X2053Y1756D02*
X2087Y1756D01*
X2052Y1755D02*
X2086Y1755D01*
X2051Y1754D02*
X2085Y1754D01*
X2050Y1753D02*
X2084Y1753D01*
X2049Y1752D02*
X2083Y1752D01*
X2048Y1751D02*
X2082Y1751D01*
X2047Y1750D02*
X2080Y1750D01*
X2046Y1749D02*
X2079Y1749D01*
X2045Y1748D02*
X2078Y1748D01*
X2044Y1747D02*
X2077Y1747D01*
X2043Y1746D02*
X2076Y1746D01*
X2042Y1745D02*
X2075Y1745D01*
X2040Y1744D02*
X2074Y1744D01*
X2039Y1743D02*
X2073Y1743D01*
X2038Y1742D02*
X2072Y1742D01*
X2037Y1741D02*
X2071Y1741D01*
X2036Y1740D02*
X2070Y1740D01*
X2035Y1739D02*
X2069Y1739D01*
X2034Y1738D02*
X2068Y1738D01*
X2033Y1737D02*
X2067Y1737D01*
X2032Y1736D02*
X2066Y1736D01*
X2031Y1735D02*
X2065Y1735D01*
X2030Y1734D02*
X2064Y1734D01*
X2029Y1733D02*
X2063Y1733D01*
X2028Y1732D02*
X2062Y1732D01*
X2027Y1731D02*
X2061Y1731D01*
X2026Y1730D02*
X2060Y1730D01*
X2025Y1729D02*
X2059Y1729D01*
X2024Y1728D02*
X2057Y1728D01*
X2022Y1727D02*
X2056Y1727D01*
X2021Y1726D02*
X2055Y1726D01*
X2020Y1725D02*
X2054Y1725D01*
X2019Y1724D02*
X2053Y1724D01*
X2018Y1723D02*
X2052Y1723D01*
X2017Y1722D02*
X2051Y1722D01*
X2016Y1721D02*
X2050Y1721D01*
X2015Y1720D02*
X2049Y1720D01*
X2014Y1719D02*
X2048Y1719D01*
X2013Y1718D02*
X2047Y1718D01*
X2012Y1717D02*
X2046Y1717D01*
X2011Y1716D02*
X2045Y1716D01*
X2010Y1715D02*
X2044Y1715D01*
X2009Y1714D02*
X2043Y1714D01*
X2008Y1713D02*
X2042Y1713D01*
X2007Y1712D02*
X2041Y1712D01*
X2006Y1711D02*
X2039Y1711D01*
X2004Y1710D02*
X2038Y1710D01*
X2003Y1709D02*
X2037Y1709D01*
X2002Y1708D02*
X2036Y1708D01*
X2001Y1707D02*
X2035Y1707D01*
X2000Y1706D02*
X2034Y1706D01*
X1999Y1705D02*
X2033Y1705D01*
X1998Y1704D02*
X2032Y1704D01*
X1997Y1703D02*
X2031Y1703D01*
X1996Y1702D02*
X2030Y1702D01*
X1995Y1701D02*
X2029Y1701D01*
X1994Y1700D02*
X2028Y1700D01*
X1993Y1699D02*
X2027Y1699D01*
X1992Y1698D02*
X2026Y1698D01*
X1991Y1697D02*
X2025Y1697D01*
X1990Y1696D02*
X2024Y1696D01*
X1988Y1695D02*
X2023Y1695D01*
X1987Y1694D02*
X2021Y1694D01*
X1986Y1693D02*
X2020Y1693D01*
X1985Y1692D02*
X2019Y1692D01*
X1984Y1691D02*
X2018Y1691D01*
X1983Y1690D02*
X2017Y1690D01*
X1982Y1689D02*
X2016Y1689D01*
X1981Y1688D02*
X2015Y1688D01*
X1980Y1687D02*
X2014Y1687D01*
X1979Y1686D02*
X2013Y1686D01*
X1978Y1685D02*
X2012Y1685D01*
X1977Y1684D02*
X2011Y1684D01*
X1976Y1683D02*
X2010Y1683D01*
X1975Y1682D02*
X2009Y1682D01*
X1974Y1681D02*
X2008Y1681D01*
X1972Y1680D02*
X2007Y1680D01*
X1971Y1679D02*
X2006Y1679D01*
X1970Y1678D02*
X2004Y1678D01*
X1969Y1677D02*
X2003Y1677D01*
X1968Y1676D02*
X2002Y1676D01*
X1967Y1675D02*
X2001Y1675D01*
X1966Y1674D02*
X2000Y1674D01*
X1965Y1673D02*
X1999Y1673D01*
X1964Y1672D02*
X1998Y1672D01*
X1963Y1671D02*
X1997Y1671D01*
X1962Y1670D02*
X1996Y1670D01*
X1961Y1669D02*
X1995Y1669D01*
X1960Y1668D02*
X1994Y1668D01*
X1959Y1667D02*
X1993Y1667D01*
X1957Y1666D02*
X1992Y1666D01*
X1956Y1665D02*
X1991Y1665D01*
X1955Y1664D02*
X1989Y1664D01*
X1954Y1663D02*
X1988Y1663D01*
X1953Y1662D02*
X1987Y1662D01*
X1952Y1661D02*
X1986Y1661D01*
X1951Y1660D02*
X1985Y1660D01*
X1950Y1659D02*
X1984Y1659D01*
X1949Y1658D02*
X1983Y1658D01*
X1948Y1657D02*
X1982Y1657D01*
X1947Y1656D02*
X1981Y1656D01*
X1946Y1655D02*
X1980Y1655D01*
X1945Y1654D02*
X1979Y1654D01*
X1944Y1653D02*
X1978Y1653D01*
X1942Y1652D02*
X1977Y1652D01*
X1941Y1651D02*
X1976Y1651D01*
X1940Y1650D02*
X1974Y1650D01*
X1939Y1649D02*
X1973Y1649D01*
X1938Y1648D02*
X1972Y1648D01*
X1937Y1647D02*
X1971Y1647D01*
X1936Y1646D02*
X1970Y1646D01*
X1935Y1645D02*
X1969Y1645D01*
X1934Y1644D02*
X1968Y1644D01*
X1933Y1643D02*
X1967Y1643D01*
X1932Y1642D02*
X1966Y1642D01*
X1931Y1641D02*
X1965Y1641D01*
X1929Y1640D02*
X1964Y1640D01*
X1928Y1639D02*
X1963Y1639D01*
X1927Y1638D02*
X1962Y1638D01*
X1926Y1637D02*
X1961Y1637D01*
X1925Y1636D02*
X1959Y1636D01*
X1924Y1635D02*
X1958Y1635D01*
X1923Y1634D02*
X1957Y1634D01*
X1922Y1633D02*
X1956Y1633D01*
X1921Y1632D02*
X1955Y1632D01*
X1920Y1631D02*
X1954Y1631D01*
X1919Y1630D02*
X1953Y1630D01*
X1918Y1629D02*
X1952Y1629D01*
X1917Y1628D02*
X1951Y1628D01*
X1915Y1627D02*
X1950Y1627D01*
X1914Y1626D02*
X1949Y1626D01*
X1913Y1625D02*
X1948Y1625D01*
X1912Y1624D02*
X1947Y1624D01*
X1911Y1623D02*
X1945Y1623D01*
X1910Y1622D02*
X1944Y1622D01*
X1909Y1621D02*
X1943Y1621D01*
X1908Y1620D02*
X1942Y1620D01*
X1907Y1619D02*
X1941Y1619D01*
X1906Y1618D02*
X1940Y1618D01*
X1905Y1617D02*
X1939Y1617D01*
X1904Y1616D02*
X1938Y1616D01*
X1902Y1615D02*
X1937Y1615D01*
X1901Y1614D02*
X1936Y1614D01*
X1900Y1613D02*
X1935Y1613D01*
X1899Y1612D02*
X1934Y1612D01*
X1898Y1611D02*
X1932Y1611D01*
X1897Y1610D02*
X1931Y1610D01*
X1896Y1609D02*
X1930Y1609D01*
X1895Y1608D02*
X1929Y1608D01*
X1894Y1607D02*
X1928Y1607D01*
X1893Y1606D02*
X1927Y1606D01*
X1892Y1605D02*
X1926Y1605D01*
X1891Y1604D02*
X1925Y1604D01*
X1889Y1603D02*
X1924Y1603D01*
X1888Y1602D02*
X1923Y1602D01*
X1887Y1601D02*
X1922Y1601D01*
X1886Y1600D02*
X1921Y1600D01*
X1885Y1599D02*
X1920Y1599D01*
X1884Y1598D02*
X1918Y1598D01*
X1883Y1597D02*
X1917Y1597D01*
X1882Y1596D02*
X1916Y1596D01*
X1881Y1595D02*
X1915Y1595D01*
X1880Y1594D02*
X1914Y1594D01*
X1878Y1593D02*
X1913Y1593D01*
X1877Y1592D02*
X1912Y1592D01*
X1876Y1591D02*
X1911Y1591D01*
X1875Y1590D02*
X1910Y1590D01*
X1874Y1589D02*
X1909Y1589D01*
X1873Y1588D02*
X1908Y1588D01*
X1872Y1587D02*
X1906Y1587D01*
X1871Y1586D02*
X1905Y1586D01*
X1870Y1585D02*
X1904Y1585D01*
X1869Y1584D02*
X1903Y1584D01*
X1868Y1583D02*
X1902Y1583D01*
X1866Y1582D02*
X1901Y1582D01*
X1865Y1581D02*
X1900Y1581D01*
X1864Y1580D02*
X1899Y1580D01*
X1863Y1579D02*
X1898Y1579D01*
X1862Y1578D02*
X1897Y1578D01*
X1861Y1577D02*
X1896Y1577D01*
X1860Y1576D02*
X1894Y1576D01*
X1859Y1575D02*
X1893Y1575D01*
X1858Y1574D02*
X1892Y1574D01*
X1857Y1573D02*
X1891Y1573D01*
X1856Y1572D02*
X1890Y1572D01*
X1854Y1571D02*
X1889Y1571D01*
X1853Y1570D02*
X1888Y1570D01*
X1852Y1569D02*
X1887Y1569D01*
X1851Y1568D02*
X1886Y1568D01*
X1850Y1567D02*
X1885Y1567D01*
X1849Y1566D02*
X1884Y1566D01*
X1848Y1565D02*
X1882Y1565D01*
X1847Y1564D02*
X1881Y1564D01*
X1846Y1563D02*
X1880Y1563D01*
X1845Y1562D02*
X1879Y1562D01*
X1844Y1561D02*
X1878Y1561D01*
X1842Y1560D02*
X1877Y1560D01*
X1841Y1559D02*
X1876Y1559D01*
X1840Y1558D02*
X1875Y1558D01*
X1839Y1557D02*
X1874Y1557D01*
X1838Y1556D02*
X1873Y1556D01*
X1837Y1555D02*
X1872Y1555D01*
X1836Y1554D02*
X1870Y1554D01*
X1835Y1553D02*
X1869Y1553D01*
X1834Y1552D02*
X1868Y1552D01*
X1833Y1551D02*
X1867Y1551D01*
X1831Y1550D02*
X1866Y1550D01*
X1830Y1549D02*
X1865Y1549D01*
X1829Y1548D02*
X1864Y1548D01*
X1828Y1547D02*
X1863Y1547D01*
X1827Y1546D02*
X1862Y1546D01*
X1826Y1545D02*
X1861Y1545D01*
X1825Y1544D02*
X1859Y1544D01*
X1824Y1543D02*
X1858Y1543D01*
X1823Y1542D02*
X1857Y1542D01*
X1822Y1541D02*
X1856Y1541D01*
X1821Y1540D02*
X1855Y1540D01*
X1819Y1539D02*
X1854Y1539D01*
X1818Y1538D02*
X1853Y1538D01*
X1817Y1537D02*
X1852Y1537D01*
X1816Y1536D02*
X1851Y1536D01*
X1815Y1535D02*
X1850Y1535D01*
X1814Y1534D02*
X1849Y1534D01*
X1813Y1533D02*
X1847Y1533D01*
X1812Y1532D02*
X1846Y1532D01*
X1811Y1531D02*
X1845Y1531D01*
X1810Y1530D02*
X1844Y1530D01*
X1809Y1529D02*
X1843Y1529D01*
X1807Y1528D02*
X1842Y1528D01*
X1806Y1527D02*
X1841Y1527D01*
X1805Y1526D02*
X1840Y1526D01*
X1804Y1525D02*
X1839Y1525D01*
X1803Y1524D02*
X1838Y1524D01*
X1802Y1523D02*
X1837Y1523D01*
X1801Y1522D02*
X1835Y1522D01*
X1800Y1521D02*
X1834Y1521D01*
X1799Y1520D02*
X1833Y1520D01*
X1798Y1519D02*
X1832Y1519D01*
X1797Y1518D02*
X1831Y1518D01*
X1795Y1517D02*
X1830Y1517D01*
X1794Y1516D02*
X1829Y1516D01*
X1793Y1515D02*
X1828Y1515D01*
X1792Y1514D02*
X1827Y1514D01*
X1791Y1513D02*
X1826Y1513D01*
X1790Y1512D02*
X1825Y1512D01*
X1789Y1511D02*
X1823Y1511D01*
X1788Y1510D02*
X1822Y1510D01*
X1787Y1509D02*
X1821Y1509D01*
X1785Y1508D02*
X1820Y1508D01*
X1784Y1507D02*
X1819Y1507D01*
X1783Y1506D02*
X1818Y1506D01*
X1782Y1505D02*
X1817Y1505D01*
X1781Y1504D02*
X1816Y1504D01*
X1780Y1503D02*
X1815Y1503D01*
X1779Y1502D02*
X1814Y1502D01*
X1778Y1501D02*
X1813Y1501D01*
X1777Y1500D02*
X1811Y1500D01*
X1776Y1499D02*
X1810Y1499D01*
X1774Y1498D02*
X1809Y1498D01*
X1773Y1497D02*
X1808Y1497D01*
X1772Y1496D02*
X1807Y1496D01*
X1771Y1495D02*
X1806Y1495D01*
X1770Y1494D02*
X1805Y1494D01*
X1769Y1493D02*
X1804Y1493D01*
X1768Y1492D02*
X1803Y1492D01*
X1767Y1491D02*
X1801Y1491D01*
X1766Y1490D02*
X1800Y1490D01*
X1764Y1489D02*
X1799Y1489D01*
X1763Y1488D02*
X1798Y1488D01*
X1762Y1487D02*
X1797Y1487D01*
X1761Y1486D02*
X1796Y1486D01*
X1760Y1485D02*
X1795Y1485D01*
X1759Y1484D02*
X1794Y1484D01*
X1758Y1483D02*
X1793Y1483D01*
X1757Y1482D02*
X1792Y1482D01*
X1756Y1481D02*
X1790Y1481D01*
X1755Y1480D02*
X1789Y1480D01*
X1753Y1479D02*
X1788Y1479D01*
X1752Y1478D02*
X1787Y1478D01*
X1751Y1477D02*
X1786Y1477D01*
X1750Y1476D02*
X1785Y1476D01*
X1749Y1475D02*
X1784Y1475D01*
X1748Y1474D02*
X1783Y1474D01*
X1747Y1473D02*
X1782Y1473D01*
X1746Y1472D02*
X1780Y1472D01*
X1745Y1471D02*
X1779Y1471D01*
X1743Y1470D02*
X1778Y1470D01*
X1742Y1469D02*
X1777Y1469D01*
X1741Y1468D02*
X1776Y1468D01*
X1740Y1467D02*
X1775Y1467D01*
X1739Y1466D02*
X1774Y1466D01*
X1738Y1465D02*
X1773Y1465D01*
X1737Y1464D02*
X1772Y1464D01*
X1736Y1463D02*
X1771Y1463D01*
X1735Y1462D02*
X1769Y1462D01*
X1733Y1461D02*
X1768Y1461D01*
X1732Y1460D02*
X1767Y1460D01*
X1731Y1459D02*
X1766Y1459D01*
X1730Y1458D02*
X1765Y1458D01*
X1729Y1457D02*
X1764Y1457D01*
X1728Y1456D02*
X1763Y1456D01*
X1727Y1455D02*
X1762Y1455D01*
X1726Y1454D02*
X1761Y1454D01*
X1725Y1453D02*
X1759Y1453D01*
X1724Y1452D02*
X1758Y1452D01*
X1722Y1451D02*
X1757Y1451D01*
X1721Y1450D02*
X1756Y1450D01*
X1720Y1449D02*
X1755Y1449D01*
X1719Y1448D02*
X1754Y1448D01*
X1718Y1447D02*
X1753Y1447D01*
X1717Y1446D02*
X1752Y1446D01*
X1716Y1445D02*
X1751Y1445D01*
X1715Y1444D02*
X1749Y1444D01*
X1714Y1443D02*
X1748Y1443D01*
X1712Y1442D02*
X1747Y1442D01*
X1711Y1441D02*
X1746Y1441D01*
X1710Y1440D02*
X1745Y1440D01*
X1709Y1439D02*
X1744Y1439D01*
X1708Y1438D02*
X1743Y1438D01*
X1707Y1437D02*
X1742Y1437D01*
X1706Y1436D02*
X1741Y1436D01*
X1705Y1435D02*
X1740Y1435D01*
X1704Y1434D02*
X1738Y1434D01*
X1703Y1433D02*
X1737Y1433D01*
X1701Y1432D02*
X1736Y1432D01*
X1700Y1431D02*
X1735Y1431D01*
X1699Y1430D02*
X1734Y1430D01*
X1698Y1429D02*
X1733Y1429D01*
X1697Y1428D02*
X1732Y1428D01*
X1696Y1427D02*
X1731Y1427D01*
X1695Y1426D02*
X1730Y1426D01*
X1694Y1425D02*
X1728Y1425D01*
X1693Y1424D02*
X1727Y1424D01*
X1691Y1423D02*
X1726Y1423D01*
X1690Y1422D02*
X1725Y1422D01*
X1689Y1421D02*
X1724Y1421D01*
X1688Y1420D02*
X1723Y1420D01*
X1687Y1419D02*
X1722Y1419D01*
X1686Y1418D02*
X1721Y1418D01*
X1685Y1417D02*
X1720Y1417D01*
X1684Y1416D02*
X1719Y1416D01*
X1683Y1415D02*
X1717Y1415D01*
X1681Y1414D02*
X1716Y1414D01*
X1680Y1413D02*
X1715Y1413D01*
X1679Y1412D02*
X1714Y1412D01*
X1678Y1411D02*
X1713Y1411D01*
X1677Y1410D02*
X1712Y1410D01*
X1676Y1409D02*
X1711Y1409D01*
X1675Y1408D02*
X1710Y1408D01*
X1674Y1407D02*
X1709Y1407D01*
X1672Y1406D02*
X1707Y1406D01*
X1671Y1405D02*
X1706Y1405D01*
X1670Y1404D02*
X1705Y1404D01*
X1669Y1403D02*
X1704Y1403D01*
X1668Y1402D02*
X1703Y1402D01*
X1667Y1401D02*
X1702Y1401D01*
X1666Y1400D02*
X1701Y1400D01*
X1665Y1399D02*
X1700Y1399D01*
X1664Y1398D02*
X1699Y1398D01*
X1662Y1397D02*
X1697Y1397D01*
X1661Y1396D02*
X1696Y1396D01*
X1660Y1395D02*
X1695Y1395D01*
X1659Y1394D02*
X1694Y1394D01*
X1658Y1393D02*
X1693Y1393D01*
X1657Y1392D02*
X1692Y1392D01*
X1656Y1391D02*
X1691Y1391D01*
X1655Y1390D02*
X1690Y1390D01*
X1653Y1389D02*
X1688Y1389D01*
X1652Y1388D02*
X1687Y1388D01*
X1651Y1387D02*
X1686Y1387D01*
X1650Y1386D02*
X1685Y1386D01*
X1649Y1385D02*
X1684Y1385D01*
X1648Y1384D02*
X1683Y1384D01*
X1647Y1383D02*
X1682Y1383D01*
X1646Y1382D02*
X1681Y1382D01*
X1645Y1381D02*
X1680Y1381D01*
X1643Y1380D02*
X1678Y1380D01*
X1642Y1379D02*
X1677Y1379D01*
X1641Y1378D02*
X1676Y1378D01*
X1640Y1377D02*
X1675Y1377D01*
X1639Y1376D02*
X1674Y1376D01*
X1638Y1375D02*
X1673Y1375D01*
X1637Y1374D02*
X1672Y1374D01*
X1636Y1373D02*
X1671Y1373D01*
X1634Y1372D02*
X1669Y1372D01*
X1633Y1371D02*
X1668Y1371D01*
X1632Y1370D02*
X1667Y1370D01*
X1631Y1369D02*
X1666Y1369D01*
X1630Y1368D02*
X1665Y1368D01*
X1629Y1367D02*
X1664Y1367D01*
X1628Y1366D02*
X1663Y1366D01*
X1627Y1365D02*
X1662Y1365D01*
X1626Y1364D02*
X1661Y1364D01*
X1624Y1363D02*
X1659Y1363D01*
X1623Y1362D02*
X1658Y1362D01*
X1622Y1361D02*
X1657Y1361D01*
X1621Y1360D02*
X1656Y1360D01*
X1620Y1359D02*
X1655Y1359D01*
X1619Y1358D02*
X1654Y1358D01*
X1618Y1357D02*
X1653Y1357D01*
X1617Y1356D02*
X1652Y1356D01*
X1615Y1355D02*
X1650Y1355D01*
X1614Y1354D02*
X1649Y1354D01*
X1613Y1353D02*
X1648Y1353D01*
X1612Y1352D02*
X1647Y1352D01*
X1611Y1351D02*
X1646Y1351D01*
X1610Y1350D02*
X1645Y1350D01*
X1609Y1349D02*
X1644Y1349D01*
X1608Y1348D02*
X1643Y1348D01*
X1607Y1347D02*
X1642Y1347D01*
X1605Y1346D02*
X1640Y1346D01*
X1604Y1345D02*
X1639Y1345D01*
X1603Y1344D02*
X1638Y1344D01*
X1602Y1343D02*
X1637Y1343D01*
X1601Y1342D02*
X1636Y1342D01*
X1600Y1341D02*
X1635Y1341D01*
X1599Y1340D02*
X1634Y1340D01*
X1598Y1339D02*
X1633Y1339D01*
X1596Y1338D02*
X1631Y1338D01*
X1595Y1337D02*
X1630Y1337D01*
X1594Y1336D02*
X1629Y1336D01*
X1593Y1335D02*
X1628Y1335D01*
X1592Y1334D02*
X1627Y1334D01*
X1591Y1333D02*
X1626Y1333D01*
X1590Y1332D02*
X1625Y1332D01*
X1589Y1331D02*
X1624Y1331D01*
X1587Y1330D02*
X1623Y1330D01*
X1586Y1329D02*
X1621Y1329D01*
X1585Y1328D02*
X1620Y1328D01*
X1584Y1327D02*
X1619Y1327D01*
X1583Y1326D02*
X1618Y1326D01*
X1582Y1325D02*
X1617Y1325D01*
X1581Y1324D02*
X1616Y1324D01*
X1580Y1323D02*
X1615Y1323D01*
X1578Y1322D02*
X1614Y1322D01*
X1577Y1321D02*
X1612Y1321D01*
X1576Y1320D02*
X1611Y1320D01*
X1575Y1319D02*
X1610Y1319D01*
X1574Y1318D02*
X1609Y1318D01*
X1573Y1317D02*
X1608Y1317D01*
X1572Y1316D02*
X1607Y1316D01*
X1571Y1315D02*
X1606Y1315D01*
X1569Y1314D02*
X1605Y1314D01*
X1568Y1313D02*
X1603Y1313D01*
X1567Y1312D02*
X1602Y1312D01*
X1566Y1311D02*
X1601Y1311D01*
X1565Y1310D02*
X1600Y1310D01*
X1564Y1309D02*
X1599Y1309D01*
X1563Y1308D02*
X1598Y1308D01*
X1562Y1307D02*
X1597Y1307D01*
X1560Y1306D02*
X1596Y1306D01*
X1559Y1305D02*
X1594Y1305D01*
X1558Y1304D02*
X1593Y1304D01*
X1557Y1303D02*
X1592Y1303D01*
X1556Y1302D02*
X1591Y1302D01*
X1555Y1301D02*
X1590Y1301D01*
X1554Y1300D02*
X1589Y1300D01*
X1553Y1299D02*
X1588Y1299D01*
X1551Y1298D02*
X1587Y1298D01*
X1550Y1297D02*
X1585Y1297D01*
X1549Y1296D02*
X1584Y1296D01*
X1548Y1295D02*
X1583Y1295D01*
X1547Y1294D02*
X1582Y1294D01*
X1546Y1293D02*
X1581Y1293D01*
X1545Y1292D02*
X1580Y1292D01*
X1544Y1291D02*
X1579Y1291D01*
X1542Y1290D02*
X1578Y1290D01*
X1541Y1289D02*
X1576Y1289D01*
X1540Y1288D02*
X1575Y1288D01*
X1539Y1287D02*
X1574Y1287D01*
X1538Y1286D02*
X1573Y1286D01*
X1537Y1285D02*
X1572Y1285D01*
X1536Y1284D02*
X1571Y1284D01*
X1535Y1283D02*
X1570Y1283D01*
X1533Y1282D02*
X1569Y1282D01*
X1532Y1281D02*
X1567Y1281D01*
X1531Y1280D02*
X1566Y1280D01*
X1530Y1279D02*
X1565Y1279D01*
X1529Y1278D02*
X1564Y1278D01*
X1528Y1277D02*
X1563Y1277D01*
X1527Y1276D02*
X1562Y1276D01*
X1526Y1275D02*
X1561Y1275D01*
X1524Y1274D02*
X1560Y1274D01*
X1523Y1273D02*
X1558Y1273D01*
X1522Y1272D02*
X1557Y1272D01*
X1521Y1271D02*
X1556Y1271D01*
X1520Y1270D02*
X1555Y1270D01*
X1519Y1269D02*
X1554Y1269D01*
X1518Y1268D02*
X1553Y1268D01*
X1517Y1267D02*
X1552Y1267D01*
X1515Y1266D02*
X1551Y1266D01*
X1514Y1265D02*
X1549Y1265D01*
X1513Y1264D02*
X1548Y1264D01*
X1512Y1263D02*
X1547Y1263D01*
X1511Y1262D02*
X1546Y1262D01*
X1510Y1261D02*
X1545Y1261D01*
X1509Y1260D02*
X1544Y1260D01*
X1507Y1259D02*
X1543Y1259D01*
X1506Y1258D02*
X1542Y1258D01*
X1505Y1257D02*
X1540Y1257D01*
X1504Y1256D02*
X1539Y1256D01*
X1503Y1255D02*
X1538Y1255D01*
X1502Y1254D02*
X1537Y1254D01*
X1501Y1253D02*
X1536Y1253D01*
X1500Y1252D02*
X1535Y1252D01*
X1498Y1251D02*
X1534Y1251D01*
X1497Y1250D02*
X1533Y1250D01*
X1496Y1249D02*
X1531Y1249D01*
X1495Y1248D02*
X1530Y1248D01*
X1494Y1247D02*
X1529Y1247D01*
X1493Y1246D02*
X1528Y1246D01*
X1492Y1245D02*
X1527Y1245D01*
X1491Y1244D02*
X1526Y1244D01*
X1489Y1243D02*
X1525Y1243D01*
X1488Y1242D02*
X1524Y1242D01*
X1487Y1241D02*
X1522Y1241D01*
X1486Y1240D02*
X1521Y1240D01*
X1485Y1239D02*
X1520Y1239D01*
X1484Y1238D02*
X1519Y1238D01*
X1483Y1237D02*
X1518Y1237D01*
X1481Y1236D02*
X1517Y1236D01*
X1480Y1235D02*
X1516Y1235D01*
X1479Y1234D02*
X1514Y1234D01*
X1478Y1233D02*
X1513Y1233D01*
X1477Y1232D02*
X1512Y1232D01*
X1476Y1231D02*
X1511Y1231D01*
X1475Y1230D02*
X1510Y1230D01*
X1474Y1229D02*
X1509Y1229D01*
X1472Y1228D02*
X1508Y1228D01*
X1471Y1227D02*
X1507Y1227D01*
X1470Y1226D02*
X1505Y1226D01*
X1469Y1225D02*
X1504Y1225D01*
X1468Y1224D02*
X1503Y1224D01*
X1467Y1223D02*
X1502Y1223D01*
X1466Y1222D02*
X1501Y1222D01*
X1464Y1221D02*
X1500Y1221D01*
X1463Y1220D02*
X1499Y1220D01*
X1462Y1219D02*
X1497Y1219D01*
X1461Y1218D02*
X1496Y1218D01*
X1460Y1217D02*
X1495Y1217D01*
X1459Y1216D02*
X1494Y1216D01*
X1458Y1215D02*
X1493Y1215D01*
X1457Y1214D02*
X1492Y1214D01*
X1455Y1213D02*
X1491Y1213D01*
X1454Y1212D02*
X1490Y1212D01*
X1453Y1211D02*
X1488Y1211D01*
X1452Y1210D02*
X1487Y1210D01*
X1451Y1209D02*
X1486Y1209D01*
X1450Y1208D02*
X1485Y1208D01*
X1449Y1207D02*
X1484Y1207D01*
X1447Y1206D02*
X1483Y1206D01*
X1446Y1205D02*
X1482Y1205D01*
X1445Y1204D02*
X1480Y1204D01*
X1444Y1203D02*
X1479Y1203D01*
X1443Y1202D02*
X1478Y1202D01*
X1442Y1201D02*
X1477Y1201D01*
X1441Y1200D02*
X1476Y1200D01*
X1439Y1199D02*
X1475Y1199D01*
X1438Y1198D02*
X1474Y1198D01*
X1437Y1197D02*
X1473Y1197D01*
X1436Y1196D02*
X1471Y1196D01*
X1435Y1195D02*
X1470Y1195D01*
X1434Y1194D02*
X1469Y1194D01*
X1433Y1193D02*
X1468Y1193D01*
X1432Y1192D02*
X1467Y1192D01*
X1430Y1191D02*
X1466Y1191D01*
X1429Y1190D02*
X1465Y1190D01*
X1428Y1189D02*
X1463Y1189D01*
X1427Y1188D02*
X1462Y1188D01*
X1426Y1187D02*
X1461Y1187D01*
X1425Y1186D02*
X1460Y1186D01*
X1424Y1185D02*
X1459Y1185D01*
X1422Y1184D02*
X1458Y1184D01*
X1421Y1183D02*
X1457Y1183D01*
X1420Y1182D02*
X1455Y1182D01*
X1419Y1181D02*
X1454Y1181D01*
X1418Y1180D02*
X1453Y1180D01*
X1417Y1179D02*
X1452Y1179D01*
X1416Y1178D02*
X1451Y1178D01*
X1415Y1177D02*
X1450Y1177D01*
X1413Y1176D02*
X1449Y1176D01*
X1412Y1175D02*
X1448Y1175D01*
X1411Y1174D02*
X1446Y1174D01*
X1410Y1173D02*
X1445Y1173D01*
X1409Y1172D02*
X1444Y1172D01*
X1408Y1171D02*
X1443Y1171D01*
X1407Y1170D02*
X1442Y1170D01*
X1405Y1169D02*
X1441Y1169D01*
X1404Y1168D02*
X1440Y1168D01*
X1403Y1167D02*
X1438Y1167D01*
X1402Y1166D02*
X1437Y1166D01*
X1401Y1165D02*
X1436Y1165D01*
X1400Y1164D02*
X1435Y1164D01*
X1399Y1163D02*
X1434Y1163D01*
X1397Y1162D02*
X1433Y1162D01*
X1396Y1161D02*
X1432Y1161D01*
X1395Y1160D02*
X1431Y1160D01*
X1394Y1159D02*
X1429Y1159D01*
X1393Y1158D02*
X1428Y1158D01*
X1392Y1157D02*
X1427Y1157D01*
X1391Y1156D02*
X1426Y1156D01*
X1389Y1155D02*
X1425Y1155D01*
X1388Y1154D02*
X1424Y1154D01*
X1387Y1153D02*
X1423Y1153D01*
X1386Y1152D02*
X1421Y1152D01*
X1385Y1151D02*
X1420Y1151D01*
X1384Y1150D02*
X1419Y1150D01*
X1383Y1149D02*
X1418Y1149D01*
X1381Y1148D02*
X1417Y1148D01*
X1380Y1147D02*
X1416Y1147D01*
X1379Y1146D02*
X1415Y1146D01*
X1378Y1145D02*
X1413Y1145D01*
X1377Y1144D02*
X1412Y1144D01*
X1376Y1143D02*
X1411Y1143D01*
X1374Y1142D02*
X1410Y1142D01*
X1373Y1141D02*
X1409Y1141D01*
X1372Y1140D02*
X1408Y1140D01*
X1371Y1139D02*
X1407Y1139D01*
X1370Y1138D02*
X1405Y1138D01*
X1369Y1137D02*
X1404Y1137D01*
X1368Y1136D02*
X1403Y1136D01*
X1366Y1135D02*
X1402Y1135D01*
X1365Y1134D02*
X1401Y1134D01*
X1364Y1133D02*
X1400Y1133D01*
X1363Y1132D02*
X1399Y1132D01*
X1362Y1131D02*
X1397Y1131D01*
X1361Y1130D02*
X1396Y1130D01*
X1360Y1129D02*
X1395Y1129D01*
X1358Y1128D02*
X1394Y1128D01*
X1357Y1127D02*
X1393Y1127D01*
X1356Y1126D02*
X1392Y1126D01*
X1355Y1125D02*
X1391Y1125D01*
X1354Y1124D02*
X1389Y1124D01*
X1353Y1123D02*
X1388Y1123D01*
X1352Y1122D02*
X1387Y1122D01*
X1350Y1121D02*
X1386Y1121D01*
X1349Y1120D02*
X1385Y1120D01*
X1348Y1119D02*
X1384Y1119D01*
X1347Y1118D02*
X1383Y1118D01*
X1346Y1117D02*
X1381Y1117D01*
X1345Y1116D02*
X1380Y1116D01*
X1344Y1115D02*
X1379Y1115D01*
X1342Y1114D02*
X1378Y1114D01*
X1341Y1113D02*
X1377Y1113D01*
X1340Y1112D02*
X1376Y1112D01*
X1339Y1111D02*
X1375Y1111D01*
X1338Y1110D02*
X1373Y1110D01*
X1337Y1109D02*
X1372Y1109D01*
X1336Y1108D02*
X1371Y1108D01*
X1334Y1107D02*
X1370Y1107D01*
X1333Y1106D02*
X1369Y1106D01*
X1332Y1105D02*
X1368Y1105D01*
X1331Y1104D02*
X1367Y1104D01*
X1330Y1103D02*
X1365Y1103D01*
X1329Y1102D02*
X1364Y1102D01*
X1328Y1101D02*
X1363Y1101D01*
X1326Y1100D02*
X1362Y1100D01*
X1325Y1099D02*
X1361Y1099D01*
X1324Y1098D02*
X1360Y1098D01*
X1323Y1097D02*
X1359Y1097D01*
X1322Y1096D02*
X1357Y1096D01*
X1321Y1095D02*
X1356Y1095D01*
X1320Y1094D02*
X1355Y1094D01*
X1318Y1093D02*
X1354Y1093D01*
X1317Y1092D02*
X1353Y1092D01*
X1316Y1091D02*
X1352Y1091D01*
X1315Y1090D02*
X1351Y1090D01*
X1314Y1089D02*
X1349Y1089D01*
X1313Y1088D02*
X1348Y1088D01*
X1312Y1087D02*
X1347Y1087D01*
X1310Y1086D02*
X1346Y1086D01*
X1309Y1085D02*
X1345Y1085D01*
X1308Y1084D02*
X1344Y1084D01*
X1307Y1083D02*
X1343Y1083D01*
X1306Y1082D02*
X1341Y1082D01*
X1305Y1081D02*
X1340Y1081D01*
X1304Y1080D02*
X1339Y1080D01*
X1302Y1079D02*
X1338Y1079D01*
X1301Y1078D02*
X1337Y1078D01*
X1300Y1077D02*
X1336Y1077D01*
X1299Y1076D02*
X1335Y1076D01*
X1298Y1075D02*
X1333Y1075D01*
X1297Y1074D02*
X1332Y1074D01*
X1296Y1073D02*
X1331Y1073D01*
X1294Y1072D02*
X1330Y1072D01*
X1293Y1071D02*
X1329Y1071D01*
X1292Y1070D02*
X1328Y1070D01*
X1291Y1069D02*
X1327Y1069D01*
X1290Y1068D02*
X1325Y1068D01*
X1289Y1067D02*
X1324Y1067D01*
X1288Y1066D02*
X1323Y1066D01*
X1286Y1065D02*
X1322Y1065D01*
X1285Y1064D02*
X1321Y1064D01*
X1284Y1063D02*
X1320Y1063D01*
X1283Y1062D02*
X1318Y1062D01*
X1282Y1061D02*
X1317Y1061D01*
X1281Y1060D02*
X1316Y1060D01*
X1279Y1059D02*
X1315Y1059D01*
X1278Y1058D02*
X1314Y1058D01*
X1277Y1057D02*
X1313Y1057D01*
X1276Y1056D02*
X1312Y1056D01*
X1275Y1055D02*
X1310Y1055D01*
X1274Y1054D02*
X1309Y1054D01*
X1273Y1053D02*
X1308Y1053D01*
X1271Y1052D02*
X1307Y1052D01*
X1270Y1051D02*
X1306Y1051D01*
X1269Y1050D02*
X1305Y1050D01*
X1268Y1049D02*
X1304Y1049D01*
X1267Y1048D02*
X1302Y1048D01*
X1266Y1047D02*
X1301Y1047D01*
X1265Y1046D02*
X1300Y1046D01*
X1263Y1045D02*
X1299Y1045D01*
X1262Y1044D02*
X1298Y1044D01*
X1261Y1043D02*
X1297Y1043D01*
X1260Y1042D02*
X1296Y1042D01*
X1259Y1041D02*
X1294Y1041D01*
X1258Y1040D02*
X1293Y1040D01*
X1256Y1039D02*
X1292Y1039D01*
X1255Y1038D02*
X1291Y1038D01*
X1254Y1037D02*
X1290Y1037D01*
X1253Y1036D02*
X1289Y1036D01*
X1252Y1035D02*
X1287Y1035D01*
X1251Y1034D02*
X1286Y1034D01*
X1250Y1033D02*
X1285Y1033D01*
X1248Y1032D02*
X1284Y1032D01*
X1247Y1031D02*
X1283Y1031D01*
X1246Y1030D02*
X1282Y1030D01*
X1246Y1029D02*
X1281Y1029D01*
X1245Y1028D02*
X1279Y1028D01*
X1244Y1027D02*
X1278Y1027D01*
X1244Y1026D02*
X1277Y1026D01*
X1244Y1025D02*
X1276Y1025D01*
X1243Y1024D02*
X1275Y1024D01*
X1243Y1023D02*
X1274Y1023D01*
X1243Y1022D02*
X1272Y1022D01*
X1243Y1021D02*
X1271Y1021D01*
X1243Y1020D02*
X1270Y1020D01*
X1244Y1019D02*
X1269Y1019D01*
X1244Y1018D02*
X1268Y1018D01*
X1244Y1017D02*
X1267Y1017D01*
X1245Y1016D02*
X1266Y1016D01*
X1246Y1015D02*
X1264Y1015D01*
X1246Y1014D02*
X1263Y1014D01*
X1247Y1013D02*
X1262Y1013D01*
X1249Y1012D02*
X1261Y1012D01*
X1251Y1011D02*
X1259Y1011D01*
D02*
G04 End of Copper0*
M02*