; NON-PLATED HOLES START AT T1
; THROUGH (PLATED) HOLES START AT T100
M48
INCH
T1C0.118110
T100C0.043307
T101C0.040000
T102C0.015748
%
T1
X056638Y001429
X001126Y001035
X056638Y027413
X001126Y027413
T100
X029536Y024263
X026536Y024263
X028536Y024263
X024536Y024263
X025536Y024263
X026536Y025444
X024536Y025444
X027536Y025444
X027536Y024263
X029536Y025444
X028536Y025444
X025536Y025444
T101
X027567Y027720
X024567Y020720
X028567Y020720
X029567Y027720
X025567Y027720
X030567Y020720
X021567Y020720
X029567Y020720
X028567Y027720
X027567Y020720
X022567Y020720
X026567Y027720
X024567Y027720
X026567Y020720
X025567Y020720
X023567Y020720
X032567Y020720
X031567Y020720
T102
X020929Y010324
X050323Y018914
X016622Y010258
X044757Y010189
X008584Y010235
X052808Y010204
X012562Y010201
X028961Y010294
X040772Y010241
X048859Y010256
X054408Y001553
X036721Y010183
X033045Y010113
X004511Y010189
T00
M30
