G04 MADE WITH FRITZING*
G04 WWW.FRITZING.ORG*
G04 DOUBLE SIDED*
G04 HOLES PLATED*
G04 CONTOUR ON CENTER OF CONTOUR VECTOR*
%ASAXBY*%
%FSLAX23Y23*%
%MOIN*%
%OFA0B0*%
%SFA1.0B1.0*%
%ADD10C,0.128110*%
%ADD11C,0.084000*%
%ADD12C,0.093307*%
%ADD13C,0.049370*%
%LNMASK1*%
G90*
G70*
G54D10*
X5664Y143D03*
X5664Y2741D03*
X113Y2741D03*
X113Y104D03*
G54D11*
X2657Y2072D03*
X2957Y2772D03*
X3057Y2072D03*
X2457Y2072D03*
X2857Y2072D03*
X3257Y2072D03*
X2557Y2072D03*
X2757Y2072D03*
X2957Y2072D03*
X3157Y2072D03*
X2457Y2772D03*
X2857Y2772D03*
X2557Y2772D03*
X2657Y2772D03*
X2757Y2772D03*
X2157Y2072D03*
X2257Y2072D03*
X2357Y2072D03*
X2657Y2072D03*
X2957Y2772D03*
X3057Y2072D03*
X2457Y2072D03*
X2857Y2072D03*
X3257Y2072D03*
X2557Y2072D03*
X2757Y2072D03*
X2957Y2072D03*
X3157Y2072D03*
X2457Y2772D03*
X2857Y2772D03*
X2557Y2772D03*
X2657Y2772D03*
X2757Y2772D03*
X2157Y2072D03*
X2257Y2072D03*
X2357Y2072D03*
G54D12*
X2454Y2426D03*
X2554Y2426D03*
X2654Y2426D03*
X2754Y2426D03*
X2854Y2426D03*
X2954Y2426D03*
X2454Y2544D03*
X2554Y2544D03*
X2654Y2544D03*
X2754Y2544D03*
X2854Y2544D03*
X2954Y2544D03*
G54D13*
X5012Y1889D03*
X5410Y154D03*
X858Y1024D03*
X1663Y1023D03*
X3303Y1010D03*
X451Y1019D03*
X1255Y1022D03*
X2093Y1032D03*
X2898Y1032D03*
X3671Y1020D03*
X4077Y1025D03*
X4882Y1025D03*
X4476Y1019D03*
X5281Y1020D03*
G04 End of Mask1*
M02*