; NON-PLATED HOLES START AT T1
; THROUGH (PLATED) HOLES START AT T100
M48
INCH
T1C0.118110
T100C0.015748
T101C0.043307
T102C0.040000
%
T1
X056638Y027413
X001126Y001035
X001126Y027413
X056638Y001429
T100
X044757Y010189
X050124Y018890
X020929Y010324
X033029Y010098
X040772Y010249
X054103Y001542
X012554Y010217
X028976Y010317
X004511Y010189
X052808Y010204
X036705Y010199
X008576Y010235
X016630Y010227
X048820Y010249
T101
X028536Y024263
X029536Y025444
X025536Y024263
X026536Y024263
X029536Y024263
X024536Y025444
X026536Y025444
X024536Y024263
X028536Y025444
X025536Y025444
X027536Y025444
X027536Y024263
T102
X021567Y020720
X029567Y020720
X030567Y020720
X022567Y020720
X025567Y020720
X024567Y027720
X026567Y020720
X025567Y027720
X027567Y020720
X031567Y020720
X028567Y027720
X029567Y027720
X032567Y020720
X024567Y020720
X027567Y027720
X023567Y020720
X026567Y027720
X028567Y020720
T00
M30
